<svg version="1.1" xmlns="http://www.w3.org/2000/svg" viewBox="0 0 1000.4333318074544 1281.180555555556" width="2000.8666636149087" height="2562.361111111112">
  <!-- svg-source:excalidraw -->
  
  <defs>
    <style class="style-fonts">
      @font-face {
        font-family: "Virgil";
        src: url("https://excalidraw.com/Virgil.woff2");
      }
      @font-face {
        font-family: "Cascadia";
        src: url("https://excalidraw.com/Cascadia.woff2");
      }
    </style>
    
  </defs>
  <rect x="0" y="0" width="1000.4333318074544" height="1281.180555555556" fill="#fffce8"></rect><g stroke-opacity="0.8" fill-opacity="0.8" transform="translate(286.94444444444434 10) rotate(0 37.295989990234375 17.5)"><text x="0" y="0" font-family="Virgil, HanziPen SC, Cangnanshoujiti, KaiTi, Segoe UI Emoji" font-size="28px" fill="#1e1e1e" text-anchor="start" style="white-space: pre;" direction="ltr" dominant-baseline="text-before-edge">1 2 3</text></g><g stroke-opacity="0.8" fill-opacity="0.8" stroke-linecap="round" transform="translate(395.7777777777777 151.83333333333337) rotate(0 31.25 29.25)"><path d="M14.63 0 M14.63 0 C27.63 0.18, 39.92 -0.86, 47.88 0 M14.63 0 C22.22 -0.74, 31.19 0.33, 47.88 0 M47.88 0 C56.5 -1.63, 64.05 4.49, 62.5 14.63 M47.88 0 C55.59 -1.21, 64.16 3.62, 62.5 14.63 M62.5 14.63 C62.94 24.34, 60.88 29.19, 62.5 43.88 M62.5 14.63 C62.18 24.68, 62.7 33.44, 62.5 43.88 M62.5 43.88 C62.87 54.77, 59.03 58.63, 47.88 58.5 M62.5 43.88 C64.43 53.94, 55.78 58.04, 47.88 58.5 M47.88 58.5 C39.67 56.85, 31.73 59.4, 14.63 58.5 M47.88 58.5 C37.88 58.68, 27.39 57.51, 14.63 58.5 M14.63 58.5 C6.84 60.11, 1.34 54.94, 0 43.88 M14.63 58.5 C3.73 56.41, -1.27 54.33, 0 43.88 M0 43.88 C-0.41 37.67, -1.6 28.24, 0 14.63 M0 43.88 C-1.1 38.14, 0.43 32.93, 0 14.63 M0 14.63 C-0.61 4.16, 5.34 0.27, 14.63 0 M0 14.63 C1.56 6.73, 5.82 -1.07, 14.63 0" stroke="#1e1e1e" stroke-width="1" fill="none"></path></g><g stroke-opacity="0.8" fill-opacity="0.8" transform="translate(423.233779059516 163.58333333333337) rotate(0 3.7939987182617188 17.5)"><text x="3.7939987182617188" y="0" font-family="Virgil, HanziPen SC, Cangnanshoujiti, KaiTi, Segoe UI Emoji" font-size="28px" fill="#1e1e1e" text-anchor="middle" style="white-space: pre;" direction="ltr" dominant-baseline="text-before-edge">1</text></g><g stroke-opacity="0.8" fill-opacity="0.8" stroke-linecap="round" transform="translate(469.5277777777777 152.08333333333337) rotate(0 31.25 29.25)"><path d="M14.63 0 M14.63 0 C23.45 0.64, 28.05 0.6, 47.88 0 M14.63 0 C26.23 0.33, 38.69 0.78, 47.88 0 M47.88 0 C59.23 0.82, 61.57 6.84, 62.5 14.63 M47.88 0 C59.39 0.95, 61.84 5.91, 62.5 14.63 M62.5 14.63 C64.31 20.5, 64.37 30.18, 62.5 43.88 M62.5 14.63 C62.61 24.94, 62.5 35.98, 62.5 43.88 M62.5 43.88 C61.17 55.03, 56.33 57.97, 47.88 58.5 M62.5 43.88 C64.63 52.64, 58.17 57.77, 47.88 58.5 M47.88 58.5 C36.03 57.91, 21.9 58.3, 14.63 58.5 M47.88 58.5 C36.84 58.97, 25.28 59.39, 14.63 58.5 M14.63 58.5 C5.29 57, -0.39 51.65, 0 43.88 M14.63 58.5 C6.91 57.48, -2.2 51.55, 0 43.88 M0 43.88 C-0.95 34.69, 1.77 26.47, 0 14.63 M0 43.88 C0.85 34.89, 0.42 26.16, 0 14.63 M0 14.63 C-1.32 6.56, 2.99 -0.69, 14.63 0 M0 14.63 C-1.85 3.96, 5.44 -0.73, 14.63 0" stroke="#1e1e1e" stroke-width="1" fill="none"></path></g><g stroke-opacity="0.8" fill-opacity="0.8" transform="translate(490.8097830878363 163.83333333333337) rotate(0 9.967994689941406 17.5)"><text x="9.967994689941406" y="0" font-family="Virgil, HanziPen SC, Cangnanshoujiti, KaiTi, Segoe UI Emoji" font-size="28px" fill="#1e1e1e" text-anchor="middle" style="white-space: pre;" direction="ltr" dominant-baseline="text-before-edge">2</text></g><g stroke-opacity="0.8" fill-opacity="0.8" stroke-linecap="round" transform="translate(545.5277777777777 153.58333333333337) rotate(0 31.25 29.25)"><path d="M14.63 0 M14.63 0 C26.23 -1.5, 42.76 -2.07, 47.88 0 M14.63 0 C23.7 -0.19, 32.19 -0.68, 47.88 0 M47.88 0 C58.23 0.04, 62.95 4.7, 62.5 14.63 M47.88 0 C58.34 1.77, 60.9 4.7, 62.5 14.63 M62.5 14.63 C63.13 23.02, 64.13 28.24, 62.5 43.88 M62.5 14.63 C61.65 22.99, 62.77 30.56, 62.5 43.88 M62.5 43.88 C62.08 52.09, 56.78 57.94, 47.88 58.5 M62.5 43.88 C61.39 51.85, 57.03 57.03, 47.88 58.5 M47.88 58.5 C41.41 59.36, 34.66 57.66, 14.63 58.5 M47.88 58.5 C39.57 58.37, 32.96 58.81, 14.63 58.5 M14.63 58.5 C2.96 60.28, -1.56 54.34, 0 43.88 M14.63 58.5 C3.06 56.47, -2.3 53.84, 0 43.88 M0 43.88 C0.47 36.33, -0.58 29.52, 0 14.63 M0 43.88 C-0.24 36.06, -0.61 27.02, 0 14.63 M0 14.63 C-1.73 3.68, 3.69 0.71, 14.63 0 M0 14.63 C2.24 3.58, 2.95 2.09, 14.63 0" stroke="#1e1e1e" stroke-width="1" fill="none"></path></g><g stroke-opacity="0.8" fill-opacity="0.8" transform="translate(567.2437811957465 165.33333333333337) rotate(0 9.53399658203125 17.5)"><text x="9.53399658203125" y="0" font-family="Virgil, HanziPen SC, Cangnanshoujiti, KaiTi, Segoe UI Emoji" font-size="28px" fill="#1e1e1e" text-anchor="middle" style="white-space: pre;" direction="ltr" dominant-baseline="text-before-edge">3</text></g><g stroke-opacity="0.8" fill-opacity="0.8" stroke-linecap="round" transform="translate(393.81944444444434 424.54166666666686) rotate(0 31.25 29.25)"><path d="M14.63 0 M14.63 0 C22.08 1.79, 32.12 1.03, 47.88 0 M14.63 0 C22.11 -0.37, 30.23 0.57, 47.88 0 M47.88 0 C59.23 1.46, 60.63 6.1, 62.5 14.63 M47.88 0 C55.65 -0.82, 63.06 5.81, 62.5 14.63 M62.5 14.63 C64.43 20.23, 62.52 28.82, 62.5 43.88 M62.5 14.63 C62.41 26.87, 62.07 37.11, 62.5 43.88 M62.5 43.88 C61.01 52.65, 58.79 56.64, 47.88 58.5 M62.5 43.88 C63.72 54.2, 55.82 59.47, 47.88 58.5 M47.88 58.5 C36.11 57.26, 27.93 59.8, 14.63 58.5 M47.88 58.5 C37.15 59.08, 27.45 57.56, 14.63 58.5 M14.63 58.5 C4.17 59.16, 0.33 53.8, 0 43.88 M14.63 58.5 C5.54 57.72, -1.15 54.17, 0 43.88 M0 43.88 C0.94 34.44, 1.02 22.95, 0 14.63 M0 43.88 C-0.71 35.51, -1.12 26.28, 0 14.63 M0 14.63 C0.5 4.15, 6.42 1.48, 14.63 0 M0 14.63 C0.5 4.7, 6.93 0.46, 14.63 0" stroke="#1e1e1e" stroke-width="1" fill="none"></path></g><g stroke-opacity="0.8" fill-opacity="0.8" transform="translate(421.2754457261826 436.29166666666686) rotate(0 3.7939987182617188 17.5)"><text x="3.7939987182617188" y="0" font-family="Virgil, HanziPen SC, Cangnanshoujiti, KaiTi, Segoe UI Emoji" font-size="28px" fill="#1e1e1e" text-anchor="middle" style="white-space: pre;" direction="ltr" dominant-baseline="text-before-edge">1</text></g><g stroke-opacity="0.8" fill-opacity="0.8" stroke-linecap="round" transform="translate(468.56944444444434 345.29166666666686) rotate(0 31.25 29.25)"><path d="M14.63 0 M14.63 0 C25.98 -1.81, 38.3 -1.05, 47.88 0 M14.63 0 C23.37 0.62, 29.59 0.5, 47.88 0 M47.88 0 C55.91 -0.72, 62.98 5.69, 62.5 14.63 M47.88 0 C56.23 1.65, 61.69 6.85, 62.5 14.63 M62.5 14.63 C64.42 22.29, 61.52 27.6, 62.5 43.88 M62.5 14.63 C61.59 24.72, 62.92 34.86, 62.5 43.88 M62.5 43.88 C63.56 54.12, 56.05 59.34, 47.88 58.5 M62.5 43.88 C62.4 51.93, 58.81 56.28, 47.88 58.5 M47.88 58.5 C40.29 60.05, 31.04 57.33, 14.63 58.5 M47.88 58.5 C34.75 58.6, 22.49 58.36, 14.63 58.5 M14.63 58.5 C5.46 57.83, -1 54.1, 0 43.88 M14.63 58.5 C6.92 57.1, -1.42 54.5, 0 43.88 M0 43.88 C-0.18 34.17, -2.1 19.79, 0 14.63 M0 43.88 C0.5 33.77, 1.02 25.13, 0 14.63 M0 14.63 C0.43 4.72, 6.66 0.4, 14.63 0 M0 14.63 C0.3 5.08, 3.73 -0.29, 14.63 0" stroke="#1e1e1e" stroke-width="1" fill="none"></path></g><g stroke-opacity="0.8" fill-opacity="0.8" transform="translate(489.85144975450294 357.04166666666686) rotate(0 9.967994689941406 17.5)"><text x="9.967994689941406" y="0" font-family="Virgil, HanziPen SC, Cangnanshoujiti, KaiTi, Segoe UI Emoji" font-size="28px" fill="#1e1e1e" text-anchor="middle" style="white-space: pre;" direction="ltr" dominant-baseline="text-before-edge">2</text></g><g stroke-opacity="0.8" fill-opacity="0.8" stroke-linecap="round" transform="translate(544.5694444444443 346.79166666666686) rotate(0 31.25 29.25)"><path d="M14.63 0 M14.63 0 C20.6 -0.42, 29.66 1.76, 47.88 0 M14.63 0 C26.17 -0.56, 39.67 0.2, 47.88 0 M47.88 0 C56.41 1.43, 61.8 6.6, 62.5 14.63 M47.88 0 C56.01 -0.22, 62.72 7.12, 62.5 14.63 M62.5 14.63 C63.6 23.65, 60.83 33.45, 62.5 43.88 M62.5 14.63 C63.2 22.23, 61.88 29.76, 62.5 43.88 M62.5 43.88 C62.42 52.15, 58.66 56.57, 47.88 58.5 M62.5 43.88 C60.87 53.31, 58.92 58.55, 47.88 58.5 M47.88 58.5 C37.31 57.6, 22.03 57.57, 14.63 58.5 M47.88 58.5 C37.1 58.19, 25.25 58.77, 14.63 58.5 M14.63 58.5 C6.65 57.29, -1.23 54.39, 0 43.88 M14.63 58.5 C7.11 59.47, 2.1 53.56, 0 43.88 M0 43.88 C0.95 30.61, -0.13 21.23, 0 14.63 M0 43.88 C-0.01 36.09, 0.67 28.66, 0 14.63 M0 14.63 C0.26 5.05, 3.88 -0.26, 14.63 0 M0 14.63 C-2.2 6.92, 5.97 -0.42, 14.63 0" stroke="#1e1e1e" stroke-width="1" fill="none"></path></g><g stroke-opacity="0.8" fill-opacity="0.8" transform="translate(566.2854478624131 358.54166666666686) rotate(0 9.53399658203125 17.5)"><text x="9.53399658203125" y="0" font-family="Virgil, HanziPen SC, Cangnanshoujiti, KaiTi, Segoe UI Emoji" font-size="28px" fill="#1e1e1e" text-anchor="middle" style="white-space: pre;" direction="ltr" dominant-baseline="text-before-edge">3</text></g><g stroke-linecap="round"><g stroke-opacity="0.8" fill-opacity="0.8" transform="translate(508.33333333333326 256.05555555555577) rotate(0 -0.04778140493851879 32.62235965919052)"><path d="M-0.18 -0.68 C-0.03 10.1, 1.29 53.65, 1.64 64.31 M-1.73 1.57 C-1.81 12.61, 0.17 55.5, 0.67 65.93" stroke="#1e1e1e" stroke-width="1" fill="none"></path></g><g stroke-opacity="0.8" fill-opacity="0.8" transform="translate(508.33333333333326 256.05555555555577) rotate(0 -0.04778140493851879 32.62235965919052)"><path d="M-12.01 38.19 C-6.54 48.71, -4.07 59.82, 1.98 65.99 M-10.5 39.13 C-8.61 45.75, -5.52 53.24, 1.29 65.99" stroke="#1e1e1e" stroke-width="1" fill="none"></path></g><g stroke-opacity="0.8" fill-opacity="0.8" transform="translate(508.33333333333326 256.05555555555577) rotate(0 -0.04778140493851879 32.62235965919052)"><path d="M8.49 37.25 C6.54 48.08, 1.58 59.53, 1.98 65.99 M10 38.18 C6.64 44.85, 4.47 52.57, 1.29 65.99" stroke="#1e1e1e" stroke-width="1" fill="none"></path></g></g><mask></mask><g stroke-opacity="0.8" fill-opacity="0.8" stroke-linecap="round" transform="translate(66.45833333333326 645.5138888888893) rotate(0 31.25 29.25)"><path d="M14.63 0 M14.63 0 C22.07 0.39, 29.65 -1.81, 47.88 0 M14.63 0 C24.13 -0.25, 33.9 -0.15, 47.88 0 M47.88 0 C56.46 0.79, 60.59 5.74, 62.5 14.63 M47.88 0 C55.39 0.91, 63.01 6.5, 62.5 14.63 M62.5 14.63 C62.58 23.03, 61 34.57, 62.5 43.88 M62.5 14.63 C62.6 25.98, 61.63 37.21, 62.5 43.88 M62.5 43.88 C62.96 52.14, 56.87 59.85, 47.88 58.5 M62.5 43.88 C60.54 54.35, 59.71 58.35, 47.88 58.5 M47.88 58.5 C38.82 58.72, 30.68 57.16, 14.63 58.5 M47.88 58.5 C36.09 58.05, 26.41 58.41, 14.63 58.5 M14.63 58.5 C6.53 57.46, -0.84 55.26, 0 43.88 M14.63 58.5 C5.12 57.72, -0.46 52.65, 0 43.88 M0 43.88 C-0.3 34.52, -0.56 27.22, 0 14.63 M0 43.88 C0.73 36.9, 0.37 31.09, 0 14.63 M0 14.63 C1.83 5.99, 4.75 -0.05, 14.63 0 M0 14.63 C-0.9 3.33, 4.01 -1.27, 14.63 0" stroke="#1e1e1e" stroke-width="1" fill="none"></path></g><g stroke-opacity="0.8" fill-opacity="0.8" transform="translate(87.74033864339185 657.2638888888893) rotate(0 9.967994689941406 17.5)"><text x="9.967994689941406" y="0" font-family="Virgil, HanziPen SC, Cangnanshoujiti, KaiTi, Segoe UI Emoji" font-size="28px" fill="#1e1e1e" text-anchor="middle" style="white-space: pre;" direction="ltr" dominant-baseline="text-before-edge">2</text></g><g stroke-opacity="0.8" fill-opacity="0.8" stroke-linecap="round" transform="translate(142.45833333333326 647.0138888888893) rotate(0 31.25 29.25)"><path d="M14.63 0 M14.63 0 C24.63 -0.92, 34.86 0.66, 47.88 0 M14.63 0 C22.88 0.48, 31.34 0.52, 47.88 0 M47.88 0 C55.68 0.79, 62.95 6.29, 62.5 14.63 M47.88 0 C57.88 2.11, 60.36 4.66, 62.5 14.63 M62.5 14.63 C63.75 21.34, 60.31 30.65, 62.5 43.88 M62.5 14.63 C62.52 23.75, 61.91 35.02, 62.5 43.88 M62.5 43.88 C60.79 54.25, 59.44 58.37, 47.88 58.5 M62.5 43.88 C61.87 53.22, 58.57 58.51, 47.88 58.5 M47.88 58.5 C38.51 59.32, 28.26 57.15, 14.63 58.5 M47.88 58.5 C40.58 57.92, 31.2 59.25, 14.63 58.5 M14.63 58.5 C5.09 57.83, -0.4 52.78, 0 43.88 M14.63 58.5 C4.53 56.3, -1.08 52.96, 0 43.88 M0 43.88 C-1.38 37.21, -1.65 30.96, 0 14.63 M0 43.88 C0.78 36.84, -0.19 28.66, 0 14.63 M0 14.63 C-0.78 3.53, 4.12 -1.11, 14.63 0 M0 14.63 C-0.99 3.71, 5.41 0.42, 14.63 0" stroke="#1e1e1e" stroke-width="1" fill="none"></path></g><g stroke-opacity="0.8" fill-opacity="0.8" transform="translate(164.174336751302 658.7638888888893) rotate(0 9.53399658203125 17.5)"><text x="9.53399658203125" y="0" font-family="Virgil, HanziPen SC, Cangnanshoujiti, KaiTi, Segoe UI Emoji" font-size="28px" fill="#1e1e1e" text-anchor="middle" style="white-space: pre;" direction="ltr" dominant-baseline="text-before-edge">3</text></g><g stroke-opacity="0.8" fill-opacity="0.8" transform="translate(10 661.8888888888893) rotate(0 3.7939987182617188 17.5)"><text x="0" y="0" font-family="Virgil, HanziPen SC, Cangnanshoujiti, KaiTi, Segoe UI Emoji" font-size="28px" fill="#1e1e1e" text-anchor="start" style="white-space: pre;" direction="ltr" dominant-baseline="text-before-edge">1</text></g><g stroke-opacity="0.8" fill-opacity="0.8" stroke-linecap="round" transform="translate(594.0833333333334 671.0555555555555) rotate(0 31.25 29.25)"><path d="M14.63 0 M14.63 0 C24.05 0.5, 36.1 0.17, 47.88 0 M14.63 0 C22.24 0.39, 30.86 -0.68, 47.88 0 M47.88 0 C59.26 1.39, 62.68 5.05, 62.5 14.63 M47.88 0 C59.53 -1.9, 60.44 4.51, 62.5 14.63 M62.5 14.63 C62.15 22.24, 62.15 25.68, 62.5 43.88 M62.5 14.63 C61.41 23.65, 61.67 33.37, 62.5 43.88 M62.5 43.88 C62.83 54.7, 57.32 58.2, 47.88 58.5 M62.5 43.88 C63.39 54.63, 56.63 59.77, 47.88 58.5 M47.88 58.5 C36.36 59.19, 26.46 59.42, 14.63 58.5 M47.88 58.5 C35.76 57.82, 24.41 59.29, 14.63 58.5 M14.63 58.5 C5.54 59.08, 1.02 53.37, 0 43.88 M14.63 58.5 C7.09 57.65, 0.5 52.85, 0 43.88 M0 43.88 C0.42 36.94, 1.82 26.49, 0 14.63 M0 43.88 C0.34 35.08, -0.85 29.24, 0 14.63 M0 14.63 C0.1 3.23, 6.6 -0.46, 14.63 0 M0 14.63 C-0.61 4.73, 4.83 0.16, 14.63 0" stroke="#1e1e1e" stroke-width="1" fill="none"></path></g><g stroke-opacity="0.8" fill-opacity="0.8" transform="translate(615.365338643392 682.8055555555555) rotate(0 9.967994689941406 17.5)"><text x="9.967994689941406" y="0" font-family="Virgil, HanziPen SC, Cangnanshoujiti, KaiTi, Segoe UI Emoji" font-size="28px" fill="#1e1e1e" text-anchor="middle" style="white-space: pre;" direction="ltr" dominant-baseline="text-before-edge">2</text></g><g stroke-opacity="0.8" fill-opacity="0.8" stroke-linecap="round" transform="translate(672.5833333333334 605.888888888889) rotate(0 31.25 29.25)"><path d="M14.63 0 M14.63 0 C24.25 1.13, 35.16 -0.35, 47.88 0 M14.63 0 C25.95 1, 35.72 0.39, 47.88 0 M47.88 0 C59.28 -1.66, 60.71 4.56, 62.5 14.63 M47.88 0 C55.35 0.47, 62.36 4.4, 62.5 14.63 M62.5 14.63 C62.97 24.45, 63.13 35.51, 62.5 43.88 M62.5 14.63 C62.49 22.41, 62.17 28.97, 62.5 43.88 M62.5 43.88 C63.28 54.5, 56.76 59.61, 47.88 58.5 M62.5 43.88 C63.16 51.49, 59.56 57.82, 47.88 58.5 M47.88 58.5 C38.51 57.33, 27.63 58.66, 14.63 58.5 M47.88 58.5 C41.1 58.99, 34.18 58.57, 14.63 58.5 M14.63 58.5 C6.8 57.76, 0.44 52.95, 0 43.88 M14.63 58.5 C4.91 58.67, 1.36 54.14, 0 43.88 M0 43.88 C-0.93 31.45, 1.46 21.23, 0 14.63 M0 43.88 C0.34 37.14, 1.15 31.81, 0 14.63 M0 14.63 C-0.53 4.75, 4.84 0.14, 14.63 0 M0 14.63 C-1.82 7.13, 4 0.33, 14.63 0" stroke="#1e1e1e" stroke-width="1" fill="none"></path></g><g stroke-opacity="0.8" fill-opacity="0.8" transform="translate(694.2993367513021 617.638888888889) rotate(0 9.53399658203125 17.5)"><text x="9.53399658203125" y="0" font-family="Virgil, HanziPen SC, Cangnanshoujiti, KaiTi, Segoe UI Emoji" font-size="28px" fill="#1e1e1e" text-anchor="middle" style="white-space: pre;" direction="ltr" dominant-baseline="text-before-edge">3</text></g><g stroke-opacity="0.8" fill-opacity="0.8" stroke-linecap="round" transform="translate(594.5833333333333 754.3055555555558) rotate(0 31.25 29.25)"><path d="M14.63 0 M14.63 0 C22.66 1.14, 33.78 1.05, 47.88 0 M14.63 0 C25.33 -1.04, 35.86 0.51, 47.88 0 M47.88 0 C59.03 -0.25, 62.19 3.57, 62.5 14.63 M47.88 0 C58.35 -2.22, 61.46 5.62, 62.5 14.63 M62.5 14.63 C63.93 20.11, 62.44 26.1, 62.5 43.88 M62.5 14.63 C62.23 24.81, 63.14 34.67, 62.5 43.88 M62.5 43.88 C61.79 52.18, 58.27 57.49, 47.88 58.5 M62.5 43.88 C61.44 55.07, 57.16 59.83, 47.88 58.5 M47.88 58.5 C39.06 59.85, 29.4 59.08, 14.63 58.5 M47.88 58.5 C36.85 58.48, 27.87 58.14, 14.63 58.5 M14.63 58.5 C5.32 56.55, -0.84 54.12, 0 43.88 M14.63 58.5 C6.05 56.5, 1.4 54.94, 0 43.88 M0 43.88 C-1.33 31.27, 1.53 23.88, 0 14.63 M0 43.88 C0.37 33.99, -1.1 23.14, 0 14.63 M0 14.63 C-0.19 4.76, 4.36 -0.54, 14.63 0 M0 14.63 C-1.52 5.19, 5.81 1.16, 14.63 0" stroke="#1e1e1e" stroke-width="1" fill="none"></path></g><g stroke-opacity="0.8" fill-opacity="0.8" transform="translate(622.0393346150715 766.0555555555558) rotate(0 3.7939987182617188 17.5)"><text x="3.7939987182617188" y="0" font-family="Virgil, HanziPen SC, Cangnanshoujiti, KaiTi, Segoe UI Emoji" font-size="28px" fill="#1e1e1e" text-anchor="middle" style="white-space: pre;" direction="ltr" dominant-baseline="text-before-edge">1</text></g><g stroke-linecap="round"><g stroke-opacity="0.8" fill-opacity="0.8" transform="translate(434.16666666666663 520.2222222222223) rotate(0 -121.27180672705796 44.07291201429126)"><path d="M-0.79 0.17 C-41.22 15.04, -202.42 74.23, -242.84 88.94 M0.99 -0.79 C-39.52 13.76, -202.69 72.04, -243.53 87.14" stroke="#1e1e1e" stroke-width="1" fill="none"></path></g><g stroke-opacity="0.8" fill-opacity="0.8" transform="translate(434.16666666666663 520.2222222222223) rotate(0 -121.27180672705796 44.07291201429126)"><path d="M-220.25 68.7 C-225.88 73.01, -233.05 77.85, -245.13 87.75 M-221.49 67.78 C-227.02 72.61, -232.02 78.34, -243.38 87.95" stroke="#1e1e1e" stroke-width="1" fill="none"></path></g><g stroke-opacity="0.8" fill-opacity="0.8" transform="translate(434.16666666666663 520.2222222222223) rotate(0 -121.27180672705796 44.07291201429126)"><path d="M-213.26 87.99 C-220.75 86.96, -229.84 86.51, -245.13 87.75 M-214.49 87.07 C-221.9 86.88, -228.71 87.62, -243.38 87.95" stroke="#1e1e1e" stroke-width="1" fill="none"></path></g></g><mask></mask><g stroke-linecap="round"><g stroke-opacity="0.8" fill-opacity="0.8" transform="translate(561.6666666666666 467.7222222222223) rotate(0 41.446789455100316 70.17045381194924)"><path d="M0.49 0.35 C14.24 23.91, 69.75 117.65, 83.61 140.85 M-0.71 -0.51 C12.74 22.76, 68.49 115.65, 82.37 139.18" stroke="#1e1e1e" stroke-width="1" fill="none"></path></g><g stroke-opacity="0.8" fill-opacity="0.8" transform="translate(561.6666666666666 467.7222222222223) rotate(0 41.446789455100316 70.17045381194924)"><path d="M59.71 119.27 C69.51 126.58, 76.4 133.38, 80.46 137.84 M58.19 119.53 C66.52 127.42, 74.91 133.95, 82.43 139.8" stroke="#1e1e1e" stroke-width="1" fill="none"></path></g><g stroke-opacity="0.8" fill-opacity="0.8" transform="translate(561.6666666666666 467.7222222222223) rotate(0 41.446789455100316 70.17045381194924)"><path d="M77.34 108.78 C80.24 120.23, 80.27 131.12, 80.46 137.84 M75.82 109.04 C78.23 120.33, 80.75 130.35, 82.43 139.8" stroke="#1e1e1e" stroke-width="1" fill="none"></path></g></g><mask></mask><g stroke-opacity="0.8" fill-opacity="0.8" stroke-linecap="round" transform="translate(13.250000000000057 977.7222222222223) rotate(0 31.25 29.25)"><path d="M14.63 0 M14.63 0 C23.7 1.12, 31.7 0.73, 47.88 0 M14.63 0 C26.08 0.29, 36.24 0.49, 47.88 0 M47.88 0 C56.71 1.57, 62.31 3.2, 62.5 14.63 M47.88 0 C58.98 -1.73, 62 3.28, 62.5 14.63 M62.5 14.63 C61.07 25.15, 63.82 32.98, 62.5 43.88 M62.5 14.63 C61.94 25.22, 62.58 34.08, 62.5 43.88 M62.5 43.88 C64.25 55.59, 55.82 60.07, 47.88 58.5 M62.5 43.88 C61.12 52.17, 58.83 59.93, 47.88 58.5 M47.88 58.5 C34.89 59.06, 24.29 60.42, 14.63 58.5 M47.88 58.5 C37.43 58.71, 27.09 59.04, 14.63 58.5 M14.63 58.5 C5.56 59.69, -1.84 54.3, 0 43.88 M14.63 58.5 C2.69 58.35, -2.28 55.78, 0 43.88 M0 43.88 C0.5 33.27, 0.75 22.64, 0 14.63 M0 43.88 C0.37 38.62, 0.34 31.74, 0 14.63 M0 14.63 C0.04 5.78, 2.9 -1.27, 14.63 0 M0 14.63 C2.16 6.16, 2.68 0.58, 14.63 0" stroke="#1e1e1e" stroke-width="1" fill="none"></path></g><g stroke-opacity="0.8" fill-opacity="0.8" transform="translate(34.53200531005865 989.4722222222223) rotate(0 9.967994689941406 17.5)"><text x="9.967994689941406" y="0" font-family="Virgil, HanziPen SC, Cangnanshoujiti, KaiTi, Segoe UI Emoji" font-size="28px" fill="#1e1e1e" text-anchor="middle" style="white-space: pre;" direction="ltr" dominant-baseline="text-before-edge">2</text></g><g stroke-opacity="0.8" fill-opacity="0.8" stroke-linecap="round" transform="translate(94.25000000000006 892.5555555555555) rotate(0 31.25 29.25)"><path d="M14.63 0 M14.63 0 C26.98 0.88, 37.2 1.03, 47.88 0 M14.63 0 C24.53 0.68, 35.25 -0.94, 47.88 0 M47.88 0 C58.8 -1.51, 62.06 3.49, 62.5 14.63 M47.88 0 C58.65 -1.52, 61.43 3.45, 62.5 14.63 M62.5 14.63 C63.5 24.91, 62.83 32.1, 62.5 43.88 M62.5 14.63 C63.36 26.38, 61.58 36.96, 62.5 43.88 M62.5 43.88 C61.3 52.36, 58.68 59.74, 47.88 58.5 M62.5 43.88 C63.4 54.24, 58.34 56.52, 47.88 58.5 M47.88 58.5 C37.53 57.19, 24.74 59.15, 14.63 58.5 M47.88 58.5 C36.62 59.37, 23.76 59.11, 14.63 58.5 M14.63 58.5 C2.97 58.37, -1.98 55.5, 0 43.88 M14.63 58.5 C5.59 58.05, 0.21 54.13, 0 43.88 M0 43.88 C-1.84 37.53, -0.97 30.09, 0 14.63 M0 43.88 C-0.12 32.67, -1.14 19.92, 0 14.63 M0 14.63 C1.87 5.99, 2.96 0.5, 14.63 0 M0 14.63 C-0.99 4.17, 4.79 1, 14.63 0" stroke="#1e1e1e" stroke-width="1" fill="none"></path></g><g stroke-opacity="0.8" fill-opacity="0.8" transform="translate(115.9660034179688 904.3055555555555) rotate(0 9.53399658203125 17.5)"><text x="9.53399658203125" y="0" font-family="Virgil, HanziPen SC, Cangnanshoujiti, KaiTi, Segoe UI Emoji" font-size="28px" fill="#1e1e1e" text-anchor="middle" style="white-space: pre;" direction="ltr" dominant-baseline="text-before-edge">3</text></g><g stroke-linecap="round"><g stroke-opacity="0.8" fill-opacity="0.8" transform="translate(138.33333333333337 743.5555555555555) rotate(0 -0.6228208593589244 57.62671816971465)"><path d="M-0.77 0.96 C-1.19 20.28, -1.09 96.14, -1.44 114.84 M1.02 0.42 C0.38 19.48, -2 94.15, -2.27 113.06" stroke="#1e1e1e" stroke-width="1" fill="none"></path></g><g stroke-opacity="0.8" fill-opacity="0.8" transform="translate(138.33333333333337 743.5555555555555) rotate(0 -0.6228208593589244 57.62671816971465)"><path d="M-10.24 85.01 C-7.27 93.75, -6.39 105.53, -2.07 111.25 M-12.55 85.13 C-8.22 92.55, -6.57 100.84, -2.67 112.66" stroke="#1e1e1e" stroke-width="1" fill="none"></path></g><g stroke-opacity="0.8" fill-opacity="0.8" transform="translate(138.33333333333337 743.5555555555555) rotate(0 -0.6228208593589244 57.62671816971465)"><path d="M10.27 85.51 C5.3 93.92, -1.78 105.5, -2.07 111.25 M7.96 85.63 C6.11 92.84, 1.56 100.98, -2.67 112.66" stroke="#1e1e1e" stroke-width="1" fill="none"></path></g></g><mask></mask><g stroke-linecap="round"><g stroke-opacity="0.8" fill-opacity="0.8" transform="translate(609.9999999999999 863.5555555555555) rotate(0 -40.50017875619227 58.62125984020531)"><path d="M0.06 -1.01 C-13.6 18.56, -67.63 98.42, -81.06 118.26 M-1.36 1.07 C-14.74 20.24, -65.53 97.39, -78.91 116.53" stroke="#1e1e1e" stroke-width="1" fill="none"></path></g><g stroke-opacity="0.8" fill-opacity="0.8" transform="translate(609.9999999999999 863.5555555555555) rotate(0 -40.50017875619227 58.62125984020531)"><path d="M-73.31 85.66 C-72.9 97.37, -76.04 110.11, -80.27 118.15 M-70.85 87.89 C-75.21 99.48, -77.45 109.93, -78.29 115.98" stroke="#1e1e1e" stroke-width="1" fill="none"></path></g><g stroke-opacity="0.8" fill-opacity="0.8" transform="translate(609.9999999999999 863.5555555555555) rotate(0 -40.50017875619227 58.62125984020531)"><path d="M-56.31 97.15 C-62.33 104.58, -71.84 113.01, -80.27 118.15 M-53.85 99.38 C-64.86 106.46, -73.68 112.45, -78.29 115.98" stroke="#1e1e1e" stroke-width="1" fill="none"></path></g></g><mask></mask><g stroke-linecap="round"><g stroke-opacity="0.8" fill-opacity="0.8" transform="translate(691.6666666666666 874.3888888888888) rotate(0 42.90241173707881 57.82072388144843)"><path d="M0.1 -0.59 C14.54 18.72, 72.64 96.88, 87.12 116.23 M-1.31 1.72 C12.9 20.61, 71.43 95.16, 85.97 114.31" stroke="#1e1e1e" stroke-width="1" fill="none"></path></g><g stroke-opacity="0.8" fill-opacity="0.8" transform="translate(691.6666666666666 874.3888888888888) rotate(0 42.90241173707881 57.82072388144843)"><path d="M59.63 97.66 C69.9 102.81, 77.23 110.07, 86.74 116.08 M59.61 98.09 C68.04 102.82, 77.27 107.81, 85.66 114.23" stroke="#1e1e1e" stroke-width="1" fill="none"></path></g><g stroke-opacity="0.8" fill-opacity="0.8" transform="translate(691.6666666666666 874.3888888888888) rotate(0 42.90241173707881 57.82072388144843)"><path d="M75.86 85.1 C80.69 94.52, 82.53 106.02, 86.74 116.08 M75.85 85.53 C79.03 94.26, 83.13 103.22, 85.66 114.23" stroke="#1e1e1e" stroke-width="1" fill="none"></path></g></g><mask></mask><g stroke-opacity="0.8" fill-opacity="0.8" stroke-linecap="round" transform="translate(511.3333333333335 1046.7638888888887) rotate(0 31.25 29.25)"><path d="M14.63 0 M14.63 0 C29.24 1.45, 39.81 1.8, 47.88 0 M14.63 0 C25.74 -0.26, 38.94 -0.38, 47.88 0 M47.88 0 C59.37 -0.7, 63.79 4.39, 62.5 14.63 M47.88 0 C56.01 1.88, 63.84 3.7, 62.5 14.63 M62.5 14.63 C62.41 25.79, 61.08 34.67, 62.5 43.88 M62.5 14.63 C62.03 25.73, 62.59 37.75, 62.5 43.88 M62.5 43.88 C63.03 53.79, 55.96 60.24, 47.88 58.5 M62.5 43.88 C61.88 52.74, 59.44 58.38, 47.88 58.5 M47.88 58.5 C37.68 60.01, 26.14 57.07, 14.63 58.5 M47.88 58.5 C36.07 58.96, 23.43 59.2, 14.63 58.5 M14.63 58.5 C4.69 58.31, 1.97 53.01, 0 43.88 M14.63 58.5 C4.09 59.97, 2.05 55.54, 0 43.88 M0 43.88 C0.02 32.82, 1.18 19.23, 0 14.63 M0 43.88 C-0.46 38.25, -0.75 33, 0 14.63 M0 14.63 C-1.95 5.21, 4.38 -1.41, 14.63 0 M0 14.63 C-1.13 5.2, 3.53 -0.62, 14.63 0" stroke="#1e1e1e" stroke-width="1" fill="none"></path></g><g stroke-opacity="0.8" fill-opacity="0.8" transform="translate(533.0493367513022 1058.5138888888887) rotate(0 9.53399658203125 17.5)"><text x="9.53399658203125" y="0" font-family="Virgil, HanziPen SC, Cangnanshoujiti, KaiTi, Segoe UI Emoji" font-size="28px" fill="#1e1e1e" text-anchor="middle" style="white-space: pre;" direction="ltr" dominant-baseline="text-before-edge">3</text></g><g stroke-opacity="0.8" fill-opacity="0.8" stroke-linecap="round" transform="translate(433.3333333333335 1195.1805555555557) rotate(0 31.25 29.25)"><path d="M14.63 0 M14.63 0 C28.47 0.92, 40.37 -2.3, 47.88 0 M14.63 0 C24.96 -0.26, 34.19 -0.15, 47.88 0 M47.88 0 C56.22 1.64, 63.66 3.85, 62.5 14.63 M47.88 0 C58.53 1.14, 62.64 4.61, 62.5 14.63 M62.5 14.63 C63.87 24.83, 62.09 34.98, 62.5 43.88 M62.5 14.63 C62.81 23.45, 61.71 32.97, 62.5 43.88 M62.5 43.88 C61.96 52.86, 59.21 58.4, 47.88 58.5 M62.5 43.88 C63.5 53.63, 58.25 59.92, 47.88 58.5 M47.88 58.5 C37.05 57.69, 22.18 59.59, 14.63 58.5 M47.88 58.5 C35.72 58.7, 24.73 58.48, 14.63 58.5 M14.63 58.5 C4.19 59.78, 1.78 55.29, 0 43.88 M14.63 58.5 C7.12 59.12, 1.93 53.74, 0 43.88 M0 43.88 C-2.18 34.99, 1.71 23.93, 0 14.63 M0 43.88 C-0.79 34.6, -0.06 24.29, 0 14.63 M0 14.63 C-0.98 5.16, 3.7 -0.54, 14.63 0 M0 14.63 C-2.28 3.44, 6.15 2.12, 14.63 0" stroke="#1e1e1e" stroke-width="1" fill="none"></path></g><g stroke-opacity="0.8" fill-opacity="0.8" transform="translate(460.78933461507177 1206.9305555555557) rotate(0 3.7939987182617188 17.5)"><text x="3.7939987182617188" y="0" font-family="Virgil, HanziPen SC, Cangnanshoujiti, KaiTi, Segoe UI Emoji" font-size="28px" fill="#1e1e1e" text-anchor="middle" style="white-space: pre;" direction="ltr" dominant-baseline="text-before-edge">1</text></g><g stroke-opacity="0.8" fill-opacity="0.8" transform="translate(427.5000000000001 1070.2222222222222) rotate(0 9.967994689941406 17.5)"><text x="0" y="0" font-family="Virgil, HanziPen SC, Cangnanshoujiti, KaiTi, Segoe UI Emoji" font-size="28px" fill="#1e1e1e" text-anchor="start" style="white-space: pre;" direction="ltr" dominant-baseline="text-before-edge">2</text></g><g stroke-opacity="0.8" fill-opacity="0.8" stroke-linecap="round" transform="translate(775.3333333333334 1129.4305555555557) rotate(0 31.25 29.25)"><path d="M14.63 0 M14.63 0 C28.1 -0.67, 39.59 1.47, 47.88 0 M14.63 0 C27.18 0.62, 41.35 0.19, 47.88 0 M47.88 0 C57.65 0, 60.56 4.04, 62.5 14.63 M47.88 0 C59.2 -0.11, 62.63 4.61, 62.5 14.63 M62.5 14.63 C60.57 26.2, 61.16 37.9, 62.5 43.88 M62.5 14.63 C62.84 26.31, 62.62 36.25, 62.5 43.88 M62.5 43.88 C64.48 53.03, 58.59 58.02, 47.88 58.5 M62.5 43.88 C64.63 52.71, 58.77 58.66, 47.88 58.5 M47.88 58.5 C35.61 57.03, 25.38 58.24, 14.63 58.5 M47.88 58.5 C39.69 57.71, 33.62 58.05, 14.63 58.5 M14.63 58.5 C4.28 59.29, -1.48 54.97, 0 43.88 M14.63 58.5 C4.07 59.76, -0.82 55.81, 0 43.88 M0 43.88 C1.43 32.92, -1.72 22.99, 0 14.63 M0 43.88 C0.29 36.05, -0.44 27.5, 0 14.63 M0 14.63 C1.57 3.03, 3.16 1.94, 14.63 0 M0 14.63 C2.2 5.84, 4.96 -1.17, 14.63 0" stroke="#1e1e1e" stroke-width="1" fill="none"></path></g><g stroke-opacity="0.8" fill-opacity="0.8" transform="translate(796.615338643392 1141.1805555555557) rotate(0 9.967994689941406 17.5)"><text x="9.967994689941406" y="0" font-family="Virgil, HanziPen SC, Cangnanshoujiti, KaiTi, Segoe UI Emoji" font-size="28px" fill="#1e1e1e" text-anchor="middle" style="white-space: pre;" direction="ltr" dominant-baseline="text-before-edge">2</text></g><g stroke-opacity="0.8" fill-opacity="0.8" stroke-linecap="round" transform="translate(770.5000000000001 1055.0972222222226) rotate(0 31.25 29.25)"><path d="M14.63 0 M14.63 0 C25.45 -1.47, 32.64 -1.07, 47.88 0 M14.63 0 C26.65 -0.06, 37.68 -0.48, 47.88 0 M47.88 0 C58.99 -0.1, 62.61 4.65, 62.5 14.63 M47.88 0 C59.17 -1.78, 61.94 2.92, 62.5 14.63 M62.5 14.63 C63.92 26.13, 62.47 34.86, 62.5 43.88 M62.5 14.63 C63.46 24.85, 62.96 35.43, 62.5 43.88 M62.5 43.88 C64.35 52.83, 58.62 58.64, 47.88 58.5 M62.5 43.88 C63.1 51.69, 58.42 56.86, 47.88 58.5 M47.88 58.5 C38.9 60.19, 32.13 56.59, 14.63 58.5 M47.88 58.5 C39.64 58.8, 31.25 59.08, 14.63 58.5 M14.63 58.5 C4.18 59.6, -0.72 55.53, 0 43.88 M14.63 58.5 C5.5 56.34, 0.18 54.95, 0 43.88 M0 43.88 C0.14 36.89, 0.89 30.89, 0 14.63 M0 43.88 C0.92 32.05, -0.72 23.04, 0 14.63 M0 14.63 C1.91 5.72, 4.95 -1.01, 14.63 0 M0 14.63 C2.05 6.2, 6.96 -0.74, 14.63 0" stroke="#1e1e1e" stroke-width="1" fill="none"></path></g><g stroke-opacity="0.8" fill-opacity="0.8" transform="translate(792.2160034179689 1066.8472222222226) rotate(0 9.53399658203125 17.5)"><text x="9.53399658203125" y="0" font-family="Virgil, HanziPen SC, Cangnanshoujiti, KaiTi, Segoe UI Emoji" font-size="28px" fill="#1e1e1e" text-anchor="middle" style="white-space: pre;" direction="ltr" dominant-baseline="text-before-edge">3</text></g><g stroke-opacity="0.8" fill-opacity="0.8" stroke-linecap="round" transform="translate(775.8333333333334 1212.680555555556) rotate(0 31.25 29.25)"><path d="M14.63 0 M14.63 0 C23.82 1.74, 30.92 0.15, 47.88 0 M14.63 0 C25.28 0.09, 34.62 0.02, 47.88 0 M47.88 0 C58.97 -1.55, 62.01 3.17, 62.5 14.63 M47.88 0 C58.59 -1.29, 64.55 6.7, 62.5 14.63 M62.5 14.63 C63.71 25.41, 61.41 38.56, 62.5 43.88 M62.5 14.63 C63.57 22.13, 63.14 30.49, 62.5 43.88 M62.5 43.88 C63.02 51.94, 58.32 57.08, 47.88 58.5 M62.5 43.88 C60.68 52.68, 57.2 56.62, 47.88 58.5 M47.88 58.5 C33.76 58.72, 21.55 57.6, 14.63 58.5 M47.88 58.5 C36.24 59.27, 24.95 59.68, 14.63 58.5 M14.63 58.5 C5.42 56.62, 0.16 54.78, 0 43.88 M14.63 58.5 C3.28 56.21, -1.99 53.45, 0 43.88 M0 43.88 C1.37 34.49, 1.39 28.57, 0 14.63 M0 43.88 C1.21 38.23, 0.29 31.23, 0 14.63 M0 14.63 C1.78 6.03, 6.69 -0.64, 14.63 0 M0 14.63 C-0.91 6.51, 6.78 1.73, 14.63 0" stroke="#1e1e1e" stroke-width="1" fill="none"></path></g><g stroke-opacity="0.8" fill-opacity="0.8" transform="translate(803.2893346150717 1224.430555555556) rotate(0 3.7939987182617188 17.5)"><text x="3.7939987182617188" y="0" font-family="Virgil, HanziPen SC, Cangnanshoujiti, KaiTi, Segoe UI Emoji" font-size="28px" fill="#1e1e1e" text-anchor="middle" style="white-space: pre;" direction="ltr" dominant-baseline="text-before-edge">1</text></g><g stroke-opacity="0.8" fill-opacity="0.8" transform="translate(659.1666666666666 178.55555555555577) rotate(0 28 17.5)"><text x="0" y="0" font-family="Virgil, HanziPen SC, Cangnanshoujiti, KaiTi, Segoe UI Emoji" font-size="28px" fill="#1e1e1e" text-anchor="start" style="white-space: pre;" direction="ltr" dominant-baseline="text-before-edge">超始</text></g><g stroke-opacity="0.8" fill-opacity="0.8" transform="translate(635.8333333333334 383.55555555555577) rotate(0 31.79399871826172 17.5)"><text x="0" y="0" font-family="Virgil, HanziPen SC, Cangnanshoujiti, KaiTi, Segoe UI Emoji" font-size="28px" fill="#1e1e1e" text-anchor="start" style="white-space: pre;" direction="ltr" dominant-baseline="text-before-edge">1入栈</text></g><g stroke-opacity="0.8" fill-opacity="0.8" transform="translate(252.3726679484048 660.2222222222223) rotate(0 31.79399871826172 17.5)"><text x="0" y="0" font-family="Virgil, HanziPen SC, Cangnanshoujiti, KaiTi, Segoe UI Emoji" font-size="28px" fill="#1e1e1e" text-anchor="start" style="white-space: pre;" direction="ltr" dominant-baseline="text-before-edge">1出栈</text></g><g stroke-opacity="0.8" fill-opacity="0.8" transform="translate(824.8726679484049 679.3888888888893) rotate(0 37.967994689941406 17.5)"><text x="0" y="0" font-family="Virgil, HanziPen SC, Cangnanshoujiti, KaiTi, Segoe UI Emoji" font-size="28px" fill="#1e1e1e" text-anchor="start" style="white-space: pre;" direction="ltr" dominant-baseline="text-before-edge">2入栈</text></g><g stroke-opacity="0.8" fill-opacity="0.8" transform="translate(217.3726679484049 895.2222222222223) rotate(0 37.967994689941406 17.5)"><text x="0" y="0" font-family="Virgil, HanziPen SC, Cangnanshoujiti, KaiTi, Segoe UI Emoji" font-size="28px" fill="#1e1e1e" text-anchor="start" style="white-space: pre;" direction="ltr" dominant-baseline="text-before-edge">2入栈</text></g><g stroke-opacity="0.8" fill-opacity="0.8" transform="translate(538.6986719767252 1151.0555555555557) rotate(0 37.967994689941406 17.5)"><text x="0" y="0" font-family="Virgil, HanziPen SC, Cangnanshoujiti, KaiTi, Segoe UI Emoji" font-size="28px" fill="#1e1e1e" text-anchor="start" style="white-space: pre;" direction="ltr" dominant-baseline="text-before-edge">2出栈</text></g><g stroke-opacity="0.8" fill-opacity="0.8" transform="translate(915.3653386433919 1043.5555555555557) rotate(0 37.53399658203125 17.5)"><text x="0" y="0" font-family="Virgil, HanziPen SC, Cangnanshoujiti, KaiTi, Segoe UI Emoji" font-size="28px" fill="#1e1e1e" text-anchor="start" style="white-space: pre;" direction="ltr" dominant-baseline="text-before-edge">3入栈</text></g></svg>