<svg version="1.1" xmlns="http://www.w3.org/2000/svg" viewBox="0 0 454.814814471649 274.25" width="909.629628943298" height="548.5">
  <!-- svg-source:excalidraw -->
  
  <defs>
    <style class="style-fonts">
      @font-face {
        font-family: "Virgil";
        src: url("https://excalidraw.com/Virgil.woff2");
      }
      @font-face {
        font-family: "Cascadia";
        src: url("https://excalidraw.com/Cascadia.woff2");
      }
    </style>
    
  </defs>
  <rect x="0" y="0" width="454.814814471649" height="274.25" fill="#fffce8"></rect><g stroke-opacity="0.8" fill-opacity="0.8" stroke-linecap="round" transform="translate(59.064814471649015 119.375) rotate(0 45.25 17.75)"><path d="M2.36 2.05 C2.36 2.05, 2.36 2.05, 2.36 2.05 M2.36 2.05 C2.36 2.05, 2.36 2.05, 2.36 2.05 M0.79 9.96 C2.61 6.5, 5.15 2.63, 9.32 0.15 M0.79 9.96 C3.73 5.95, 7.89 2.25, 9.32 0.15 M1.18 15.6 C5.99 8.96, 11.23 5.61, 14.3 0.51 M1.18 15.6 C4.22 10.63, 8.31 7.83, 14.3 0.51 M1.58 21.25 C5.31 16.7, 9.93 8.58, 19.95 0.12 M1.58 21.25 C7.31 15.94, 12.07 8.06, 19.95 0.12 M1.32 27.64 C10.84 16.38, 17.08 8.66, 24.93 0.48 M1.32 27.64 C10.21 16.95, 18.62 7.01, 24.93 0.48 M2.37 32.53 C10.99 23.09, 15.05 16.04, 30.58 0.08 M2.37 32.53 C8.79 25.31, 14.45 18.54, 30.58 0.08 M5.39 35.16 C12 27.44, 18.32 17.48, 35.56 0.44 M5.39 35.16 C13.62 24.7, 22.93 14.42, 35.56 0.44 M10.37 35.52 C18.12 29.28, 21.17 23, 40.55 0.8 M10.37 35.52 C20.11 25.72, 29.27 14.56, 40.55 0.8 M16.02 35.12 C28.58 23.22, 37.95 8.41, 46.19 0.41 M16.02 35.12 C22.74 27.71, 30.27 18.53, 46.19 0.41 M21 35.48 C29.01 26.5, 37.44 17.34, 51.18 0.77 M21 35.48 C28.74 24.91, 38.2 16.49, 51.18 0.77 M26.65 35.09 C40.09 21.2, 49.46 10.5, 56.82 0.37 M26.65 35.09 C36.73 24.52, 47.54 12.87, 56.82 0.37 M31.63 35.45 C40.84 21.69, 55.08 9.04, 61.81 0.73 M31.63 35.45 C39.44 26.08, 47.59 17, 61.81 0.73 M36.62 35.81 C48.33 24.71, 59.96 9.93, 67.46 0.34 M36.62 35.81 C44.41 26.15, 53.19 15.93, 67.46 0.34 M42.26 35.41 C51.37 24.46, 61.82 10.57, 72.44 0.7 M42.26 35.41 C52.2 25.33, 59.73 15.56, 72.44 0.7 M47.25 35.77 C57.41 23.98, 71.18 7.73, 77.43 1.06 M47.25 35.77 C58.69 22.63, 69.22 11.18, 77.43 1.06 M52.89 35.38 C61.05 26.31, 68.38 19.62, 83.07 0.66 M52.89 35.38 C60.59 27.84, 67.62 18.13, 83.07 0.66 M57.88 35.74 C64.48 26.31, 74.53 18.15, 87.4 1.78 M57.88 35.74 C64.62 28.32, 70.82 20.12, 87.4 1.78 M63.52 35.34 C72.74 25.39, 80.87 14.49, 89.77 5.16 M63.52 35.34 C70.83 25.62, 79 18.43, 89.77 5.16 M68.51 35.71 C75.6 23.72, 87.27 16.96, 92.78 7.78 M68.51 35.71 C75.48 26.48, 83.76 19.57, 92.78 7.78 M73.5 36.07 C80.02 29.51, 83.38 22.74, 93.18 13.42 M73.5 36.07 C78.08 30.71, 83.53 24.35, 93.18 13.42 M79.14 35.67 C82.19 29.21, 88.21 28.05, 92.92 19.82 M79.14 35.67 C83.86 30.24, 89.33 22.85, 92.92 19.82 M83.47 36.79 C87.28 33.33, 90.03 28.86, 92.66 26.22 M83.47 36.79 C85.53 33.96, 88.44 31.67, 92.66 26.22" stroke="#a5d8ff" stroke-width="0.5" fill="none"></path><path d="M8.88 0 M8.88 0 C24.13 -1.17, 40.9 -0.74, 81.63 0 M8.88 0 C25 -0.5, 42.33 0.92, 81.63 0 M81.63 0 C85.95 -0.63, 90.97 1.46, 90.5 8.88 M81.63 0 C89.48 1.71, 91.26 1.49, 90.5 8.88 M90.5 8.88 C90.88 13.38, 90.29 18.19, 90.5 26.63 M90.5 8.88 C90.82 15.37, 90.53 22.94, 90.5 26.63 M90.5 26.63 C92.27 32.62, 88.58 35.85, 81.63 35.5 M90.5 26.63 C91.97 31.46, 85.47 35.75, 81.63 35.5 M81.63 35.5 C55.42 34.89, 31.93 35.4, 8.88 35.5 M81.63 35.5 C52.71 34.61, 23.85 34.66, 8.88 35.5 M8.88 35.5 C3.61 36.78, 0.49 34.24, 0 26.63 M8.88 35.5 C3.34 37.24, -1.36 30.78, 0 26.63 M0 26.63 C1.22 18.42, 0.62 11.69, 0 8.88 M0 26.63 C0.66 23.13, 0.07 18.93, 0 8.88 M0 8.88 C-0.91 2.1, 2.06 -0.32, 8.88 0 M0 8.88 C-0.03 3.31, 4.28 0.73, 8.88 0" stroke="#1e1e1e" stroke-width="1" fill="none"></path></g><g stroke-opacity="0.8" fill-opacity="0.8" stroke-linecap="round" transform="translate(59.814814471649015 154.625) rotate(0 45.25 17.75)"><path d="M2.36 2.05 C2.36 2.05, 2.36 2.05, 2.36 2.05 M2.36 2.05 C2.36 2.05, 2.36 2.05, 2.36 2.05 M0.79 9.96 C3.25 7.72, 4.93 4.8, 9.32 0.15 M0.79 9.96 C2.51 7.38, 5.09 4.69, 9.32 0.15 M1.18 15.6 C6.79 10.31, 8.95 6.64, 14.3 0.51 M1.18 15.6 C6.11 11.29, 10.76 4.59, 14.3 0.51 M1.58 21.25 C7.89 13.89, 17.15 5.56, 19.95 0.12 M1.58 21.25 C7.13 15.1, 13.87 7.34, 19.95 0.12 M1.32 27.64 C5.4 21.07, 12.94 15.85, 24.93 0.48 M1.32 27.64 C9.59 18.49, 17.18 9.6, 24.93 0.48 M2.37 32.53 C14.38 18.18, 23.43 7.26, 30.58 0.08 M2.37 32.53 C11.51 22.03, 21.82 9.39, 30.58 0.08 M5.39 35.16 C16.14 22.21, 29.87 10.61, 35.56 0.44 M5.39 35.16 C16.48 20.68, 28.35 8.65, 35.56 0.44 M10.37 35.52 C15.72 28.08, 22.52 21.01, 40.55 0.8 M10.37 35.52 C18.6 24.69, 29.92 13.87, 40.55 0.8 M16.02 35.12 C24.42 22.46, 35.87 11.39, 46.19 0.41 M16.02 35.12 C25.18 24.83, 33.21 15.29, 46.19 0.41 M21 35.48 C29.4 28.58, 36.69 17.16, 51.18 0.77 M21 35.48 C31.86 21.89, 43.89 10.01, 51.18 0.77 M26.65 35.09 C35.19 27.03, 41.75 16.9, 56.82 0.37 M26.65 35.09 C37.14 23.27, 47.64 11.08, 56.82 0.37 M31.63 35.45 C42.65 23.04, 55.82 9.58, 61.81 0.73 M31.63 35.45 C40.25 25.49, 47.95 17.23, 61.81 0.73 M36.62 35.81 C46.1 24.99, 56.19 13.2, 67.46 0.34 M36.62 35.81 C44.6 26.11, 53.45 15.88, 67.46 0.34 M42.26 35.41 C54.35 22.6, 62 11.57, 72.44 0.7 M42.26 35.41 C52.68 22.59, 61.81 12.11, 72.44 0.7 M47.25 35.77 C58.98 21.28, 69.58 9.4, 77.43 1.06 M47.25 35.77 C57.66 24.08, 68.82 10.65, 77.43 1.06 M52.89 35.38 C61.35 27.54, 66.67 21.38, 83.07 0.66 M52.89 35.38 C60.76 25.57, 67.93 17.36, 83.07 0.66 M57.88 35.74 C70.64 21.12, 82.57 8.01, 87.4 1.78 M57.88 35.74 C64.08 28, 71.57 19.71, 87.4 1.78 M63.52 35.34 C73.23 26.23, 78.27 19.56, 89.77 5.16 M63.52 35.34 C70.9 25.87, 78.65 17.23, 89.77 5.16 M68.51 35.71 C73.2 27.94, 78.28 22.42, 92.78 7.78 M68.51 35.71 C77.38 25.35, 86.4 17.17, 92.78 7.78 M73.5 36.07 C81.14 30.37, 87.09 20.35, 93.18 13.42 M73.5 36.07 C78.63 30.02, 85.25 22.93, 93.18 13.42 M79.14 35.67 C83.4 31.61, 88 26.87, 92.92 19.82 M79.14 35.67 C83.17 31.91, 86.44 26.92, 92.92 19.82 M83.47 36.79 C87.26 34.77, 88.13 31.3, 92.66 26.22 M83.47 36.79 C85.7 34.99, 87.66 32.81, 92.66 26.22" stroke="#a5d8ff" stroke-width="0.5" fill="none"></path><path d="M8.88 0 M8.88 0 C30.37 1.98, 54.32 2.42, 81.63 0 M8.88 0 C34.6 -1.13, 62.13 -0.01, 81.63 0 M81.63 0 C89.05 0.53, 90.68 2.4, 90.5 8.88 M81.63 0 C86.49 -0.99, 89.47 2.58, 90.5 8.88 M90.5 8.88 C91.09 13.01, 92.07 17.8, 90.5 26.63 M90.5 8.88 C91.05 14.4, 90.21 18.85, 90.5 26.63 M90.5 26.63 C92.35 32.95, 85.99 35.81, 81.63 35.5 M90.5 26.63 C88.24 32.51, 88.63 36.27, 81.63 35.5 M81.63 35.5 C61.25 37.31, 36.52 35.46, 8.88 35.5 M81.63 35.5 C56.95 35.62, 30.61 35.28, 8.88 35.5 M8.88 35.5 C3.47 34.07, -0.78 30.65, 0 26.63 M8.88 35.5 C1.81 33.91, 1.72 31.1, 0 26.63 M0 26.63 C1.16 21.46, 1.3 18.44, 0 8.88 M0 26.63 C0.48 22.87, -0.18 17.87, 0 8.88 M0 8.88 C-0.69 3.19, 2.88 1.63, 8.88 0 M0 8.88 C-0.44 3.91, 2.1 2.27, 8.88 0" stroke="#1e1e1e" stroke-width="1" fill="none"></path></g><g stroke-opacity="0.8" fill-opacity="0.8" stroke-linecap="round" transform="translate(60.939814471649015 193.5) rotate(0 45.25 17.75)"><path d="M2.36 2.05 C2.36 2.05, 2.36 2.05, 2.36 2.05 M2.36 2.05 C2.36 2.05, 2.36 2.05, 2.36 2.05 M0.79 9.96 C4.93 7.72, 7.74 4.16, 9.32 0.15 M0.79 9.96 C2.37 8.27, 4.31 5.16, 9.32 0.15 M1.18 15.6 C5.93 9.82, 11.48 5.65, 14.3 0.51 M1.18 15.6 C6.84 10.51, 10.67 4.94, 14.3 0.51 M1.58 21.25 C9 12.3, 15.61 5.67, 19.95 0.12 M1.58 21.25 C8.43 13.49, 13.87 6.35, 19.95 0.12 M1.32 27.64 C6.96 20.32, 13.07 17.3, 24.93 0.48 M1.32 27.64 C7.86 21.37, 12.19 15.63, 24.93 0.48 M2.37 32.53 C11.42 21.42, 23.77 7.67, 30.58 0.08 M2.37 32.53 C11.24 22.31, 21.26 11, 30.58 0.08 M5.39 35.16 C14.18 26.59, 18.69 18.45, 35.56 0.44 M5.39 35.16 C13.35 26.38, 21.99 15.45, 35.56 0.44 M10.37 35.52 C18.99 25.16, 26.07 18.08, 40.55 0.8 M10.37 35.52 C20.02 24.19, 29.19 14.46, 40.55 0.8 M16.02 35.12 C22.32 26.43, 33.58 17.07, 46.19 0.41 M16.02 35.12 C25.13 24.31, 36.94 12.32, 46.19 0.41 M21 35.48 C28.5 26.35, 40.64 13.63, 51.18 0.77 M21 35.48 C27.55 27.31, 33.83 19.25, 51.18 0.77 M26.65 35.09 C37.3 24.26, 45.92 11.82, 56.82 0.37 M26.65 35.09 C36.32 23.58, 48.63 11.93, 56.82 0.37 M31.63 35.45 C39.96 26.61, 44.42 20.48, 61.81 0.73 M31.63 35.45 C43.76 21.78, 55.06 7.79, 61.81 0.73 M36.62 35.81 C42.86 29.11, 50.7 17.69, 67.46 0.34 M36.62 35.81 C46.29 24.18, 56.77 11.62, 67.46 0.34 M42.26 35.41 C47.32 27.59, 56.9 18.51, 72.44 0.7 M42.26 35.41 C51.13 27.06, 58.72 16.36, 72.44 0.7 M47.25 35.77 C56.07 24.89, 64.05 14.64, 77.43 1.06 M47.25 35.77 C59.18 22.52, 70.11 10.63, 77.43 1.06 M52.89 35.38 C64.96 23.01, 75.4 6.43, 83.07 0.66 M52.89 35.38 C62.32 23.8, 71.13 13.64, 83.07 0.66 M57.88 35.74 C65.8 25.88, 72.94 16.31, 87.4 1.78 M57.88 35.74 C64.65 28.77, 71.2 21.05, 87.4 1.78 M63.52 35.34 C69.46 29.86, 77.71 18.9, 89.77 5.16 M63.52 35.34 C72.56 25.79, 81.94 15.82, 89.77 5.16 M68.51 35.71 C75.24 26.29, 83.28 18.52, 92.78 7.78 M68.51 35.71 C75.35 27.69, 82.72 17.65, 92.78 7.78 M73.5 36.07 C80.57 29.41, 85.31 25.76, 93.18 13.42 M73.5 36.07 C78.99 28.77, 86.75 21.87, 93.18 13.42 M79.14 35.67 C84.75 32.16, 85.95 25.56, 92.92 19.82 M79.14 35.67 C84.39 30.7, 87.92 24.88, 92.92 19.82 M83.47 36.79 C85.21 32.68, 88.56 30.99, 92.66 26.22 M83.47 36.79 C85.97 34.72, 87.44 32.27, 92.66 26.22" stroke="#a5d8ff" stroke-width="0.5" fill="none"></path><path d="M8.88 0 M8.88 0 C28.71 0.95, 51.84 -0.53, 81.63 0 M8.88 0 C29.64 0.73, 50.29 0.33, 81.63 0 M81.63 0 C86.79 1.98, 89.91 4.5, 90.5 8.88 M81.63 0 C89 1.71, 89.91 1.02, 90.5 8.88 M90.5 8.88 C90.98 12.71, 88.75 19.19, 90.5 26.63 M90.5 8.88 C89.84 14.05, 90.93 18.34, 90.5 26.63 M90.5 26.63 C89.89 31.38, 87.86 35.41, 81.63 35.5 M90.5 26.63 C92.37 33.85, 87.46 37.58, 81.63 35.5 M81.63 35.5 C60.67 34.61, 40.73 35.46, 8.88 35.5 M81.63 35.5 C62.99 34.7, 45.88 35.49, 8.88 35.5 M8.88 35.5 C4.31 36.1, -0.12 33.96, 0 26.63 M8.88 35.5 C3.29 36.58, -1.14 34.04, 0 26.63 M0 26.63 C0.38 21.68, -1.43 19.23, 0 8.88 M0 26.63 C-0.25 20.18, -0.57 12.78, 0 8.88 M0 8.88 C-1.48 2.63, 4.53 -0.43, 8.88 0 M0 8.88 C-0.63 3.92, 0.97 0.69, 8.88 0" stroke="#1e1e1e" stroke-width="1" fill="none"></path></g><g stroke-opacity="0.8" fill-opacity="0.8" stroke-linecap="round" transform="translate(61.689814471649015 228.75) rotate(0 45.25 17.75)"><path d="M2.36 2.05 C2.36 2.05, 2.36 2.05, 2.36 2.05 M2.36 2.05 C2.36 2.05, 2.36 2.05, 2.36 2.05 M0.79 9.96 C4.59 7.59, 5.16 2.94, 9.32 0.15 M0.79 9.96 C2.06 7.6, 5.02 5.41, 9.32 0.15 M1.18 15.6 C5.32 12.67, 9.88 4.84, 14.3 0.51 M1.18 15.6 C5.42 10.65, 10.17 5.35, 14.3 0.51 M1.58 21.25 C5.65 16.91, 11.68 12.75, 19.95 0.12 M1.58 21.25 C5.6 15.94, 9.93 11.08, 19.95 0.12 M1.32 27.64 C11.57 19.38, 17.89 7.32, 24.93 0.48 M1.32 27.64 C5.5 22.82, 11.15 17.05, 24.93 0.48 M2.37 32.53 C14.24 19.04, 24.38 7.31, 30.58 0.08 M2.37 32.53 C12.67 20.91, 20.83 10.36, 30.58 0.08 M5.39 35.16 C13.74 23.83, 23.04 14.53, 35.56 0.44 M5.39 35.16 C12.86 25.81, 19.82 18.02, 35.56 0.44 M10.37 35.52 C18.64 26.64, 28.28 14.9, 40.55 0.8 M10.37 35.52 C19.28 25.85, 27.01 16.82, 40.55 0.8 M16.02 35.12 C25.6 26.67, 33.85 16.34, 46.19 0.41 M16.02 35.12 C23.64 27.67, 29.05 20.2, 46.19 0.41 M21 35.48 C30.64 25.13, 35.97 15.33, 51.18 0.77 M21 35.48 C31.23 22.4, 43.45 11.26, 51.18 0.77 M26.65 35.09 C34.26 25.27, 44.43 15.32, 56.82 0.37 M26.65 35.09 C35.39 27.19, 41.23 18.43, 56.82 0.37 M31.63 35.45 C37.22 28.67, 47.56 18.24, 61.81 0.73 M31.63 35.45 C41.57 23.19, 51.15 13.11, 61.81 0.73 M36.62 35.81 C45.13 24.29, 54.19 14.78, 67.46 0.34 M36.62 35.81 C44.47 25.68, 52.53 16.33, 67.46 0.34 M42.26 35.41 C50.54 25.8, 55.99 19.8, 72.44 0.7 M42.26 35.41 C49.09 26.75, 55.41 20.05, 72.44 0.7 M47.25 35.77 C58.67 21.33, 72.26 7.6, 77.43 1.06 M47.25 35.77 C57.85 24.52, 69.22 11.42, 77.43 1.06 M52.89 35.38 C62.51 21.17, 74.28 11.57, 83.07 0.66 M52.89 35.38 C62.31 24.18, 72.42 13.9, 83.07 0.66 M57.88 35.74 C66.75 24.01, 77.29 12.37, 87.4 1.78 M57.88 35.74 C68.72 23.88, 78.71 9.98, 87.4 1.78 M63.52 35.34 C74.84 21.99, 84.07 10.56, 89.77 5.16 M63.52 35.34 C69.76 29.21, 74.61 22.33, 89.77 5.16 M68.51 35.71 C74.48 28.68, 81.29 22.75, 92.78 7.78 M68.51 35.71 C75.81 25.86, 84.46 17.25, 92.78 7.78 M73.5 36.07 C81.97 29.62, 88.19 17.88, 93.18 13.42 M73.5 36.07 C80.4 29.26, 86.13 21.43, 93.18 13.42 M79.14 35.67 C82.57 29.25, 90.02 23.19, 92.92 19.82 M79.14 35.67 C81.82 31.64, 86.4 26.76, 92.92 19.82 M83.47 36.79 C85 35.12, 87.49 30.25, 92.66 26.22 M83.47 36.79 C86.23 33.52, 89.88 28.81, 92.66 26.22" stroke="#a5d8ff" stroke-width="0.5" fill="none"></path><path d="M8.88 0 M8.88 0 C34.88 -0.69, 58.09 -1.14, 81.63 0 M8.88 0 C31.35 -0.18, 53.82 0.4, 81.63 0 M81.63 0 C86.95 1.55, 91.77 4.44, 90.5 8.88 M81.63 0 C86.95 -1.94, 89.41 3.3, 90.5 8.88 M90.5 8.88 C88.77 15.73, 89.59 18.21, 90.5 26.63 M90.5 8.88 C91 16.37, 90.13 21.9, 90.5 26.63 M90.5 26.63 C90.82 32.45, 89.17 36.64, 81.63 35.5 M90.5 26.63 C90.42 34.62, 87.3 36.96, 81.63 35.5 M81.63 35.5 C65.98 35.81, 46.9 33.75, 8.88 35.5 M81.63 35.5 C58.87 34.67, 35.79 35.12, 8.88 35.5 M8.88 35.5 C2.84 36.92, 0.29 33.48, 0 26.63 M8.88 35.5 C1.81 37, -2.24 33.82, 0 26.63 M0 26.63 C-1.38 19.39, 1.49 11.64, 0 8.88 M0 26.63 C-0.59 19.45, -0.59 12.37, 0 8.88 M0 8.88 C1.57 2.53, 2.41 0.84, 8.88 0 M0 8.88 C-1.98 3.65, 2.26 0.94, 8.88 0" stroke="#1e1e1e" stroke-width="1" fill="none"></path></g><g stroke-opacity="0.8" fill-opacity="0.8" stroke-linecap="round" transform="translate(184.06481447164902 11.375) rotate(0 26 23.25)"><path d="M11.63 0 M11.63 0 C18.78 1.88, 25.1 -0.52, 40.38 0 M11.63 0 C18.52 -0.34, 27.17 -0.01, 40.38 0 M40.38 0 C46.64 -0.6, 51.78 3.82, 52 11.63 M40.38 0 C48.62 -1.14, 51.27 5.37, 52 11.63 M52 11.63 C53.03 16.83, 53.16 25.34, 52 34.88 M52 11.63 C51.16 18.65, 52.55 25.38, 52 34.88 M52 34.88 C52.65 43.37, 46.34 44.92, 40.38 46.5 M52 34.88 C53.06 44.9, 48.14 46.59, 40.38 46.5 M40.38 46.5 C33.52 47.49, 23.17 44.72, 11.63 46.5 M40.38 46.5 C33.42 45.5, 26.38 46.75, 11.63 46.5 M11.63 46.5 C5.75 46.13, 0.82 43.44, 0 34.88 M11.63 46.5 C3.03 46.58, 1.09 42.49, 0 34.88 M0 34.88 C2.19 30.73, -1.04 24.61, 0 11.63 M0 34.88 C-0.85 30.02, 0.72 23.4, 0 11.63 M0 11.63 C0.72 4.47, 3.68 -0.21, 11.63 0 M0 11.63 C-1.43 2.35, 6.09 -0.63, 11.63 0" stroke="#1e1e1e" stroke-width="1" fill="none"></path></g><g stroke-opacity="0.8" fill-opacity="0.8" transform="translate(200.0968197817076 17.125) rotate(0 9.967994689941406 17.5)"><text x="9.967994689941406" y="0" font-family="Virgil, HanziPen SC, Cangnanshoujiti, KaiTi, Segoe UI Emoji" font-size="28px" fill="#1e1e1e" text-anchor="middle" style="white-space: pre;" direction="ltr" dominant-baseline="text-before-edge">2</text></g><g stroke-opacity="0.8" fill-opacity="0.8" stroke-linecap="round" transform="translate(255.56481447164902 11.125) rotate(0 26 23.25)"><path d="M11.63 0 M11.63 0 C16.92 -1.71, 22.57 1.09, 40.38 0 M11.63 0 C18.52 0.62, 27.41 0.07, 40.38 0 M40.38 0 C48.94 0.81, 51.26 3.94, 52 11.63 M40.38 0 C49.21 -0.14, 50.78 1.96, 52 11.63 M52 11.63 C51 20.74, 51.01 28.75, 52 34.88 M52 11.63 C52.72 17.35, 52.2 24.12, 52 34.88 M52 34.88 C51.8 42.41, 46.88 45.18, 40.38 46.5 M52 34.88 C54.22 41.99, 47.4 48.24, 40.38 46.5 M40.38 46.5 C30.29 45.9, 21.44 46.72, 11.63 46.5 M40.38 46.5 C32.95 45.6, 25.83 46.14, 11.63 46.5 M11.63 46.5 C4.81 44.91, -0.63 43.1, 0 34.88 M11.63 46.5 C2.15 48.44, 1.71 43.39, 0 34.88 M0 34.88 C1.85 29.71, -0.63 23.56, 0 11.63 M0 34.88 C0.35 29.5, -0.32 23.31, 0 11.63 M0 11.63 C1.85 5.65, 3.96 1.04, 11.63 0 M0 11.63 C0.4 5.35, 2.79 -2.07, 11.63 0" stroke="#1e1e1e" stroke-width="1" fill="none"></path></g><g stroke-opacity="0.8" fill-opacity="0.8" transform="translate(272.03081788961777 16.875) rotate(0 9.53399658203125 17.5)"><text x="9.53399658203125" y="0" font-family="Virgil, HanziPen SC, Cangnanshoujiti, KaiTi, Segoe UI Emoji" font-size="28px" fill="#1e1e1e" text-anchor="middle" style="white-space: pre;" direction="ltr" dominant-baseline="text-before-edge">3</text></g><g stroke-opacity="0.8" fill-opacity="0.8" stroke-linecap="round" transform="translate(321.314814471649 10.25) rotate(0 26 23.25)"><path d="M11.63 0 M11.63 0 C16.91 -1.72, 24.63 1.11, 40.38 0 M11.63 0 C17.21 0.78, 25.04 0.26, 40.38 0 M40.38 0 C46.85 -0.27, 52.95 5.7, 52 11.63 M40.38 0 C48.51 -0.76, 51.62 2.77, 52 11.63 M52 11.63 C52.82 20.01, 52.15 30.83, 52 34.88 M52 11.63 C52.18 21.3, 51.54 28.8, 52 34.88 M52 34.88 C52.21 43.43, 48.66 46.88, 40.38 46.5 M52 34.88 C50.35 41.76, 47.94 46.22, 40.38 46.5 M40.38 46.5 C29.01 44.85, 17.78 44.96, 11.63 46.5 M40.38 46.5 C31.66 46.74, 22.01 45.98, 11.63 46.5 M11.63 46.5 C2.34 48.05, -0.62 44.62, 0 34.88 M11.63 46.5 C5.38 44.55, 0.73 40.64, 0 34.88 M0 34.88 C1.49 30.52, 0.17 24.56, 0 11.63 M0 34.88 C-0.06 28.95, 0.25 23.62, 0 11.63 M0 11.63 C0.64 2.56, 5.61 -1.89, 11.63 0 M0 11.63 C-0.85 3.08, 4.55 1.58, 11.63 0" stroke="#1e1e1e" stroke-width="1" fill="none"></path></g><g stroke-opacity="0.8" fill-opacity="0.8" transform="translate(338.35481538717636 16) rotate(0 8.959999084472656 17.5)"><text x="8.959999084472656" y="0" font-family="Virgil, HanziPen SC, Cangnanshoujiti, KaiTi, Segoe UI Emoji" font-size="28px" fill="#1e1e1e" text-anchor="middle" style="white-space: pre;" direction="ltr" dominant-baseline="text-before-edge">4</text></g><g stroke-opacity="0.8" fill-opacity="0.8" stroke-linecap="round" transform="translate(392.814814471649 10) rotate(0 26 23.25)"><path d="M11.63 0 M11.63 0 C18.19 1.2, 23.7 -0.36, 40.38 0 M11.63 0 C21.67 0.09, 29.6 -0.38, 40.38 0 M40.38 0 C49.07 1.82, 52.33 3.21, 52 11.63 M40.38 0 C47.75 -1.11, 53.68 2.59, 52 11.63 M52 11.63 C52.39 21.66, 53.88 28.07, 52 34.88 M52 11.63 C51.57 18.9, 52.15 28.39, 52 34.88 M52 34.88 C52.53 43, 46.69 45.75, 40.38 46.5 M52 34.88 C51.82 42.35, 50.38 47.73, 40.38 46.5 M40.38 46.5 C32.39 44.76, 24.48 47.55, 11.63 46.5 M40.38 46.5 C31.81 45.96, 20.95 47.32, 11.63 46.5 M11.63 46.5 C3.26 48.49, 1.31 40.93, 0 34.88 M11.63 46.5 C4.6 44.52, -2.07 42.79, 0 34.88 M0 34.88 C0.01 26.82, -1.09 19.03, 0 11.63 M0 34.88 C0.19 29.51, 0.36 22.35, 0 11.63 M0 11.63 C1.74 1.99, 3.14 -0.69, 11.63 0 M0 11.63 C0.67 5.45, 6.08 -0.58, 11.63 0" stroke="#1e1e1e" stroke-width="1" fill="none"></path></g><g stroke-opacity="0.8" fill-opacity="0.8" transform="translate(410.1628140444029 15.75) rotate(0 8.652000427246094 17.5)"><text x="8.652000427246094" y="0" font-family="Virgil, HanziPen SC, Cangnanshoujiti, KaiTi, Segoe UI Emoji" font-size="28px" fill="#1e1e1e" text-anchor="middle" style="white-space: pre;" direction="ltr" dominant-baseline="text-before-edge">5</text></g><g stroke-linecap="round"><g stroke-opacity="0.8" fill-opacity="0.8" transform="translate(158.56481447164902 42.875) rotate(0 -26.716344467552062 25.587247403711075)"><path d="M0.85 -0.81 C-7.35 0.1, -39.71 -2.96, -48.55 5.84 C-57.39 14.64, -51.59 44.25, -52.18 51.98 M-0.16 1.38 C-8.5 2.44, -40.14 -0.79, -49 7.29 C-57.86 15.38, -52.78 42.76, -53.31 49.89" stroke="#1e1e1e" stroke-width="1" fill="none"></path></g><g stroke-opacity="0.8" fill-opacity="0.8" transform="translate(158.56481447164902 42.875) rotate(0 -26.716344467552062 25.587247403711075)"><path d="M-63.44 30.47 C-59.17 35.16, -54.97 42.75, -52.07 51.15 M-61.98 28.85 C-58.78 34.78, -56.65 40.65, -52.32 49.6" stroke="#1e1e1e" stroke-width="1" fill="none"></path></g><g stroke-opacity="0.8" fill-opacity="0.8" transform="translate(158.56481447164902 42.875) rotate(0 -26.716344467552062 25.587247403711075)"><path d="M-47.88 29.73 C-49.14 34.79, -50.48 42.65, -52.07 51.15 M-46.42 28.11 C-47.7 34.2, -50.05 40.28, -52.32 49.6" stroke="#1e1e1e" stroke-width="1" fill="none"></path></g></g><mask></mask><g stroke-linecap="round"><g stroke-opacity="0.8" fill-opacity="0.8" transform="translate(80.06481447164902 112.875) rotate(0 -34.317339357460895 -40.85467899484438)"><path d="M0.84 0.43 C-0.29 -12.37, 5.81 -64.86, -5.98 -77.25 C-17.77 -89.64, -59.24 -74.68, -69.88 -73.93 M-0.17 -0.39 C-1.54 -12.97, 4.73 -63.72, -6.92 -75.84 C-18.57 -87.96, -59.11 -73.81, -70.06 -73.1" stroke="#1e1e1e" stroke-width="1" fill="none"></path></g><g stroke-opacity="0.8" fill-opacity="0.8" transform="translate(80.06481447164902 112.875) rotate(0 -34.317339357460895 -40.85467899484438)"><path d="M-43.66 -88.57 C-54.37 -80.82, -65.02 -75.01, -69.68 -74.25 M-45.13 -88.31 C-55.1 -81.69, -64.18 -77.19, -69.37 -73.28" stroke="#1e1e1e" stroke-width="1" fill="none"></path></g><g stroke-opacity="0.8" fill-opacity="0.8" transform="translate(80.06481447164902 112.875) rotate(0 -34.317339357460895 -40.85467899484438)"><path d="M-39.7 -68.44 C-51.81 -68.12, -63.92 -69.77, -69.68 -74.25 M-41.17 -68.17 C-52.68 -69.36, -63.3 -72.7, -69.37 -73.28" stroke="#1e1e1e" stroke-width="1" fill="none"></path></g></g><mask></mask><g stroke-opacity="0.8" fill-opacity="0.8" transform="translate(201.06481447164902 155.875) rotate(0 56 17.5)"><text x="0" y="0" font-family="Virgil, HanziPen SC, Cangnanshoujiti, KaiTi, Segoe UI Emoji" font-size="28px" fill="#1e1e1e" text-anchor="start" style="white-space: pre;" direction="ltr" dominant-baseline="text-before-edge">一个状态</text></g></svg>