<svg version="1.1" xmlns="http://www.w3.org/2000/svg" viewBox="0 0 1401.666666666666 415" width="2803.333333333332" height="830">
  <!-- svg-source:excalidraw -->
  
  <defs>
    <style class="style-fonts">
      @font-face {
        font-family: "Virgil";
        src: url("https://excalidraw.com/Virgil.woff2");
      }
      @font-face {
        font-family: "Cascadia";
        src: url("https://excalidraw.com/Cascadia.woff2");
      }
    </style>
    
  </defs>
  <rect x="0" y="0" width="1401.666666666666" height="415" fill="#fffce8"></rect><g stroke-opacity="0.4" fill-opacity="0.4" stroke-linecap="round" transform="translate(821.6666666666663 10) rotate(0 284.9999999999999 192.5)"><path d="M7.86 8.16 C7.86 8.16, 7.86 8.16, 7.86 8.16 M7.86 8.16 C7.86 8.16, 7.86 8.16, 7.86 8.16 M3.66 19.09 C9.5 13.89, 11.11 7.89, 18.1 2.48 M3.66 19.09 C7.47 15.24, 10.7 10.72, 18.1 2.48 M2.75 26.24 C4.99 22.13, 11.43 15.85, 24.4 1.33 M2.75 26.24 C7.66 19.87, 14.01 14.49, 24.4 1.33 M1.83 33.39 C8.13 28.04, 15.88 18.35, 30.7 0.18 M1.83 33.39 C12.21 22.68, 21.1 12.9, 30.7 0.18 M1.57 39.79 C12.83 26.88, 23.65 13.09, 34.37 2.05 M1.57 39.79 C10.4 29.74, 18.63 19.68, 34.37 2.05 M1.96 45.43 C16.09 32.55, 26.1 16.94, 39.36 2.41 M1.96 45.43 C14.87 30.14, 28.97 12.48, 39.36 2.41 M1.7 51.83 C15.13 38.38, 27.96 23.09, 45 2.02 M1.7 51.83 C16.92 34.88, 32.45 16.98, 45 2.02 M1.44 58.23 C11.38 44.6, 21.74 32.7, 49.99 2.38 M1.44 58.23 C18.07 37.11, 35.59 18.32, 49.99 2.38 M1.83 63.87 C14.97 48.65, 29.26 34.88, 55.63 1.98 M1.83 63.87 C21.22 40.92, 39.39 18.86, 55.63 1.98 M1.57 70.27 C16.24 52.13, 33.87 34.51, 60.62 2.34 M1.57 70.27 C14.47 54.22, 28.8 38.77, 60.62 2.34 M1.97 75.91 C23.18 54.38, 43.41 27.03, 66.26 1.95 M1.97 75.91 C25.91 48.13, 50.75 22.65, 66.26 1.95 M1.71 82.31 C19.16 60.02, 35.62 39.99, 71.25 2.31 M1.71 82.31 C26.35 55.88, 49.57 28.27, 71.25 2.31 M1.44 88.71 C16.37 68.43, 34.1 48.19, 76.89 1.91 M1.44 88.71 C18.5 69.05, 36.42 50.12, 76.89 1.91 M1.84 94.35 C31.67 60.07, 66.22 23.23, 81.88 2.27 M1.84 94.35 C23.66 71.69, 45.33 47.07, 81.88 2.27 M1.58 100.75 C21.14 77.77, 40.76 53.66, 87.52 1.88 M1.58 100.75 C17.71 81.06, 35.23 59.94, 87.52 1.88 M1.97 106.39 C26.42 80.96, 47.63 52.46, 92.51 2.24 M1.97 106.39 C33.44 69.94, 64.56 32.07, 92.51 2.24 M1.71 112.79 C25.32 84.18, 50.36 59.11, 98.15 1.85 M1.71 112.79 C35.38 72.82, 69.5 34.89, 98.15 1.85 M1.45 119.19 C28.22 90.36, 49.83 61.54, 103.14 2.21 M1.45 119.19 C39.14 75.59, 74.84 32.9, 103.14 2.21 M1.84 124.83 C38.24 81.81, 75.95 37.53, 108.78 1.81 M1.84 124.83 C35.16 85.14, 68.78 46.55, 108.78 1.81 M1.58 131.23 C41.54 86.71, 77.8 43.98, 113.77 2.17 M1.58 131.23 C29.48 99.16, 58.46 65.68, 113.77 2.17 M1.98 136.87 C30.69 105.17, 60.87 71.87, 119.41 1.78 M1.98 136.87 C45.97 86.21, 90.09 35.22, 119.41 1.78 M1.72 143.27 C42.22 92.84, 87.4 45.93, 124.4 2.14 M1.72 143.27 C50.05 87.36, 98.66 31.31, 124.4 2.14 M1.45 149.67 C29.04 117.74, 55.96 88.59, 130.04 1.74 M1.45 149.67 C52.76 93.18, 102.45 36.26, 130.04 1.74 M1.85 155.31 C35.03 118.65, 65.23 80.47, 135.03 2.1 M1.85 155.31 C46.37 103.8, 92.83 51.17, 135.03 2.1 M1.59 161.71 C49.35 107.26, 94.03 56.37, 140.67 1.71 M1.59 161.71 C29.42 130.14, 57.05 97.75, 140.67 1.71 M1.98 167.35 C32.01 130.01, 64.62 95.09, 145.66 2.07 M1.98 167.35 C35.9 128.8, 70.57 87.31, 145.66 2.07 M1.72 173.75 C49.06 121.75, 93.27 69.23, 150.65 2.43 M1.72 173.75 C43.39 124.95, 85.04 76.34, 150.65 2.43 M1.46 180.14 C42.24 132.2, 83.33 84.45, 156.29 2.03 M1.46 180.14 C43.62 132.52, 84.94 83.66, 156.29 2.03 M1.85 185.79 C36.56 142.72, 73.88 101.82, 161.28 2.39 M1.85 185.79 C46.84 131.25, 93.61 77.42, 161.28 2.39 M1.59 192.19 C65.55 118.2, 130.33 46.12, 166.92 2 M1.59 192.19 C62.69 120.17, 125 48.13, 166.92 2 M1.99 197.83 C67.33 122.45, 133.75 46.81, 171.91 2.36 M1.99 197.83 C49.43 141.32, 99.19 85.3, 171.91 2.36 M1.72 204.23 C65.39 129.97, 129.41 60.09, 177.55 1.96 M1.72 204.23 C58.14 136.9, 115.33 72.19, 177.55 1.96 M1.46 210.62 C48.53 151.74, 97.49 96.83, 182.54 2.32 M1.46 210.62 C60.97 142.12, 121.27 74.09, 182.54 2.32 M1.86 216.27 C74.13 136.43, 142.53 55.09, 188.18 1.93 M1.86 216.27 C52.49 157.48, 102.4 98.35, 188.18 1.93 M1.6 222.66 C70.9 141.71, 142.15 57.78, 193.17 2.29 M1.6 222.66 C52.19 162.62, 105.48 103.32, 193.17 2.29 M1.99 228.31 C47.48 175.95, 93.29 123, 198.81 1.9 M1.99 228.31 C76.4 143.18, 150.53 57.25, 198.81 1.9 M1.73 234.71 C79.88 146.63, 156.2 58.31, 203.8 2.26 M1.73 234.71 C78.42 147.83, 154.59 58.74, 203.8 2.26 M1.47 241.1 C65.22 163.28, 132.8 89.29, 209.44 1.86 M1.47 241.1 C43.87 192.83, 86.67 144.53, 209.44 1.86 M1.86 246.75 C84.31 152.08, 169.06 57.68, 214.43 2.22 M1.86 246.75 C69.41 170.17, 134.79 93.81, 214.43 2.22 M1.6 253.14 C51.15 196.11, 98.28 142.31, 220.07 1.83 M1.6 253.14 C69.74 175.47, 136.35 98.81, 220.07 1.83 M2 258.79 C66.9 184.93, 129.22 112.46, 225.06 2.19 M2 258.79 C75.9 176.46, 148.27 92.97, 225.06 2.19 M1.73 265.19 C77.37 180.11, 152.7 92.82, 230.7 1.79 M1.73 265.19 C57.39 199.33, 113.21 134.75, 230.7 1.79 M1.47 271.58 C84.14 175.71, 167.45 80.17, 235.69 2.15 M1.47 271.58 C66.87 194.17, 131.93 118.95, 235.69 2.15 M1.87 277.23 C57.96 210.4, 117.09 145.03, 241.33 1.76 M1.87 277.23 C94.1 170.18, 186.02 64.38, 241.33 1.76 M1.61 283.62 C77.91 199.4, 151.16 112.98, 246.32 2.12 M1.61 283.62 C59.83 217.59, 117.54 150.04, 246.32 2.12 M2 289.27 C87.78 191.98, 173.9 92.56, 251.96 1.72 M2 289.27 C69.85 210.68, 138.9 131.82, 251.96 1.72 M1.74 295.66 C52.95 236.41, 105.54 175.41, 256.95 2.08 M1.74 295.66 C68 220.51, 134.21 145.44, 256.95 2.08 M1.48 302.06 C58.19 237.34, 115.41 171.96, 262.59 1.69 M1.48 302.06 C75.37 217.19, 149.34 132.47, 262.59 1.69 M1.87 307.71 C96.04 195.37, 192.15 84.93, 267.58 2.05 M1.87 307.71 C105.24 187.69, 210.52 66.56, 267.58 2.05 M1.61 314.1 C76.64 229.61, 151.02 144.76, 272.56 2.41 M1.61 314.1 C101.2 200.37, 200.54 86.78, 272.56 2.41 M2.01 319.75 C72.21 235.51, 144.34 154.63, 278.21 2.01 M2.01 319.75 C86.44 221.64, 172.9 122.63, 278.21 2.01 M1.74 326.14 C82.29 232.13, 163.33 138.92, 283.19 2.37 M1.74 326.14 C80.34 234.44, 160.11 142.95, 283.19 2.37 M1.48 332.54 C112.65 203.64, 222.98 75.42, 288.84 1.98 M1.48 332.54 C80.21 243.45, 157.01 155.27, 288.84 1.98 M1.88 338.19 C75.25 253.92, 149.51 167.15, 293.82 2.34 M1.88 338.19 C115.28 204.86, 230.56 72.57, 293.82 2.34 M1.62 344.58 C73.33 262.72, 146.43 179.96, 299.47 1.94 M1.62 344.58 C97.17 235.07, 193.53 124.65, 299.47 1.94 M2.01 350.23 C110.26 224.11, 221.38 96.91, 304.45 2.3 M2.01 350.23 C80.34 260.64, 157.59 171.39, 304.45 2.3 M3.06 355.11 C99.02 248.3, 192.95 140.85, 310.1 1.91 M3.06 355.11 C106.86 236.45, 209.98 117.87, 310.1 1.91 M3.46 360.76 C68.45 286.19, 133.39 211.2, 315.08 2.27 M3.46 360.76 C75.66 276.35, 148.11 192.51, 315.08 2.27 M2.54 367.91 C91.18 266.08, 179.75 165.55, 320.73 1.88 M2.54 367.91 C119.83 235.45, 235.22 101.77, 320.73 1.88 M4.9 371.29 C127.73 232.31, 248.7 93.22, 325.71 2.24 M4.9 371.29 C96.12 267.09, 186.12 163.25, 325.71 2.24 M7.26 374.67 C86.72 283.77, 164.22 194.12, 331.36 1.84 M7.26 374.67 C93.34 274.93, 180.84 173.73, 331.36 1.84 M10.28 377.29 C94.69 277.97, 179.81 181.47, 336.34 2.2 M10.28 377.29 C128.46 242.94, 245.13 107.99, 336.34 2.2 M12.65 380.67 C109.99 271.48, 204.53 161.55, 341.99 1.81 M12.65 380.67 C114.13 264.26, 216.44 146.6, 341.99 1.81 M16.98 381.79 C100.31 287.48, 182.31 191.98, 346.97 2.17 M16.98 381.79 C92.05 296.42, 167.14 210.07, 346.97 2.17 M20.65 383.66 C125.17 262.22, 229.67 141.32, 352.62 1.77 M20.65 383.66 C135.49 249.94, 250.13 118.08, 352.62 1.77 M24.98 384.77 C135.23 255.82, 247.43 127.46, 357.6 2.13 M24.98 384.77 C107.98 292.13, 189.63 198.44, 357.6 2.13 M29.97 385.13 C98.62 303.94, 168.8 224.1, 363.25 1.74 M29.97 385.13 C108.81 293.24, 187.85 201.97, 363.25 1.74 M33.64 387 C137.6 268.02, 240 150.25, 368.23 2.1 M33.64 387 C159.26 243.1, 284.55 99.79, 368.23 2.1 M39.29 386.61 C125.78 286.26, 212.03 187, 373.88 1.7 M39.29 386.61 C121.84 293.35, 202.73 199.84, 373.88 1.7 M44.27 386.97 C162.69 249.96, 282.26 111.41, 378.86 2.06 M44.27 386.97 C168.36 243.42, 291.49 101.7, 378.86 2.06 M49.92 386.57 C167.44 249.28, 287.35 111.69, 383.85 2.42 M49.92 386.57 C122.56 303.08, 195.95 219.19, 383.85 2.42 M54.9 386.93 C145.65 279.76, 237.57 172.9, 389.49 2.03 M54.9 386.93 C186.03 235.99, 317.01 84.74, 389.49 2.03 M60.55 386.54 C190.7 235.02, 321.97 83.86, 394.48 2.39 M60.55 386.54 C136.44 299.3, 213.03 211.37, 394.48 2.39 M65.53 386.9 C149.03 288.12, 233.04 191.23, 400.12 1.99 M65.53 386.9 C134.56 308.18, 203.26 230.12, 400.12 1.99 M71.18 386.5 C158.38 288.15, 244.41 187.98, 405.11 2.35 M71.18 386.5 C180.91 259.37, 291.48 132.3, 405.11 2.35 M76.16 386.86 C168.45 278.96, 261.96 171.55, 410.75 1.96 M76.16 386.86 C196.25 248.01, 316.92 108.56, 410.75 1.96 M81.81 386.47 C163.93 293.08, 246 199.23, 415.74 2.32 M81.81 386.47 C210.67 238.08, 338.62 90.42, 415.74 2.32 M86.79 386.83 C202.61 253, 319.1 120.57, 421.38 1.93 M86.79 386.83 C162.61 301.1, 237.96 214.25, 421.38 1.93 M92.44 386.43 C173.55 293.2, 252.39 200.61, 426.37 2.29 M92.44 386.43 C174.24 290.24, 257.23 194.94, 426.37 2.29 M97.42 386.79 C178.75 293.82, 260.83 200.06, 432.01 1.89 M97.42 386.79 C217.45 250.39, 336.13 113.62, 432.01 1.89 M103.07 386.4 C215.4 256.69, 327.59 127.89, 437 2.25 M103.07 386.4 C230.55 239.36, 357.62 92.5, 437 2.25 M108.05 386.76 C227.79 248.17, 349.6 108.83, 442.64 1.86 M108.05 386.76 C210.75 268.8, 313.61 149.59, 442.64 1.86 M113.7 386.36 C188.85 297.9, 265.3 211.87, 447.63 2.22 M113.7 386.36 C196.82 291.23, 278.51 196.97, 447.63 2.22 M118.68 386.72 C217.81 272.34, 315.69 159.94, 453.27 1.82 M118.68 386.72 C202.51 292.42, 284.9 197.32, 453.27 1.82 M124.33 386.33 C255.78 234.55, 387.2 82.6, 458.26 2.18 M124.33 386.33 C225.04 270.16, 324.86 155.8, 458.26 2.18 M129.31 386.69 C205.08 298.63, 281.54 211.5, 463.9 1.79 M129.31 386.69 C238.81 260.55, 349 134.35, 463.9 1.79 M134.3 387.05 C248.22 255.66, 361.07 123.69, 468.89 2.15 M134.3 387.05 C267.21 234.07, 400.79 80.24, 468.89 2.15 M139.94 386.65 C258.4 249.68, 377.37 113.6, 474.53 1.75 M139.94 386.65 C243.51 264.86, 348.09 144.57, 474.53 1.75 M144.93 387.01 C260.53 254.25, 377.06 119.45, 479.52 2.11 M144.93 387.01 C214.18 306.9, 283.95 227, 479.52 2.11 M150.57 386.62 C237.98 287.15, 327.18 184.65, 485.17 1.72 M150.57 386.62 C270.45 248.39, 390.52 110.09, 485.17 1.72 M155.56 386.98 C258.41 268.37, 362.14 148.93, 490.15 2.08 M155.56 386.98 C282.39 239.63, 410.39 92.66, 490.15 2.08 M161.21 386.59 C277.94 252.44, 395.02 118.11, 495.8 1.68 M161.21 386.59 C238.02 300.14, 313.77 212.1, 495.8 1.68 M166.19 386.95 C271.68 266.66, 377.25 145.09, 500.78 2.04 M166.19 386.95 C294.88 238.44, 423.47 91.09, 500.78 2.04 M171.84 386.55 C303.66 233.17, 436.74 80.08, 505.77 2.4 M171.84 386.55 C263.72 281.02, 356.59 174.62, 505.77 2.4 M176.82 386.91 C261.76 287.8, 348.04 189.5, 511.41 2.01 M176.82 386.91 C268.61 283.16, 358.81 178.84, 511.41 2.01 M182.47 386.52 C250.64 308.42, 319.24 230.3, 516.4 2.37 M182.47 386.52 C270.99 284.95, 360.3 182.55, 516.4 2.37 M187.45 386.88 C263.17 302.04, 336.91 215.12, 522.04 1.98 M187.45 386.88 C289.61 269.36, 391.22 152.88, 522.04 1.98 M193.1 386.48 C313.18 249.77, 431.4 114.5, 527.03 2.34 M193.1 386.48 C313.4 250.72, 431.93 114.03, 527.03 2.34 M198.08 386.84 C302.64 269.47, 404.94 151.17, 532.67 1.94 M198.08 386.84 C311.79 257.32, 425.57 126.39, 532.67 1.94 M203.73 386.45 C285.26 292.84, 366.46 198.04, 538.97 0.79 M203.73 386.45 C306.85 269.35, 409.41 152.45, 538.97 0.79 M208.71 386.81 C341.86 232.73, 475.07 78.1, 543.96 1.15 M208.71 386.81 C288.3 295.61, 369.31 203.09, 543.96 1.15 M214.36 386.41 C302.89 286.86, 389.09 186.8, 548.29 2.27 M214.36 386.41 C304.64 282.7, 395.3 178.65, 548.29 2.27 M219.34 386.77 C348.34 237.64, 477.48 89.58, 551.96 4.14 M219.34 386.77 C307.38 286.3, 395.29 185.18, 551.96 4.14 M224.99 386.38 C356.92 235.84, 487.74 86.07, 556.3 5.25 M224.99 386.38 C296.63 302.86, 368.49 219.96, 556.3 5.25 M229.97 386.74 C351.94 247.47, 471.35 108.42, 559.97 7.12 M229.97 386.74 C318.28 285.27, 407.66 182.93, 559.97 7.12 M235.62 386.34 C313.88 295.98, 392.65 205.49, 562.99 9.74 M235.62 386.34 C332.04 272.91, 430.39 160.23, 562.99 9.74 M240.6 386.7 C312.84 303.1, 384.68 219.47, 566.01 12.37 M240.6 386.7 C344.62 267.79, 448.63 148.63, 566.01 12.37 M246.25 386.31 C368 244.83, 491.34 103.41, 567.71 16.5 M246.25 386.31 C335.56 283.49, 424.83 181.32, 567.71 16.5 M251.23 386.67 C331.96 295.28, 411.17 204.88, 570.08 19.88 M251.23 386.67 C336.24 287.42, 421.94 189.62, 570.08 19.88 M256.22 387.03 C325.2 309.08, 391.82 230.64, 571.13 24.77 M256.22 387.03 C354.76 273.18, 452.92 159.48, 571.13 24.77 M261.86 386.64 C364.4 266.69, 468.72 146.93, 570.21 31.92 M261.86 386.64 C376.7 251.43, 493.51 117.61, 570.21 31.92 M266.85 387 C367.37 270.39, 466.9 156.81, 569.95 38.32 M266.85 387 C376.06 260.85, 486.22 134.18, 569.95 38.32 M272.49 386.6 C382.58 257.09, 495.29 130.18, 570.34 43.96 M272.49 386.6 C362.45 281.87, 454.07 177.07, 570.34 43.96 M277.48 386.96 C370.6 280.38, 463.49 174.8, 570.08 50.36 M277.48 386.96 C392.19 257.27, 505.73 126.96, 570.08 50.36 M283.12 386.57 C356.01 302.97, 429.27 219.22, 569.82 56.76 M283.12 386.57 C375.33 280.98, 466.88 176.85, 569.82 56.76 M288.11 386.93 C389.78 269.71, 490.94 153.8, 570.22 62.4 M288.11 386.93 C385.15 273.11, 482.79 160.7, 570.22 62.4 M293.75 386.53 C366.39 302.86, 441.08 218.69, 569.95 68.8 M293.75 386.53 C367.19 303.55, 440.34 218.22, 569.95 68.8 M298.74 386.89 C369.39 303.73, 439.87 221.73, 570.35 74.44 M298.74 386.89 C407.55 261.91, 515.87 137.24, 570.35 74.44 M304.38 386.5 C383.58 293.32, 464.02 200.57, 570.09 80.84 M304.38 386.5 C361.9 321.36, 418.37 256.55, 570.09 80.84 M309.37 386.86 C362.2 325.3, 416.53 264.25, 569.83 87.24 M309.37 386.86 C389.64 295.62, 468.74 205, 569.83 87.24 M315.01 386.46 C378.21 314.4, 441.02 238.81, 570.22 92.88 M315.01 386.46 C371.85 324.03, 427 260.24, 570.22 92.88 M320 386.82 C415.51 276.36, 511.35 166.5, 569.96 99.28 M320 386.82 C377.09 322.5, 432.67 257.53, 569.96 99.28 M325.64 386.43 C374.14 328.03, 424.46 270.31, 570.35 104.92 M325.64 386.43 C407.01 291.53, 489.45 196.26, 570.35 104.92 M330.63 386.79 C424.77 282.21, 515.18 176.35, 570.09 111.32 M330.63 386.79 C404.71 301.87, 479.4 216.3, 570.09 111.32 M336.27 386.39 C396.09 319.62, 454 253.01, 569.83 117.72 M336.27 386.39 C392.42 322.12, 447.81 258.48, 569.83 117.72 M341.26 386.75 C432.72 282.38, 523.69 178.08, 570.23 123.36 M341.26 386.75 C418.42 298.59, 493.69 210.32, 570.23 123.36 M346.9 386.36 C409.03 315.88, 473.75 240.8, 569.96 129.76 M346.9 386.36 C427.46 291.93, 509.59 198.4, 569.96 129.76 M351.89 386.72 C400.08 331.12, 447.65 275.21, 570.36 135.4 M351.89 386.72 C404.06 323.92, 456.61 262.98, 570.36 135.4 M357.53 386.33 C440.89 290.45, 524.7 193.93, 570.1 141.8 M357.53 386.33 C442.88 289.38, 527.41 191.89, 570.1 141.8 M362.52 386.69 C413.23 329.88, 461.89 272.85, 569.84 148.2 M362.52 386.69 C405.64 337.42, 448.05 288.63, 569.84 148.2 M367.51 387.05 C424.43 325.65, 475.93 262.6, 570.23 153.84 M367.51 387.05 C443.12 300.03, 520.66 211.3, 570.23 153.84 M373.15 386.65 C422.67 331.3, 471.17 276.65, 569.97 160.24 M373.15 386.65 C447.23 302.05, 521.46 216.21, 569.97 160.24 M378.14 387.01 C415.99 343.46, 456.63 298.01, 570.36 165.88 M378.14 387.01 C448.96 304.83, 521.67 221.4, 570.36 165.88 M383.78 386.62 C425.46 338.65, 469.73 290.11, 570.1 172.28 M383.78 386.62 C442.74 321.68, 501.14 254.01, 570.1 172.28 M388.77 386.98 C440.37 326.26, 490.22 270.19, 569.84 178.68 M388.77 386.98 C433.63 336.86, 478.5 285.77, 569.84 178.68 M394.41 386.58 C460.77 308.13, 529.4 231.5, 570.23 184.32 M394.41 386.58 C460.25 311.14, 526.3 235.17, 570.23 184.32 M399.4 386.94 C432.62 347.4, 468.09 307.52, 569.97 190.72 M399.4 386.94 C441.17 338.03, 483.14 289.53, 569.97 190.72 M405.04 386.55 C453.89 331.36, 500.73 274.79, 570.37 196.36 M405.04 386.55 C458.51 324.09, 512.7 261.37, 570.37 196.36 M410.03 386.91 C449 339.63, 490.26 294.4, 570.11 202.76 M410.03 386.91 C447.98 341.85, 485.79 297.96, 570.11 202.76 M415.67 386.51 C468.03 325.23, 522.86 263.73, 569.85 209.16 M415.67 386.51 C466.3 328.89, 518 269.46, 569.85 209.16 M420.66 386.87 C467.5 331.77, 515.79 278.48, 570.24 214.8 M420.66 386.87 C463.23 336.25, 505.64 287.68, 570.24 214.8 M426.3 386.48 C476.39 328.6, 526.33 268.5, 569.98 221.2 M426.3 386.48 C475.8 331.68, 525.02 276.03, 569.98 221.2 M431.29 386.84 C470.35 339.62, 512.75 291.95, 570.37 226.84 M431.29 386.84 C465.46 347.57, 499.27 308.47, 570.37 226.84 M436.93 386.44 C472.06 344.77, 509.75 300.38, 570.11 233.24 M436.93 386.44 C476.41 338.94, 518.11 291.74, 570.11 233.24 M441.92 386.8 C476.66 347.16, 512.91 303.68, 569.85 239.64 M441.92 386.8 C489.95 333, 536.95 276.83, 569.85 239.64 M447.56 386.41 C488.5 339.14, 526.59 293.99, 570.24 245.28 M447.56 386.41 C473.67 357.19, 499.94 328.46, 570.24 245.28 M452.55 386.77 C494.11 337.09, 532.6 290.1, 569.98 251.68 M452.55 386.77 C489.45 343.43, 527.31 298.69, 569.98 251.68 M458.19 386.37 C489.16 347.09, 522.79 310.32, 570.38 257.32 M458.19 386.37 C501.19 337.94, 543.68 287.56, 570.38 257.32 M463.18 386.73 C485.81 364.5, 504.91 337.83, 570.12 263.72 M463.18 386.73 C502.89 341.93, 543.2 296.19, 570.12 263.72 M468.82 386.34 C506.09 343.21, 542.38 300.56, 569.85 270.11 M468.82 386.34 C489.25 363.16, 510.46 339.43, 569.85 270.11 M473.81 386.7 C506.44 348.65, 536.71 313.83, 570.25 275.76 M473.81 386.7 C507.45 346.2, 542.46 306.87, 570.25 275.76 M479.45 386.31 C510.18 351.32, 536.42 319.64, 569.99 282.16 M479.45 386.31 C500.86 362.34, 522.79 338.65, 569.99 282.16 M484.44 386.67 C503.85 363.85, 521.46 342.67, 570.38 287.8 M484.44 386.67 C515.72 349.77, 545.4 313.51, 570.38 287.8 M489.43 387.03 C519.8 351.45, 547.95 320.1, 570.12 294.2 M489.43 387.03 C506.43 364.99, 524.32 345.37, 570.12 294.2 M495.07 386.63 C523.55 355.08, 546.91 324.44, 569.86 300.59 M495.07 386.63 C513.3 367.91, 529.63 347.02, 569.86 300.59 M500.06 386.99 C519.36 365.34, 537.64 342.09, 570.25 306.24 M500.06 386.99 C524.43 358.53, 546.56 332.15, 570.25 306.24 M505.7 386.6 C520.61 366.92, 537.58 348.35, 569.99 312.64 M505.7 386.6 C520.63 369.79, 535.93 353.03, 569.99 312.64 M510.69 386.96 C527.89 371.12, 542.06 351.85, 570.39 318.28 M510.69 386.96 C531.19 363.51, 548.8 341.28, 570.39 318.28 M516.33 386.56 C534.97 364.75, 557.7 338.34, 570.13 324.68 M516.33 386.56 C527.7 373.42, 537.5 360.1, 570.13 324.68 M521.32 386.92 C535.87 372.5, 551.01 354.22, 569.86 331.07 M521.32 386.92 C539.14 367.1, 555.85 347.89, 569.86 331.07 M526.96 386.53 C538.58 374.69, 547.76 364.44, 570.26 336.72 M526.96 386.53 C536.71 375.93, 546.57 362.87, 570.26 336.72 M531.95 386.89 C545.77 370.93, 563.17 354.67, 570 343.11 M531.95 386.89 C546.94 370.18, 560.95 352.59, 570 343.11 M538.25 385.74 C549.13 376.3, 555.97 363.97, 570.39 348.76 M538.25 385.74 C549.56 371.98, 560.33 358.7, 570.39 348.76 M544.54 384.59 C554.87 377.17, 562.2 366.74, 571.44 353.65 M544.54 384.59 C553.96 372.07, 564.91 361.53, 571.44 353.65 M550.84 383.44 C555.7 378.52, 559.57 371.82, 570.53 360.8 M550.84 383.44 C555.42 378.2, 560.12 371.64, 570.53 360.8" stroke="#a5d8ff" stroke-width="0.5" fill="none"></path><path d="M32 0 M32 0 C162.14 0.62, 292.12 0.58, 538 0 M32 0 C178.91 -0.48, 325.12 -0.05, 538 0 M538 0 C558.09 -1.53, 570.01 11.59, 570 32 M538 0 C559.54 2.18, 571.97 12.17, 570 32 M570 32 C572.6 134.8, 570.99 233.93, 570 353 M570 32 C569.12 156.46, 569.47 281.79, 570 353 M570 353 C569.05 375.64, 561.23 385.49, 538 385 M570 353 C569.38 374.9, 559.3 384.41, 538 385 M538 385 C364.38 385.9, 190.59 385.65, 32 385 M538 385 C364.25 384.45, 190.89 384.35, 32 385 M32 385 C10.3 383.14, -1.67 373.48, 0 353 M32 385 C9.32 385.03, -1.05 375.72, 0 353 M0 353 C-2.17 284.35, -2.15 215.1, 0 32 M0 353 C-1.38 234.9, -0.52 117.41, 0 32 M0 32 C0.27 8.97, 11.51 -1.51, 32 0 M0 32 C1.77 8.78, 8.44 0.66, 32 0" stroke="#1971c2" stroke-width="1" fill="none"></path></g><g stroke-opacity="0.5" fill-opacity="0.5" stroke-linecap="round" transform="translate(10 15) rotate(0 359.58333333333326 195)"><path d="M7.86 8.16 C7.86 8.16, 7.86 8.16, 7.86 8.16 M7.86 8.16 C7.86 8.16, 7.86 8.16, 7.86 8.16 M3.66 19.09 C8.9 15.27, 9 9.59, 18.1 2.48 M3.66 19.09 C9.15 12.67, 12.9 8.08, 18.1 2.48 M2.75 26.24 C6.42 19.23, 13.59 13.49, 24.4 1.33 M2.75 26.24 C9.29 19.87, 14.79 12.39, 24.4 1.33 M1.83 33.39 C9.63 20.69, 22.24 12.36, 30.7 0.18 M1.83 33.39 C10.11 24.15, 17.36 14.43, 30.7 0.18 M1.57 39.79 C9.52 29.02, 21.69 17.16, 34.37 2.05 M1.57 39.79 C12.18 26.17, 24.37 13.73, 34.37 2.05 M1.96 45.43 C11.26 31.91, 25.52 18.05, 39.36 2.41 M1.96 45.43 C12.99 34.38, 22.8 21.89, 39.36 2.41 M1.7 51.83 C14.9 35.6, 30.65 16.36, 45 2.02 M1.7 51.83 C10.37 41.48, 21.08 30.52, 45 2.02 M1.44 58.23 C19.57 37.23, 36.86 17.21, 49.99 2.38 M1.44 58.23 C17.72 41.2, 33.72 23.14, 49.99 2.38 M1.83 63.87 C22.76 40.9, 40.63 17.37, 55.63 1.98 M1.83 63.87 C12.45 51.26, 24.57 37.63, 55.63 1.98 M1.57 70.27 C23.07 43.32, 48.74 17.44, 60.62 2.34 M1.57 70.27 C24.34 43.52, 48.83 16.52, 60.62 2.34 M1.97 75.91 C22.31 54.28, 42.93 28.04, 66.26 1.95 M1.97 75.91 C14.8 61.4, 28.56 46.18, 66.26 1.95 M1.71 82.31 C17.92 60.67, 36.58 43.59, 71.25 2.31 M1.71 82.31 C21.06 60.16, 39.85 39.37, 71.25 2.31 M1.44 88.71 C28.39 59.26, 55.97 30.86, 76.89 1.91 M1.44 88.71 C21.71 65.83, 43.23 41.16, 76.89 1.91 M1.84 94.35 C32.58 58.97, 62.05 23.45, 81.88 2.27 M1.84 94.35 C30.63 61.13, 60.06 27.3, 81.88 2.27 M1.58 100.75 C19.66 82.14, 37.79 59.55, 87.52 1.88 M1.58 100.75 C29.82 66.33, 59.36 33.26, 87.52 1.88 M1.97 106.39 C23.19 82.02, 47.23 56.89, 92.51 2.24 M1.97 106.39 C25.5 80.31, 48.42 54.29, 92.51 2.24 M1.71 112.79 C26.92 83.48, 50.96 54.45, 98.15 1.85 M1.71 112.79 C26.56 82.88, 50.3 54.18, 98.15 1.85 M1.45 119.19 C36.94 82.21, 67.81 45.99, 103.14 2.21 M1.45 119.19 C35.34 79.3, 68.98 38.52, 103.14 2.21 M1.84 124.83 C32.49 90.78, 60.23 59.54, 108.78 1.81 M1.84 124.83 C40.26 81.63, 76.36 40.05, 108.78 1.81 M1.58 131.23 C29.52 98.15, 61.38 64.34, 113.77 2.17 M1.58 131.23 C22.33 105.78, 44.72 80.95, 113.77 2.17 M1.98 136.87 C49.76 82.39, 94.33 27.24, 119.41 1.78 M1.98 136.87 C33.8 99.81, 68.14 61.09, 119.41 1.78 M1.72 143.27 C43.58 96.77, 80.17 53.11, 124.4 2.14 M1.72 143.27 C30.63 109.99, 59.96 77.42, 124.4 2.14 M1.45 149.67 C50.36 89.17, 104.01 33.33, 130.04 1.74 M1.45 149.67 C47.42 97.27, 95.61 44.48, 130.04 1.74 M1.85 155.31 C48.26 100.46, 96.26 45.94, 135.03 2.1 M1.85 155.31 C33.74 118.72, 64.69 83.59, 135.03 2.1 M1.59 161.71 C33.35 125.46, 67.85 86.16, 140.67 1.71 M1.59 161.71 C39.13 117.97, 76.87 74.02, 140.67 1.71 M1.98 167.35 C35.59 129.21, 67.34 92.5, 145.66 2.07 M1.98 167.35 C56.48 105.39, 109.28 43.66, 145.66 2.07 M1.72 173.75 C42.24 130.42, 80.89 82.63, 150.65 2.43 M1.72 173.75 C46.6 122.22, 90.96 69.04, 150.65 2.43 M1.46 180.14 C31.05 142.85, 62.96 106.92, 156.29 2.03 M1.46 180.14 C42.8 131.51, 83.85 83.37, 156.29 2.03 M1.85 185.79 C39.76 142.2, 78.73 95.51, 161.28 2.39 M1.85 185.79 C57.96 120.2, 115 55.7, 161.28 2.39 M1.59 192.19 C56.62 129.46, 112.58 67.8, 166.92 2 M1.59 192.19 C49.29 136.04, 98.19 79.94, 166.92 2 M1.99 197.83 C59.39 130.24, 115.23 66.43, 171.91 2.36 M1.99 197.83 C51.59 138.23, 103.14 78.91, 171.91 2.36 M1.72 204.23 C52.33 148.96, 99.99 93.08, 177.55 1.96 M1.72 204.23 C43.04 156.45, 86.26 107.2, 177.55 1.96 M1.46 210.62 C59.21 148.66, 113.63 83.95, 182.54 2.32 M1.46 210.62 C45.88 158.13, 91.41 107.35, 182.54 2.32 M1.86 216.27 C58.94 153.31, 113.39 87.54, 188.18 1.93 M1.86 216.27 C60.83 149.99, 118.83 83.49, 188.18 1.93 M1.6 222.66 C61.83 155.5, 117.8 90.48, 193.17 2.29 M1.6 222.66 C55.52 159.78, 110.47 97.69, 193.17 2.29 M1.99 228.31 C53.05 170.32, 105.36 109.57, 198.81 1.9 M1.99 228.31 C57.3 164.4, 112.17 100.59, 198.81 1.9 M1.73 234.71 C61.12 167, 119.12 99.58, 203.8 2.26 M1.73 234.71 C59.98 168.2, 118.35 100.92, 203.8 2.26 M1.47 241.1 C48.83 187.28, 93.1 135.8, 209.44 1.86 M1.47 241.1 C73.75 156.67, 145.19 73.86, 209.44 1.86 M1.86 246.75 C49.52 191.95, 96.65 137.72, 214.43 2.22 M1.86 246.75 C77.27 157.1, 153.85 68.63, 214.43 2.22 M1.6 253.14 C49.27 195.6, 99.34 138.94, 220.07 1.83 M1.6 253.14 C67.24 176.36, 132.52 101.64, 220.07 1.83 M2 258.79 C62.96 189.73, 121.86 120.88, 225.06 2.19 M2 258.79 C89.58 157.33, 176.16 56.61, 225.06 2.19 M1.73 265.19 C83.24 170.91, 161.57 78.33, 230.7 1.79 M1.73 265.19 C77.43 178.03, 153.39 91.49, 230.7 1.79 M1.47 271.58 C90.43 169.19, 181.81 63.44, 235.69 2.15 M1.47 271.58 C65.93 198.22, 129.54 124.29, 235.69 2.15 M1.87 277.23 C58.96 207.27, 119.22 139.04, 241.33 1.76 M1.87 277.23 C57.48 212.18, 112.6 149.47, 241.33 1.76 M1.61 283.62 C83.48 190.63, 164.4 97.85, 246.32 2.12 M1.61 283.62 C71.11 202.02, 142.51 120.18, 246.32 2.12 M2 289.27 C94.45 182.05, 188.95 73.32, 251.96 1.72 M2 289.27 C97.46 177.07, 195.61 64.47, 251.96 1.72 M1.74 295.66 C68.66 217.71, 133.14 142.99, 256.95 2.08 M1.74 295.66 C89.13 196.99, 175.24 98.62, 256.95 2.08 M1.48 302.06 C103.69 182.92, 207.49 65.63, 262.59 1.69 M1.48 302.06 C105.28 183.75, 209.07 63.62, 262.59 1.69 M1.87 307.71 C93.63 206.55, 181.21 103.37, 267.58 2.05 M1.87 307.71 C82.52 216.14, 162.8 123.27, 267.58 2.05 M1.61 314.1 C101.7 200.66, 200.66 85.04, 272.56 2.41 M1.61 314.1 C67.16 238.65, 134.12 161.88, 272.56 2.41 M2.01 319.75 C88.83 218.73, 178 117.49, 278.21 2.01 M2.01 319.75 C80.54 230.12, 157.52 140.67, 278.21 2.01 M1.74 326.14 C98.82 211.46, 197.98 97.34, 283.19 2.37 M1.74 326.14 C93.66 220.66, 184.23 114.95, 283.19 2.37 M1.48 332.54 C108.73 210.41, 213.47 90.73, 288.84 1.98 M1.48 332.54 C103.33 214.61, 205.52 96.41, 288.84 1.98 M1.88 338.19 C61.26 271.65, 121.4 202.63, 293.82 2.34 M1.88 338.19 C67.84 262.65, 133.62 186.73, 293.82 2.34 M1.62 344.58 C72.74 263.39, 144.36 182.42, 299.47 1.94 M1.62 344.58 C69.59 265.69, 137.66 187.75, 299.47 1.94 M2.01 350.23 C120.12 214.65, 237.92 80.2, 304.45 2.3 M2.01 350.23 C104.12 233.82, 205.67 117.36, 304.45 2.3 M0.44 358.13 C92.61 251.99, 185.2 146.26, 310.1 1.91 M0.44 358.13 C118.04 222.7, 235.59 87.34, 310.1 1.91 M0.83 363.78 C112.89 233.04, 224.03 103.83, 315.08 2.27 M0.83 363.78 C78 271.86, 157.17 181.47, 315.08 2.27 M1.88 368.66 C96.49 260.83, 191.28 152.48, 320.73 1.88 M1.88 368.66 C97.67 257.16, 194.76 145.45, 320.73 1.88 M3.59 372.8 C126.38 232.2, 246.44 93.13, 325.71 2.24 M3.59 372.8 C118.6 238.45, 234.53 105.7, 325.71 2.24 M4.64 377.69 C136.12 227.31, 266.13 77.31, 331.36 1.84 M4.64 377.69 C100.43 266.63, 195.97 156.5, 331.36 1.84 M7.66 380.31 C106.21 265.25, 205.53 149.52, 336.34 2.2 M7.66 380.31 C90.3 286.9, 172.27 191.96, 336.34 2.2 M10.02 383.69 C131.81 243.66, 253.78 104.35, 341.99 1.81 M10.02 383.69 C87.1 292.45, 165.19 202.72, 341.99 1.81 M13.04 386.31 C146.81 233.75, 279.95 82.38, 346.97 2.17 M13.04 386.31 C117.89 264.22, 223.79 142.8, 346.97 2.17 M17.37 387.43 C134 250.06, 252.31 115.13, 352.62 1.77 M17.37 387.43 C92.62 301.92, 167.13 215.49, 352.62 1.77 M21.7 388.54 C127.51 267.54, 234.85 144.82, 357.6 2.13 M21.7 388.54 C137.98 255.01, 254.74 120.9, 357.6 2.13 M25.38 390.41 C135.44 266.12, 243.89 141.75, 363.25 1.74 M25.38 390.41 C143.49 255.78, 260.19 121.35, 363.25 1.74 M30.36 390.77 C140.49 265.82, 249.21 140.86, 368.23 2.1 M30.36 390.77 C142.06 262.05, 255.29 131.6, 368.23 2.1 M34.69 391.89 C111.12 304.51, 188.68 215.47, 373.88 1.7 M34.69 391.89 C135.09 278.27, 234.83 163.55, 373.88 1.7 M39.68 392.25 C134.28 286.63, 226.49 179.16, 378.86 2.06 M39.68 392.25 C130.79 286.68, 222.05 182.4, 378.86 2.06 M45.32 391.85 C126.86 299.24, 205.74 207.33, 383.85 2.42 M45.32 391.85 C166.15 252.99, 288.04 112.74, 383.85 2.42 M50.31 392.21 C127.96 304.16, 206.48 213.4, 389.49 2.03 M50.31 392.21 C164.31 259.73, 279.25 127.94, 389.49 2.03 M55.95 391.82 C159.71 274.38, 263.01 155.66, 394.48 2.39 M55.95 391.82 C135.42 301.5, 214.23 211.21, 394.48 2.39 M60.94 392.18 C145.6 294.57, 229.81 196.87, 400.12 1.99 M60.94 392.18 C174.37 261.04, 287.66 129.67, 400.12 1.99 M66.58 391.78 C198.23 238.87, 329.55 87.79, 405.11 2.35 M66.58 391.78 C135.73 314.04, 204.84 235.05, 405.11 2.35 M71.57 392.14 C205.78 238.44, 337.61 86.2, 410.75 1.96 M71.57 392.14 C158.2 293.78, 243.33 195.61, 410.75 1.96 M76.56 392.5 C162.86 294.47, 248.51 195.01, 415.74 2.32 M76.56 392.5 C198.21 251.99, 320.71 111.28, 415.74 2.32 M82.2 392.11 C189.96 268.59, 296.58 144.71, 421.38 1.93 M82.2 392.11 C177.06 285.83, 270.97 178.07, 421.38 1.93 M87.19 392.47 C172.4 291.96, 259.21 192.52, 426.37 2.29 M87.19 392.47 C154.34 314.94, 221.51 236.53, 426.37 2.29 M92.83 392.08 C187.73 280.03, 283.52 170.21, 432.01 1.89 M92.83 392.08 C161.95 313.31, 230.19 235.25, 432.01 1.89 M97.82 392.44 C218.25 253.54, 337.14 115.67, 437 2.25 M97.82 392.44 C166.96 310.97, 237.81 229.28, 437 2.25 M103.46 392.04 C220.87 253.84, 339.53 116.6, 442.64 1.86 M103.46 392.04 C177.26 307.59, 250.4 223.75, 442.64 1.86 M108.45 392.4 C213.34 271.97, 316.02 151.93, 447.63 2.22 M108.45 392.4 C203.77 285.15, 297.41 177.69, 447.63 2.22 M114.09 392.01 C243.32 244.29, 373.26 95.44, 453.27 1.82 M114.09 392.01 C218.71 270.27, 323.77 149.22, 453.27 1.82 M119.08 392.37 C212.62 283.93, 305.63 176.57, 458.26 2.18 M119.08 392.37 C218.37 276.02, 318.83 160.15, 458.26 2.18 M124.72 391.97 C202.76 302.98, 280.68 213.98, 463.9 1.79 M124.72 391.97 C217.32 284.48, 310.68 176.1, 463.9 1.79 M129.71 392.33 C203.17 306.86, 276.88 222.09, 468.89 2.15 M129.71 392.33 C251.75 253.34, 373.39 113.89, 468.89 2.15 M135.35 391.94 C258.24 253.29, 379.07 112.38, 474.53 1.75 M135.35 391.94 C239.77 271.87, 342.88 152.85, 474.53 1.75 M140.34 392.3 C241.44 276.32, 342.69 161.08, 479.52 2.11 M140.34 392.3 C258.31 256.75, 377.18 120.01, 479.52 2.11 M145.98 391.9 C221.71 303.99, 297.79 215.93, 485.17 1.72 M145.98 391.9 C275.56 241.06, 406.29 89.74, 485.17 1.72 M150.97 392.26 C240.44 286.19, 332.05 182.09, 490.15 2.08 M150.97 392.26 C275.1 248.68, 400 105.19, 490.15 2.08 M156.61 391.87 C256.92 278.47, 354.01 166.39, 495.8 1.68 M156.61 391.87 C262.73 271.67, 367.54 150.1, 495.8 1.68 M161.6 392.23 C261.34 279.07, 359.38 164.73, 500.78 2.04 M161.6 392.23 C262.77 277.72, 363.41 161.88, 500.78 2.04 M167.24 391.83 C237.28 308.1, 309.47 224.21, 505.77 2.4 M167.24 391.83 C258.45 288.26, 348.66 183.91, 505.77 2.4 M172.23 392.19 C284.92 263.75, 395.68 136.06, 511.41 2.01 M172.23 392.19 C249.82 301.97, 327.83 212.43, 511.41 2.01 M177.87 391.8 C263.67 293.53, 349.28 194.12, 516.4 2.37 M177.87 391.8 C261.13 293.61, 346.46 195.99, 516.4 2.37 M182.86 392.16 C296.75 260.89, 410.35 130.18, 522.04 1.98 M182.86 392.16 C270.97 290.07, 358.33 188.92, 522.04 1.98 M187.85 392.52 C278.42 287.01, 370.55 182.37, 527.03 2.34 M187.85 392.52 C273.64 295.52, 357.79 199.03, 527.03 2.34 M193.49 392.13 C286.95 283.59, 382.13 176.84, 532.67 1.94 M193.49 392.13 C285.28 285.19, 378.07 178.4, 532.67 1.94 M198.48 392.49 C307.46 266.9, 416.58 142.15, 537.66 2.3 M198.48 392.49 C282.55 293.33, 367.73 195.2, 537.66 2.3 M204.12 392.09 C307.43 272.85, 411.37 154.06, 543.3 1.91 M204.12 392.09 C328.28 250.86, 452.12 108.63, 543.3 1.91 M209.11 392.45 C299.5 288.05, 390.96 183.8, 548.29 2.27 M209.11 392.45 C293.28 294.62, 378.27 196.75, 548.29 2.27 M214.75 392.06 C343.58 240.69, 473.7 90.51, 553.93 1.87 M214.75 392.06 C289.65 305.56, 364.83 220.02, 553.93 1.87 M219.74 392.42 C345.75 247.58, 470.47 104.03, 558.92 2.23 M219.74 392.42 C300.73 300.67, 381.55 207.41, 558.92 2.23 M225.38 392.02 C319.38 285.28, 412.29 179.04, 564.56 1.84 M225.38 392.02 C339.02 261.07, 452.62 130.89, 564.56 1.84 M230.37 392.38 C327.6 282.13, 424.97 169.99, 569.55 2.2 M230.37 392.38 C299.14 314.18, 367.41 235.55, 569.55 2.2 M236.01 391.99 C346.65 264.16, 458.42 134.58, 575.19 1.8 M236.01 391.99 C369.19 238.6, 503.77 83.58, 575.19 1.8 M241 392.35 C333.12 287.21, 426.5 179.98, 580.18 2.16 M241 392.35 C353.57 261.91, 467.59 131.55, 580.18 2.16 M246.64 391.95 C353.99 268.49, 461.51 144.57, 585.82 1.77 M246.64 391.95 C347.05 276.98, 447.68 161.6, 585.82 1.77 M251.63 392.31 C384.09 237.97, 517.79 83.59, 590.81 2.13 M251.63 392.31 C328.82 303.43, 406.02 215.9, 590.81 2.13 M257.27 391.92 C388.49 241.97, 520.3 89.73, 596.45 1.73 M257.27 391.92 C368.14 264.12, 478.85 136.65, 596.45 1.73 M262.26 392.28 C365 272.17, 468.58 152.27, 601.44 2.09 M262.26 392.28 C353.17 288.59, 443.86 184.84, 601.44 2.09 M267.9 391.88 C369.42 273.06, 473.22 153.2, 607.08 1.7 M267.9 391.88 C397.02 245.09, 524.36 98.48, 607.08 1.7 M272.89 392.24 C363.95 287.4, 455.76 180.03, 612.07 2.06 M272.89 392.24 C356.83 295.08, 440.74 198.96, 612.07 2.06 M278.53 391.85 C357.77 301.8, 436 212.23, 617.06 2.42 M278.53 391.85 C392.53 259.8, 506.11 129.54, 617.06 2.42 M283.52 392.21 C402.69 256.71, 520.41 120.75, 622.7 2.02 M283.52 392.21 C404.97 252.7, 526.85 113.26, 622.7 2.02 M289.16 391.81 C396.18 265.73, 504.75 141.05, 627.69 2.38 M289.16 391.81 C389.87 276.36, 490.11 160.83, 627.69 2.38 M294.15 392.18 C427.33 240.33, 560.15 87.1, 633.33 1.99 M294.15 392.18 C427.81 239.15, 560.22 86.77, 633.33 1.99 M299.79 391.78 C414.81 261.95, 528.79 129.94, 638.32 2.35 M299.79 391.78 C418.01 255.94, 536.18 119.72, 638.32 2.35 M304.78 392.14 C395 287.12, 485.2 183.64, 643.96 1.96 M304.78 392.14 C417.95 259.54, 531.46 128.63, 643.96 1.96 M309.76 392.5 C389.31 301.42, 467.77 209.49, 648.95 2.32 M309.76 392.5 C438.8 242.07, 568.98 92.44, 648.95 2.32 M315.41 392.11 C392.11 301.21, 469.15 212.49, 654.59 1.92 M315.41 392.11 C445.21 240.94, 575.44 91.15, 654.59 1.92 M320.39 392.47 C447.96 246.11, 575.41 99.56, 659.58 2.28 M320.39 392.47 C417.63 279.71, 516.71 166, 659.58 2.28 M326.04 392.07 C442.02 258.86, 557.91 125.94, 665.22 1.89 M326.04 392.07 C435.95 266.49, 545.52 140.35, 665.22 1.89 M331.03 392.43 C438.62 266.2, 547.93 139.6, 670.21 2.25 M331.03 392.43 C453.52 250.2, 576 108.47, 670.21 2.25 M336.67 392.04 C424.59 289.69, 513.4 188.92, 675.85 1.85 M336.67 392.04 C455.27 255.91, 574.25 119.58, 675.85 1.85 M341.66 392.4 C420.93 302.21, 498.24 211.95, 680.84 2.21 M341.66 392.4 C437.69 280.18, 535.13 167.61, 680.84 2.21 M347.3 392 C431.36 294.76, 514.64 198.5, 687.79 0.31 M347.3 392 C433 295.81, 517.16 198.76, 687.79 0.31 M352.29 392.36 C442.25 290.42, 530.5 189.52, 692.78 0.67 M352.29 392.36 C473.97 252.69, 595.77 112.11, 692.78 0.67 M357.93 391.97 C479.68 251.71, 601.95 111.36, 696.45 2.54 M357.93 391.97 C430.76 310.7, 503.02 228.11, 696.45 2.54 M362.92 392.33 C486.64 248.88, 611.07 105.54, 700.79 3.65 M362.92 392.33 C453.42 290.93, 542.71 188.32, 700.79 3.65 M368.56 391.93 C456.73 291.71, 542.35 192.81, 705.12 4.77 M368.56 391.93 C445.91 301.28, 523.99 211.49, 705.12 4.77 M373.55 392.29 C479.22 270.56, 587.07 146.26, 708.79 6.64 M373.55 392.29 C472.07 277.84, 571.41 163.89, 708.79 6.64 M379.19 391.9 C512.02 240.01, 645.15 86.74, 711.81 9.26 M379.19 391.9 C479.49 279.03, 578.27 165.44, 711.81 9.26 M384.18 392.26 C471.48 289.34, 561.35 186.15, 714.83 11.89 M384.18 392.26 C497.45 262.26, 610.98 131.04, 714.83 11.89 M389.82 391.86 C470.17 297.99, 552.34 205.84, 717.19 15.26 M389.82 391.86 C454.27 315.1, 519.81 239.52, 717.19 15.26 M394.81 392.22 C519.26 250.22, 642.48 108.04, 718.9 19.4 M394.81 392.22 C492.83 279.89, 589.1 168.03, 718.9 19.4 M400.45 391.83 C481.83 297, 564.32 202.45, 719.29 25.04 M400.45 391.83 C504.47 271.27, 610.03 149.92, 719.29 25.04 M405.44 392.19 C471.16 317.59, 536.9 241.55, 720.34 29.93 M405.44 392.19 C486.58 301.44, 565.89 210.08, 720.34 29.93 M411.08 391.8 C502.09 288.82, 593.87 182.27, 722.05 34.06 M411.08 391.8 C496.54 290.6, 584.16 190.82, 722.05 34.06 M416.07 392.16 C512.22 282.81, 608.33 172.53, 721.79 40.46 M416.07 392.16 C504.99 289.08, 595.12 186.01, 721.79 40.46 M421.05 392.52 C485.21 319.41, 548.9 248.08, 721.53 46.86 M421.05 392.52 C490.9 309.27, 562.61 227.4, 721.53 46.86 M426.7 392.12 C503.05 304.14, 579.62 217.92, 721.92 52.5 M426.7 392.12 C519.1 285.78, 613.01 178.87, 721.92 52.5 M431.68 392.48 C510.62 303.2, 587.29 212.7, 721.66 58.9 M431.68 392.48 C546.91 261.22, 661.95 129.79, 721.66 58.9 M437.33 392.09 C549.14 262.06, 661.02 133.31, 722.06 64.54 M437.33 392.09 C494.23 323.94, 553.22 256.15, 722.06 64.54 M442.31 392.45 C536.98 285.81, 628.85 180.67, 721.79 70.94 M442.31 392.45 C538.77 281.88, 634.19 171.72, 721.79 70.94 M447.96 392.05 C529.03 300.9, 608.88 208.12, 721.53 77.34 M447.96 392.05 C517.31 309.79, 587.76 228.4, 721.53 77.34 M452.94 392.41 C521.32 314.01, 587.78 237.38, 721.93 82.98 M452.94 392.41 C526.43 308.02, 598.66 223.88, 721.93 82.98 M458.59 392.02 C537.77 298.91, 618.1 207.64, 721.67 89.38 M458.59 392.02 C552.41 282.68, 647.65 174.26, 721.67 89.38 M463.57 392.38 C538.91 304.81, 613.93 218.62, 722.06 95.02 M463.57 392.38 C559.62 281.95, 654.5 171.77, 722.06 95.02 M469.22 391.98 C567.96 279.13, 665.91 165.77, 721.8 101.42 M469.22 391.98 C519.53 334.06, 571.38 275.43, 721.8 101.42 M474.2 392.34 C550.4 301.81, 628.08 213.8, 721.54 107.82 M474.2 392.34 C532.34 327.26, 589.22 261.64, 721.54 107.82 M479.85 391.95 C555.59 303.98, 631.2 218.07, 721.93 113.46 M479.85 391.95 C547.8 312.57, 615.49 235.09, 721.93 113.46 M484.83 392.31 C574.1 291.26, 662.41 190.63, 721.67 119.86 M484.83 392.31 C541.57 326.26, 599.85 259.51, 721.67 119.86 M490.48 391.91 C540.46 332.16, 592.28 271.05, 722.07 125.5 M490.48 391.91 C556.91 318.77, 621.32 245.24, 722.07 125.5 M495.46 392.27 C570.23 306.97, 642.47 219.76, 721.8 131.9 M495.46 392.27 C540.5 338.41, 586.48 285.75, 721.8 131.9 M501.11 391.88 C565.2 316.55, 628.17 243.48, 721.54 138.3 M501.11 391.88 C563.22 317.55, 628.21 243.2, 721.54 138.3 M506.09 392.24 C559.77 332.68, 614.55 270.39, 721.94 143.94 M506.09 392.24 C567.33 320.08, 630.85 248.05, 721.94 143.94 M511.74 391.85 C567.52 327.02, 622.82 262.09, 721.68 150.34 M511.74 391.85 C556.39 340.76, 600.84 290.58, 721.68 150.34 M516.72 392.21 C594.28 303.67, 669.96 213.83, 722.07 155.98 M516.72 392.21 C578.34 318.26, 641.32 245.64, 722.07 155.98 M522.37 391.81 C586.56 320.1, 648.45 244.97, 721.81 162.38 M522.37 391.81 C586.79 319.1, 650.98 246.21, 721.81 162.38 M527.35 392.17 C603.23 306.06, 677.11 219.31, 721.55 168.78 M527.35 392.17 C572.7 338.49, 618.13 284.23, 721.55 168.78 M533 391.78 C569.77 349.02, 606.21 304.64, 721.94 174.42 M533 391.78 C594.36 321.87, 653.2 252.89, 721.94 174.42 M537.98 392.14 C596.52 323.5, 657.17 251.18, 721.68 180.82 M537.98 392.14 C589 335.47, 640.29 276.88, 721.68 180.82 M542.97 392.5 C590.8 335.89, 641.09 278.74, 722.07 186.46 M542.97 392.5 C594.79 333.52, 645.39 272.79, 722.07 186.46 M548.61 392.1 C594.41 337.6, 640.91 284.88, 721.81 192.86 M548.61 392.1 C585.92 352.14, 621.35 311.72, 721.81 192.86 M553.6 392.46 C602.35 337.59, 654.25 279.64, 721.55 199.26 M553.6 392.46 C609.13 329.73, 663.31 264.63, 721.55 199.26 M559.24 392.07 C602.01 341.69, 644.77 294.82, 721.95 204.9 M559.24 392.07 C598.2 349.52, 634.14 306.32, 721.95 204.9 M564.23 392.43 C598.03 352.4, 636.46 312.22, 721.69 211.3 M564.23 392.43 C614.23 333.6, 665.95 273.98, 721.69 211.3 M569.87 392.03 C627.93 329.09, 683.02 263.97, 722.08 216.94 M569.87 392.03 C620.39 335.92, 669.97 279.4, 722.08 216.94 M574.86 392.39 C605.66 354.77, 639.91 319.33, 721.82 223.34 M574.86 392.39 C627.32 329.39, 682.58 265.99, 721.82 223.34 M580.5 392 C615.72 351.95, 652.28 309.18, 721.56 229.74 M580.5 392 C620.73 345.19, 660.58 297.85, 721.56 229.74 M585.49 392.36 C618.73 355.66, 655.47 315.52, 721.95 235.38 M585.49 392.36 C633.16 335.18, 680.49 280.22, 721.95 235.38 M591.13 391.96 C637.33 336.16, 687.4 280.27, 721.69 241.78 M591.13 391.96 C633.41 345.61, 673.92 298.54, 721.69 241.78 M596.12 392.32 C630.03 353.59, 664.85 314.79, 722.08 247.42 M596.12 392.32 C642.61 340.79, 688.23 286.57, 722.08 247.42 M601.76 391.93 C646.86 342.9, 691.24 293.01, 721.82 253.82 M601.76 391.93 C648.05 338.98, 693.85 286.18, 721.82 253.82 M606.75 392.29 C633.17 361.8, 658.48 330.21, 721.56 260.22 M606.75 392.29 C642.02 354.31, 675.92 313.62, 721.56 260.22 M612.39 391.89 C648.87 349.62, 684.48 311.14, 721.96 265.86 M612.39 391.89 C644.79 355.28, 676.89 315.86, 721.96 265.86 M617.38 392.26 C648.7 355.65, 677.9 321.57, 721.69 272.26 M617.38 392.26 C643.16 362.91, 668.66 335.26, 721.69 272.26 M623.02 391.86 C652.18 360.01, 681.31 323.84, 722.09 277.9 M623.02 391.86 C648.04 363.58, 670.37 336.13, 722.09 277.9 M628.01 392.22 C646.32 369.32, 668.72 343.05, 721.83 284.3 M628.01 392.22 C655.11 362.38, 680.49 331.15, 721.83 284.3 M633.65 391.83 C662.32 358.11, 694.01 327.71, 721.57 290.69 M633.65 391.83 C652.65 371.22, 670.21 349.54, 721.57 290.69 M638.64 392.19 C670.68 354.41, 703.76 320.92, 721.96 296.34 M638.64 392.19 C664.57 360.07, 692.77 329.79, 721.96 296.34 M644.28 391.79 C667.31 366.28, 691.85 337.78, 721.7 302.74 M644.28 391.79 C674.04 356.8, 705.2 323.17, 721.7 302.74 M649.27 392.15 C674.05 364.61, 698.15 335.94, 722.09 308.38 M649.27 392.15 C664.92 373.24, 682.22 352.29, 722.09 308.38 M654.26 392.51 C671.44 371.92, 687.29 352.34, 721.83 314.78 M654.26 392.51 C678.94 364.56, 703.08 335.36, 721.83 314.78 M659.9 392.12 C674.84 376.86, 684.88 363.95, 721.57 321.17 M659.9 392.12 C680.51 368.72, 699.78 345.63, 721.57 321.17 M664.89 392.48 C680.78 376.35, 695.78 358.82, 721.97 326.82 M664.89 392.48 C685.37 369.73, 703.35 347.41, 721.97 326.82 M670.53 392.08 C690.2 368.9, 711.65 345.05, 721.7 333.22 M670.53 392.08 C685.51 374.08, 699.59 358.57, 721.7 333.22 M675.52 392.44 C693.02 373.55, 710.44 351.56, 722.1 338.86 M675.52 392.44 C690.14 375.81, 703.83 361.75, 722.1 338.86 M681.16 392.05 C691.69 382.03, 700.22 367.72, 721.84 345.26 M681.16 392.05 C696.79 373.96, 713.5 356.37, 721.84 345.26 M687.46 390.9 C694.51 383.19, 703.46 370.81, 721.58 351.65 M687.46 390.9 C695.74 381.18, 703.75 372.11, 721.58 351.65 M693.76 389.75 C701.44 378.46, 709.2 369.74, 720.66 358.81 M693.76 389.75 C703.72 378.53, 712.55 367.84, 720.66 358.81 M700.06 388.6 C708.45 381.34, 714.53 373.39, 719.74 365.96 M700.06 388.6 C706.99 381.64, 712.03 373.39, 719.74 365.96" stroke="#a5d8ff" stroke-width="0.5" fill="none"></path><path d="M32 0 M32 0 C273.88 -0.8, 515.99 -0.35, 687.17 0 M32 0 C183.86 -1.06, 336.23 -1.12, 687.17 0 M687.17 0 C709.28 1.62, 717.98 12.51, 719.17 32 M687.17 0 C706.96 0.01, 717.43 12.48, 719.17 32 M719.17 32 C719.88 117.76, 720.59 203.26, 719.17 358 M719.17 32 C721.41 110.7, 721.18 188.57, 719.17 358 M719.17 358 C719.06 379.62, 707.24 390.43, 687.17 390 M719.17 358 C717.41 378.58, 707.91 390.26, 687.17 390 M687.17 390 C458.55 390.94, 231.36 391.47, 32 390 M687.17 390 C509.23 387.51, 331.75 387.82, 32 390 M32 390 C10.01 390.01, 0.37 380.7, 0 358 M32 390 C8.46 391.78, -0.99 381.08, 0 358 M0 358 C-0.17 243.36, 0.94 129.96, 0 32 M0 358 C-0.61 288.25, 0.11 217.86, 0 32 M0 32 C-0.74 12.23, 10.74 1.15, 32 0 M0 32 C-2.16 9.37, 8.73 1.68, 32 0" stroke="#1971c2" stroke-width="1" fill="none"></path></g><g stroke-opacity="0.8" fill-opacity="0.8" stroke-linecap="round" transform="translate(268.33333333333303 99.99999999999977) rotate(0 42.91666666666663 40.83333333333337)"><path d="M20.42 0 M20.42 0 C33.31 -0.1, 42.66 1.36, 65.42 0 M20.42 0 C34.37 -1.19, 48.1 -1.27, 65.42 0 M65.42 0 C80.75 0.63, 87.05 6.09, 85.83 20.42 M65.42 0 C77.72 -1.17, 87.68 5.79, 85.83 20.42 M85.83 20.42 C86.37 36.89, 87.84 50.3, 85.83 61.25 M85.83 20.42 C85.9 33.61, 85.09 48.21, 85.83 61.25 M85.83 61.25 C84.91 76.42, 78.27 82.78, 65.42 81.67 M85.83 61.25 C84.53 73.15, 77.49 80.98, 65.42 81.67 M65.42 81.67 C50.7 82.59, 36.76 83.19, 20.42 81.67 M65.42 81.67 C52.12 80.5, 40.59 82, 20.42 81.67 M20.42 81.67 C7.89 81.53, 0.68 75.78, 0 61.25 M20.42 81.67 C7.16 83.24, -1.8 76.15, 0 61.25 M0 61.25 C0.19 50.66, 0.85 42.65, 0 20.42 M0 61.25 C-0.59 48.92, 0.15 36.95, 0 20.42 M0 20.42 C0.99 6.21, 5.35 -1.19, 20.42 0 M0 20.42 C-0.05 6.7, 8.45 1.01, 20.42 0" stroke="#1e1e1e" stroke-width="1" fill="none"></path></g><g stroke-opacity="0.8" fill-opacity="0.8" transform="translate(301.7160034179684 123.33333333333314) rotate(0 9.53399658203125 17.499999999999943)"><text x="9.53399658203125" y="0" font-family="Virgil, HanziPen SC, Cangnanshoujiti, KaiTi, Segoe UI Emoji" font-size="28px" fill="#1e1e1e" text-anchor="middle" style="white-space: pre;" direction="ltr" dominant-baseline="text-before-edge">3</text></g><g stroke-opacity="0.8" fill-opacity="0.8" stroke-linecap="round" transform="translate(387.91666666666606 95) rotate(0 42.91666666666663 40.83333333333337)"><path d="M20.42 0 M20.42 0 C30.71 -1.08, 43.4 0.85, 65.42 0 M20.42 0 C34.89 0.48, 49.18 -0.25, 65.42 0 M65.42 0 C79.65 -0.83, 84.22 4.84, 85.83 20.42 M65.42 0 C79.38 1.19, 87.08 6.65, 85.83 20.42 M85.83 20.42 C87.38 32.48, 87.14 46.44, 85.83 61.25 M85.83 20.42 C85.04 30.61, 85.89 40.07, 85.83 61.25 M85.83 61.25 C85.91 73.85, 77.87 80.45, 65.42 81.67 M85.83 61.25 C86.21 72.89, 80.17 80.98, 65.42 81.67 M65.42 81.67 C55.1 83.08, 45.84 82.08, 20.42 81.67 M65.42 81.67 C54.58 82.76, 44.62 81.29, 20.42 81.67 M20.42 81.67 C7.43 81.53, 0.91 74.31, 0 61.25 M20.42 81.67 C8.8 80.56, 1.51 73.49, 0 61.25 M0 61.25 C0.93 52.24, -2.3 39.52, 0 20.42 M0 61.25 C0.65 51.12, -0.48 40.9, 0 20.42 M0 20.42 C-1.22 5.21, 7.66 0.88, 20.42 0 M0 20.42 C0.63 7.28, 8.88 -0.66, 20.42 0" stroke="#1e1e1e" stroke-width="1" fill="none"></path></g><g stroke-opacity="0.8" fill-opacity="0.8" transform="translate(421.87333424886015 118.33333333333337) rotate(0 8.959999084472656 17.500000000000057)"><text x="8.959999084472656" y="0" font-family="Virgil, HanziPen SC, Cangnanshoujiti, KaiTi, Segoe UI Emoji" font-size="28px" fill="#1e1e1e" text-anchor="middle" style="white-space: pre;" direction="ltr" dominant-baseline="text-before-edge">4</text></g><g stroke-opacity="0.8" fill-opacity="0.8" stroke-linecap="round" transform="translate(507.08333333333326 98.33333333333326) rotate(0 42.91666666666663 40.83333333333337)"><path d="M20.42 0 M20.42 0 C33.85 1.09, 43.17 1.68, 65.42 0 M20.42 0 C31.6 0.08, 42.11 0.71, 65.42 0 M65.42 0 C78.45 1.85, 84.92 5.94, 85.83 20.42 M65.42 0 C78.22 1.58, 84.38 8.57, 85.83 20.42 M85.83 20.42 C87.89 30.5, 88.06 38.28, 85.83 61.25 M85.83 20.42 C85.59 32.25, 85.38 45.81, 85.83 61.25 M85.83 61.25 C87.22 74.41, 78.48 80.1, 65.42 81.67 M85.83 61.25 C84.25 76.7, 78.83 81.37, 65.42 81.67 M65.42 81.67 C52.89 84.03, 46.15 81.47, 20.42 81.67 M65.42 81.67 C51.2 82.35, 37.33 82.33, 20.42 81.67 M20.42 81.67 C6.36 79.88, 1.88 74.33, 0 61.25 M20.42 81.67 C5.21 81.18, 1.07 73.7, 0 61.25 M0 61.25 C-0.06 49.83, 0.53 43.43, 0 20.42 M0 61.25 C-0.04 51.84, 0.45 42.57, 0 20.42 M0 20.42 C-0.45 7.9, 7.04 1.25, 20.42 0 M0 20.42 C1.58 4.58, 7.28 2.03, 20.42 0" stroke="#1e1e1e" stroke-width="1" fill="none"></path></g><g stroke-opacity="0.8" fill-opacity="0.8" transform="translate(541.3479995727537 121.66666666666663) rotate(0 8.652000427246094 17.499999999999943)"><text x="8.652000427246094" y="0" font-family="Virgil, HanziPen SC, Cangnanshoujiti, KaiTi, Segoe UI Emoji" font-size="28px" fill="#1e1e1e" text-anchor="middle" style="white-space: pre;" direction="ltr" dominant-baseline="text-before-edge">5</text></g><g stroke-opacity="0.8" fill-opacity="0.8" stroke-linecap="round" transform="translate(171.24999999999977 210.83333333333303) rotate(0 42.91666666666663 40.83333333333337)"><path d="M20.42 0 M20.42 0 C33.36 1.14, 44.59 -1.46, 65.42 0 M20.42 0 C31.02 -0.38, 41.77 -0.23, 65.42 0 M65.42 0 C79.12 1.73, 84.01 7.22, 85.83 20.42 M65.42 0 C79.45 -1.4, 83.99 6.23, 85.83 20.42 M85.83 20.42 C86.2 34.45, 85.44 48.63, 85.83 61.25 M85.83 20.42 C85.84 31.71, 84.71 41.99, 85.83 61.25 M85.83 61.25 C84.11 75.73, 79.04 82, 65.42 81.67 M85.83 61.25 C85.18 74.9, 76.73 82.69, 65.42 81.67 M65.42 81.67 C54.89 83.8, 46.2 82.58, 20.42 81.67 M65.42 81.67 C55.09 81.35, 46.58 82.11, 20.42 81.67 M20.42 81.67 C6.58 80.01, -1.32 75.3, 0 61.25 M20.42 81.67 C6.92 81.75, -0.87 75.34, 0 61.25 M0 61.25 C1.75 49.69, -1.3 35.42, 0 20.42 M0 61.25 C-0.37 48.72, 0.67 36.13, 0 20.42 M0 20.42 C0.09 6.57, 8.26 -1.41, 20.42 0 M0 20.42 C1.6 7.97, 7.81 0.52, 20.42 0" stroke="#1e1e1e" stroke-width="1" fill="none"></path></g><g stroke-opacity="0.8" fill-opacity="0.8" transform="translate(210.37266794840468 234.1666666666663) rotate(0 3.7939987182617188 17.5)"><text x="3.7939987182617188" y="0" font-family="Virgil, HanziPen SC, Cangnanshoujiti, KaiTi, Segoe UI Emoji" font-size="28px" fill="#1e1e1e" text-anchor="middle" style="white-space: pre;" direction="ltr" dominant-baseline="text-before-edge">1</text></g><g stroke-opacity="0.8" fill-opacity="0.8" stroke-linecap="round" transform="translate(980.4166666666661 102.91666666666629) rotate(0 42.91666666666663 40.83333333333337)"><path d="M20.42 0 M20.42 0 C37.94 -0.48, 55.72 -1.75, 65.42 0 M20.42 0 C30.72 -0.49, 41.44 -0.52, 65.42 0 M65.42 0 C80.64 -0.11, 85.89 6.19, 85.83 20.42 M65.42 0 C80.2 -1.54, 84.94 8.38, 85.83 20.42 M85.83 20.42 C87.75 28.94, 86.26 37.62, 85.83 61.25 M85.83 20.42 C85.5 33.75, 85.38 46.5, 85.83 61.25 M85.83 61.25 C84.96 72.95, 79.72 80.07, 65.42 81.67 M85.83 61.25 C85.08 72.6, 78.52 80.42, 65.42 81.67 M65.42 81.67 C55.89 82.74, 44.14 82.79, 20.42 81.67 M65.42 81.67 C49.14 82.02, 32.94 81.11, 20.42 81.67 M20.42 81.67 C7.91 81.64, -1.68 74.8, 0 61.25 M20.42 81.67 C5.01 81.14, -0.35 73.65, 0 61.25 M0 61.25 C-0.66 44.94, -1.38 30.42, 0 20.42 M0 61.25 C0.14 52.33, 0.16 44.79, 0 20.42 M0 20.42 C0.06 4.95, 8 0.87, 20.42 0 M0 20.42 C-1.95 7.14, 6.08 -1.36, 20.42 0" stroke="#1e1e1e" stroke-width="1" fill="none"></path></g><g stroke-opacity="0.8" fill-opacity="0.8" transform="translate(1013.7993367513018 126.24999999999977) rotate(0 9.53399658203125 17.5)"><text x="9.53399658203125" y="0" font-family="Virgil, HanziPen SC, Cangnanshoujiti, KaiTi, Segoe UI Emoji" font-size="28px" fill="#1e1e1e" text-anchor="middle" style="white-space: pre;" direction="ltr" dominant-baseline="text-before-edge">3</text></g><g stroke-opacity="0.8" fill-opacity="0.8" stroke-linecap="round" transform="translate(1099.9999999999995 97.91666666666629) rotate(0 42.91666666666663 40.83333333333337)"><path d="M20.42 0 M20.42 0 C32.32 1.39, 47.61 0.02, 65.42 0 M20.42 0 C33.21 0.11, 44.41 -0.14, 65.42 0 M65.42 0 C80.05 -1.34, 85.05 8.18, 85.83 20.42 M65.42 0 C77.44 2.23, 86.32 8.55, 85.83 20.42 M85.83 20.42 C85.99 29.97, 85.11 40.92, 85.83 61.25 M85.83 20.42 C85.28 34.92, 86.06 50.52, 85.83 61.25 M85.83 61.25 C85.18 72.9, 78.59 80.58, 65.42 81.67 M85.83 61.25 C84.73 76.82, 79.89 83.76, 65.42 81.67 M65.42 81.67 C51.31 81.49, 35.85 82.72, 20.42 81.67 M65.42 81.67 C52.39 81.25, 37.42 81.24, 20.42 81.67 M20.42 81.67 C5.25 81.21, -0.31 73.81, 0 61.25 M20.42 81.67 C8.57 82.89, 0.77 74.35, 0 61.25 M0 61.25 C-1.68 50.64, -0.57 40.73, 0 20.42 M0 61.25 C-0.01 50.44, 0.55 41.92, 0 20.42 M0 20.42 C-1.69 7.1, 6.18 -1.18, 20.42 0 M0 20.42 C1.83 8.66, 6.15 0.68, 20.42 0" stroke="#1e1e1e" stroke-width="1" fill="none"></path></g><g stroke-opacity="0.8" fill-opacity="0.8" transform="translate(1133.9566675821934 121.24999999999955) rotate(0 8.959999084472656 17.5)"><text x="8.959999084472656" y="0" font-family="Virgil, HanziPen SC, Cangnanshoujiti, KaiTi, Segoe UI Emoji" font-size="28px" fill="#1e1e1e" text-anchor="middle" style="white-space: pre;" direction="ltr" dominant-baseline="text-before-edge">4</text></g><g stroke-opacity="0.8" fill-opacity="0.8" stroke-linecap="round" transform="translate(1219.1666666666665 101.24999999999977) rotate(0 42.91666666666663 40.83333333333337)"><path d="M20.42 0 M20.42 0 C35.67 0.3, 51.52 1.68, 65.42 0 M20.42 0 C34.19 -0.53, 46.55 0.82, 65.42 0 M65.42 0 C77.65 1.94, 86.26 8.33, 85.83 20.42 M65.42 0 C77.99 0.04, 83.94 6.98, 85.83 20.42 M85.83 20.42 C87.25 30.36, 87.64 40.54, 85.83 61.25 M85.83 20.42 C85.65 27.79, 85.76 36.59, 85.83 61.25 M85.83 61.25 C84.88 76.57, 79.78 83.49, 65.42 81.67 M85.83 61.25 C86.87 76.49, 80.12 83.3, 65.42 81.67 M65.42 81.67 C52.83 83.71, 38.4 82.96, 20.42 81.67 M65.42 81.67 C51.2 81.42, 38.4 81.12, 20.42 81.67 M20.42 81.67 C8.34 82.73, 0.67 74.42, 0 61.25 M20.42 81.67 C5.73 80.33, -0.08 72.66, 0 61.25 M0 61.25 C-0.99 49.76, 0.6 37.92, 0 20.42 M0 61.25 C-1.09 52.94, -0.56 43.75, 0 20.42 M0 20.42 C1.59 8.42, 6.23 0.59, 20.42 0 M0 20.42 C0.68 4.98, 4.57 0.57, 20.42 0" stroke="#1e1e1e" stroke-width="1" fill="none"></path></g><g stroke-opacity="0.8" fill-opacity="0.8" transform="translate(1253.431332906087 124.58333333333303) rotate(0 8.652000427246094 17.5)"><text x="8.652000427246094" y="0" font-family="Virgil, HanziPen SC, Cangnanshoujiti, KaiTi, Segoe UI Emoji" font-size="28px" fill="#1e1e1e" text-anchor="middle" style="white-space: pre;" direction="ltr" dominant-baseline="text-before-edge">5</text></g><g stroke-opacity="0.8" fill-opacity="0.8" stroke-linecap="round" transform="translate(883.333333333333 213.74999999999932) rotate(0 42.91666666666663 40.83333333333337)"><path d="M20.42 0 M20.42 0 C34.34 -0.31, 47.86 0.66, 65.42 0 M20.42 0 C30.21 0.66, 41.6 0.45, 65.42 0 M65.42 0 C78.12 0.04, 84.18 6.95, 85.83 20.42 M65.42 0 C78.04 -0.84, 85.47 8.61, 85.83 20.42 M85.83 20.42 C84.33 32.22, 84.63 42, 85.83 61.25 M85.83 20.42 C85.27 29.51, 86.12 37.81, 85.83 61.25 M85.83 61.25 C86.74 76.28, 79.98 83.09, 65.42 81.67 M85.83 61.25 C85.38 76.57, 79.99 81.71, 65.42 81.67 M65.42 81.67 C47.72 80.23, 30.03 80.36, 20.42 81.67 M65.42 81.67 C53.71 81.96, 40.81 81.21, 20.42 81.67 M20.42 81.67 C5.87 80.51, -0.07 72.94, 0 61.25 M20.42 81.67 C6.49 80.74, 0.19 73.53, 0 61.25 M0 61.25 C-1.95 49.77, 0.78 34.21, 0 20.42 M0 61.25 C0.92 49.21, -0.16 35.85, 0 20.42 M0 20.42 C0.59 5.22, 4.86 0.5, 20.42 0 M0 20.42 C-2.29 5.66, 6.73 0.98, 20.42 0" stroke="#1e1e1e" stroke-width="1" fill="none"></path></g><g stroke-opacity="0.8" fill-opacity="0.8" transform="translate(916.2820053100581 237.08333333333258) rotate(0 9.967994689941406 17.5)"><text x="9.967994689941406" y="0" font-family="Virgil, HanziPen SC, Cangnanshoujiti, KaiTi, Segoe UI Emoji" font-size="28px" fill="#1e1e1e" text-anchor="middle" style="white-space: pre;" direction="ltr" dominant-baseline="text-before-edge">2</text></g></svg>