<svg version="1.1" xmlns="http://www.w3.org/2000/svg" viewBox="0 0 1131.1415335621634 1305.8525635274946" width="2262.283067124327" height="2611.705127054989">
  <!-- svg-source:excalidraw -->
  
  <defs>
    <style class="style-fonts">
      @font-face {
        font-family: "Virgil";
        src: url("https://excalidraw.com/Virgil.woff2");
      }
      @font-face {
        font-family: "Cascadia";
        src: url("https://excalidraw.com/Cascadia.woff2");
      }
    </style>
    
  </defs>
  <rect x="0" y="0" width="1131.1415335621634" height="1305.8525635274946" fill="#fffce8"></rect><g stroke-linecap="round" transform="translate(314.7844739656666 162.4459396124132) rotate(0 40.47323134215003 42.85400965639417)"><path d="M-1.1 -0.14 C18.19 1.3, 34.27 2.12, 82.25 1.85 M-0.18 0.17 C22.07 0.59, 43.52 -0.22, 80.01 -0.99 M79.88 0.36 C81.57 26.66, 80.67 58.32, 79.56 83.81 M80.11 0.23 C81.67 32.02, 80.92 64.79, 81.47 85.21 M80.71 85.35 C59.45 85.97, 37.08 84.05, -0.84 84.43 M81.06 86.59 C55.57 85.52, 29.8 85.6, -0.67 86.1 M0.82 87.18 C0.49 60.5, -0.96 34.87, -1.88 -1.93 M0.73 85.86 C1.49 57.69, 1.45 30.26, 0.88 0.7" stroke="#000000" stroke-width="4" fill="none"></path></g><g stroke-linecap="round" transform="translate(395.73093664998646 162.4459396124132) rotate(0 40.47323134215003 42.85400965639417)"><path d="M1.16 0.56 C17.13 1.44, 35.15 1.9, 80.43 -1.48 M-0.14 0.16 C19.09 -0.79, 39.01 -1.13, 81.24 -0.61 M82.09 -1.54 C80.74 25.65, 79.1 45.55, 82.43 86 M81.55 -0.05 C80.08 27.98, 80.75 54.16, 80.69 84.95 M81.69 86.39 C61.51 84.33, 40.02 84.28, 0.26 85.9 M80.91 85.87 C59.72 86.67, 38.77 86.82, -0.14 85.75 M0.53 85.03 C-1.28 50.64, -2.23 17.23, 0.48 -1.47 M0.86 85.45 C0.19 53.78, 0.25 22.41, -0.3 -0.09" stroke="#000000" stroke-width="4" fill="none"></path></g><g stroke-linecap="round" transform="translate(476.78651834038646 162.4459396124132) rotate(0 40.47323134215003 42.85400965639417)"><path d="M0.21 1.38 C25.03 1.62, 46.93 -1.7, 79.88 -0.36 M-0.89 -0.65 C24.75 -1.12, 51.66 -0.73, 80.71 -0.53 M81.19 1.92 C80.05 25.36, 82.92 54.82, 81.32 84.03 M80.8 0.65 C81.99 27.18, 81.21 54.59, 80.42 85.59 M81.55 84.47 C57.29 84.71, 35.56 86.18, -0.87 85.94 M80.47 85.95 C48.83 86.24, 17.93 85.88, 0.88 86.12 M-0.93 83.91 C-2.11 51.76, 0.25 20.2, 1.47 1.47 M0.82 85.77 C0.14 59.39, -1.04 31.58, -0.35 0.37" stroke="#000000" stroke-width="4" fill="none"></path></g><g stroke-linecap="round" transform="translate(557.7329810246554 162.4459396124132) rotate(0 40.47323134215003 42.85400965639417)"><path d="M1.3 1.85 C26.04 -2.04, 52.03 -0.92, 81.29 -0.27 M-0.94 -0.99 C25.85 -0.08, 50.89 -0.01, 81.13 0.57 M79.56 -1.9 C82.54 19.42, 81.43 36.58, 81.4 86.91 M81.47 -0.5 C80.57 24.57, 80.3 50.53, 80.77 86.08 M80.11 84.43 C54.15 85.4, 25.96 85.44, 1.77 85.63 M80.27 86.1 C55.18 85.94, 30.57 86.32, 0.74 85.97 M-1.88 83.78 C0.88 61.44, 1.86 41.59, 0.3 1.72 M0.88 86.4 C-1 62.13, -1.05 39.1, 0.12 0.8" stroke="#000000" stroke-width="4" fill="none"></path></g><g stroke-linecap="round" transform="translate(639.4730364803809 162.4459396124132) rotate(0 40.47323134215003 42.85400965639417)"><path d="M-0.51 -1.48 C28.81 -1.11, 60.09 -1.02, 81.26 -1.77 M0.29 -0.61 C18.81 0.27, 38.26 1.37, 80.18 0.12 M82.43 0.29 C80.73 32.26, 80.81 69.08, 80.86 85.41 M80.69 -0.76 C80.87 31.2, 81.22 63.02, 81.29 86.01 M81.21 85.9 C60.79 85.42, 44.14 85.12, 0.33 84.76 M80.81 85.75 C55.58 86.44, 29.19 86.29, -0.34 85.24 M0.48 84.23 C2.27 69.15, 1.11 51.38, -0.52 1.63 M-0.3 85.62 C-1.1 59.83, -0.63 34, 0.85 -0.3" stroke="#000000" stroke-width="4" fill="none"></path></g><g stroke-linecap="round" transform="translate(314.7844739656666 248.6459134947023) rotate(0 40.47323134215003 42.85400965639417)"><path d="M-1.07 -0.36 C32.1 0.33, 63.83 -1.17, 79.65 -1.87 M-0.23 -0.53 C16.45 1.06, 31.76 0.61, 81.91 -0.69 M81.32 -1.68 C82.04 18.76, 81.49 34.84, 82.26 86.76 M80.42 -0.12 C80.55 21.82, 81.07 43.19, 80.33 85.29 M80.07 85.94 C63.6 85.71, 43.05 84.84, 0.49 84.36 M81.83 86.12 C54.2 86, 25.64 85.27, -0.9 84.77 M1.47 87.17 C0.1 69.98, -0.72 52.45, 0.13 1.75 M-0.35 86.08 C0.38 54.83, 1.11 22.03, -0.81 0.99" stroke="#000000" stroke-width="4" fill="none"></path></g><g stroke-linecap="round" transform="translate(395.73093664998646 248.6459134947023) rotate(0 40.47323134215003 42.85400965639417)"><path d="M0.35 -0.27 C18.62 -1.63, 35.31 -1.73, 78.97 0.58 M0.18 0.57 C18.61 0.56, 39.71 -0.26, 80 0.74 M81.4 1.2 C81.02 26.66, 82.42 54.97, 79.95 85.2 M80.77 0.37 C80.84 19.52, 79.88 38.02, 80.31 85.84 M82.71 85.63 C56.21 84.85, 31.3 84.46, 0.79 85.43 M81.68 85.97 C56.01 85.58, 30.85 85.1, -0.96 85.95 M0.3 87.42 C-1.15 67.95, -0.5 48.68, 1.39 -0.61 M0.12 86.51 C1.15 60.43, -0.51 36.74, -0.51 -0.25" stroke="#000000" stroke-width="4" fill="none"></path></g><g stroke-linecap="round" transform="translate(476.78651834038646 248.6459134947023) rotate(0 40.47323134215003 42.85400965639417)"><path d="M0.32 -1.77 C21.53 -1.76, 43.67 0.69, 79.73 -0.46 M-0.77 0.12 C20.91 -1.15, 38.96 0.28, 81.09 0.19 M80.86 -0.3 C82.45 19.58, 80.15 36.55, 79.43 84.66 M81.29 0.3 C80.17 24.28, 80.15 49.53, 81.04 85.27 M81.28 84.76 C56.22 84.33, 31.32 85.4, 0.08 87.47 M80.61 85.24 C52.43 84.98, 24.74 86.16, -0.74 86.44 M-0.52 87.34 C0 55.46, 1.26 21.1, -0.17 -0.71 M0.85 85.4 C-0.91 57.79, -0.62 27.64, 0.34 -0.12" stroke="#000000" stroke-width="4" fill="none"></path></g><g stroke-linecap="round" transform="translate(557.7329810246554 248.6459134947023) rotate(0 40.47323134215003 42.85400965639417)"><path d="M-1.3 -1.87 C21.2 1.3, 45.15 0.25, 79.88 0.36 M0.96 -0.69 C27.94 0.64, 57.93 0.09, 80.11 0.23 M82.26 1.05 C79.91 30.34, 79.39 60.64, 80.71 85.35 M80.33 -0.42 C80.6 29.04, 81.34 57.38, 81.06 86.59 M81.43 84.36 C57.75 85.05, 33.05 87.09, 0.82 87.18 M80.05 84.77 C53.57 85.57, 27.39 86.07, 0.73 85.86 M0.13 87.46 C1.62 52.03, 0.05 18.87, 0.75 0.24 M-0.81 86.7 C-1.24 52.85, -0.38 20.38, -0.06 -0.22" stroke="#000000" stroke-width="4" fill="none"></path></g><g stroke-linecap="round" transform="translate(639.4730364803809 248.6459134947023) rotate(0 40.47323134215003 42.85400965639417)"><path d="M-1.98 0.58 C15.89 0.3, 33.14 1.12, 82.09 -1.54 M-0.95 0.74 C25.43 0.75, 49.74 0.79, 81.55 -0.05 M79.95 -0.51 C79.99 23.39, 81.27 48.52, 81.69 86.39 M80.31 0.13 C80.51 27.87, 80.53 57.5, 80.91 85.87 M81.74 85.43 C60.59 86.93, 40.89 86.64, 0.53 85.03 M79.98 85.95 C59.69 85.68, 40.63 85.1, 0.86 85.45 M1.39 85.1 C-0.23 52.29, 0.69 20.52, 1.61 1.69 M-0.51 85.46 C1.04 62.47, 0.63 39.26, -0.64 0.04" stroke="#000000" stroke-width="4" fill="none"></path></g><g stroke-linecap="round" transform="translate(314.7844739656666 334.84588737698607) rotate(0 40.47323134215003 42.85400965639417)"><path d="M-1.21 -0.46 C15.63 0.13, 34.54 -1.77, 81.19 1.92 M0.15 0.19 C17.83 -0.37, 37.94 -0.65, 80.8 0.65 M79.43 -1.05 C80.28 29.86, 81.26 61.12, 81.55 84.47 M81.04 -0.44 C80.51 23.01, 80.36 44.43, 80.47 85.95 M81.02 87.47 C62.92 87.07, 43.78 84.91, -0.93 83.91 M80.21 86.44 C65 86.05, 48.45 85.64, 0.82 85.77 M-0.17 85 C0.15 52.73, 1.01 20.96, -0.61 -1.62 M0.34 85.59 C0.38 51.3, -0.2 17.38, -0.1 -0.83" stroke="#000000" stroke-width="4" fill="none"></path></g><g stroke-linecap="round" transform="translate(395.73093664998646 334.84588737698607) rotate(0 40.47323134215003 42.85400965639417)"><path d="M-1.07 0.36 C27.77 -1.35, 53.51 2.11, 79.56 -1.9 M-0.84 0.23 C30.88 -0.2, 60.42 0.5, 81.47 -0.5 M80.71 -0.36 C81.04 24.23, 80.9 45.86, 80.11 84.43 M81.06 0.88 C80.99 26.99, 80.55 53.9, 80.27 86.1 M81.77 87.18 C58.31 85.74, 33.7 84.63, -1.88 83.78 M81.68 85.86 C55.59 86.04, 29.33 86.36, 0.88 86.4 M0.75 85.95 C1.68 64.29, -0.53 37.88, 1.98 -1.02 M-0.06 85.48 C-0.93 62.17, -0.39 37.71, 0.38 -0.79" stroke="#000000" stroke-width="4" fill="none"></path></g><g stroke-linecap="round" transform="translate(476.78651834038646 334.84588737698607) rotate(0 40.47323134215003 42.85400965639417)"><path d="M1.14 -1.54 C22.66 1.77, 43.43 -2.05, 82.43 0.29 M0.6 -0.05 C25.66 0.47, 52.14 -0.68, 80.69 -0.76 M81.69 0.68 C81.45 19.99, 80.01 41.17, 81.21 85.9 M80.91 0.17 C80.57 22.21, 80.37 44.34, 80.81 85.75 M81.47 85.03 C48.59 84.51, 16.21 84.37, 0.48 84.23 M81.8 85.45 C51.55 85.89, 21.39 86.53, -0.3 85.62 M1.61 87.4 C-0.93 61.4, 1.66 39.31, -0.5 0.69 M-0.64 85.75 C-0.04 60.2, 0.43 35.56, 0.43 -0.52" stroke="#000000" stroke-width="4" fill="none"></path></g><g transform="translate(487.0017617064623 355.1998970333801) rotate(0 30.25798797607422 22.5)"><text x="30.25798797607422" y="0" font-family="Virgil, HanziPen SC, Cangnanshoujiti, KaiTi, Segoe UI Emoji" font-size="36px" fill="#1e1e1e" text-anchor="middle" style="white-space: pre;" direction="ltr" dominant-baseline="text-before-edge">2,2</text></g><g stroke-linecap="round" transform="translate(557.7329810246554 334.84588737698607) rotate(0 40.47323134215003 42.85400965639417)"><path d="M0.25 1.92 C24.36 -1.28, 52.98 0.91, 81.32 -1.68 M-0.15 0.65 C26.66 -0.46, 52.02 -0.72, 80.42 -0.12 M81.55 -1.23 C80.43 22.89, 81.53 48.52, 80.07 85.94 M80.47 0.24 C80.24 33.69, 80.78 66.62, 81.83 86.12 M80.02 83.91 C48.83 83.5, 20.95 83.96, 1.47 87.17 M81.76 85.77 C56.3 86.19, 29.61 85.41, -0.35 86.08 M-0.61 84.09 C1.29 57.93, -1.19 32.89, -0.24 -0.12 M-0.1 84.88 C0.92 61.12, 0.98 37.6, -0.14 0.25" stroke="#000000" stroke-width="4" fill="none"></path></g><g stroke-linecap="round" transform="translate(639.4730364803809 334.84588737698607) rotate(0 40.47323134215003 42.85400965639417)"><path d="M-1.39 -1.9 C19.55 -0.49, 36.51 -2.45, 81.4 1.2 M0.53 -0.5 C23.67 -1.29, 47.31 -0.65, 80.77 0.37 M80.11 -1.28 C81.47 28.84, 80.33 57.52, 82.71 85.63 M80.27 0.4 C80.4 27.17, 81.42 54.68, 81.68 85.97 M79.07 83.78 C59.9 83.51, 39.36 86.45, 0.3 87.42 M81.82 86.4 C58.46 85.67, 36.23 86.13, 0.12 86.51 M1.98 84.69 C-0.24 53.44, 0.02 19.67, -0.45 -1.27 M0.38 84.91 C0.51 59.1, -0.06 33.78, -0.09 0.41" stroke="#000000" stroke-width="4" fill="none"></path></g><g stroke-linecap="round" transform="translate(314.7844739656666 421.463800526583) rotate(0 40.47323134215003 42.85400965639417)"><path d="M1.48 0.29 C32.43 -0.91, 64.57 1.97, 80.86 -0.3 M-0.25 -0.76 C29.06 0.28, 58.99 0.78, 81.29 0.3 M81.21 0.19 C79.72 20.65, 82.36 40.77, 81.28 84.76 M80.81 0.04 C81.25 28.2, 81.11 55.85, 80.61 85.24 M81.42 84.23 C65.39 86.39, 47.21 86.64, -0.52 87.34 M80.64 85.62 C55.8 86.65, 31.47 87.08, 0.85 85.4 M-0.5 86.39 C-1.09 66.81, -1.3 46.88, 0.09 -0.19 M0.43 85.19 C-0.47 67.38, -0.41 48.97, 0.62 -0.8" stroke="#000000" stroke-width="4" fill="none"></path></g><g stroke-linecap="round" transform="translate(395.73093664998646 421.463800526583) rotate(0 40.47323134215003 42.85400965639417)"><path d="M0.38 -1.68 C17.05 1.08, 33.09 -0.41, 82.26 1.05 M-0.52 -0.12 C20.07 0.99, 40.85 0.92, 80.33 -0.42 M80.07 0.23 C82.83 20.17, 81.39 39.53, 81.43 84.36 M81.83 0.41 C81.56 29.36, 80.49 57.73, 80.05 84.77 M82.41 87.17 C64.77 86.83, 47.47 86.75, 0.13 87.46 M80.59 86.08 C51.14 86.44, 21.94 85.34, -0.81 86.7 M-0.24 85.59 C-0.23 63.1, 0.3 42.85, -1.67 0.75 M-0.14 85.96 C-0.46 67.21, 0.25 47.09, 0.08 -0.16" stroke="#000000" stroke-width="4" fill="none"></path></g><g stroke-linecap="round" transform="translate(476.78651834038646 421.463800526583) rotate(0 40.47323134215003 42.85400965639417)"><path d="M0.46 1.2 C25.37 0.38, 52.23 1.73, 79.95 -0.51 M-0.18 0.37 C18.49 0.4, 35.69 -0.32, 80.31 0.13 M82.71 -0.07 C80.9 25.59, 81.06 51.74, 81.74 85.43 M81.68 0.26 C81.36 25.58, 80.81 51.15, 79.98 85.95 M81.25 87.42 C62.11 87.94, 44.44 88.05, 1.39 85.1 M81.07 86.51 C58.2 85.71, 32.96 87, -0.51 85.46 M-0.45 84.43 C0.19 56.86, -1.56 29.15, -1.59 0.86 M-0.09 86.12 C0.74 63.68, 0.21 43.08, -0.18 -0.73" stroke="#000000" stroke-width="4" fill="none"></path></g><g stroke-linecap="round" transform="translate(557.7329810246554 421.463800526583) rotate(0 40.47323134215003 42.85400965639417)"><path d="M-0.09 -0.3 C18.81 0.57, 34 -0.99, 79.43 -1.05 M0.34 0.3 C22.71 -0.72, 46.01 -0.17, 81.04 -0.44 M81.28 -0.95 C82.19 25.35, 82.49 53.11, 81.02 87.47 M80.61 -0.46 C80.68 28.31, 80.61 58.73, 80.21 86.44 M80.43 87.34 C50.85 88.15, 21.9 85.79, -0.17 85 M81.79 85.4 C52.83 87.35, 25.83 86.11, 0.34 85.59 M0.09 85.52 C-1.47 61.26, -1.4 36.17, -1.04 -0.29 M0.62 84.91 C0.16 57.72, -0.11 29.31, 0.03 -0.21" stroke="#000000" stroke-width="4" fill="none"></path></g><g transform="translate(569.0642217051843 441.81781018297704) rotate(0 29.141990661621094 22.5)"><text x="29.141990661621094" y="0" font-family="Virgil, HanziPen SC, Cangnanshoujiti, KaiTi, Segoe UI Emoji" font-size="36px" fill="#1e1e1e" text-anchor="middle" style="white-space: pre;" direction="ltr" dominant-baseline="text-before-edge">3,3</text></g><g stroke-linecap="round" transform="translate(639.4730364803809 420.63046719324973) rotate(0 40.47323134215003 42.85400965639417)"><path d="M1.31 1.05 C28.13 -0.39, 56.74 -0.93, 80.71 -0.36 M-0.62 -0.42 C26.66 -0.12, 54.7 -0.68, 81.06 0.88 M81.43 -1.34 C81.88 25.12, 81.17 52.56, 81.77 87.18 M80.05 -0.94 C79.69 28.2, 79.92 56.66, 81.68 85.86 M81.07 87.46 C51.11 85.76, 18.32 85.66, 0.75 85.95 M80.14 86.7 C49.64 85.21, 19.7 85.34, -0.06 85.48 M-1.67 86.46 C-1.63 66.32, -1.08 44.92, 0.49 -0.18 M0.08 85.55 C-0.71 55.71, -0.5 26.96, 0.96 0.79" stroke="#000000" stroke-width="4" fill="none"></path></g><g stroke-linecap="round" transform="translate(314.7844739656666 507.66377440886765) rotate(0 40.47323134215003 42.85400965639417)"><path d="M-1 -0.51 C21.57 -1.47, 45.93 -0.79, 81.69 0.68 M-0.64 0.13 C26.83 -0.1, 53.58 1.22, 80.91 0.17 M81.74 -0.28 C81.23 23.41, 81.98 44.75, 81.47 85.03 M79.98 0.24 C79.44 22.46, 80.91 43.61, 81.8 85.45 M82.34 85.1 C49.88 85.71, 19.89 86.66, 1.61 87.4 M80.44 85.46 C59.46 86.39, 37.23 86.28, -0.64 85.75 M-1.59 86.57 C-0.33 60.53, 1.21 35.76, 0.83 1.23 M-0.18 84.98 C-0.04 66.61, 0.89 48.73, 0.17 0.42" stroke="#000000" stroke-width="4" fill="none"></path></g><g stroke-linecap="round" transform="translate(395.73093664998646 507.66377440886765) rotate(0 40.47323134215003 42.85400965639417)"><path d="M-1.52 -1.05 C28.3 -0.16, 57.83 0.89, 81.55 -1.23 M0.1 -0.44 C21.02 0.78, 41.76 0.06, 80.47 0.24 M81.02 1.77 C82.11 21.43, 81.81 39.23, 80.02 83.91 M80.21 0.73 C80.85 17.81, 80.98 35.05, 81.76 85.77 M80.77 85 C50.32 85.7, 19.8 87.15, -0.61 84.09 M81.29 85.59 C48.6 85.28, 15.74 85.55, -0.1 84.88 M-1.04 85.42 C1.17 56.59, 1.51 29.06, -1.59 0.17 M0.03 85.49 C1.11 62.12, 0.33 37.37, -0.11 -0.73" stroke="#000000" stroke-width="4" fill="none"></path></g><g stroke-linecap="round" transform="translate(476.78651834038646 507.66377440886765) rotate(0 40.47323134215003 42.85400965639417)"><path d="M-0.24 -0.36 C22.98 1.11, 45.08 -0.81, 80.11 -1.28 M0.11 0.88 C25.3 0.52, 50.2 0.6, 80.27 0.4 M81.77 1.47 C81.51 23.84, 80.05 47.25, 79.07 83.78 M81.68 0.15 C81.17 27.5, 81.13 55.58, 81.82 86.4 M81.69 85.95 C60.73 87.11, 36.7 83.8, 1.98 84.69 M80.89 85.48 C58.04 85.65, 36.31 84.78, 0.38 84.91 M0.49 85.53 C1.28 57.55, -1.15 27.09, -0.31 -0.37 M0.96 86.5 C0.15 66.69, -0.14 46.11, 0.28 0.08" stroke="#000000" stroke-width="4" fill="none"></path></g><g stroke-linecap="round" transform="translate(557.7329810246554 507.66377440886765) rotate(0 40.47323134215003 42.85400965639417)"><path d="M0.75 0.68 C20.65 -1.09, 39.25 -1.13, 81.21 0.19 M-0.04 0.17 C20.28 -0.47, 40.83 -0.32, 80.81 0.04 M81.47 -0.68 C80.37 31.48, 79.42 64.62, 81.42 84.23 M81.8 -0.26 C82.39 32.06, 82.45 64.69, 80.64 85.62 M82.55 87.4 C58.91 84.19, 40.07 84.78, -0.5 86.39 M80.31 85.75 C57.54 84.69, 34.71 84.73, 0.43 85.19 M0.83 86.94 C-1.81 61.39, -0.52 36.38, -1.47 0.06 M0.17 86.13 C-0.93 61.1, -0.54 38.02, 0.79 -0.62" stroke="#000000" stroke-width="4" fill="none"></path></g><g stroke-linecap="round" transform="translate(639.4730364803809 507.66377440886765) rotate(0 40.47323134215003 42.85400965639417)"><path d="M0.61 -1.23 C21.98 -1.55, 45.9 -0.08, 80.07 0.23 M-0.48 0.24 C30.77 0.26, 62.74 -0.1, 81.83 0.41 M80.02 -1.79 C79.29 30.09, 81.65 62.56, 82.41 87.17 M81.76 0.06 C82.56 27.72, 81.38 53.95, 80.59 86.08 M80.34 84.09 C57.66 85.37, 29.91 87.08, -0.24 85.59 M80.85 84.88 C58.85 84.95, 36.43 85.22, -0.14 85.96 M-1.59 85.87 C-0.67 60.4, -1.82 35.88, -0.43 1.91 M-0.11 84.98 C0.13 53.31, 0.65 20.15, -0.54 -0.75" stroke="#000000" stroke-width="4" fill="none"></path></g><g transform="translate(342.8954041088616 104.6468634115098) rotate(0 12.342609578444126 22.92919305268839)"><text x="0" y="0" font-family="Virgil, HanziPen SC, Cangnanshoujiti, KaiTi, Segoe UI Emoji" font-size="35.893193226818134px" fill="#000000" text-anchor="start" style="white-space: pre;" direction="ltr" dominant-baseline="text-before-edge">0</text></g><g transform="translate(432.10348971688427 104.43026655581968) rotate(0 4.861699610422988 22.92919305268839)"><text x="0" y="0" font-family="Virgil, HanziPen SC, Cangnanshoujiti, KaiTi, Segoe UI Emoji" font-size="35.893193226818134px" fill="#000000" text-anchor="start" style="white-space: pre;" direction="ltr" dominant-baseline="text-before-edge">1</text></g><g transform="translate(505.3615846028597 104.43026655581968) rotate(0 12.773163242561168 22.92919305268839)"><text x="0" y="0" font-family="Virgil, HanziPen SC, Cangnanshoujiti, KaiTi, Segoe UI Emoji" font-size="35.893193226818205px" fill="#000000" text-anchor="start" style="white-space: pre;" direction="ltr" dominant-baseline="text-before-edge">2</text></g><g transform="translate(586.6793561825727 104.43026655581968) rotate(0 12.217030790632407 22.92919305268839)"><text x="0" y="0" font-family="Virgil, HanziPen SC, Cangnanshoujiti, KaiTi, Segoe UI Emoji" font-size="35.89319322681812px" fill="#000000" text-anchor="start" style="white-space: pre;" direction="ltr" dominant-baseline="text-before-edge">3</text></g><g transform="translate(669.162029429205 104.43026655581968) rotate(0 11.481502250210042 22.92919305268839)"><text x="0" y="0" font-family="Virgil, HanziPen SC, Cangnanshoujiti, KaiTi, Segoe UI Emoji" font-size="35.89319322681809px" fill="#000000" text-anchor="start" style="white-space: pre;" direction="ltr" dominant-baseline="text-before-edge">4</text></g><g transform="translate(267.8869222569108 182.2564614359378) rotate(0 13.629158919043448 24.94052577660841)"><text x="0" y="0" font-family="Virgil, HanziPen SC, Cangnanshoujiti, KaiTi, Segoe UI Emoji" font-size="39.63070404168351px" fill="#000000" text-anchor="start" style="white-space: pre;" direction="ltr" dominant-baseline="text-before-edge">0</text></g><g transform="translate(275.932253152572 267.899008820454) rotate(0 5.368455032296026 24.94052577660841)"><text x="0" y="0" font-family="Virgil, HanziPen SC, Cangnanshoujiti, KaiTi, Segoe UI Emoji" font-size="39.63070404168351px" fill="#000000" text-anchor="start" style="white-space: pre;" direction="ltr" dominant-baseline="text-before-edge">1</text></g><g transform="translate(267.0823891673276 353.54155620497033) rotate(0 14.104588307942265 24.94052577660841)"><text x="0" y="0" font-family="Virgil, HanziPen SC, Cangnanshoujiti, KaiTi, Segoe UI Emoji" font-size="39.63070404168351px" fill="#000000" text-anchor="start" style="white-space: pre;" direction="ltr" dominant-baseline="text-before-edge">2</text></g><g transform="translate(267.4846557121207 439.18410358947915) rotate(0 13.490488199282481 24.94052577660841)"><text x="0" y="0" font-family="Virgil, HanziPen SC, Cangnanshoujiti, KaiTi, Segoe UI Emoji" font-size="39.6307040416835px" fill="#000000" text-anchor="start" style="white-space: pre;" direction="ltr" dominant-baseline="text-before-edge">3</text></g><g transform="translate(268.289188801662 524.8266509740007) rotate(0 12.678284882583796 24.94052577660841)"><text x="0" y="0" font-family="Virgil, HanziPen SC, Cangnanshoujiti, KaiTi, Segoe UI Emoji" font-size="39.63070404168353px" fill="#000000" text-anchor="start" style="white-space: pre;" direction="ltr" dominant-baseline="text-before-edge">4</text></g><g stroke-linecap="round"><g transform="translate(224.584277499338 204.16666666666663) rotate(0 16.25328852884786 -0.40436801495820873)"><path d="M0.69 0.12 C5.8 0.08, 25.41 0.68, 30.7 0.54 M-0.4 -0.87 C5.07 -1.33, 27.49 -1.47, 32.91 -1.3" stroke="#1e1e1e" stroke-width="1" fill="none"></path></g><g transform="translate(224.584277499338 204.16666666666663) rotate(0 16.25328852884786 -0.40436801495820873)"><path d="M18.14 2.72 C23.22 3.35, 26.07 1.4, 32.8 -1.22 M18.43 4.2 C23.13 2.98, 28 0.69, 32.83 -0.56" stroke="#1e1e1e" stroke-width="1" fill="none"></path></g><g transform="translate(224.584277499338 204.16666666666663) rotate(0 16.25328852884786 -0.40436801495820873)"><path d="M18.23 -8.11 C23.35 -4.17, 26.17 -2.82, 32.8 -1.22 M18.52 -6.63 C23.21 -4.32, 28.06 -3.08, 32.83 -0.56" stroke="#1e1e1e" stroke-width="1" fill="none"></path></g></g><mask></mask><g transform="translate(190.41761083267124 175.83333333333326) rotate(0 5.903999328613281 22.5)"><text x="0" y="0" font-family="Virgil, HanziPen SC, Cangnanshoujiti, KaiTi, Segoe UI Emoji" font-size="36px" fill="#1e1e1e" text-anchor="start" style="white-space: pre;" direction="ltr" dominant-baseline="text-before-edge">j</text></g><g stroke-linecap="round"><g transform="translate(352.084277499338 50) rotate(0 0.8575899595119836 22.780304282312272)"><path d="M0.99 0.61 C1.37 8.23, 1.79 38.41, 1.64 45.67 M0.04 -0.11 C0.4 7.16, 0.69 36.38, 1.11 43.9" stroke="#1e1e1e" stroke-width="1" fill="none"></path></g><g transform="translate(352.084277499338 50) rotate(0 0.8575899595119836 22.780304282312272)"><path d="M-6.2 24.34 C-4.08 26.76, -4.58 33.83, -0.46 43.57 M-8.15 23.79 C-4.81 27.45, -2.9 32.71, 1.03 42.96" stroke="#1e1e1e" stroke-width="1" fill="none"></path></g><g transform="translate(352.084277499338 50) rotate(0 0.8575899595119836 22.780304282312272)"><path d="M9.19 23.87 C7.55 26.53, 3.3 33.72, -0.46 43.57 M7.24 23.32 C6.75 26.98, 4.83 32.36, 1.03 42.96" stroke="#1e1e1e" stroke-width="1" fill="none"></path></g></g><mask></mask><g transform="translate(346.25094416600473 10) rotate(0 8.765998840332031 22.5)"><text x="0" y="0" font-family="Virgil, HanziPen SC, Cangnanshoujiti, KaiTi, Segoe UI Emoji" font-size="36px" fill="#1e1e1e" text-anchor="start" style="white-space: pre;" direction="ltr" dominant-baseline="text-before-edge">k</text></g><g transform="translate(14.584277499337986 375.83333333333337) rotate(0 16.217987060546875 22.5)"><text x="0" y="0" font-family="Virgil, HanziPen SC, Cangnanshoujiti, KaiTi, Segoe UI Emoji" font-size="36px" fill="#1e1e1e" text-anchor="start" style="white-space: pre;" direction="ltr" dominant-baseline="text-before-edge">i-1</text></g><g stroke-linecap="round" transform="translate(310.20019646632863 864.9267094182518) rotate(0 40.47323134215003 42.85400965639417)"><path d="M-0.14 1.82 C20.05 1.79, 37.79 0.41, 79.5 1.91 M-0.76 -0.15 C22.53 0.43, 46.73 -0.48, 81.23 -0.29 M80.16 1.36 C82.42 23.35, 82.46 45.02, 80.54 87.06 M81.13 0 C81.95 19.74, 81.83 37.86, 80.74 86.37 M81.46 87.15 C62.43 85, 44.75 85.54, 1.49 84.8 M81.4 86.63 C51.05 86.65, 20.14 85.44, 0.56 86.38 M-1.42 83.78 C0.56 50.26, -2.31 19.15, -0.93 1.44 M-0.65 86.28 C-1.53 61.18, -0.24 35.83, -0.9 0.83" stroke="#000000" stroke-width="4" fill="none"></path></g><g stroke-linecap="round" transform="translate(391.1466591506485 864.9267094182518) rotate(0 40.47323134215003 42.85400965639417)"><path d="M1.06 1.89 C25.14 -0.22, 49.21 1.17, 80.69 1.09 M-0.73 0.94 C29.58 0.14, 59.02 -0.17, 80.6 0.72 M81.81 0.57 C81.5 23.27, 80.21 48.98, 79.35 86.94 M81.42 0.88 C81.46 22.66, 80.89 45.72, 80.07 85.75 M79.61 84.67 C51.54 85.8, 27.32 85.38, 1.44 84.02 M81.16 86.48 C54.43 86.02, 29.63 87.12, 0.98 86.43 M1.18 84.36 C-1.08 60.29, -0.32 33.03, -0.07 1.84 M-0.74 86.61 C1.11 60.29, -0.35 33.76, 0.02 0.33" stroke="#000000" stroke-width="4" fill="none"></path></g><g stroke-linecap="round" transform="translate(472.2022408410485 864.9267094182518) rotate(0 40.47323134215003 42.85400965639417)"><path d="M-0.19 0.52 C30.21 1.14, 63.07 0.32, 82.2 -1.53 M0.21 0.03 C23.39 -1.05, 45.87 -0.04, 80.72 -0.39 M81.84 -0.54 C80.91 32.87, 79.72 64.27, 80.2 86.07 M81.31 0.14 C81.14 26.39, 80.47 51.5, 81.35 85.96 M79.1 85.21 C52.32 84.38, 22.15 83.6, 0.41 86.62 M80.36 85.27 C49.8 87.01, 18.51 87.05, 0.16 85 M-1.69 87.35 C-1.44 69.7, -0.57 52.66, 0.16 -1.3 M0.55 86.68 C-0.27 55.94, 0.66 24.84, -0.95 0.86" stroke="#000000" stroke-width="4" fill="none"></path></g><g stroke-linecap="round" transform="translate(553.1487035253174 864.9267094182518) rotate(0 40.47323134215003 42.85400965639417)"><path d="M-1.45 1.91 C31.69 0.88, 65.14 -1.74, 80.66 -1.46 M0.29 -0.29 C31.54 0.7, 63.54 -0.41, 81.62 0.43 M80.54 1.35 C79.73 29.37, 80.59 56.64, 80.95 86.65 M80.74 0.66 C80.38 33.29, 81.66 66.74, 81.67 85.04 M82.44 84.8 C62.28 83.82, 41.15 86.42, 1.83 86.14 M81.51 86.38 C51.39 86.08, 20.04 84.65, -0.96 86.3 M-0.93 87.15 C0.66 67.62, 0.88 44.55, 1.14 -1.49 M-0.9 86.54 C-0.45 52.62, -1.42 19.72, -0.21 0.97" stroke="#000000" stroke-width="4" fill="none"></path></g><g stroke-linecap="round" transform="translate(634.8887589810427 864.9267094182518) rotate(0 40.47323134215003 42.85400965639417)"><path d="M-0.25 1.09 C27.63 -2.3, 52.45 -2.23, 82.82 0.43 M-0.34 0.72 C24.27 -0.16, 49.67 0.66, 81.23 0.45 M79.35 1.23 C80.03 23.76, 80.78 47.74, 82.7 86.43 M80.07 0.05 C81.17 27.13, 81.49 53.09, 80.43 84.79 M82.39 84.02 C59.08 86.25, 38.22 85.77, 1.54 84.54 M81.93 86.43 C60.33 85.54, 38.43 86.84, -0.67 84.86 M-0.07 87.55 C0.56 51.64, 1.54 18.69, 1.8 1.1 M0.02 86.04 C-0.17 52.52, 0.57 18.59, -0.92 0.13" stroke="#000000" stroke-width="4" fill="none"></path></g><g stroke-linecap="round" transform="translate(310.20019646632863 951.126683300541) rotate(0 40.47323134215003 42.85400965639417)"><path d="M1.26 -1.53 C31.72 -1.9, 65.9 -0.01, 81 0.57 M-0.22 -0.39 C22.62 -0.15, 44.17 -0.14, 80.68 -0.2 M80.2 0.36 C80.27 32.46, 82.02 63.74, 81.22 85.29 M81.35 0.25 C80.91 30.73, 79.68 61.88, 80.7 86.45 M81.36 86.62 C62.17 85.46, 41.27 83.86, -0.87 86.83 M81.1 85 C50.25 86.88, 20.8 85.45, 0.82 85.24 M0.16 84.4 C1.17 52.33, 1.83 23.02, 1.95 -1.81 M-0.95 86.57 C-0.23 53.86, -0.94 20.19, 0.24 0.37" stroke="#000000" stroke-width="4" fill="none"></path></g><g stroke-linecap="round" transform="translate(391.1466591506485 951.126683300541) rotate(0 40.47323134215003 42.85400965639417)"><path d="M-0.29 -1.46 C30.56 1.05, 57.41 1.19, 80.37 -0.68 M0.68 0.43 C30.41 0.76, 59.97 0.12, 81.62 -0.8 M80.95 0.95 C82.38 31.69, 80.9 61.53, 82.27 83.95 M81.67 -0.67 C80.78 25.19, 81.05 52.96, 80.49 86.43 M82.78 86.14 C65.04 84.91, 45.18 87.2, 1.35 87.67 M79.98 86.3 C50.15 84.29, 21.52 84.67, 0.72 85.67 M1.14 84.22 C1.73 53.2, 1.88 16.67, 1.66 0.05 M-0.21 86.68 C-0.11 57.26, 1.06 28.91, 0.47 -0.04" stroke="#000000" stroke-width="4" fill="none"></path></g><g stroke-linecap="round" transform="translate(472.2022408410485 951.126683300541) rotate(0 40.47323134215003 42.85400965639417)"><path d="M1.88 0.43 C18.15 1.16, 35.63 -0.09, 82.39 -0.44 M0.28 0.45 C20.84 -0.55, 42.89 -1.15, 81.56 -0.37 M82.7 0.72 C81.22 26.84, 82.28 52.76, 81.04 86.52 M80.43 -0.92 C81.32 28.64, 81.11 56.51, 80.1 85.91 M82.49 84.54 C52.11 87, 26.35 87.84, 1.44 86.02 M80.27 84.86 C63.24 85.72, 44.61 86.15, 0.92 85.79 M1.8 86.81 C1.46 63.77, 1.17 45.5, 0.67 -1.9 M-0.92 85.84 C0.42 52.99, 0.65 19.5, 0.09 -0.86" stroke="#000000" stroke-width="4" fill="none"></path></g><g stroke-linecap="round" transform="translate(553.1487035253174 951.126683300541) rotate(0 40.47323134215003 42.85400965639417)"><path d="M0.05 0.57 C17.8 -0.86, 38.2 -0.62, 80.16 1.36 M-0.27 -0.2 C28.44 -1.16, 56.14 -0.73, 81.13 0 M81.22 -0.41 C83.03 28.01, 81.79 60.33, 81.46 87.15 M80.7 0.75 C80.05 20.7, 79.66 40.17, 81.4 86.63 M80.08 86.83 C56.26 87.19, 30.33 85.55, -1.42 83.78 M81.77 85.24 C52.62 84.99, 23.77 85.1, -0.65 86.28 M1.95 83.9 C0.89 66.41, -0.1 45.12, 1.72 -0.41 M0.24 86.07 C1.27 51.6, 0.88 16.72, -0.11 -0.21" stroke="#000000" stroke-width="4" fill="none"></path></g><g stroke-linecap="round" transform="translate(634.8887589810427 951.126683300541) rotate(0 40.47323134215003 42.85400965639417)"><path d="M-0.58 -0.68 C27.46 -0.67, 51.26 1.12, 81.81 0.57 M0.68 -0.8 C28.51 -0.21, 55.97 0.17, 81.42 0.88 M82.27 -1.76 C81.16 29.6, 81.57 59.02, 79.61 84.67 M80.49 0.72 C79.89 18.02, 81.19 36.55, 81.16 86.48 M82.29 87.67 C62.83 86.48, 40.4 84.23, 1.18 84.36 M81.67 85.67 C64.42 85.41, 45.39 85.9, -0.74 86.61 M1.66 85.75 C-0.16 53.36, 0.89 24.4, 1.95 -1.84 M0.47 85.67 C-0.12 57.98, -0.32 31.76, 0.41 -0.92" stroke="#000000" stroke-width="4" fill="none"></path></g><g stroke-linecap="round" transform="translate(310.20019646632863 1037.3266571828249) rotate(0 40.47323134215003 42.85400965639417)"><path d="M1.44 -0.44 C25.81 1.63, 54.05 0.84, 81.84 -0.54 M0.61 -0.37 C22.83 0.65, 45.77 1.53, 81.31 0.14 M81.04 0.81 C82.02 25.38, 80.18 46.84, 79.1 85.21 M80.1 0.2 C81.01 33.03, 80.77 65, 80.36 85.27 M82.39 86.02 C50.71 84.57, 24.5 85.15, -1.69 87.35 M81.87 85.79 C59.78 86.25, 39.17 86.58, 0.55 86.68 M0.67 83.81 C1.01 67.33, 1.24 47.93, 0.27 0.49 M0.09 84.85 C-0.52 56.64, 0 27.08, -0.7 -0.76" stroke="#000000" stroke-width="4" fill="none"></path></g><g stroke-linecap="round" transform="translate(391.1466591506485 1037.3266571828249) rotate(0 40.47323134215003 42.85400965639417)"><path d="M-0.78 1.36 C22.37 0.75, 43.92 -0.36, 80.54 1.35 M0.18 0 C18.29 1.18, 35.99 0.44, 80.74 0.66 M81.46 1.44 C79.65 17.15, 79.14 35.88, 82.44 84.8 M81.4 0.92 C80.44 32.65, 79.64 63.33, 81.51 86.38 M79.52 83.78 C49.92 84.49, 14.84 87.48, -0.93 87.15 M80.29 86.28 C56.19 86.67, 33.47 86.74, -0.9 86.54 M1.72 85.3 C1.66 57.95, -0.02 34.37, 0.73 0.95 M-0.11 85.49 C0.33 59.44, -0.78 34.25, 0.59 -0.86" stroke="#000000" stroke-width="4" fill="none"></path></g><g stroke-linecap="round" transform="translate(472.2022408410485 1037.3266571828249) rotate(0 40.47323134215003 42.85400965639417)"><path d="M0.86 0.57 C23.38 -1.09, 44.58 0.8, 79.35 1.23 M0.47 0.88 C21.63 0.13, 42.34 0.66, 80.07 0.05 M79.61 -1.03 C79.32 28.69, 82.66 57.46, 82.39 84.02 M81.16 0.77 C80.75 27.03, 81.9 55.6, 81.93 86.43 M82.12 84.36 C53.7 86.57, 28.9 86.37, -0.07 87.55 M80.2 86.61 C56.58 87.14, 30.2 87, 0.02 86.04 M1.95 83.86 C-0.47 68.62, 0 51.49, -0.08 0.19 M0.41 84.79 C-0.61 66.59, 0.69 48.15, 0.04 0.08" stroke="#000000" stroke-width="4" fill="none"></path></g><g stroke-linecap="round" transform="translate(553.1487035253174 1037.3266571828249) rotate(0 40.47323134215003 42.85400965639417)"><path d="M0.89 -0.54 C29.37 1.12, 57.94 1, 80.2 0.36 M0.36 0.14 C24.09 -0.05, 47.72 -0.66, 81.35 0.25 M79.1 -0.5 C81.87 30.98, 81.81 62.09, 81.36 86.62 M80.36 -0.43 C81.69 34.25, 82.11 67.87, 81.1 85 M79.26 87.35 C63.54 86.6, 47.93 87.01, 0.16 84.4 M81.5 86.68 C51.14 87.27, 23.17 86.77, -0.95 86.57 M0.27 86.2 C-0.1 62.7, -0.92 37.99, -1.72 -0.23 M-0.7 84.94 C0.24 60.97, -0.31 38.02, 0.4 -0.59" stroke="#000000" stroke-width="4" fill="none"></path></g><g stroke-linecap="round" transform="translate(634.8887589810427 1037.3266571828249) rotate(0 40.47323134215003 42.85400965639417)"><path d="M-0.4 1.35 C24.98 1.45, 52.41 0.58, 80.95 0.95 M-0.21 0.66 C30.52 -0.06, 63.19 0.14, 81.67 -0.67 M82.44 -0.91 C81.6 19.6, 80.57 43.48, 82.78 86.14 M81.51 0.67 C81.43 33.05, 80.6 63.94, 79.98 86.3 M80.02 87.15 C62.06 88.22, 43.46 85.07, 1.14 84.22 M80.04 86.54 C49.4 86.83, 16.86 87.36, -0.21 86.68 M0.73 86.66 C-0.2 68.09, -1.83 49.87, -0.43 0.81 M0.59 84.85 C0.64 67.92, 1.01 49.38, 0.79 0.24" stroke="#000000" stroke-width="4" fill="none"></path></g><g stroke-linecap="round" transform="translate(310.20019646632863 1123.9445703324218) rotate(0 40.47323134215003 42.85400965639417)"><path d="M-1.6 1.23 C21.36 -0.19, 44.2 0.4, 82.7 0.72 M-0.88 0.05 C25.79 -0.28, 51.49 -1.21, 80.43 -0.92 M82.39 -1.69 C82 24.5, 83.42 47.61, 82.49 84.54 M81.93 0.72 C81.58 21.29, 80.46 44.59, 80.27 84.86 M80.88 87.55 C50.16 84.99, 20.19 84.81, 1.8 86.81 M80.97 86.04 C47.84 87.24, 16.43 87.35, -0.92 85.84 M-0.08 85.89 C-2.03 57.67, -0.74 30.91, -1.83 -1.41 M0.04 85.79 C-0.1 65.95, 0.28 47.61, -0.06 -0.86" stroke="#000000" stroke-width="4" fill="none"></path></g><g stroke-linecap="round" transform="translate(391.1466591506485 1123.9445703324218) rotate(0 40.47323134215003 42.85400965639417)"><path d="M-0.74 0.36 C29.76 0.45, 61.28 0.22, 81.22 -0.41 M0.4 0.25 C30.38 -0.71, 58.79 -0.96, 80.7 0.75 M81.36 0.91 C83.4 22.26, 83.11 42.48, 80.08 86.83 M81.1 -0.71 C80.82 32.07, 81.11 62.12, 81.77 85.24 M81.1 84.4 C51.96 84.97, 22.5 87.56, 1.95 83.9 M80 86.57 C49.74 86.95, 18.02 86.11, 0.24 86.07 M-1.72 85.48 C-0.39 56.74, -1.79 24.74, -1.53 1.18 M0.4 85.11 C0.75 67.61, -0.1 48.17, -0.44 -0.2" stroke="#000000" stroke-width="4" fill="none"></path></g><g stroke-linecap="round" transform="translate(472.2022408410485 1123.9445703324218) rotate(0 40.47323134215003 42.85400965639417)"><path d="M0 0.95 C31.01 0.57, 58.78 -0.56, 82.27 -1.76 M0.72 -0.67 C24.14 -1.13, 49.07 0.54, 80.49 0.72 M82.78 0.43 C82.67 17.31, 80.26 38.08, 82.29 87.67 M79.98 0.59 C80.41 31.05, 81.9 63.32, 81.67 85.67 M82.09 84.22 C51 86.29, 19.39 83.37, 1.66 85.75 M80.74 86.68 C53.03 86.54, 27.2 86.77, 0.47 85.67 M-0.43 86.52 C-1.09 57.79, -0.79 33.87, -1.72 0.08 M0.79 85.95 C-0.41 58.47, -0.79 32.75, -0.37 0.75" stroke="#000000" stroke-width="4" fill="none"></path></g><g stroke-linecap="round" transform="translate(553.1487035253174 1123.9445703324218) rotate(0 40.47323134215003 42.85400965639417)"><path d="M1.76 0.72 C26.02 -0.8, 52.81 -2.14, 81.04 0.81 M-0.52 -0.92 C26.1 1.29, 52.23 1.26, 80.1 0.2 M82.49 -1.17 C80.87 30.74, 83.08 61.19, 82.39 86.02 M80.27 -0.84 C80.94 19.15, 80.84 39.21, 81.87 85.79 M82.75 86.81 C63.88 83.3, 44.59 85.15, 0.67 83.81 M80.02 85.84 C49.95 86.86, 18.94 86.45, 0.09 84.85 M-1.83 84.3 C-1.34 62.16, -1.54 36.33, 0.16 0.81 M-0.06 84.85 C-1.12 64.89, -1.04 45.22, -0.29 -0.99" stroke="#000000" stroke-width="4" fill="none"></path></g><g transform="translate(564.4799442058463 1144.298579988816) rotate(0 29.141990661621094 22.5)"><text x="29.141990661621094" y="0" font-family="Virgil, HanziPen SC, Cangnanshoujiti, KaiTi, Segoe UI Emoji" font-size="36px" fill="#1e1e1e" text-anchor="middle" style="white-space: pre;" direction="ltr" dominant-baseline="text-before-edge">3,3</text></g><g stroke-linecap="round" transform="translate(634.8887589810427 1123.9445703324218) rotate(0 40.47323134215003 42.85400965639417)"><path d="M0.27 -0.41 C29.44 -2.05, 56.31 0.52, 81.46 1.44 M-0.25 0.75 C18.42 1.47, 36.9 0.95, 81.4 0.92 M80.08 1.12 C82.95 29.52, 83.05 55.44, 79.52 83.78 M81.77 -0.47 C81.09 30.73, 81.29 61.6, 80.29 86.28 M82.89 83.9 C64.33 86.2, 45.07 84.26, 1.72 85.3 M81.19 86.07 C49.25 85.77, 16.69 84.96, -0.11 85.49 M-1.53 86.89 C-0.94 56.59, 0.94 28.13, -1.19 1.57 M-0.44 85.51 C-0.31 58.7, -0.23 29.2, 0.27 -0.19" stroke="#000000" stroke-width="4" fill="none"></path></g><g stroke-linecap="round" transform="translate(310.20019646632863 1210.1445442147065) rotate(0 40.47323134215003 42.85400965639417)"><path d="M1.33 -1.76 C27.28 0.98, 54.89 1.61, 79.61 -1.03 M-0.45 0.72 C15.98 -0.4, 34.11 0.31, 81.16 0.77 M82.29 1.96 C82.02 21.03, 79.15 39.5, 82.12 84.36 M81.67 -0.03 C82.57 18.56, 81 37.53, 80.2 86.61 M82.61 85.75 C52.86 83.08, 25.15 84.57, 1.95 83.86 M81.42 85.67 C55.66 85.15, 30.08 85.79, 0.41 84.79 M-1.72 85.79 C0.81 66.83, -0.53 47.92, 0.48 -0.13 M-0.37 86.46 C0.09 66.39, 0.65 48.86, -0.04 0.25" stroke="#000000" stroke-width="4" fill="none"></path></g><g stroke-linecap="round" transform="translate(391.1466591506485 1210.1445442147065) rotate(0 40.47323134215003 42.85400965639417)"><path d="M0.09 0.81 C23.11 2.15, 43.87 -0.32, 79.1 -0.5 M-0.84 0.2 C30.78 0.33, 60.87 0.19, 80.36 -0.43 M82.39 0.32 C80.1 28.58, 82.7 59.66, 79.26 87.35 M81.87 0.08 C80.91 22.29, 80.82 44.35, 81.5 86.68 M81.62 83.81 C65.7 85.32, 48.96 83.88, 0.27 86.2 M81.04 84.85 C53.58 85.46, 26.85 84.76, -0.7 84.94 M0.16 86.51 C-0.45 56.49, 1.21 24, -1.72 -0.88 M-0.29 84.72 C0.59 61.5, 0.28 37.93, 0.98 -0.97" stroke="#000000" stroke-width="4" fill="none"></path></g><g stroke-linecap="round" transform="translate(472.2022408410485 1210.1445442147065) rotate(0 40.47323134215003 42.85400965639417)"><path d="M0.51 1.44 C15.84 -1.36, 32.51 -0.82, 82.44 -0.91 M0.46 0.92 C30.33 0.61, 59.64 -0.6, 81.51 0.67 M79.52 -1.93 C82.74 32.75, 79.88 69.85, 80.02 87.15 M80.29 0.57 C80.99 26.33, 82.29 51.83, 80.04 86.54 M82.67 85.3 C58.42 83.1, 32.27 85.43, 0.73 86.66 M80.83 85.49 C57.41 84.1, 32.36 84.25, 0.59 84.85 M-1.19 87.28 C0.41 59.53, -1.79 32.73, -0.4 -0.74 M0.27 85.51 C0.21 53.83, 1.23 20.48, 0.35 0.09" stroke="#000000" stroke-width="4" fill="none"></path></g><g stroke-linecap="round" transform="translate(553.1487035253174 1210.1445442147065) rotate(0 40.47323134215003 42.85400965639417)"><path d="M-1.34 -1.03 C25.72 -1.08, 56.61 -1.49, 82.39 -1.69 M0.22 0.77 C25.35 -1.18, 52.43 -0.07, 81.93 0.72 M82.12 -1.35 C78.65 28.71, 79.41 55.57, 80.88 87.55 M80.2 0.9 C80.94 27.36, 79.48 53.61, 80.97 86.04 M82.9 83.86 C64.61 86.03, 48.47 86.49, -0.08 85.89 M81.35 84.79 C62.91 84.77, 46.88 84.67, 0.04 85.79 M0.48 85.58 C-1.21 55.65, 0.11 26.63, 1.5 -0.57 M-0.04 85.96 C0.75 67.53, 0.12 51.38, -0.76 0.31" stroke="#000000" stroke-width="4" fill="none"></path></g><g stroke-linecap="round" transform="translate(634.8887589810427 1210.1445442147065) rotate(0 40.47323134215003 42.85400965639417)"><path d="M-1.84 -0.5 C31.61 -0.49, 61.68 -1.27, 81.36 0.91 M-0.58 -0.43 C32.27 0.05, 64.39 0.1, 81.1 -0.71 M79.26 1.65 C80.52 18.89, 81.38 36.74, 81.1 84.4 M81.5 0.97 C79.41 31.43, 80.33 61.54, 80 86.57 M81.22 86.2 C59.06 85.91, 35.61 85.15, -1.72 85.48 M80.24 84.94 C58.98 84.11, 35.88 85.04, 0.4 85.11 M-1.72 84.82 C-0.6 52.51, 1.29 20.23, -1.98 0.54 M0.98 84.74 C0.38 61.75, -0.73 37.93, 0.27 -0.78" stroke="#000000" stroke-width="4" fill="none"></path></g><g transform="translate(338.3111266095236 807.1276332173487) rotate(0 12.342609578444126 22.929193052688333)"><text x="0" y="0" font-family="Virgil, HanziPen SC, Cangnanshoujiti, KaiTi, Segoe UI Emoji" font-size="35.893193226818134px" fill="#000000" text-anchor="start" style="white-space: pre;" direction="ltr" dominant-baseline="text-before-edge">0</text></g><g transform="translate(427.5192122175463 806.9110363616586) rotate(0 4.861699610422988 22.929193052688333)"><text x="0" y="0" font-family="Virgil, HanziPen SC, Cangnanshoujiti, KaiTi, Segoe UI Emoji" font-size="35.893193226818134px" fill="#000000" text-anchor="start" style="white-space: pre;" direction="ltr" dominant-baseline="text-before-edge">1</text></g><g transform="translate(500.7773071035217 806.9110363616586) rotate(0 12.773163242561168 22.929193052688333)"><text x="0" y="0" font-family="Virgil, HanziPen SC, Cangnanshoujiti, KaiTi, Segoe UI Emoji" font-size="35.893193226818205px" fill="#000000" text-anchor="start" style="white-space: pre;" direction="ltr" dominant-baseline="text-before-edge">2</text></g><g transform="translate(582.0950786832348 806.9110363616586) rotate(0 12.217030790632407 22.929193052688333)"><text x="0" y="0" font-family="Virgil, HanziPen SC, Cangnanshoujiti, KaiTi, Segoe UI Emoji" font-size="35.89319322681812px" fill="#000000" text-anchor="start" style="white-space: pre;" direction="ltr" dominant-baseline="text-before-edge">3</text></g><g transform="translate(664.577751929867 806.9110363616586) rotate(0 11.481502250210042 22.929193052688333)"><text x="0" y="0" font-family="Virgil, HanziPen SC, Cangnanshoujiti, KaiTi, Segoe UI Emoji" font-size="35.89319322681809px" fill="#000000" text-anchor="start" style="white-space: pre;" direction="ltr" dominant-baseline="text-before-edge">4</text></g><g transform="translate(263.3026447575728 884.7372312417764) rotate(0 13.629158919043448 24.94052577660841)"><text x="0" y="0" font-family="Virgil, HanziPen SC, Cangnanshoujiti, KaiTi, Segoe UI Emoji" font-size="39.63070404168351px" fill="#000000" text-anchor="start" style="white-space: pre;" direction="ltr" dominant-baseline="text-before-edge">0</text></g><g transform="translate(271.347975653234 970.3797786262925) rotate(0 5.368455032296026 24.94052577660841)"><text x="0" y="0" font-family="Virgil, HanziPen SC, Cangnanshoujiti, KaiTi, Segoe UI Emoji" font-size="39.63070404168351px" fill="#000000" text-anchor="start" style="white-space: pre;" direction="ltr" dominant-baseline="text-before-edge">1</text></g><g transform="translate(262.49811166798963 1056.0223260108091) rotate(0 14.104588307942265 24.94052577660841)"><text x="0" y="0" font-family="Virgil, HanziPen SC, Cangnanshoujiti, KaiTi, Segoe UI Emoji" font-size="39.63070404168351px" fill="#000000" text-anchor="start" style="white-space: pre;" direction="ltr" dominant-baseline="text-before-edge">2</text></g><g transform="translate(262.9003782127827 1141.664873395318) rotate(0 13.490488199282481 24.94052577660841)"><text x="0" y="0" font-family="Virgil, HanziPen SC, Cangnanshoujiti, KaiTi, Segoe UI Emoji" font-size="39.6307040416835px" fill="#000000" text-anchor="start" style="white-space: pre;" direction="ltr" dominant-baseline="text-before-edge">3</text></g><g transform="translate(263.70491130232404 1227.3074207798395) rotate(0 12.678284882583796 24.94052577660841)"><text x="0" y="0" font-family="Virgil, HanziPen SC, Cangnanshoujiti, KaiTi, Segoe UI Emoji" font-size="39.63070404168353px" fill="#000000" text-anchor="start" style="white-space: pre;" direction="ltr" dominant-baseline="text-before-edge">4</text></g><g stroke-linecap="round"><g transform="translate(220 906.6474364725053) rotate(0 15.922389170279189 0.003042207550720377)"><path d="M-0.81 -1.01 C4.83 -1.22, 27.1 -0.72, 32.65 -0.56 M0.97 1.07 C6.63 0.95, 27.02 0.65, 32.22 0.69" stroke="#1e1e1e" stroke-width="1" fill="none"></path></g><g transform="translate(220 906.6474364725053) rotate(0 15.922389170279189 0.003042207550720377)"><path d="M16.04 7.49 C19.63 6.31, 23.34 5.51, 32.35 -0.35 M17.82 6.96 C22 4.75, 28.04 2.39, 31.47 1.37" stroke="#1e1e1e" stroke-width="1" fill="none"></path></g><g transform="translate(220 906.6474364725053) rotate(0 15.922389170279189 0.003042207550720377)"><path d="M15.98 -3.34 C19.64 -2.31, 23.36 -0.91, 32.35 -0.35 M17.75 -3.87 C21.88 -2.22, 27.94 -0.71, 31.47 1.37" stroke="#1e1e1e" stroke-width="1" fill="none"></path></g></g><mask></mask><g transform="translate(185.83333333333326 878.3141031391718) rotate(0 5.903999328613281 22.5)"><text x="0" y="0" font-family="Virgil, HanziPen SC, Cangnanshoujiti, KaiTi, Segoe UI Emoji" font-size="36px" fill="#1e1e1e" text-anchor="start" style="white-space: pre;" direction="ltr" dominant-baseline="text-before-edge">j</text></g><g stroke-linecap="round"><g transform="translate(347.5 752.4807698058388) rotate(0 0.9066598133769048 22.78776948583311)"><path d="M0.87 -0.04 C1.02 7.57, 2.08 37.47, 1.94 45.09 M-0.14 -1.11 C-0.13 6.76, 1.13 39.21, 1.57 46.68" stroke="#1e1e1e" stroke-width="1" fill="none"></path></g><g transform="translate(347.5 752.4807698058388) rotate(0 0.9066598133769048 22.78776948583311)"><path d="M-7.16 27.76 C-3.72 32.49, 0.58 40.25, 3.37 47.79 M-7.07 26.25 C-4.79 34.95, -0.6 43.32, 0.65 46.82" stroke="#1e1e1e" stroke-width="1" fill="none"></path></g><g transform="translate(347.5 752.4807698058388) rotate(0 0.9066598133769048 22.78776948583311)"><path d="M8.21 27.05 C5.77 32.16, 4.19 40.19, 3.37 47.79 M8.3 25.54 C4.47 34.65, 2.55 43.3, 0.65 46.82" stroke="#1e1e1e" stroke-width="1" fill="none"></path></g></g><mask></mask><g transform="translate(341.66666666666674 712.4807698058388) rotate(0 8.765998840332031 22.5)"><text x="0" y="0" font-family="Virgil, HanziPen SC, Cangnanshoujiti, KaiTi, Segoe UI Emoji" font-size="36px" fill="#1e1e1e" text-anchor="start" style="white-space: pre;" direction="ltr" dominant-baseline="text-before-edge">k</text></g><g transform="translate(10 1078.314103139172) rotate(0 3.9419937133789062 22.5)"><text x="0" y="0" font-family="Virgil, HanziPen SC, Cangnanshoujiti, KaiTi, Segoe UI Emoji" font-size="36px" fill="#1e1e1e" text-anchor="start" style="white-space: pre;" direction="ltr" dominant-baseline="text-before-edge">i</text></g><g stroke-linecap="round"><g transform="translate(546.2509441660047 381.66666666666663) rotate(0 128.8578469029958 403.0406415655216)"><path d="M0.59 -0.93 C43.69 74.57, 246.83 316.93, 259.55 452.08 C272.26 587.23, 107.72 750.03, 76.88 809.98 M-2.53 -3.9 C40.21 72.05, 245.01 320.23, 257.97 455.02 C270.92 589.82, 105.87 746.2, 75.19 804.89" stroke="#1e1e1e" stroke-width="1" fill="none"></path></g><g transform="translate(546.2509441660047 381.66666666666663) rotate(0 128.8578469029958 403.0406415655216)"><path d="M71.27 807.75 L75.83 792.62 L87.69 800.48 L74.63 802.99" stroke="none" stroke-width="0" fill="#1e1e1e" fill-rule="evenodd"></path><path d="M74.2 806.19 C74.91 800.17, 78.1 792.66, 80.87 791.02 M74.21 803.67 C75.83 800.59, 75.98 796.42, 77.38 789.26 M77.8 787.72 C81.6 794.78, 84.13 794.77, 86.87 798.5 M78.14 789.8 C81.18 793.38, 85.14 793.73, 89.05 797.42 M88.42 796.28 C83.24 800.76, 81.35 799.68, 74.68 804.96 M86.89 798.77 C84.94 799.19, 79.56 801.63, 75.84 803.53 M75.19 804.89 C75.19 804.89, 75.19 804.89, 75.19 804.89 M75.19 804.89 C75.19 804.89, 75.19 804.89, 75.19 804.89" stroke="#1e1e1e" stroke-width="1" fill="none"></path></g></g><mask></mask><g transform="translate(912.9176108326712 835.8333333333331) rotate(0 104.1119613647461 112.5)"><text x="0" y="0" font-family="Virgil, HanziPen SC, Cangnanshoujiti, KaiTi, Segoe UI Emoji" font-size="36px" fill="#1e1e1e" text-anchor="start" style="white-space: pre;" direction="ltr" dominant-baseline="text-before-edge">f[i][3][3]</text><text x="0" y="45" font-family="Virgil, HanziPen SC, Cangnanshoujiti, KaiTi, Segoe UI Emoji" font-size="36px" fill="#1e1e1e" text-anchor="start" style="white-space: pre;" direction="ltr" dominant-baseline="text-before-edge"></text><text x="0" y="90" font-family="Virgil, HanziPen SC, Cangnanshoujiti, KaiTi, Segoe UI Emoji" font-size="36px" fill="#1e1e1e" text-anchor="start" style="white-space: pre;" direction="ltr" dominant-baseline="text-before-edge">需要</text><text x="0" y="135" font-family="Virgil, HanziPen SC, Cangnanshoujiti, KaiTi, Segoe UI Emoji" font-size="36px" fill="#1e1e1e" text-anchor="start" style="white-space: pre;" direction="ltr" dominant-baseline="text-before-edge">f[i-1][3][3]</text><text x="0" y="180" font-family="Virgil, HanziPen SC, Cangnanshoujiti, KaiTi, Segoe UI Emoji" font-size="36px" fill="#1e1e1e" text-anchor="start" style="white-space: pre;" direction="ltr" dominant-baseline="text-before-edge">f[i-1][2][2]</text></g><g stroke-linecap="round"><g transform="translate(633.7509441660045 466.66666666666663) rotate(0 139.80155689386174 340.78280836934846)"><path d="M-1.49 2.11 C52.36 39.6, 327.93 113.47, 321.45 226.1 C314.97 338.74, 20.09 602.19, -40.39 677.9 M2.89 0.79 C56.42 38.46, 326.12 115.19, 318.64 228.52 C311.17 341.85, 18.01 606.29, -41.96 680.78" stroke="#1971c2" stroke-width="1" fill="none"></path></g><g transform="translate(633.7509441660045 466.66666666666663) rotate(0 139.80155689386174 340.78280836934846)"><path d="M-39.27 682.6 L-40.35 664.39 L-27.32 677.36 L-42.56 679.06" stroke="none" stroke-width="0" fill="#1971c2" fill-rule="evenodd"></path><path d="M-39.7 679.65 C-43.33 677.87, -40.26 673.31, -35.05 664.61 M-41.13 681.22 C-41.18 677.42, -40.68 673.25, -36.73 665.85 M-35.86 664.96 C-32.81 669.83, -31.63 672.61, -29.98 674.26 M-36.39 667.29 C-33.92 668.09, -33.39 672.07, -26.97 676.34 M-26.02 676.31 C-33.19 678.47, -39.49 679.21, -40.38 680.4 M-27.93 676.1 C-33.74 677.34, -36.99 678.58, -42.98 679.41 M-41.96 680.78 C-41.96 680.78, -41.96 680.78, -41.96 680.78 M-41.96 680.78 C-41.96 680.78, -41.96 680.78, -41.96 680.78" stroke="#1971c2" stroke-width="1" fill="none"></path></g></g><mask></mask></svg>