<svg version="1.1" xmlns="http://www.w3.org/2000/svg" viewBox="0 0 623.9279327392578 434" width="1247.8558654785156" height="868">
  <!-- svg-source:excalidraw -->
  
  <defs>
    <style class="style-fonts">
      @font-face {
        font-family: "Virgil";
        src: url("https://excalidraw.com/Virgil.woff2");
      }
      @font-face {
        font-family: "Cascadia";
        src: url("https://excalidraw.com/Cascadia.woff2");
      }
    </style>
    
  </defs>
  <rect x="0" y="0" width="623.9279327392578" height="434" fill="#fffce8"></rect><g stroke-linecap="round" transform="translate(142.5 10) rotate(0 28.25 24.5)"><path d="M12.25 0 M12.25 0 C23.51 -1.19, 36.71 -1.12, 44.25 0 M12.25 0 C20.97 0.85, 30.13 -0.57, 44.25 0 M44.25 0 C54.38 0.94, 57.66 4.34, 56.5 12.25 M44.25 0 C54.51 -2.03, 54.81 3.35, 56.5 12.25 M56.5 12.25 C55.73 19.54, 55.74 31.98, 56.5 36.75 M56.5 12.25 C56.75 19.42, 55.85 27.19, 56.5 36.75 M56.5 36.75 C56.69 45.47, 52.76 49.39, 44.25 49 M56.5 36.75 C54.64 43.7, 50.76 50.81, 44.25 49 M44.25 49 C32.9 49.63, 26.22 47.77, 12.25 49 M44.25 49 C38.21 49.45, 30.69 49.55, 12.25 49 M12.25 49 C2.4 47.73, 1.75 45.21, 0 36.75 M12.25 49 C4.83 49.38, 0.81 42.94, 0 36.75 M0 36.75 C1.76 30.15, -0.06 22, 0 12.25 M0 36.75 C0.47 28.6, -0.78 19, 0 12.25 M0 12.25 C1.29 4.92, 2.56 1.48, 12.25 0 M0 12.25 C2.03 3.08, 4.21 -1.74, 12.25 0" stroke="#1e1e1e" stroke-width="1" fill="none"></path></g><g transform="translate(161.79000091552734 17) rotate(0 8.959999084472656 17.5)"><text x="8.959999084472656" y="0" font-family="Virgil, HanziPen SC, Cangnanshoujiti, KaiTi, Segoe UI Emoji" font-size="28px" fill="#1e1e1e" text-anchor="middle" style="white-space: pre;" direction="ltr" dominant-baseline="text-before-edge">4</text></g><g stroke-linecap="round" transform="translate(223.25 10) rotate(0 28.25 24.5)"><path d="M12.25 0 M12.25 0 C20.39 0.88, 26.24 -1.63, 44.25 0 M12.25 0 C22.52 -0.09, 35.25 1.11, 44.25 0 M44.25 0 C52.77 0.88, 57.06 2.4, 56.5 12.25 M44.25 0 C50.96 2.02, 56.84 4.83, 56.5 12.25 M56.5 12.25 C56.75 18.64, 56.74 29.35, 56.5 36.75 M56.5 12.25 C56.93 21.74, 56.75 30, 56.5 36.75 M56.5 36.75 C57.16 43.83, 50.83 50.29, 44.25 49 M56.5 36.75 C57.46 43.17, 54.11 51.03, 44.25 49 M44.25 49 C34.52 49.63, 25.96 49.64, 12.25 49 M44.25 49 C36.79 49.11, 27.8 48.27, 12.25 49 M12.25 49 C4.83 49, 1.13 42.95, 0 36.75 M12.25 49 C4.48 50.01, 1.45 44.29, 0 36.75 M0 36.75 C1.21 26.58, -0.7 18.05, 0 12.25 M0 36.75 C-0.56 28.45, 0.8 19.38, 0 12.25 M0 12.25 C-1.08 2.73, 4.51 1.85, 12.25 0 M0 12.25 C1.66 2.93, 5.64 0.54, 12.25 0" stroke="#1e1e1e" stroke-width="1" fill="none"></path></g><g transform="translate(242.8479995727539 17) rotate(0 8.652000427246094 17.5)"><text x="8.652000427246094" y="0" font-family="Virgil, HanziPen SC, Cangnanshoujiti, KaiTi, Segoe UI Emoji" font-size="28px" fill="#1e1e1e" text-anchor="middle" style="white-space: pre;" direction="ltr" dominant-baseline="text-before-edge">5</text></g><g stroke-linecap="round" transform="translate(299.75 10) rotate(0 28.25 24.5)"><path d="M12.25 0 M12.25 0 C18.7 -1.93, 26.54 1.37, 44.25 0 M12.25 0 C25.2 -0.98, 36.95 0.74, 44.25 0 M44.25 0 C52.71 0.65, 56.83 4.79, 56.5 12.25 M44.25 0 C50.44 0.19, 54.93 4.26, 56.5 12.25 M56.5 12.25 C56.97 22.47, 58.56 31.39, 56.5 36.75 M56.5 12.25 C55.79 21.99, 57 29.67, 56.5 36.75 M56.5 36.75 C57.98 46.68, 51.54 49.11, 44.25 49 M56.5 36.75 C54.76 43.16, 53.42 46.82, 44.25 49 M44.25 49 C32.87 49.89, 22.58 47.57, 12.25 49 M44.25 49 C37.37 48.02, 29.53 49.44, 12.25 49 M12.25 49 C5.34 48.45, 1.56 46.73, 0 36.75 M12.25 49 C4.53 50.65, -1.05 44.36, 0 36.75 M0 36.75 C-1.64 28.09, 1.23 23.69, 0 12.25 M0 36.75 C0.35 28.82, 0.85 18.54, 0 12.25 M0 12.25 C1.36 4.55, 6.01 -0.8, 12.25 0 M0 12.25 C-0.06 5.22, 6.32 0.96, 12.25 0" stroke="#1e1e1e" stroke-width="1" fill="none"></path></g><g transform="translate(319.47400665283203 17) rotate(0 8.525993347167969 17.5)"><text x="8.525993347167969" y="0" font-family="Virgil, HanziPen SC, Cangnanshoujiti, KaiTi, Segoe UI Emoji" font-size="28px" fill="#1e1e1e" text-anchor="middle" style="white-space: pre;" direction="ltr" dominant-baseline="text-before-edge">9</text></g><g stroke-linecap="round" transform="translate(375.25 10) rotate(0 28.25 24.5)"><path d="M12.25 0 M12.25 0 C18.42 -0.83, 26.26 -0.52, 44.25 0 M12.25 0 C22.99 -0.61, 33.38 -0.63, 44.25 0 M44.25 0 C51.59 -1.59, 57.94 5.26, 56.5 12.25 M44.25 0 C52.56 -0.13, 56.64 4.11, 56.5 12.25 M56.5 12.25 C55.35 19.8, 56.66 28.12, 56.5 36.75 M56.5 12.25 C56.5 18.8, 56.82 24.11, 56.5 36.75 M56.5 36.75 C55.94 45.72, 50.45 47.54, 44.25 49 M56.5 36.75 C57.53 43.03, 52.48 49.68, 44.25 49 M44.25 49 C31.06 48.07, 18.32 47.6, 12.25 49 M44.25 49 C36.62 48.57, 29.76 48.73, 12.25 49 M12.25 49 C4.7 48.38, -1.66 45.49, 0 36.75 M12.25 49 C4.82 46.93, -0.13 46.31, 0 36.75 M0 36.75 C0.32 30.94, 1.99 22.01, 0 12.25 M0 36.75 C-0.18 30.74, 0.23 24.95, 0 12.25 M0 12.25 C-1.08 5.33, 3.06 -1.81, 12.25 0 M0 12.25 C-0.63 4.14, 4.35 0.26, 12.25 0" stroke="#1e1e1e" stroke-width="1" fill="none"></path></g><g transform="translate(394.54000091552734 17) rotate(0 8.959999084472656 17.5)"><text x="8.959999084472656" y="0" font-family="Virgil, HanziPen SC, Cangnanshoujiti, KaiTi, Segoe UI Emoji" font-size="28px" fill="#1e1e1e" text-anchor="middle" style="white-space: pre;" direction="ltr" dominant-baseline="text-before-edge">4</text></g><g stroke-linecap="round" transform="translate(188.125 156.5) rotate(0 28.25 24.5)"><path d="M12.25 0 M12.25 0 C26.37 -0.79, 37.65 0.98, 44.25 0 M12.25 0 C24.71 -0.21, 37.27 1.2, 44.25 0 M44.25 0 C54.02 0.3, 57.82 4.26, 56.5 12.25 M44.25 0 C54.01 0.98, 54.77 5.26, 56.5 12.25 M56.5 12.25 C56.52 19.32, 55.13 21.3, 56.5 36.75 M56.5 12.25 C56.06 17.57, 55.56 23.42, 56.5 36.75 M56.5 36.75 C57.76 43.44, 52.1 48.3, 44.25 49 M56.5 36.75 C56.67 46.64, 51.63 47.71, 44.25 49 M44.25 49 C32.48 50.53, 23.4 48.5, 12.25 49 M44.25 49 C33.98 48.09, 22.34 47.99, 12.25 49 M12.25 49 C3.84 47.25, -1.29 45.06, 0 36.75 M12.25 49 C5.02 49.43, 2.14 44.35, 0 36.75 M0 36.75 C-1.41 29.52, -1.83 23.8, 0 12.25 M0 36.75 C0.14 30.91, 0.73 25.01, 0 12.25 M0 12.25 C-1.77 5.29, 2.36 -1.03, 12.25 0 M0 12.25 C-1.11 4.27, 4.8 2.29, 12.25 0" stroke="#1e1e1e" stroke-width="1" fill="none"></path></g><g stroke-linecap="round" transform="translate(268.875 156.5) rotate(0 28.25 24.5)"><path d="M12.25 0 M12.25 0 C21.91 -0.28, 26.56 -0.22, 44.25 0 M12.25 0 C21.3 -0.17, 29.4 -0.23, 44.25 0 M44.25 0 C53.8 0.85, 54.99 5.11, 56.5 12.25 M44.25 0 C50.62 -0.88, 57.42 4.21, 56.5 12.25 M56.5 12.25 C55.23 21.12, 57.8 30.21, 56.5 36.75 M56.5 12.25 C56.92 17.21, 56.12 23.29, 56.5 36.75 M56.5 36.75 C56.65 46.42, 51.73 47.87, 44.25 49 M56.5 36.75 C57.05 45.37, 52.76 47.39, 44.25 49 M44.25 49 C33.08 47.96, 18.76 50.14, 12.25 49 M44.25 49 C36.64 47.88, 28.64 48.83, 12.25 49 M12.25 49 C4.9 49.38, 1.86 44.42, 0 36.75 M12.25 49 C3.9 47.6, -0.36 43.13, 0 36.75 M0 36.75 C-1.08 31.3, -0.26 22.95, 0 12.25 M0 36.75 C-1.12 30.25, -1.1 22.03, 0 12.25 M0 12.25 C-0.97 4.25, 4.7 1.99, 12.25 0 M0 12.25 C-1.23 6.14, 4.46 1.48, 12.25 0" stroke="#1e1e1e" stroke-width="1" fill="none"></path></g><g stroke-linecap="round" transform="translate(345.375 156.5) rotate(0 28.25 24.5)"><path d="M12.25 0 M12.25 0 C20.73 -0.01, 32.88 1.63, 44.25 0 M12.25 0 C23.02 0.4, 31.65 0.48, 44.25 0 M44.25 0 C50.85 -0.77, 57.3 4.2, 56.5 12.25 M44.25 0 C54.3 -1.46, 54.41 2.81, 56.5 12.25 M56.5 12.25 C55.33 17.24, 55.06 27.01, 56.5 36.75 M56.5 12.25 C56.54 18.55, 56.12 22.78, 56.5 36.75 M56.5 36.75 C56.98 45.31, 52.72 47.6, 44.25 49 M56.5 36.75 C58.2 44.77, 51.78 49.92, 44.25 49 M44.25 49 C34.85 48.92, 26.57 48.95, 12.25 49 M44.25 49 C37.87 49.21, 31.6 48.78, 12.25 49 M12.25 49 C3.93 47.78, -0.31 43.36, 0 36.75 M12.25 49 C4 46.73, 1.57 43.4, 0 36.75 M0 36.75 C-0.14 29.09, -0.49 15.84, 0 12.25 M0 36.75 C-0.27 28.01, 0.52 20.09, 0 12.25 M0 12.25 C-1.07 5.87, 4.41 1.29, 12.25 0 M0 12.25 C-1.89 5.24, 4.56 0.55, 12.25 0" stroke="#1e1e1e" stroke-width="1" fill="none"></path></g><g stroke-linecap="round" transform="translate(220.5 262) rotate(0 28.25 24.5)"><path d="M12.25 0 M12.25 0 C20.2 1.28, 26.98 -1.29, 44.25 0 M12.25 0 C24.45 0.08, 37.42 -0.11, 44.25 0 M44.25 0 C54.29 -0.18, 56.87 3.33, 56.5 12.25 M44.25 0 C53.97 -0.8, 58.43 3.89, 56.5 12.25 M56.5 12.25 C57.72 23.36, 54.66 31.02, 56.5 36.75 M56.5 12.25 C56.32 17.8, 57.7 22.78, 56.5 36.75 M56.5 36.75 C58.46 44.59, 52.52 47.79, 44.25 49 M56.5 36.75 C55.34 43.82, 54.21 48.08, 44.25 49 M44.25 49 C35.79 47.72, 27.07 47.55, 12.25 49 M44.25 49 C37.3 49.23, 30.35 49.46, 12.25 49 M12.25 49 C4.69 49.45, -0.74 44.2, 0 36.75 M12.25 49 C3.72 47.46, -2.2 44.96, 0 36.75 M0 36.75 C-1.7 28.67, -1 24.96, 0 12.25 M0 36.75 C0.12 30.29, -0.24 21.63, 0 12.25 M0 12.25 C1.81 2.09, 5.74 -0.04, 12.25 0 M0 12.25 C0.17 4.87, 4.02 -2.13, 12.25 0" stroke="#1e1e1e" stroke-width="1" fill="none"></path></g><g stroke-linecap="round" transform="translate(297 262) rotate(0 28.25 24.5)"><path d="M12.25 0 M12.25 0 C25.39 -1.43, 36.87 0.34, 44.25 0 M12.25 0 C23.81 -0.13, 33.68 -0.42, 44.25 0 M44.25 0 C53.77 -0.7, 58.18 3.92, 56.5 12.25 M44.25 0 C54.37 0.14, 58.7 5.47, 56.5 12.25 M56.5 12.25 C54.67 23.4, 54.36 30.28, 56.5 36.75 M56.5 12.25 C57.72 19.82, 56.79 27.12, 56.5 36.75 M56.5 36.75 C55.49 43.96, 53.98 48.2, 44.25 49 M56.5 36.75 C56.26 45.9, 54.02 49.94, 44.25 49 M44.25 49 C35.62 48.63, 30.51 49.45, 12.25 49 M44.25 49 C34.56 49.34, 23.9 48.75, 12.25 49 M12.25 49 C3.77 47.66, -1.92 44.95, 0 36.75 M12.25 49 C3.25 50.35, 1.55 43.13, 0 36.75 M0 36.75 C-0.07 31.05, -1.33 26.16, 0 12.25 M0 36.75 C0.97 26.76, 0.9 18.75, 0 12.25 M0 12.25 C0.15 4.77, 4.03 -1.86, 12.25 0 M0 12.25 C2.14 1.85, 3.6 -2.08, 12.25 0" stroke="#1e1e1e" stroke-width="1" fill="none"></path></g><g stroke-linecap="round" transform="translate(264.625 373.25) rotate(0 28.25 24.5)"><path d="M12.25 0 M12.25 0 C22.79 2.2, 33.71 1.65, 44.25 0 M12.25 0 C22.83 -1.13, 33.57 -0.17, 44.25 0 M44.25 0 C54.24 0.01, 55.58 2.79, 56.5 12.25 M44.25 0 C52.89 -1.94, 57.51 4.16, 56.5 12.25 M56.5 12.25 C55.56 18.72, 56.19 28.09, 56.5 36.75 M56.5 12.25 C57.16 19.2, 57.29 26.96, 56.5 36.75 M56.5 36.75 C56.79 44.26, 53.06 49.98, 44.25 49 M56.5 36.75 C54.85 42.63, 52.2 48.92, 44.25 49 M44.25 49 C32.64 48.01, 20.38 50.75, 12.25 49 M44.25 49 C35.98 47.7, 25.61 47.99, 12.25 49 M12.25 49 C4.2 50.97, -1.67 44.65, 0 36.75 M12.25 49 C5.53 50.58, 0.62 45.45, 0 36.75 M0 36.75 C1.89 31.73, 0.65 27.5, 0 12.25 M0 36.75 C-0.89 28.41, 0.43 20.87, 0 12.25 M0 12.25 C0.41 4.36, 2.81 1.1, 12.25 0 M0 12.25 C-0.46 4.35, 6.11 1.31, 12.25 0" stroke="#1e1e1e" stroke-width="1" fill="none"></path></g><g transform="translate(10 175) rotate(0 42 17.5)"><text x="0" y="0" font-family="Virgil, HanziPen SC, Cangnanshoujiti, KaiTi, Segoe UI Emoji" font-size="28px" fill="#1e1e1e" text-anchor="start" style="white-space: pre;" direction="ltr" dominant-baseline="text-before-edge">第一次</text></g><g transform="translate(17 278.5) rotate(0 42 17.5)"><text x="0" y="0" font-family="Virgil, HanziPen SC, Cangnanshoujiti, KaiTi, Segoe UI Emoji" font-size="28px" fill="#1e1e1e" text-anchor="start" style="white-space: pre;" direction="ltr" dominant-baseline="text-before-edge">第二次</text></g><g transform="translate(18 389) rotate(0 42 17.5)"><text x="0" y="0" font-family="Virgil, HanziPen SC, Cangnanshoujiti, KaiTi, Segoe UI Emoji" font-size="28px" fill="#1e1e1e" text-anchor="start" style="white-space: pre;" direction="ltr" dominant-baseline="text-before-edge">第三次</text></g><g transform="translate(381.5 380.5) rotate(0 116.2139663696289 17.5)"><text x="0" y="0" font-family="Virgil, HanziPen SC, Cangnanshoujiti, KaiTi, Segoe UI Emoji" font-size="28px" fill="#1e1e1e" text-anchor="start" style="white-space: pre;" direction="ltr" dominant-baseline="text-before-edge">+(4+5+9+4) =22</text></g></svg>