<svg version="1.1" xmlns="http://www.w3.org/2000/svg" viewBox="0 0 649.5 499" width="1299" height="998">
  <!-- svg-source:excalidraw -->
  
  <defs>
    <style class="style-fonts">
      @font-face {
        font-family: "Virgil";
        src: url("https://excalidraw.com/Virgil.woff2");
      }
      @font-face {
        font-family: "Cascadia";
        src: url("https://excalidraw.com/Cascadia.woff2");
      }
    </style>
    
  </defs>
  <rect x="0" y="0" width="649.5" height="499" fill="#fffce8"></rect><g stroke-opacity="0.2" fill-opacity="0.2" stroke-linecap="round" transform="translate(151 10) rotate(0 153 58.25)"><path d="M7.1 7.49 C7.1 7.49, 7.1 7.49, 7.1 7.49 M7.1 7.49 C7.1 7.49, 7.1 7.49, 7.1 7.49 M3.55 17.67 C8.89 11.42, 12.48 7.83, 16.68 2.57 M3.55 17.67 C6.56 13.2, 10.97 8.82, 16.68 2.57 M2.64 24.82 C8.55 19.25, 12.14 11.62, 22.97 1.42 M2.64 24.82 C8.21 19.07, 12.45 12.98, 22.97 1.42 M3.03 30.46 C11.6 23.39, 18.28 15.25, 29.27 0.27 M3.03 30.46 C11.44 20.68, 19.02 13.26, 29.27 0.27 M2.77 36.86 C11.91 27.82, 19.78 15.63, 34.92 -0.12 M2.77 36.86 C9.49 28.17, 16.64 20.04, 34.92 -0.12 M3.16 42.5 C15.57 29.61, 29.37 13.56, 39.9 0.24 M3.16 42.5 C17.95 26.4, 31.49 9.45, 39.9 0.24 M2.9 48.9 C18.12 28.67, 36.64 11.09, 45.55 -0.16 M2.9 48.9 C12.59 37.69, 22.72 25.65, 45.55 -0.16 M2.64 55.3 C13.33 42.55, 28.42 28.05, 50.53 0.2 M2.64 55.3 C21.73 34.31, 39.81 11.64, 50.53 0.2 M3.04 60.94 C24.04 36.7, 42.23 12.37, 55.52 0.56 M3.04 60.94 C13.98 48.53, 25.35 36.31, 55.52 0.56 M2.78 67.34 C18.61 49.05, 32.25 34.55, 61.16 0.17 M2.78 67.34 C19.94 45.91, 38.14 25.77, 61.16 0.17 M3.17 72.98 C24.29 46.7, 46.06 21.2, 66.15 0.53 M3.17 72.98 C25.91 47.48, 47.49 21.25, 66.15 0.53 M2.91 79.38 C19.4 61.48, 30.54 46.21, 71.79 0.13 M2.91 79.38 C21.52 58.65, 39.08 38.25, 71.79 0.13 M2.65 85.78 C27.46 55.29, 52.51 27.13, 76.78 0.49 M2.65 85.78 C22.9 61.31, 42.8 39.09, 76.78 0.49 M0.42 94.44 C30.7 57.03, 65.65 19.1, 82.42 0.1 M0.42 94.44 C30.6 59.24, 61 24.98, 82.42 0.1 M2.12 98.57 C35.29 61.14, 65.37 24.12, 87.41 0.46 M2.12 98.57 C26.68 70.62, 49.63 42.05, 87.41 0.46 M3.17 103.46 C30.73 70.31, 57.52 41.95, 93.05 0.07 M3.17 103.46 C38.41 62.76, 73.6 20.67, 93.05 0.07 M5.54 106.84 C35.4 68.57, 66.67 32.82, 98.04 0.43 M5.54 106.84 C30.6 79.31, 54.22 50.06, 98.04 0.43 M7.9 110.22 C29.24 85.06, 48.47 64.01, 103.68 0.03 M7.9 110.22 C42.06 71.96, 74.12 33.21, 103.68 0.03 M11.58 112.09 C39.21 80.26, 70.58 46.39, 108.67 0.39 M11.58 112.09 C30.93 90.44, 51.82 66.41, 108.67 0.39 M15.25 113.96 C39.45 87.71, 66.43 56.88, 114.31 0 M15.25 113.96 C44.08 81.21, 74.27 48.47, 114.31 0 M18.27 116.58 C53.33 77.63, 88.51 36.87, 119.3 0.36 M18.27 116.58 C42.53 88.02, 68.03 59.4, 119.3 0.36 M23.26 116.94 C54.9 79.39, 87.59 45.59, 124.94 -0.04 M23.26 116.94 C52.83 81.59, 82.7 46.99, 124.94 -0.04 M27.59 118.06 C65.44 74.16, 101 32.76, 129.93 0.32 M27.59 118.06 C58.24 82.63, 87.25 48.97, 129.93 0.32 M31.92 119.17 C64.43 80.92, 96.7 41.78, 135.58 -0.07 M31.92 119.17 C64.3 80.04, 98.17 43.19, 135.58 -0.07 M37.56 118.78 C66.88 86.95, 93.7 55.04, 140.56 0.29 M37.56 118.78 C74.89 75.99, 111.22 34.74, 140.56 0.29 M42.55 119.14 C64.85 96.57, 84.68 70.25, 146.21 -0.11 M42.55 119.14 C74.68 81.4, 105.85 44.65, 146.21 -0.11 M48.19 118.74 C84.75 78.52, 117.46 35.94, 151.19 0.25 M48.19 118.74 C69.56 93.65, 91.79 70.34, 151.19 0.25 M53.18 119.1 C86.08 80.99, 121.24 41.95, 156.84 -0.14 M53.18 119.1 C84.16 85.11, 113.19 50.54, 156.84 -0.14 M58.82 118.71 C93.54 76.32, 130.24 36.45, 161.82 0.22 M58.82 118.71 C97.18 74.81, 134.25 31.96, 161.82 0.22 M63.81 119.07 C85.4 92.89, 106.95 68.84, 167.47 -0.18 M63.81 119.07 C96.74 81.22, 130.05 45.47, 167.47 -0.18 M69.45 118.67 C107.09 74.57, 142.99 33.92, 172.45 0.18 M69.45 118.67 C95.36 86.78, 122.25 54.68, 172.45 0.18 M74.44 119.03 C96.56 93.57, 120.52 67.1, 177.44 0.54 M74.44 119.03 C103.12 86, 129.28 54.46, 177.44 0.54 M79.43 119.39 C120.72 74.84, 161.06 25.52, 183.08 0.15 M79.43 119.39 C111.12 84.95, 142.93 48.94, 183.08 0.15 M85.07 119 C121.87 79.59, 155.17 36.4, 188.07 0.51 M85.07 119 C116.79 83.45, 146.99 48.02, 188.07 0.51 M90.06 119.36 C125.41 82.18, 157.32 45.58, 193.71 0.12 M90.06 119.36 C109.85 94.09, 130.24 70.46, 193.71 0.12 M95.7 118.96 C133.24 75.62, 167.71 37.44, 198.7 0.48 M95.7 118.96 C134.43 76.21, 172.43 31.86, 198.7 0.48 M100.69 119.32 C135.78 78.35, 175.05 33.4, 204.34 0.08 M100.69 119.32 C124.12 89.52, 148.79 61.53, 204.34 0.08 M106.33 118.93 C127.42 94.48, 151.5 68.1, 209.33 0.44 M106.33 118.93 C137.86 82.39, 168.79 44.84, 209.33 0.44 M111.32 119.29 C135.85 93.09, 157.87 65.03, 214.97 0.05 M111.32 119.29 C135.79 91.69, 159.68 63.53, 214.97 0.05 M116.96 118.9 C155.21 75.43, 190.12 34.2, 219.96 0.41 M116.96 118.9 C156.02 75.09, 192.76 31.59, 219.96 0.41 M121.95 119.26 C159.15 75.85, 194.41 33.63, 225.6 0.01 M121.95 119.26 C154.02 81.43, 185.68 44.6, 225.6 0.01 M127.59 118.86 C165.12 76.76, 205.41 32.31, 230.59 0.37 M127.59 118.86 C153.73 90.61, 178.29 61.2, 230.59 0.37 M132.58 119.22 C160.42 88.22, 188.23 56.75, 236.23 -0.02 M132.58 119.22 C173.85 71.39, 213.46 26.67, 236.23 -0.02 M138.22 118.83 C165.33 87.09, 195.09 54.76, 241.22 0.34 M138.22 118.83 C165.89 86.38, 192.39 55.04, 241.22 0.34 M143.21 119.19 C165.42 91.23, 189.4 64.73, 246.86 -0.06 M143.21 119.19 C171.75 84.53, 202.04 49.99, 246.86 -0.06 M148.85 118.79 C176.76 85.52, 209.12 49.59, 251.85 0.3 M148.85 118.79 C172.76 91.06, 194.82 64.92, 251.85 0.3 M153.84 119.15 C192.87 74.94, 233.57 25.8, 257.49 -0.09 M153.84 119.15 C194.2 72.1, 233.45 25.69, 257.49 -0.09 M159.48 118.76 C187.96 88.38, 210.9 58.35, 262.48 0.27 M159.48 118.76 C194.23 80.19, 227.37 42.36, 262.48 0.27 M164.47 119.12 C204.15 72.1, 246.21 27.34, 268.12 -0.13 M164.47 119.12 C187.38 92.94, 207.37 69.96, 268.12 -0.13 M170.11 118.72 C193.83 94.36, 213.74 66.16, 273.11 0.23 M170.11 118.72 C196.31 90.39, 221.3 61.25, 273.11 0.23 M175.1 119.08 C198.06 92.52, 224.11 63.12, 278.1 0.59 M175.1 119.08 C215.48 73.25, 256.42 25.6, 278.1 0.59 M180.74 118.69 C201.82 92.47, 226.16 65.64, 282.43 1.71 M180.74 118.69 C209.6 86, 237.1 52.68, 282.43 1.71 M185.73 119.05 C227.6 73.9, 264.89 28.2, 287.42 2.07 M185.73 119.05 C220.81 79.89, 254.23 40.85, 287.42 2.07 M190.71 119.41 C225.7 79.88, 262.48 37.92, 291.75 3.18 M190.71 119.41 C228.37 76.77, 263.68 35.88, 291.75 3.18 M196.36 119.01 C222.24 88.92, 248.44 59.76, 294.76 5.81 M196.36 119.01 C232.4 75.54, 270.71 33.62, 294.76 5.81 M201.34 119.37 C225.24 89.51, 252.23 60.76, 298.44 7.68 M201.34 119.37 C228.53 89.13, 253.19 59.76, 298.44 7.68 M206.99 118.98 C239.01 84.25, 269.27 48.86, 300.8 11.06 M206.99 118.98 C244.58 77.41, 281.56 34.87, 300.8 11.06 M211.97 119.34 C233.35 98.77, 251.3 73.75, 303.17 14.44 M211.97 119.34 C233.55 93.74, 254.54 69.32, 303.17 14.44 M217.62 118.95 C237.54 96.15, 258.49 71.4, 305.53 17.81 M217.62 118.95 C236.69 95.89, 255.14 75.59, 305.53 17.81 M222.6 119.31 C250.62 83.55, 282.96 50.54, 306.58 22.7 M222.6 119.31 C249.93 88.44, 276.21 56.95, 306.58 22.7 M228.25 118.91 C251.48 92.65, 273.3 69.05, 306.32 29.1 M228.25 118.91 C257.42 85.62, 286.4 52.14, 306.32 29.1 M233.23 119.27 C257.12 91.17, 282 61.32, 306.71 34.74 M233.23 119.27 C248.8 101.45, 265.94 81.39, 306.71 34.74 M238.88 118.88 C259.61 95.69, 278.65 73.26, 306.45 41.14 M238.88 118.88 C266.77 88.85, 292.87 56.99, 306.45 41.14 M243.86 119.24 C261.2 99.38, 276.59 79.72, 306.19 47.54 M243.86 119.24 C261.92 96.55, 280.71 76.27, 306.19 47.54 M249.51 118.84 C263.8 105.89, 276.8 90.17, 306.58 53.18 M249.51 118.84 C266.55 98.23, 283.28 80.07, 306.58 53.18 M254.49 119.2 C269.72 98.89, 287.09 79.29, 306.32 59.58 M254.49 119.2 C269.81 100.06, 287.22 81.37, 306.32 59.58 M260.14 118.81 C276.48 100.4, 291.37 85.05, 306.72 65.22 M260.14 118.81 C272.88 103.69, 286.42 90.09, 306.72 65.22 M265.12 119.17 C281.82 103.02, 294.59 85.79, 306.46 71.62 M265.12 119.17 C278.4 103.75, 291.21 89.56, 306.46 71.62 M270.77 118.77 C283.03 106.81, 292.76 92.05, 306.85 77.26 M270.77 118.77 C280.54 108.8, 287.85 97.88, 306.85 77.26 M277.72 116.87 C287.4 105.66, 299.73 92.34, 306.59 83.66 M277.72 116.87 C287.38 103.98, 298.84 93.66, 306.59 83.66 M283.36 116.47 C292.17 108.79, 298.38 99.11, 307.64 88.55 M283.36 116.47 C290.91 108.31, 297.29 102.85, 307.64 88.55 M289.66 115.32 C293.74 108.16, 299.36 103.97, 306.72 95.7 M289.66 115.32 C295.92 109.4, 300.37 102.79, 306.72 95.7" stroke="#b2f2bb" stroke-width="0.5" fill="none"></path><path d="M29.13 0 M29.13 0 C99.89 -0.3, 170.45 -1.97, 276.88 0 M29.13 0 C112.29 -0.99, 194.54 -0.44, 276.88 0 M276.88 0 C294.98 0.62, 305.02 7.72, 306 29.13 M276.88 0 C295.19 -0.74, 307.79 7.84, 306 29.13 M306 29.13 C306.59 47.31, 305.79 62.49, 306 87.38 M306 29.13 C305.13 48.47, 304.81 68.06, 306 87.38 M306 87.38 C306.66 105.87, 297.57 117.25, 276.88 116.5 M306 87.38 C307.96 107.57, 294.41 118.24, 276.88 116.5 M276.88 116.5 C178.68 118.8, 81.78 116.66, 29.13 116.5 M276.88 116.5 C193.87 117.77, 111.01 117.94, 29.13 116.5 M29.13 116.5 C9.25 115.21, -1.34 106.79, 0 87.38 M29.13 116.5 C10.56 117.64, -1.77 107.55, 0 87.38 M0 87.38 C2.1 71.89, -1.09 58.53, 0 29.13 M0 87.38 C-0.04 65.53, -0.87 45.52, 0 29.13 M0 29.13 C0.14 7.85, 11.52 -1.39, 29.13 0 M0 29.13 C1.75 10.3, 8.36 -1.74, 29.13 0" stroke="#1e1e1e" stroke-width="1" fill="none"></path></g><g stroke-linecap="round" transform="translate(177 38.75) rotate(0 27.5 27.75)"><path d="M13.75 0 M13.75 0 C23.23 1.57, 33.15 1.49, 41.25 0 M13.75 0 C18.95 0.1, 24.16 -1.22, 41.25 0 M41.25 0 C48.75 -0.13, 56.13 3.29, 55 13.75 M41.25 0 C50.16 1.45, 56.05 4.54, 55 13.75 M55 13.75 C53.28 19.6, 55.13 26.3, 55 41.75 M55 13.75 C55.68 24.9, 54.35 36.82, 55 41.75 M55 41.75 C55.46 52.28, 48.47 54.2, 41.25 55.5 M55 41.75 C55.32 49.86, 49.93 57.32, 41.25 55.5 M41.25 55.5 C34.3 56.84, 30.23 53.52, 13.75 55.5 M41.25 55.5 C35.2 56.14, 28.32 55.24, 13.75 55.5 M13.75 55.5 C4.48 53.63, -1.04 49.5, 0 41.75 M13.75 55.5 C4.81 54.88, 1.44 52.15, 0 41.75 M0 41.75 C1.05 33.87, 0.38 25.29, 0 13.75 M0 41.75 C-0.25 31.69, -0.62 21.34, 0 13.75 M0 13.75 C1.22 3.02, 3.09 1.47, 13.75 0 M0 13.75 C1.64 5.99, 4.76 2.16, 13.75 0" stroke="#1e1e1e" stroke-width="1" fill="none"></path></g><g transform="translate(195.54000091552734 49) rotate(0 8.959999084472656 17.5)"><text x="8.959999084472656" y="0" font-family="Virgil, HanziPen SC, Cangnanshoujiti, KaiTi, Segoe UI Emoji" font-size="28px" fill="#1e1e1e" text-anchor="middle" style="white-space: pre;" direction="ltr" dominant-baseline="text-before-edge">4</text></g><g stroke-linecap="round" transform="translate(280.5 38.75) rotate(0 27.5 27.75)"><path d="M13.75 0 M13.75 0 C23.98 -0.64, 35.97 1.41, 41.25 0 M13.75 0 C19.72 0.18, 25.39 -0.44, 41.25 0 M41.25 0 C49.67 -0.1, 53.13 3.54, 55 13.75 M41.25 0 C48.79 0.23, 54.38 6.02, 55 13.75 M55 13.75 C55.52 24.83, 55.38 34.07, 55 41.75 M55 13.75 C54.46 22.28, 55.68 30.43, 55 41.75 M55 41.75 C56.27 52.13, 48.85 54.01, 41.25 55.5 M55 41.75 C56.7 52.56, 51.82 55.67, 41.25 55.5 M41.25 55.5 C30.06 55.06, 21.38 55.97, 13.75 55.5 M41.25 55.5 C34.07 55.72, 27.34 55.27, 13.75 55.5 M13.75 55.5 C4.36 57.38, 1.99 51.54, 0 41.75 M13.75 55.5 C4.06 54.88, 2.18 51.49, 0 41.75 M0 41.75 C-1.59 34.59, -1.08 26.19, 0 13.75 M0 41.75 C0.87 31.04, 0.52 19.44, 0 13.75 M0 13.75 C-1.43 4.88, 6.42 -1.43, 13.75 0 M0 13.75 C-0.07 4.05, 4.11 0.71, 13.75 0" stroke="#1e1e1e" stroke-width="1" fill="none"></path></g><g transform="translate(299.3479995727539 49) rotate(0 8.652000427246094 17.5)"><text x="8.652000427246094" y="0" font-family="Virgil, HanziPen SC, Cangnanshoujiti, KaiTi, Segoe UI Emoji" font-size="28px" fill="#1e1e1e" text-anchor="middle" style="white-space: pre;" direction="ltr" dominant-baseline="text-before-edge">5</text></g><g stroke-linecap="round" transform="translate(378.5 38.75) rotate(0 27.5 27.75)"><path d="M13.75 0 M13.75 0 C19.82 0.78, 28.22 0.43, 41.25 0 M13.75 0 C25.4 0.35, 35.87 -0.23, 41.25 0 M41.25 0 C48.98 0.3, 56.83 3.15, 55 13.75 M41.25 0 C50.35 -0.54, 54.53 5.29, 55 13.75 M55 13.75 C55.24 24.7, 54.64 31.98, 55 41.75 M55 13.75 C55.49 23.93, 54.73 36.69, 55 41.75 M55 41.75 C54.04 50.96, 48.62 54.62, 41.25 55.5 M55 41.75 C53.4 51.79, 49.11 56.74, 41.25 55.5 M41.25 55.5 C34.97 57.21, 28.38 57.29, 13.75 55.5 M41.25 55.5 C30.71 54.38, 21.77 55.51, 13.75 55.5 M13.75 55.5 C2.62 57.39, 0.4 49.55, 0 41.75 M13.75 55.5 C2.53 55.75, 0.68 51.86, 0 41.75 M0 41.75 C-0.08 32.25, -1.54 21.35, 0 13.75 M0 41.75 C0 33.13, 0.01 22.31, 0 13.75 M0 13.75 C1.72 4.57, 5.26 -0.76, 13.75 0 M0 13.75 C2.29 5.88, 4.42 1.44, 13.75 0" stroke="#1e1e1e" stroke-width="1" fill="none"></path></g><g transform="translate(397.47400665283203 49) rotate(0 8.525993347167969 17.5)"><text x="8.525993347167969" y="0" font-family="Virgil, HanziPen SC, Cangnanshoujiti, KaiTi, Segoe UI Emoji" font-size="28px" fill="#1e1e1e" text-anchor="middle" style="white-space: pre;" direction="ltr" dominant-baseline="text-before-edge">9</text></g><g stroke-linecap="round" transform="translate(546.5 40.25) rotate(0 27.5 27.75)"><path d="M13.75 0 M13.75 0 C23.25 -1.68, 32.45 -0.41, 41.25 0 M13.75 0 C22.54 -0.94, 30.03 -0.15, 41.25 0 M41.25 0 C51.01 0.82, 56.5 5.98, 55 13.75 M41.25 0 C49.76 0.13, 56.15 3.03, 55 13.75 M55 13.75 C53.1 23.01, 56.44 32.27, 55 41.75 M55 13.75 C55.58 19.42, 56.23 26.41, 55 41.75 M55 41.75 C54.86 52.17, 51.69 55.64, 41.25 55.5 M55 41.75 C56.84 52.78, 50.66 54.59, 41.25 55.5 M41.25 55.5 C32.17 55.32, 23.06 55.99, 13.75 55.5 M41.25 55.5 C32.55 56.23, 23.51 56.23, 13.75 55.5 M13.75 55.5 C4.4 53.9, -0.63 51.75, 0 41.75 M13.75 55.5 C5.9 56.76, -0.12 50.78, 0 41.75 M0 41.75 C1.03 30.71, 1.16 18.49, 0 13.75 M0 41.75 C-0.95 34.04, 0.31 24.41, 0 13.75 M0 13.75 C1.56 3.64, 5.45 -1.65, 13.75 0 M0 13.75 C0 2.98, 4.24 -1.06, 13.75 0" stroke="#1e1e1e" stroke-width="1" fill="none"></path></g><g transform="translate(565.0400009155273 50.5) rotate(0 8.959999084472656 17.5)"><text x="8.959999084472656" y="0" font-family="Virgil, HanziPen SC, Cangnanshoujiti, KaiTi, Segoe UI Emoji" font-size="28px" fill="#1e1e1e" text-anchor="middle" style="white-space: pre;" direction="ltr" dominant-baseline="text-before-edge">4</text></g><g stroke-opacity="0.2" fill-opacity="0.2" stroke-linecap="round" transform="translate(526 22.25) rotate(0 44.5 45.75)"><path d="M8.47 3.39 C8.47 3.39, 8.47 3.39, 8.47 3.39 M8.47 3.39 C8.47 3.39, 8.47 3.39, 8.47 3.39 M3.61 15.07 C6.35 10.92, 12.23 6.59, 15.42 1.48 M3.61 15.07 C7.29 9.95, 11.84 6.94, 15.42 1.48 M1.38 23.73 C8.07 14.2, 15.36 8.68, 21.72 0.33 M1.38 23.73 C7.19 16.47, 12.51 9.37, 21.72 0.33 M1.78 29.37 C7.03 20.18, 15 12.98, 25.4 2.2 M1.78 29.37 C10.48 19.56, 19.63 9.64, 25.4 2.2 M1.52 35.77 C9.39 24.58, 19.37 15.31, 30.38 2.56 M1.52 35.77 C9.93 24.84, 20.22 15.93, 30.38 2.56 M1.26 42.17 C13.41 28.87, 25.31 15.49, 35.37 2.92 M1.26 42.17 C11.31 30.65, 21.99 19.26, 35.37 2.92 M1.65 47.81 C9.91 36.49, 18.4 26.26, 41.01 2.53 M1.65 47.81 C17.81 28.51, 33.33 11.51, 41.01 2.53 M1.39 54.21 C14.84 36.8, 33.04 20.95, 46 2.89 M1.39 54.21 C12.19 41.41, 21.38 30.61, 46 2.89 M1.78 59.85 C19.04 36.49, 38.95 15.9, 51.64 2.49 M1.78 59.85 C16.45 43.01, 29.44 26.13, 51.64 2.49 M1.52 66.25 C20.13 42.51, 42.92 21.82, 56.63 2.85 M1.52 66.25 C18.37 45.72, 35.01 27.31, 56.63 2.85 M2.57 71.14 C16.52 57.66, 28.54 39.8, 62.27 2.46 M2.57 71.14 C17.07 56.31, 29.24 39.67, 62.27 2.46 M3.62 76.03 C23.63 57.02, 39.26 34.85, 67.26 2.82 M3.62 76.03 C18.75 60.15, 33.93 42.6, 67.26 2.82 M4.67 80.91 C24.97 58.95, 43.43 37.69, 73.56 1.67 M4.67 80.91 C32.32 49.91, 59.95 17.83, 73.56 1.67 M6.38 85.05 C28.66 59.55, 54.61 30.44, 77.89 2.78 M6.38 85.05 C32.84 53.56, 60.15 24.33, 77.89 2.78 M8.74 88.43 C28.11 63.99, 49.8 39.39, 81.57 4.65 M8.74 88.43 C26.69 65.83, 46.38 44.5, 81.57 4.65 M13.07 89.54 C31.17 67.2, 48.28 47.63, 84.59 7.28 M13.07 89.54 C31.4 67.86, 51.88 44.59, 84.59 7.28 M16.75 91.41 C36.32 69.06, 55.83 45.98, 87.6 9.9 M16.75 91.41 C30.69 74.1, 46.27 57.34, 87.6 9.9 M19.77 94.04 C46.53 64.95, 69.67 36.47, 88.65 14.79 M19.77 94.04 C39.53 69.58, 60.17 46.67, 88.65 14.79 M25.41 93.64 C43.87 71.5, 59.72 48.91, 89.71 19.68 M25.41 93.64 C45.86 70.14, 68.38 46.28, 89.71 19.68 M30.4 94 C47.2 76.58, 62.88 55.53, 91.41 23.81 M30.4 94 C44.51 77.53, 57.97 62.9, 91.41 23.81 M36.04 93.61 C55.65 70.67, 77.76 45.9, 91.15 30.21 M36.04 93.61 C47.23 79.4, 59.43 65.7, 91.15 30.21 M41.03 93.97 C58.04 73.78, 77.03 51.04, 90.89 36.61 M41.03 93.97 C51.75 81.97, 64.36 68.69, 90.89 36.61 M46.67 93.57 C58.85 76.52, 74.83 61.99, 91.28 42.25 M46.67 93.57 C64.03 72.91, 80.79 52.77, 91.28 42.25 M51.66 93.93 C67.6 77.67, 82.57 59.08, 91.02 48.65 M51.66 93.93 C62.9 79.28, 75.13 67.3, 91.02 48.65 M56.65 94.29 C71.45 80.38, 82.1 63.02, 90.76 55.05 M56.65 94.29 C66.98 84.24, 76.26 72.99, 90.76 55.05 M62.29 93.9 C73.87 81.58, 81.64 70.67, 91.16 60.69 M62.29 93.9 C69.87 85.31, 76.96 77.78, 91.16 60.69 M68.59 92.75 C75.1 86.47, 82.51 76.72, 90.89 67.09 M68.59 92.75 C76.51 81.91, 85.92 72.8, 90.89 67.09 M74.89 91.6 C77.06 86.82, 84.17 83.87, 89.32 75 M74.89 91.6 C79.64 86.26, 83.62 83.27, 89.32 75" stroke="#b2f2bb" stroke-width="0.5" fill="none"></path><path d="M22.25 0 M22.25 0 C39.87 1.16, 54.21 -0.91, 66.75 0 M22.25 0 C39.76 -0.48, 58.14 -0.63, 66.75 0 M66.75 0 C81.68 -1.44, 87.4 8.4, 89 22.25 M66.75 0 C81.27 0.89, 89.3 9.61, 89 22.25 M89 22.25 C87.5 32.91, 87.76 47.23, 89 69.25 M89 22.25 C89.61 40.15, 88.72 56.44, 89 69.25 M89 69.25 C90.63 84.21, 82.09 92.47, 66.75 91.5 M89 69.25 C86.92 85.46, 81.94 93.54, 66.75 91.5 M66.75 91.5 C51.8 92.71, 32.9 90.7, 22.25 91.5 M66.75 91.5 C51.21 91.67, 35.36 91.55, 22.25 91.5 M22.25 91.5 C7.16 90.68, -1.64 83.21, 0 69.25 M22.25 91.5 C7.69 92.21, -0.26 84.4, 0 69.25 M0 69.25 C1.68 59.34, 0.22 47.87, 0 22.25 M0 69.25 C-0.95 50.22, 0.2 32.77, 0 22.25 M0 22.25 C1.69 8.92, 7.36 -0.56, 22.25 0 M0 22.25 C-0.4 5.29, 6.75 0.57, 22.25 0" stroke="#1e1e1e" stroke-width="1" fill="none"></path></g><g transform="translate(10 59) rotate(0 42 17.5)"><text x="0" y="0" font-family="Virgil, HanziPen SC, Cangnanshoujiti, KaiTi, Segoe UI Emoji" font-size="28px" fill="#1e1e1e" text-anchor="start" style="white-space: pre;" direction="ltr" dominant-baseline="text-before-edge">第一种</text></g><g stroke-opacity="0.2" fill-opacity="0.2" stroke-linecap="round" transform="translate(154.5 200.25) rotate(0 104.5 52.5)"><path d="M3.9 10.01 C3.9 10.01, 3.9 10.01, 3.9 10.01 M3.9 10.01 C3.9 10.01, 3.9 10.01, 3.9 10.01 M0.36 20.19 C5.16 14.85, 10.5 9.92, 12.82 5.85 M0.36 20.19 C3.81 16.65, 7.34 14.08, 12.82 5.85 M0.1 26.58 C4.73 19.9, 10.95 11.76, 19.12 4.7 M0.1 26.58 C4.1 21.72, 8.38 17.3, 19.12 4.7 M0.49 32.23 C8.81 20.63, 18.34 12.41, 27.39 1.28 M0.49 32.23 C10.9 21.73, 20.22 9.79, 27.39 1.28 M0.23 38.62 C8.33 28.86, 14.42 21.87, 33.03 0.89 M0.23 38.62 C7.79 29.94, 17.24 20.39, 33.03 0.89 M0.62 44.27 C9.04 33.18, 18.24 24.52, 38.02 1.25 M0.62 44.27 C10.87 32.4, 19.53 20.92, 38.02 1.25 M0.36 50.67 C9.59 41.32, 21.33 27.93, 43.66 0.85 M0.36 50.67 C14.15 35.3, 29.04 18.18, 43.66 0.85 M0.1 57.06 C16.3 37.19, 35.74 19.4, 48.65 1.21 M0.1 57.06 C15.18 42.03, 27.12 26.23, 48.65 1.21 M0.5 62.71 C18.72 41.1, 35.91 20.42, 54.29 0.82 M0.5 62.71 C19.76 40.67, 38.7 18.83, 54.29 0.82 M0.23 69.1 C22.92 42.28, 47.17 17.96, 59.28 1.18 M0.23 69.1 C23.21 42.4, 45.14 17.8, 59.28 1.18 M0.63 74.75 C18.89 52.52, 41.79 26.89, 64.92 0.79 M0.63 74.75 C15.05 59.24, 28.31 44.66, 64.92 0.79 M0.37 81.15 C16.7 63.05, 28.05 46.12, 69.91 1.15 M0.37 81.15 C27.37 51.75, 51.8 20.86, 69.91 1.15 M1.42 86.03 C26.08 58.22, 55.31 25.4, 75.55 0.75 M1.42 86.03 C22.14 61.55, 43.19 36.58, 75.55 0.75 M3.12 90.17 C30.52 60.69, 56.25 28.57, 80.54 1.11 M3.12 90.17 C26.3 64.78, 50.87 38.29, 80.54 1.11 M4.18 95.06 C33.97 57.02, 68.49 22.57, 85.53 1.47 M4.18 95.06 C30.77 65.52, 57.51 35.62, 85.53 1.47 M7.19 97.68 C34.44 66.72, 57.93 39.31, 91.17 1.08 M7.19 97.68 C30.35 72.05, 52.05 47.48, 91.17 1.08 M9.56 101.06 C33.05 76.25, 55.03 50.09, 96.16 1.44 M9.56 101.06 C30.06 79.54, 48.59 56.88, 96.16 1.44 M12.58 103.68 C46.19 61.47, 84.04 23.12, 101.8 1.04 M12.58 103.68 C45.83 64.08, 79.49 24.5, 101.8 1.04 M16.91 104.8 C48.38 70.4, 76.73 38.72, 106.79 1.4 M16.91 104.8 C34.57 83.39, 53.53 61.98, 106.79 1.4 M21.89 105.16 C54.11 66.52, 88.67 28.99, 112.43 1.01 M21.89 105.16 C43.87 80.47, 66.21 54.06, 112.43 1.01 M26.88 105.52 C49.31 81.79, 70.24 53.42, 117.42 1.37 M26.88 105.52 C48.12 82.47, 68.76 57.32, 117.42 1.37 M31.87 105.88 C61.52 68, 96.39 33.26, 123.06 0.97 M31.87 105.88 C56.68 79.13, 79.51 52.59, 123.06 0.97 M37.51 105.48 C74.46 67.55, 107.01 26.89, 128.05 1.33 M37.51 105.48 C57.15 83.38, 76.73 61.9, 128.05 1.33 M42.5 105.84 C70.69 74.23, 94.88 45.01, 133.69 0.94 M42.5 105.84 C67.99 77.59, 90.32 49.6, 133.69 0.94 M48.14 105.45 C67.45 78.3, 92.62 56.3, 138.68 1.3 M48.14 105.45 C66.9 83.54, 86.05 62.38, 138.68 1.3 M53.13 105.81 C85.64 68.76, 118.83 32.39, 144.32 0.9 M53.13 105.81 C85.7 65.78, 120.61 26.91, 144.32 0.9 M58.77 105.41 C95.14 64.16, 130.18 25.02, 149.31 1.26 M58.77 105.41 C92.77 65.82, 129.07 23.31, 149.31 1.26 M63.76 105.77 C92.82 71.19, 123.49 38.88, 154.95 0.87 M63.76 105.77 C92.54 73.91, 119.24 43.48, 154.95 0.87 M69.4 105.38 C100.04 69.51, 129.68 38.27, 159.94 1.23 M69.4 105.38 C97.7 73.55, 125.01 41.4, 159.94 1.23 M74.39 105.74 C107.37 66.84, 140.13 32.69, 165.58 0.84 M74.39 105.74 C96.21 79.42, 119.21 54.31, 165.58 0.84 M80.03 105.35 C105.19 78.55, 127.87 49.22, 170.57 1.2 M80.03 105.35 C98.35 83.19, 118.84 60.36, 170.57 1.2 M85.02 105.71 C106.22 79.37, 128.19 55.39, 176.21 0.8 M85.02 105.71 C105.08 84.72, 122.68 63.05, 176.21 0.8 M90.66 105.31 C122.09 71.44, 147.74 38.4, 181.2 1.16 M90.66 105.31 C119.26 70.81, 149.06 36.7, 181.2 1.16 M95.65 105.67 C130.77 64.32, 168.66 23.08, 185.53 2.28 M95.65 105.67 C117.68 79.82, 140.33 54.07, 185.53 2.28 M101.29 105.28 C129.44 70.86, 162.53 37.92, 189.86 3.39 M101.29 105.28 C119.76 84.3, 137.85 62.84, 189.86 3.39 M106.28 105.64 C124.71 84.17, 141.81 63.12, 194.19 4.51 M106.28 105.64 C129.66 79.68, 152.86 53.93, 194.19 4.51 M111.92 105.24 C132.38 82.45, 149.85 59.12, 199.83 4.11 M111.92 105.24 C142.08 72.11, 171.19 38.01, 199.83 4.11 M116.91 105.6 C141.5 76.6, 167.86 43.71, 202.2 7.49 M116.91 105.6 C150.68 66.36, 183.13 28.96, 202.2 7.49 M122.55 105.21 C144.96 81.36, 162.72 60.63, 205.21 10.11 M122.55 105.21 C150.05 74.46, 178.23 41.52, 205.21 10.11 M127.54 105.57 C153.37 78.12, 179.39 47.55, 208.23 12.74 M127.54 105.57 C143.62 85.41, 160.36 67.03, 208.23 12.74 M133.18 105.17 C159.4 75.11, 186 43.49, 209.94 16.87 M133.18 105.17 C149.53 85.41, 166.23 67.19, 209.94 16.87 M138.17 105.53 C157.29 86.75, 176.73 62.25, 210.99 21.76 M138.17 105.53 C163.01 76.06, 187.18 48.9, 210.99 21.76 M143.16 105.89 C155.87 88.55, 168.91 72.84, 210.73 28.16 M143.16 105.89 C160.53 86.08, 177.25 67.71, 210.73 28.16 M148.8 105.5 C173.09 77.88, 194.87 50.94, 211.12 33.8 M148.8 105.5 C163.94 88.34, 179.23 71.55, 211.12 33.8 M153.79 105.86 C174.98 80.37, 197.65 57.2, 210.86 40.2 M153.79 105.86 C172.84 84.87, 189.38 64.33, 210.86 40.2 M159.43 105.46 C178.24 85.13, 196.15 63.34, 211.26 45.84 M159.43 105.46 C169.95 93.37, 180.76 81.15, 211.26 45.84 M164.42 105.82 C180.93 84.74, 197.47 68.23, 211 52.24 M164.42 105.82 C173.14 94.98, 183.03 83.28, 211 52.24 M170.06 105.43 C179.33 97.11, 188.54 87.01, 210.73 58.64 M170.06 105.43 C185.94 87.55, 202.36 69.15, 210.73 58.64 M175.05 105.79 C188.3 91.01, 200.84 76.95, 211.13 64.28 M175.05 105.79 C183.92 95.54, 193.21 83.74, 211.13 64.28 M180.69 105.4 C186.78 96.14, 194.09 88.43, 210.87 70.68 M180.69 105.4 C191.22 93.35, 201.63 79.81, 210.87 70.68 M185.02 106.51 C188.97 100.82, 195.71 94.86, 209.29 78.59 M185.02 106.51 C192.15 97.76, 202.12 88.25, 209.29 78.59 M191.32 105.36 C198.41 97.9, 203.02 93.74, 207.06 87.25 M191.32 105.36 C197.31 99.73, 201.88 92.19, 207.06 87.25" stroke="#b2f2bb" stroke-width="0.5" fill="none"></path><path d="M26.25 0 M26.25 0 C63.72 -2.12, 99.87 -1.95, 182.75 0 M26.25 0 C68.32 -2.15, 111.45 -0.87, 182.75 0 M182.75 0 C202.11 0.13, 210 7.79, 209 26.25 M182.75 0 C199.49 2.02, 209.16 6.61, 209 26.25 M209 26.25 C209.15 45.58, 207.12 66.54, 209 78.75 M209 26.25 C208.38 39.31, 209.29 50.96, 209 78.75 M209 78.75 C210.43 96.49, 201.58 103.24, 182.75 105 M209 78.75 C207.89 94.79, 199.89 105.31, 182.75 105 M182.75 105 C140.59 107.59, 96.61 106.13, 26.25 105 M182.75 105 C139.8 105.16, 99.43 105.28, 26.25 105 M26.25 105 C10.16 105.29, 1.44 95.44, 0 78.75 M26.25 105 C8.37 104.61, 2.01 96.62, 0 78.75 M0 78.75 C-1.14 63.09, -0.39 44.89, 0 26.25 M0 78.75 C-0.17 65.11, -0.91 53.03, 0 26.25 M0 26.25 C-1.38 7.51, 7 -1.68, 26.25 0 M0 26.25 C-0.98 8.83, 6.56 -2.25, 26.25 0" stroke="#1e1e1e" stroke-width="1" fill="none"></path></g><g stroke-linecap="round" transform="translate(182.5 227.5) rotate(0 27.5 27.75)"><path d="M13.75 0 M13.75 0 C19.87 -0.79, 25.75 -1.6, 41.25 0 M13.75 0 C21.55 0.65, 31.22 -0.14, 41.25 0 M41.25 0 C50.18 0.16, 55 5.46, 55 13.75 M41.25 0 C50.93 -1.31, 53.82 3.18, 55 13.75 M55 13.75 C56.62 23.88, 54.57 30.72, 55 41.75 M55 13.75 C54.87 18.71, 55.28 26.44, 55 41.75 M55 41.75 C55.38 50.38, 51.62 55.02, 41.25 55.5 M55 41.75 C55.63 52.78, 49.89 55.23, 41.25 55.5 M41.25 55.5 C36.36 54.26, 29.8 56.43, 13.75 55.5 M41.25 55.5 C29.81 56.35, 19.63 56.2, 13.75 55.5 M13.75 55.5 C2.86 55.78, -0.53 49.92, 0 41.75 M13.75 55.5 C2.74 55.32, -2.19 52.61, 0 41.75 M0 41.75 C1.37 31.45, 0.04 21.82, 0 13.75 M0 41.75 C0.98 33.09, 0.69 22.48, 0 13.75 M0 13.75 C-1.4 4.66, 2.98 -1.6, 13.75 0 M0 13.75 C1.11 3.78, 6.69 1.73, 13.75 0" stroke="#1e1e1e" stroke-width="1" fill="none"></path></g><g transform="translate(201.04000091552734 237.75) rotate(0 8.959999084472656 17.5)"><text x="8.959999084472656" y="0" font-family="Virgil, HanziPen SC, Cangnanshoujiti, KaiTi, Segoe UI Emoji" font-size="28px" fill="#1e1e1e" text-anchor="middle" style="white-space: pre;" direction="ltr" dominant-baseline="text-before-edge">4</text></g><g stroke-linecap="round" transform="translate(286 227.5) rotate(0 27.5 27.75)"><path d="M13.75 0 M13.75 0 C20.64 -1.62, 28.57 -0.87, 41.25 0 M13.75 0 C24.12 0.07, 34.73 0.43, 41.25 0 M41.25 0 C50.86 -1.14, 53.98 3.36, 55 13.75 M41.25 0 C51.28 -0.3, 57.07 6.49, 55 13.75 M55 13.75 C53.18 23.55, 53.05 32.07, 55 41.75 M55 13.75 C55.25 19.17, 55.66 24.88, 55 41.75 M55 41.75 C55.55 52.54, 49.96 55.26, 41.25 55.5 M55 41.75 C53.25 51.48, 50.86 56.96, 41.25 55.5 M41.25 55.5 C36.49 55.59, 28.64 53.95, 13.75 55.5 M41.25 55.5 C29.92 55.82, 20.04 55.18, 13.75 55.5 M13.75 55.5 C2.98 55.34, -1.9 52.39, 0 41.75 M13.75 55.5 C5.27 56.92, -1.65 52.69, 0 41.75 M0 41.75 C0.85 34.53, -0.68 29.79, 0 13.75 M0 41.75 C-0.88 30.63, -0.98 18.64, 0 13.75 M0 13.75 C0.97 3.88, 6.41 1.51, 13.75 0 M0 13.75 C-0.7 5.22, 2.96 -0.97, 13.75 0" stroke="#1e1e1e" stroke-width="1" fill="none"></path></g><g transform="translate(304.8479995727539 237.75) rotate(0 8.652000427246094 17.5)"><text x="8.652000427246094" y="0" font-family="Virgil, HanziPen SC, Cangnanshoujiti, KaiTi, Segoe UI Emoji" font-size="28px" fill="#1e1e1e" text-anchor="middle" style="white-space: pre;" direction="ltr" dominant-baseline="text-before-edge">5</text></g><g stroke-linecap="round" transform="translate(486 230.5) rotate(0 27.5 27.75)"><path d="M13.75 0 M13.75 0 C21.06 1.62, 25.16 -0.08, 41.25 0 M13.75 0 C22.44 -0.69, 30.17 -0.73, 41.25 0 M41.25 0 C51.16 -0.26, 56.8 6.24, 55 13.75 M41.25 0 C51.2 -0.45, 52.79 2.56, 55 13.75 M55 13.75 C52.79 23.2, 56.39 32.18, 55 41.75 M55 13.75 C55.44 22.22, 54.94 28.94, 55 41.75 M55 41.75 C53.48 51.41, 50.8 56.77, 41.25 55.5 M55 41.75 C53.51 51.91, 51.42 57.47, 41.25 55.5 M41.25 55.5 C34.66 54.46, 26.13 53.55, 13.75 55.5 M41.25 55.5 C31.81 55.28, 23.02 56.1, 13.75 55.5 M13.75 55.5 C5.18 56.74, -1.44 52.46, 0 41.75 M13.75 55.5 C3.36 55.75, -1.69 51.93, 0 41.75 M0 41.75 C2.06 35.08, 0.1 24.43, 0 13.75 M0 41.75 C0.71 32.9, 1.14 25.5, 0 13.75 M0 13.75 C-0.61 5.14, 3.17 -0.84, 13.75 0 M0 13.75 C-1.75 6.38, 4.45 -0.03, 13.75 0" stroke="#1e1e1e" stroke-width="1" fill="none"></path></g><g transform="translate(504.97400665283203 240.75) rotate(0 8.525993347167969 17.5)"><text x="8.525993347167969" y="0" font-family="Virgil, HanziPen SC, Cangnanshoujiti, KaiTi, Segoe UI Emoji" font-size="28px" fill="#1e1e1e" text-anchor="middle" style="white-space: pre;" direction="ltr" dominant-baseline="text-before-edge">9</text></g><g stroke-linecap="round" transform="translate(552 229) rotate(0 27.5 27.75)"><path d="M13.75 0 M13.75 0 C24.17 0.04, 35.16 0.48, 41.25 0 M13.75 0 C20.8 0.04, 28.01 1, 41.25 0 M41.25 0 C51.1 -0.39, 53.08 2.82, 55 13.75 M41.25 0 C50.93 -2.18, 54.56 2.35, 55 13.75 M55 13.75 C54.7 23.96, 54.75 32.3, 55 41.75 M55 13.75 C54.17 24.66, 55.13 35.72, 55 41.75 M55 41.75 C53.71 51.78, 51.29 57.22, 41.25 55.5 M55 41.75 C54.97 51.29, 48.5 57.36, 41.25 55.5 M41.25 55.5 C34.4 54.73, 25.98 53.66, 13.75 55.5 M41.25 55.5 C33.52 56.32, 24.47 56.47, 13.75 55.5 M13.75 55.5 C3.52 55.72, -1.47 51.8, 0 41.75 M13.75 55.5 C4.22 54.75, 2.14 53.18, 0 41.75 M0 41.75 C0.07 29.94, -1.6 22.29, 0 13.75 M0 41.75 C-0.56 34.61, -0.96 26.49, 0 13.75 M0 13.75 C-1.52 6.15, 4.47 -0.03, 13.75 0 M0 13.75 C1.18 5.57, 5.86 -0.7, 13.75 0" stroke="#1e1e1e" stroke-width="1" fill="none"></path></g><g transform="translate(570.5400009155273 239.25) rotate(0 8.959999084472656 17.5)"><text x="8.959999084472656" y="0" font-family="Virgil, HanziPen SC, Cangnanshoujiti, KaiTi, Segoe UI Emoji" font-size="28px" fill="#1e1e1e" text-anchor="middle" style="white-space: pre;" direction="ltr" dominant-baseline="text-before-edge">4</text></g><g stroke-opacity="0.2" fill-opacity="0.2" stroke-linecap="round" transform="translate(462.5 210) rotate(0 81 46.25)"><path d="M3.04 9.27 C3.04 9.27, 3.04 9.27, 3.04 9.27 M3.04 9.27 C3.04 9.27, 3.04 9.27, 3.04 9.27 M0.81 17.93 C2.76 14.41, 9.02 10.47, 11.31 5.86 M0.81 17.93 C3.83 15.31, 6.3 11.26, 11.31 5.86 M0.55 24.33 C5.73 18.44, 9.29 16.05, 18.27 3.95 M0.55 24.33 C6.56 17.25, 13.82 9.23, 18.27 3.95 M0.95 29.97 C5.1 22.47, 11.13 16.2, 25.22 2.05 M0.95 29.97 C9.21 20.17, 18.46 9.08, 25.22 2.05 M0.69 36.37 C6.72 30.41, 16.18 21.98, 30.87 1.66 M0.69 36.37 C9.2 25.12, 19.56 15.13, 30.87 1.66 M0.43 42.77 C14.54 25.52, 27.01 9.45, 35.85 2.02 M0.43 42.77 C14.36 27.79, 27.8 11.64, 35.85 2.02 M0.82 48.41 C12.28 32.59, 25.31 21.77, 41.5 1.62 M0.82 48.41 C17.79 30.51, 32.42 11.12, 41.5 1.62 M0.56 54.81 C14.85 41.84, 27.26 26.43, 46.48 1.98 M0.56 54.81 C17.22 35.85, 31.99 17.87, 46.48 1.98 M0.95 60.45 C14.58 45.14, 27.15 31.93, 52.13 1.59 M0.95 60.45 C15.2 44.49, 29.7 27.19, 52.13 1.59 M0.69 66.85 C21.22 39.76, 44.74 16.14, 57.11 1.95 M0.69 66.85 C15.15 48.57, 32.23 31.54, 57.11 1.95 M0.43 73.25 C19.32 52.27, 36.32 35.92, 62.76 1.55 M0.43 73.25 C24.62 47.42, 46.69 19.74, 62.76 1.55 M2.79 76.63 C27.58 45.9, 54.8 15.92, 67.74 1.91 M2.79 76.63 C23.62 54.24, 43.32 31.72, 67.74 1.91 M3.84 81.52 C31.45 48.19, 57.71 17.15, 72.73 2.27 M3.84 81.52 C30.6 50.58, 56.61 19.24, 72.73 2.27 M5.55 85.65 C21.54 67.98, 35.4 49.6, 78.37 1.88 M5.55 85.65 C27.82 58.34, 51.49 32.98, 78.37 1.88 M8.57 88.27 C26.7 64.84, 45.8 46.07, 83.36 2.24 M8.57 88.27 C25.2 67.55, 42.56 48.48, 83.36 2.24 M11.59 90.9 C35.77 60.27, 62.09 33.26, 89 1.84 M11.59 90.9 C37.93 62.67, 63.1 32.17, 89 1.84 M15.92 92.01 C38.25 68.42, 57.65 42.04, 93.99 2.2 M15.92 92.01 C39.06 66.36, 61.62 42.35, 93.99 2.2 M20.25 93.13 C41.04 66.13, 67.51 38.57, 99.63 1.81 M20.25 93.13 C44.35 66.22, 68.37 38.09, 99.63 1.81 M24.58 94.24 C47.65 64.7, 72.49 36.12, 104.62 2.17 M24.58 94.24 C51.78 62.82, 79.52 31.76, 104.62 2.17 M30.22 93.85 C60.05 58.2, 90.92 23.81, 110.26 1.77 M30.22 93.85 C58.2 63.53, 84.73 31, 110.26 1.77 M35.21 94.21 C50.53 72.79, 68.07 56.62, 115.25 2.13 M35.21 94.21 C55.98 71.25, 74.51 48.55, 115.25 2.13 M40.85 93.81 C70.61 56.47, 102.19 20.93, 120.89 1.74 M40.85 93.81 C63.99 65.83, 87.16 40.77, 120.89 1.74 M45.84 94.17 C66.49 69.08, 89.64 48.45, 125.88 2.1 M45.84 94.17 C70.87 66.17, 96.75 36.01, 125.88 2.1 M51.48 93.78 C65.29 73.04, 84.6 54.08, 131.52 1.71 M51.48 93.78 C78.2 62.99, 102.81 33.59, 131.52 1.71 M56.47 94.14 C83.27 65.17, 108.84 34.32, 136.51 2.07 M56.47 94.14 C75.96 72.85, 94.31 51.37, 136.51 2.07 M62.11 93.75 C82.02 74.11, 97.2 48.97, 141.5 2.43 M62.11 93.75 C91.82 60.36, 121.15 26.54, 141.5 2.43 M67.1 94.11 C87.92 69.15, 107.01 46.99, 145.83 3.54 M67.1 94.11 C83.94 74, 100.45 56, 145.83 3.54 M72.74 93.71 C88.15 75.46, 103.27 58.39, 150.16 4.66 M72.74 93.71 C96.23 68.02, 118.49 41.68, 150.16 4.66 M77.73 94.07 C92.62 74.54, 110.19 54.39, 155.15 5.02 M77.73 94.07 C94.89 74.08, 112.61 54.14, 155.15 5.02 M83.37 93.68 C105.71 67.8, 131.04 37.73, 158.17 7.64 M83.37 93.68 C105.24 68.52, 127.85 41.11, 158.17 7.64 M88.36 94.04 C105.62 70.71, 125.4 51.59, 160.53 11.02 M88.36 94.04 C114.57 64.67, 140.11 36.7, 160.53 11.02 M94 93.64 C117.95 68.24, 140.99 39.63, 162.23 15.15 M94 93.64 C119.08 65.81, 141.63 38.74, 162.23 15.15 M98.99 94 C117.69 70.09, 138.37 46.59, 163.94 19.29 M98.99 94 C116.39 74.59, 132.72 54.68, 163.94 19.29 M104.63 93.61 C118.11 75.38, 136.14 57.68, 163.68 25.68 M104.63 93.61 C120.85 74.89, 138.56 54.25, 163.68 25.68 M109.62 93.97 C125.09 74.71, 140.01 57.06, 164.07 31.33 M109.62 93.97 C124.93 76.05, 141.53 57.59, 164.07 31.33 M114.61 94.33 C129.87 76.23, 145.14 61.89, 163.81 37.72 M114.61 94.33 C133.53 72.76, 151.65 49.71, 163.81 37.72 M120.25 93.93 C137.17 76.37, 150.31 60.32, 164.21 43.37 M120.25 93.93 C129.94 82.45, 139.85 72.38, 164.21 43.37 M125.24 94.29 C136.3 83.08, 144.02 70.27, 163.95 49.77 M125.24 94.29 C140.44 76.08, 155.72 59.57, 163.95 49.77 M130.88 93.9 C141.49 79.59, 156.49 63.37, 163.68 56.16 M130.88 93.9 C140.22 84.82, 148.09 74.23, 163.68 56.16 M135.87 94.26 C143.79 82.39, 156.77 72.17, 164.08 61.81 M135.87 94.26 C140.92 87.4, 146.4 81.27, 164.08 61.81 M140.86 94.62 C149.84 85.05, 159.15 75.73, 162.51 69.71 M140.86 94.62 C145.53 89.07, 151.73 81.53, 162.51 69.71 M147.81 92.71 C149.69 89.55, 154.96 87.63, 160.28 78.38 M147.81 92.71 C152.09 88.02, 155.81 84.45, 160.28 78.38" stroke="#b2f2bb" stroke-width="0.5" fill="none"></path><path d="M23.12 0 M23.12 0 C57.24 -0.48, 94.42 0.25, 138.88 0 M23.12 0 C59.5 -1, 94.36 -0.93, 138.88 0 M138.88 0 C154.07 -0.32, 163.78 7.99, 162 23.12 M138.88 0 C152.82 -1.4, 163.61 6.08, 162 23.12 M162 23.12 C162.12 33.7, 162.81 44.72, 162 69.37 M162 23.12 C162.39 40.22, 161.95 56.75, 162 69.37 M162 69.37 C162.63 85.95, 155.64 92.08, 138.88 92.5 M162 69.37 C162.72 83.95, 152.87 90.99, 138.88 92.5 M138.88 92.5 C94.71 93.08, 47.84 93.85, 23.12 92.5 M138.88 92.5 C106.68 93.17, 75.8 93.48, 23.12 92.5 M23.12 92.5 C8.92 94.22, -1.47 86.63, 0 69.37 M23.12 92.5 C7.35 93.77, 1.28 85.27, 0 69.37 M0 69.37 C0.58 52.75, 0.45 37.03, 0 23.12 M0 69.37 C-0.2 57.99, -0.03 45, 0 23.12 M0 23.12 C-0.96 7.07, 9.26 -1.63, 23.12 0 M0 23.12 C-0.31 5.49, 8.59 1.33, 23.12 0" stroke="#1e1e1e" stroke-width="1" fill="none"></path></g><g transform="translate(15.5 247.75) rotate(0 37.967994689941406 17.5)"><text x="0" y="0" font-family="Virgil, HanziPen SC, Cangnanshoujiti, KaiTi, Segoe UI Emoji" font-size="28px" fill="#1e1e1e" text-anchor="start" style="white-space: pre;" direction="ltr" dominant-baseline="text-before-edge">第2种</text></g><g stroke-opacity="0.2" fill-opacity="0.2" stroke-linecap="round" transform="translate(160.5 387) rotate(0 53.75 51)"><path d="M3.69 9.84 C3.69 9.84, 3.69 9.84, 3.69 9.84 M3.69 9.84 C3.69 9.84, 3.69 9.84, 3.69 9.84 M3.43 16.23 C5.51 13.84, 8.89 9.27, 12.62 5.67 M3.43 16.23 C5.48 13.62, 7.87 11.72, 12.62 5.67 M0.55 25.65 C4.78 20.87, 11.49 16.47, 18.92 4.52 M0.55 25.65 C6.62 19.49, 11.25 14.03, 18.92 4.52 M0.29 32.05 C6.41 25.9, 11.26 18.79, 27.18 1.11 M0.29 32.05 C8.3 22.4, 18.74 11.07, 27.18 1.11 M0.68 37.69 C10.77 26.24, 21.18 12.76, 32.17 1.47 M0.68 37.69 C8.67 28.98, 15.54 22.69, 32.17 1.47 M0.42 44.09 C10.27 32.53, 17.71 21.46, 37.81 1.07 M0.42 44.09 C12 30.8, 25.78 16.84, 37.81 1.07 M0.16 50.49 C16.43 34.09, 30.16 19.07, 42.8 1.43 M0.16 50.49 C14.25 34.15, 29.77 18.11, 42.8 1.43 M0.55 56.13 C16.92 35.59, 36.4 12.15, 47.79 1.79 M0.55 56.13 C16.24 38.35, 33.17 18.66, 47.79 1.79 M0.29 62.53 C13.84 45.17, 31.08 26.01, 53.43 1.4 M0.29 62.53 C17.15 44.33, 33.32 24.51, 53.43 1.4 M0.69 68.17 C16.43 49.93, 32.87 31.37, 58.42 1.76 M0.69 68.17 C19.9 44.45, 40.68 21.74, 58.42 1.76 M0.42 74.57 C15.44 59.36, 26.96 41.19, 64.06 1.36 M0.42 74.57 C12.72 60.42, 25.89 45.09, 64.06 1.36 M2.13 78.7 C28.43 48.4, 53.19 20.4, 69.05 1.72 M2.13 78.7 C21.67 58.2, 39.65 38.3, 69.05 1.72 M3.18 83.59 C25.89 58.54, 49.71 32.01, 74.69 1.33 M3.18 83.59 C26.44 57.41, 48.21 31.59, 74.69 1.33 M4.23 88.48 C21.12 67.46, 39.86 48.48, 79.68 1.69 M4.23 88.48 C28.25 61.14, 53.52 33.73, 79.68 1.69 M5.28 93.37 C26.55 68.18, 52.01 41.9, 84.67 2.05 M5.28 93.37 C33.46 62.77, 59.27 31.13, 84.67 2.05 M8.3 95.99 C37.81 60.26, 70.08 27.48, 89.65 2.41 M8.3 95.99 C25.25 74.26, 43.32 53.36, 89.65 2.41 M10.66 99.37 C40.79 62.54, 74.34 23.85, 93.98 3.52 M10.66 99.37 C43.65 60.07, 75.6 22.47, 93.98 3.52 M14.99 100.49 C32.98 80.42, 51.77 59.17, 98.31 4.64 M14.99 100.49 C33.16 78.63, 51.88 57.96, 98.31 4.64 M19.33 101.6 C34.23 83.67, 54.1 63.75, 101.33 7.26 M19.33 101.6 C50.54 65.16, 82.83 27.34, 101.33 7.26 M22.34 104.22 C52.15 67.36, 85.37 30.7, 104.35 9.89 M22.34 104.22 C41.48 80.91, 62.49 57.71, 104.35 9.89 M27.99 103.83 C48.68 79.03, 69.48 56.45, 105.4 14.77 M27.99 103.83 C46.63 83.55, 65.62 60.52, 105.4 14.77 M32.97 104.19 C58.28 73.59, 85.78 43.87, 106.45 19.66 M32.97 104.19 C60.8 72.17, 88.51 41.32, 106.45 19.66 M37.96 104.55 C56.47 82.85, 75.63 59.88, 107.5 24.55 M37.96 104.55 C57.34 81.07, 77.94 58.03, 107.5 24.55 M43.6 104.16 C59.91 82.63, 78.71 65.34, 109.87 27.93 M43.6 104.16 C67.39 75.98, 92 49.64, 109.87 27.93 M48.59 104.52 C60.27 89.66, 74.22 75.59, 110.26 33.57 M48.59 104.52 C64.98 84.58, 83.84 64.65, 110.26 33.57 M54.23 104.12 C68 86.15, 81.48 73.46, 110 39.97 M54.23 104.12 C69.83 86.05, 84.25 69.51, 110 39.97 M59.22 104.48 C70.79 89.76, 82.61 76.36, 109.74 46.37 M59.22 104.48 C78.57 82.21, 96.63 61.7, 109.74 46.37 M64.87 104.09 C79.23 87.27, 95.87 68.97, 110.13 52.01 M64.87 104.09 C77.73 89.76, 91.96 74.18, 110.13 52.01 M69.85 104.45 C80.03 93.32, 90.23 82.37, 109.87 58.41 M69.85 104.45 C83.77 88.67, 95.52 74.8, 109.87 58.41 M74.84 104.81 C87.57 93.47, 96.22 78.75, 109.61 64.81 M74.84 104.81 C86.21 91.41, 97.37 78.71, 109.61 64.81 M82.45 102.15 C91.08 94.09, 98.52 83.43, 110 70.45 M82.45 102.15 C90.46 92.42, 99.01 83.23, 110 70.45 M88.75 101 C96.22 93.73, 103.54 83.99, 109.74 76.85 M88.75 101 C96.07 91.17, 103.3 82.18, 109.74 76.85 M95.7 99.09 C98.59 95.23, 104.23 87.32, 108.83 84 M95.7 99.09 C99.16 93.82, 103.24 90.67, 108.83 84" stroke="#b2f2bb" stroke-width="0.5" fill="none"></path><path d="M25.5 0 M25.5 0 C39.56 1.25, 58.82 -2.04, 82 0 M25.5 0 C43.53 -0.05, 62.65 0.64, 82 0 M82 0 C99.09 -0.22, 109.44 8.24, 107.5 25.5 M82 0 C100.26 -1.06, 105.46 8.67, 107.5 25.5 M107.5 25.5 C109.74 43.59, 106.9 61.86, 107.5 76.5 M107.5 25.5 C106.92 36.56, 107.42 46.23, 107.5 76.5 M107.5 76.5 C109.35 92.7, 100.68 103.43, 82 102 M107.5 76.5 C109.55 95.23, 97.85 102.04, 82 102 M82 102 C66.1 103.78, 52.05 101.04, 25.5 102 M82 102 C65.68 101.37, 48.5 101.92, 25.5 102 M25.5 102 C8.05 100, -1.4 94.5, 0 76.5 M25.5 102 C8.23 99.96, -0.63 92.55, 0 76.5 M0 76.5 C1.53 59.16, 0.82 39.83, 0 25.5 M0 76.5 C-0.33 65.35, 0.26 53.1, 0 25.5 M0 25.5 C-1.22 6.74, 8.24 1.97, 25.5 0 M0 25.5 C0.8 7.47, 9.61 -1.56, 25.5 0" stroke="#1e1e1e" stroke-width="1" fill="none"></path></g><g stroke-linecap="round" transform="translate(188.5 414.25) rotate(0 27.5 27.75)"><path d="M13.75 0 M13.75 0 C21.58 -0.11, 31.39 -0.5, 41.25 0 M13.75 0 C20.4 -1.16, 26.53 -0.68, 41.25 0 M41.25 0 C49.39 -1.2, 56.21 4.11, 55 13.75 M41.25 0 C49.73 -1.59, 55.46 4.99, 55 13.75 M55 13.75 C56.04 20.98, 54.69 29.6, 55 41.75 M55 13.75 C55.78 21.43, 55.35 29.28, 55 41.75 M55 41.75 C56.71 50.71, 50.83 56.53, 41.25 55.5 M55 41.75 C53.18 50.99, 48.13 55.73, 41.25 55.5 M41.25 55.5 C32.92 54.9, 25.28 53.91, 13.75 55.5 M41.25 55.5 C31.93 56.25, 21.97 54.87, 13.75 55.5 M13.75 55.5 C6.32 53.71, 1.26 49.36, 0 41.75 M13.75 55.5 C2.38 53.29, 1.5 48.69, 0 41.75 M0 41.75 C1.44 30.21, 0.71 20.76, 0 13.75 M0 41.75 C0.33 33.82, -0.51 28.15, 0 13.75 M0 13.75 C1.37 6.37, 5.38 -0.29, 13.75 0 M0 13.75 C-0.82 6.55, 4.72 1.1, 13.75 0" stroke="#1e1e1e" stroke-width="1" fill="none"></path></g><g transform="translate(207.04000091552734 424.5) rotate(0 8.959999084472656 17.5)"><text x="8.959999084472656" y="0" font-family="Virgil, HanziPen SC, Cangnanshoujiti, KaiTi, Segoe UI Emoji" font-size="28px" fill="#1e1e1e" text-anchor="middle" style="white-space: pre;" direction="ltr" dominant-baseline="text-before-edge">4</text></g><g stroke-linecap="round" transform="translate(410.5 412.25) rotate(0 27.5 27.75)"><path d="M13.75 0 M13.75 0 C20.21 1.56, 30.89 0.74, 41.25 0 M13.75 0 C18.83 -0.47, 25.55 -0.1, 41.25 0 M41.25 0 C49.82 -1.38, 55.4 4.94, 55 13.75 M41.25 0 C50.25 -0.53, 55.7 5.85, 55 13.75 M55 13.75 C54.54 21.3, 56.63 29.27, 55 41.75 M55 13.75 C55.93 21.7, 55.28 30.36, 55 41.75 M55 41.75 C53.41 50.98, 48.42 55.7, 41.25 55.5 M55 41.75 C55.47 49.89, 50.57 56.06, 41.25 55.5 M41.25 55.5 C35.06 57.11, 25.08 56.46, 13.75 55.5 M41.25 55.5 C31.28 54.49, 20.2 54.6, 13.75 55.5 M13.75 55.5 C2.67 53.58, 1.3 48.98, 0 41.75 M13.75 55.5 C5.82 57.3, -1.19 52.82, 0 41.75 M0 41.75 C-1.05 34.06, 0.48 29.76, 0 13.75 M0 41.75 C0.89 36.51, 0.6 29.34, 0 13.75 M0 13.75 C-0.72 6.29, 4.71 0.96, 13.75 0 M0 13.75 C2.03 5.46, 4.85 -2.06, 13.75 0" stroke="#1e1e1e" stroke-width="1" fill="none"></path></g><g transform="translate(429.3479995727539 422.5) rotate(0 8.652000427246094 17.5)"><text x="8.652000427246094" y="0" font-family="Virgil, HanziPen SC, Cangnanshoujiti, KaiTi, Segoe UI Emoji" font-size="28px" fill="#1e1e1e" text-anchor="middle" style="white-space: pre;" direction="ltr" dominant-baseline="text-before-edge">5</text></g><g stroke-linecap="round" transform="translate(492 417.25) rotate(0 27.5 27.75)"><path d="M13.75 0 M13.75 0 C22.09 0.15, 33.32 -1.12, 41.25 0 M13.75 0 C20.05 -0.63, 27.15 0.24, 41.25 0 M41.25 0 C50.27 -0.46, 55.6 5.69, 55 13.75 M41.25 0 C49.31 -0.28, 54.38 4.1, 55 13.75 M55 13.75 C54.98 23.4, 55.06 33.64, 55 41.75 M55 13.75 C54.26 21.89, 54.06 30.07, 55 41.75 M55 41.75 C55.41 50.03, 50.55 55.98, 41.25 55.5 M55 41.75 C54.29 52.82, 48.57 56.89, 41.25 55.5 M41.25 55.5 C32.36 56.75, 18.82 57.4, 13.75 55.5 M41.25 55.5 C34.5 54.33, 30.31 54.32, 13.75 55.5 M13.75 55.5 C5.66 57.06, -1.04 52.57, 0 41.75 M13.75 55.5 C2.7 56.56, -1.37 49.86, 0 41.75 M0 41.75 C-1.71 34.1, 1.18 30.75, 0 13.75 M0 41.75 C-0.47 31.71, -0.05 20.44, 0 13.75 M0 13.75 C1.77 5.35, 4.82 -1.79, 13.75 0 M0 13.75 C-0.63 4.29, 6.49 0.97, 13.75 0" stroke="#1e1e1e" stroke-width="1" fill="none"></path></g><g transform="translate(510.97400665283203 427.5) rotate(0 8.525993347167969 17.5)"><text x="8.525993347167969" y="0" font-family="Virgil, HanziPen SC, Cangnanshoujiti, KaiTi, Segoe UI Emoji" font-size="28px" fill="#1e1e1e" text-anchor="middle" style="white-space: pre;" direction="ltr" dominant-baseline="text-before-edge">9</text></g><g stroke-linecap="round" transform="translate(558 415.75) rotate(0 27.5 27.75)"><path d="M13.75 0 M13.75 0 C21.13 1.36, 30.44 -0.45, 41.25 0 M13.75 0 C20.03 -0.28, 26.76 0.5, 41.25 0 M41.25 0 C49.45 -0.24, 54.46 4.16, 55 13.75 M41.25 0 C50.98 1.91, 56.63 4.29, 55 13.75 M55 13.75 C54.77 23.35, 56 30.54, 55 41.75 M55 13.75 C54.93 21.8, 54.79 30.98, 55 41.75 M55 41.75 C54.38 52.57, 48.81 56.71, 41.25 55.5 M55 41.75 C57.11 49.33, 51.78 57.67, 41.25 55.5 M41.25 55.5 C29.72 57, 20.2 53.82, 13.75 55.5 M41.25 55.5 C36.17 56.02, 29.51 56.06, 13.75 55.5 M13.75 55.5 C2.94 56.42, -1.19 50, 0 41.75 M13.75 55.5 C2.76 56.2, 0.25 49.05, 0 41.75 M0 41.75 C1.6 36.2, -0.47 28.35, 0 13.75 M0 41.75 C0.87 31.34, 0.1 19.27, 0 13.75 M0 13.75 C-0.55 4.33, 6.24 0.85, 13.75 0 M0 13.75 C2.04 6.46, 6.59 -1.78, 13.75 0" stroke="#1e1e1e" stroke-width="1" fill="none"></path></g><g transform="translate(576.5400009155273 426) rotate(0 8.959999084472656 17.5)"><text x="8.959999084472656" y="0" font-family="Virgil, HanziPen SC, Cangnanshoujiti, KaiTi, Segoe UI Emoji" font-size="28px" fill="#1e1e1e" text-anchor="middle" style="white-space: pre;" direction="ltr" dominant-baseline="text-before-edge">4</text></g><g stroke-opacity="0.2" fill-opacity="0.2" stroke-linecap="round" transform="translate(388 397.25) rotate(0 125.75 43.75)"><path d="M5.17 5.82 C5.17 5.82, 5.17 5.82, 5.17 5.82 M5.17 5.82 C5.17 5.82, 5.17 5.82, 5.17 5.82 M0.97 16.74 C4.66 12.54, 8.78 8.97, 13.43 2.4 M0.97 16.74 C3.8 12.56, 7.21 8.47, 13.43 2.4 M0.71 23.14 C7.39 15.5, 14.65 7.49, 19.73 1.25 M0.71 23.14 C7.96 16.32, 14.77 7.05, 19.73 1.25 M0.45 29.54 C8.27 16.96, 17.05 9.67, 24.06 2.37 M0.45 29.54 C4.58 24.66, 9.07 18.78, 24.06 2.37 M0.84 35.18 C8.54 27.64, 13.25 17.97, 29.71 1.97 M0.84 35.18 C11.5 22.72, 21.23 11.65, 29.71 1.97 M0.58 41.58 C11.6 29.5, 19.48 16.7, 34.69 2.33 M0.58 41.58 C10.94 30.98, 20.72 18.12, 34.69 2.33 M0.97 47.22 C15.6 31.83, 29.53 15.23, 40.34 1.94 M0.97 47.22 C15.91 29.49, 31.79 11.2, 40.34 1.94 M0.71 53.62 C14.31 36.47, 27.1 22.75, 45.32 2.3 M0.71 53.62 C15.05 38.24, 30.22 20.71, 45.32 2.3 M0.45 60.02 C17.12 42.92, 32.14 22.13, 50.97 1.9 M0.45 60.02 C12.61 44.19, 26.76 30.38, 50.97 1.9 M0.85 65.66 C18.82 45.61, 38.54 21.73, 55.95 2.26 M0.85 65.66 C18.87 46.29, 34.73 26.18, 55.95 2.26 M1.24 71.3 C15.83 52.19, 29.98 38.06, 61.6 1.87 M1.24 71.3 C18.2 50.19, 35.13 30.82, 61.6 1.87 M2.95 75.44 C25.06 50.11, 45.9 26.01, 66.58 2.23 M2.95 75.44 C18.96 57.01, 36.87 37.37, 66.58 2.23 M4.65 79.57 C25.18 55.03, 44.41 31.59, 72.23 1.84 M4.65 79.57 C24.95 55.63, 45.4 30.28, 72.23 1.84 M7.02 82.95 C31.01 56.03, 52.74 30.25, 77.21 2.2 M7.02 82.95 C34.31 52.88, 58.68 22.37, 77.21 2.2 M10.04 85.57 C27.38 63.54, 49.51 39.37, 82.86 1.8 M10.04 85.57 C31.81 63.39, 50.7 38.81, 82.86 1.8 M13.71 87.44 C38.62 63.16, 61.42 36.55, 87.84 2.16 M13.71 87.44 C33.23 63.58, 54.59 41.34, 87.84 2.16 M18.7 87.8 C44 55.8, 73.46 24.99, 93.49 1.77 M18.7 87.8 C34.77 68.64, 53.38 47.57, 93.49 1.77 M23.03 88.92 C53.41 54.99, 82.7 20.21, 98.47 2.13 M23.03 88.92 C52.94 56.29, 81.63 21.78, 98.47 2.13 M28.67 88.52 C47.74 67.02, 69.89 40.79, 104.12 1.73 M28.67 88.52 C53.94 57.79, 78.87 28.44, 104.12 1.73 M33.66 88.88 C51.55 68.19, 69.82 47, 109.1 2.09 M33.66 88.88 C61.29 58.02, 89.39 25.63, 109.1 2.09 M39.3 88.49 C63.51 60.45, 85.74 34.96, 114.09 2.45 M39.3 88.49 C59.12 65.17, 79.64 41.54, 114.09 2.45 M44.29 88.85 C65.23 66.87, 85.87 39.97, 119.73 2.06 M44.29 88.85 C63.41 66.14, 84.07 43.31, 119.73 2.06 M49.93 88.45 C67.32 67.11, 83.78 49, 124.72 2.42 M49.93 88.45 C63.74 70.35, 79.72 52.49, 124.72 2.42 M54.92 88.82 C73.77 68.31, 92.84 43.08, 130.36 2.02 M54.92 88.82 C78.62 59.04, 104.53 31.48, 130.36 2.02 M60.56 88.42 C75.93 70.44, 93.72 53.68, 135.35 2.38 M60.56 88.42 C77.02 68.03, 96.2 47.87, 135.35 2.38 M65.55 88.78 C85.93 67.26, 101.87 46.14, 141 1.99 M65.55 88.78 C84.05 67.62, 101.88 47.58, 141 1.99 M71.19 88.39 C93 62.14, 114.51 35.57, 145.98 2.35 M71.19 88.39 C96.94 56.94, 123.43 26.83, 145.98 2.35 M76.18 88.75 C98.95 63.1, 122.14 38.82, 151.63 1.95 M76.18 88.75 C96.56 65.18, 115.91 43.54, 151.63 1.95 M81.82 88.35 C111.28 56.38, 140.19 23.43, 156.61 2.31 M81.82 88.35 C102.54 63.86, 124.04 40.56, 156.61 2.31 M86.81 88.71 C114.6 57.9, 140.84 24.55, 162.26 1.92 M86.81 88.71 C109.91 61.7, 132.86 36.88, 162.26 1.92 M92.45 88.32 C120.05 57.59, 146.41 26.76, 167.24 2.28 M92.45 88.32 C110 70.77, 126.92 50.64, 167.24 2.28 M97.44 88.68 C125.38 55.88, 153.44 24.13, 172.89 1.89 M97.44 88.68 C115.75 67.6, 134.57 45.78, 172.89 1.89 M102.43 89.04 C131.16 56.23, 159.65 22.12, 177.87 2.25 M102.43 89.04 C125.61 61.97, 149.49 35.55, 177.87 2.25 M108.07 88.64 C135.39 59.56, 163.58 26.41, 183.52 1.85 M108.07 88.64 C137.82 54.07, 166.83 20.6, 183.52 1.85 M113.06 89 C131.14 68.1, 151.33 45.28, 188.5 2.21 M113.06 89 C139.82 56.2, 168.03 24.81, 188.5 2.21 M118.7 88.61 C143.47 59.12, 167.21 31.07, 194.15 1.82 M118.7 88.61 C138.83 65.17, 159.79 40.23, 194.15 1.82 M123.69 88.97 C138.82 68.56, 157.11 50.52, 199.13 2.18 M123.69 88.97 C152.57 57.01, 179.98 23.84, 199.13 2.18 M129.33 88.57 C160.07 55.55, 188.46 18.41, 204.78 1.78 M129.33 88.57 C145.79 68.98, 161.92 50.34, 204.78 1.78 M134.32 88.93 C161.29 56.51, 190.64 27.81, 209.76 2.14 M134.32 88.93 C158.67 59.91, 184.72 29.7, 209.76 2.14 M139.96 88.54 C161.93 67.73, 181.11 44.46, 215.41 1.75 M139.96 88.54 C164.47 59.94, 191.11 30.48, 215.41 1.75 M144.95 88.9 C172.61 53.83, 203.44 23.24, 220.39 2.11 M144.95 88.9 C165.57 66.8, 186.45 42.67, 220.39 2.11 M150.59 88.5 C174.97 60.95, 197.8 33.65, 225.38 2.47 M150.59 88.5 C179.6 54.43, 209.45 19.34, 225.38 2.47 M155.58 88.86 C175.29 65.56, 195.8 43.02, 231.68 1.32 M155.58 88.86 C171.74 69.42, 187.79 50.25, 231.68 1.32 M161.22 88.47 C186.71 61.61, 209.6 34.01, 236.01 2.43 M161.22 88.47 C187.4 59.99, 214.15 28.69, 236.01 2.43 M166.21 88.83 C194.25 57.84, 224.75 23.25, 241 2.79 M166.21 88.83 C194.56 56.52, 222.71 25.36, 241 2.79 M171.85 88.44 C200.17 55.14, 229.41 22.68, 244.67 4.66 M171.85 88.44 C198.09 60.56, 221.64 31.28, 244.67 4.66 M176.84 88.8 C205.75 55.69, 231.6 26.54, 247.69 7.29 M176.84 88.8 C192.22 72.31, 207.69 52.42, 247.69 7.29 M182.48 88.4 C204.54 62.63, 227.44 36.12, 249.4 11.42 M182.48 88.4 C206.11 60.7, 231.4 33.83, 249.4 11.42 M187.47 88.76 C208.23 63.45, 232 37.52, 251.76 14.8 M187.47 88.76 C211.08 61.21, 235.98 35.16, 251.76 14.8 M193.11 88.37 C214.68 65.98, 236.11 39.09, 253.47 18.93 M193.11 88.37 C217.2 61.52, 239.67 33.74, 253.47 18.93 M198.1 88.73 C211.18 73.85, 220.79 62.61, 253.86 24.58 M198.1 88.73 C215.37 67.27, 234.43 46.83, 253.86 24.58 M203.74 88.33 C221.62 68.29, 237.33 51.32, 253.6 30.97 M203.74 88.33 C213.4 77.22, 224.56 63.72, 253.6 30.97 M208.73 88.69 C223.72 72.8, 237.76 56.52, 253.99 36.62 M208.73 88.69 C224.36 71.49, 238.82 54.44, 253.99 36.62 M213.71 89.05 C229.44 73.75, 243.37 54.63, 253.73 43.02 M213.71 89.05 C223.16 79.63, 231.16 68.09, 253.73 43.02 M219.36 88.66 C228.92 76.83, 241.33 66.12, 253.47 49.41 M219.36 88.66 C228.22 78.38, 238.83 66.14, 253.47 49.41 M224.34 89.02 C231.19 80.46, 237.34 72.72, 253.87 55.06 M224.34 89.02 C232.41 82.09, 239.43 72.75, 253.87 55.06 M230.64 87.87 C240.51 76.32, 246.43 69.51, 253.6 61.45 M230.64 87.87 C237.3 81.03, 242.62 75.61, 253.6 61.45 M236.94 86.72 C240.98 83.19, 244.11 74.38, 253.34 67.85 M236.94 86.72 C240.87 82.21, 245.56 75.62, 253.34 67.85" stroke="#b2f2bb" stroke-width="0.5" fill="none"></path><path d="M21.87 0 M21.87 0 C69.69 0.43, 120.3 1.05, 229.63 0 M21.87 0 C92.55 -0.05, 164.67 0.36, 229.63 0 M229.63 0 C245.64 -0.23, 250.36 5.31, 251.5 21.87 M229.63 0 C245.88 1.14, 252.32 9.25, 251.5 21.87 M251.5 21.87 C251.96 36, 250.73 47.18, 251.5 65.62 M251.5 21.87 C251.25 35.85, 252.05 50.28, 251.5 65.62 M251.5 65.62 C253.02 79.3, 244.89 87.1, 229.63 87.5 M251.5 65.62 C249.47 81.96, 245.22 88.8, 229.63 87.5 M229.63 87.5 C153.55 89.81, 75.68 87.18, 21.87 87.5 M229.63 87.5 C170.36 88.39, 111.1 88.02, 21.87 87.5 M21.87 87.5 C6.45 88.25, -0.62 81.63, 0 65.62 M21.87 87.5 C6.28 88.78, -0.42 82.48, 0 65.62 M0 65.62 C-1.78 56.92, -0.28 44.88, 0 21.87 M0 65.62 C-0.87 49.11, -0.17 31.96, 0 21.87 M0 21.87 C2 8.56, 6.34 -1.52, 21.87 0 M0 21.87 C2.05 5.12, 8.87 -1.37, 21.87 0" stroke="#1e1e1e" stroke-width="1" fill="none"></path></g><g transform="translate(21.5 434.5) rotate(0 37.53399658203125 17.5)"><text x="0" y="0" font-family="Virgil, HanziPen SC, Cangnanshoujiti, KaiTi, Segoe UI Emoji" font-size="28px" fill="#1e1e1e" text-anchor="start" style="white-space: pre;" direction="ltr" dominant-baseline="text-before-edge">第3种</text></g></svg>