<svg version="1.1" xmlns="http://www.w3.org/2000/svg" viewBox="0 0 442.80816614145243 264.5" width="885.6163322829049" height="529">
  <!-- svg-source:excalidraw -->
  
  <defs>
    <style class="style-fonts">
      @font-face {
        font-family: "Virgil";
        src: url("https://excalidraw.com/Virgil.woff2");
      }
      @font-face {
        font-family: "Cascadia";
        src: url("https://excalidraw.com/Cascadia.woff2");
      }
    </style>
    
  </defs>
  <rect x="0" y="0" width="442.80816614145243" height="264.5" fill="#fffce8"></rect><g stroke-linecap="round" transform="translate(15.433166141452432 128.25) rotate(0 22.25 23.5)"><path d="M2.96 2.57 C2.96 2.57, 2.96 2.57, 2.96 2.57 M2.96 2.57 C2.96 2.57, 2.96 2.57, 2.96 2.57 M3.36 8.22 C5.44 5.9, 7.67 3.46, 9.92 0.67 M3.36 8.22 C5.13 6.31, 6.87 4.5, 9.92 0.67 M3.09 14.62 C5.84 9.87, 9.65 8.58, 13.59 2.54 M3.09 14.62 C6.98 9.29, 11.15 5.24, 13.59 2.54 M2.83 21.01 C8.11 17.52, 11.53 12.24, 19.23 2.15 M2.83 21.01 C9.14 14.62, 15.31 6.68, 19.23 2.15 M2.57 27.41 C6.27 20.46, 13.8 14.49, 24.22 2.51 M2.57 27.41 C7.41 21.79, 11.03 17.24, 24.22 2.51 M0.34 36.07 C10.46 25.1, 21.64 11.6, 29.86 2.11 M0.34 36.07 C7.86 26.81, 17.08 17.51, 29.86 2.11 M2.05 40.21 C12.89 28.64, 25.28 13.04, 35.51 1.72 M2.05 40.21 C12.07 28.05, 22.22 16.33, 35.51 1.72 M3.1 45.09 C11.76 35.56, 17.61 29.31, 39.84 2.83 M3.1 45.09 C15.02 32.25, 25.65 18.66, 39.84 2.83 M7.43 46.21 C12.72 38.29, 21.95 31.03, 43.51 4.7 M7.43 46.21 C16.39 37.65, 24 26.88, 43.51 4.7 M11.76 47.32 C18.94 39.04, 28.44 30.61, 45.22 8.83 M11.76 47.32 C23.61 35.56, 32.35 23.69, 45.22 8.83 M16.75 47.68 C26.05 36.43, 36.57 23.52, 46.93 12.97 M16.75 47.68 C27.91 34.04, 39.62 21.09, 46.93 12.97 M22.39 47.29 C29.02 41.32, 37.42 30.59, 46.67 19.37 M22.39 47.29 C31.37 35.22, 41.92 24.04, 46.67 19.37 M27.38 47.65 C31.61 40.54, 37.23 35.79, 47.06 25.01 M27.38 47.65 C32.03 42.53, 37.21 36.46, 47.06 25.01 M33.02 47.26 C35.05 44.69, 38.14 38.16, 46.8 31.41 M33.02 47.26 C36.31 42.84, 41.6 37.24, 46.8 31.41 M36.04 49.88 C41.17 45.12, 43.31 40.56, 46.54 37.8 M36.04 49.88 C39.43 46.04, 43.42 40.36, 46.54 37.8" stroke="#b2f2bb" stroke-width="0.5" fill="none"></path><path d="M11.13 0 M11.13 0 C16.4 -0.75, 24.93 -1.53, 33.38 0 M11.13 0 C15.27 -0.52, 20.67 0.25, 33.38 0 M33.38 0 C41.08 -0.99, 46.25 4.23, 44.5 11.13 M33.38 0 C40.9 0.81, 42.43 3.92, 44.5 11.13 M44.5 11.13 C45.65 19.76, 42.77 26.5, 44.5 35.88 M44.5 11.13 C43.58 19.89, 45.06 29.22, 44.5 35.88 M44.5 35.88 C44.17 43.99, 40.71 45.61, 33.38 47 M44.5 35.88 C46.13 41.55, 40.67 45.56, 33.38 47 M33.38 47 C24.79 45.53, 16.86 48.99, 11.13 47 M33.38 47 C28.27 47.8, 21.66 47.11, 11.13 47 M11.13 47 C5.5 48.59, -0.58 41.32, 0 35.88 M11.13 47 C5.19 44.7, 0.24 44.95, 0 35.88 M0 35.88 C0.12 27.26, -1.53 22.01, 0 11.13 M0 35.88 C-0.63 25.48, 0.15 17.33, 0 11.13 M0 11.13 C0.35 3.78, 4.21 0.26, 11.13 0 M0 11.13 C1.41 4.92, 4.52 -0.4, 11.13 0" stroke="#1e1e1e" stroke-width="1" fill="none"></path></g><g transform="translate(28.723167056979776 134.25) rotate(0 8.959999084472656 17.5)"><text x="8.959999084472656" y="0" font-family="Virgil, HanziPen SC, Cangnanshoujiti, KaiTi, Segoe UI Emoji" font-size="28px" fill="#1e1e1e" text-anchor="middle" style="white-space: pre;" direction="ltr" dominant-baseline="text-before-edge">4</text></g><g stroke-linecap="round" transform="translate(67.68316614145243 128.25) rotate(0 22.25 23.5)"><path d="M2.96 2.57 C2.96 2.57, 2.96 2.57, 2.96 2.57 M2.96 2.57 C2.96 2.57, 2.96 2.57, 2.96 2.57 M3.36 8.22 C5.73 6.68, 6.25 4.09, 9.92 0.67 M3.36 8.22 C5.58 5.39, 7.74 2.46, 9.92 0.67 M3.09 14.62 C6.61 12.03, 7.72 7.55, 13.59 2.54 M3.09 14.62 C6.65 10.16, 9.87 6.16, 13.59 2.54 M2.83 21.01 C4.92 16.12, 10.23 13.14, 19.23 2.15 M2.83 21.01 C7.37 16.04, 11.17 11.53, 19.23 2.15 M2.57 27.41 C7.05 20.89, 17.24 10.86, 24.22 2.51 M2.57 27.41 C9.05 18.5, 17.57 11.21, 24.22 2.51 M0.34 36.07 C10.64 22.74, 23.16 8.65, 29.86 2.11 M0.34 36.07 C9.72 24.43, 18.79 15.19, 29.86 2.11 M2.05 40.21 C14.71 28.16, 25.55 12.79, 35.51 1.72 M2.05 40.21 C13.91 28.28, 22.93 14.81, 35.51 1.72 M3.1 45.09 C12.5 32.9, 22.61 22.6, 39.84 2.83 M3.1 45.09 C18.01 28.81, 31.39 11.83, 39.84 2.83 M7.43 46.21 C14.56 38.55, 21.6 27.89, 43.51 4.7 M7.43 46.21 C16.5 35.06, 25.73 24.24, 43.51 4.7 M11.76 47.32 C24.16 33.37, 38.83 15.86, 45.22 8.83 M11.76 47.32 C24.81 33.8, 38.47 17.57, 45.22 8.83 M16.75 47.68 C28.75 37.36, 38.15 25.54, 46.93 12.97 M16.75 47.68 C26.98 37.7, 35.16 25.76, 46.93 12.97 M22.39 47.29 C32.51 37.51, 39.57 23.72, 46.67 19.37 M22.39 47.29 C27.73 40.74, 33.84 32.83, 46.67 19.37 M27.38 47.65 C32.16 41.47, 38.12 37.8, 47.06 25.01 M27.38 47.65 C33.39 41.17, 40.25 33.63, 47.06 25.01 M33.02 47.26 C37.06 43.59, 42.98 38, 46.8 31.41 M33.02 47.26 C35.01 43.82, 39.05 40.75, 46.8 31.41 M36.04 49.88 C38.29 46.18, 41.89 43.88, 46.54 37.8 M36.04 49.88 C39.4 46.85, 42.56 42.42, 46.54 37.8" stroke="#b2f2bb" stroke-width="0.5" fill="none"></path><path d="M11.13 0 M11.13 0 C20.13 -0.3, 30.19 1.46, 33.38 0 M11.13 0 C16.16 -0.04, 23.91 -0.11, 33.38 0 M33.38 0 C41.88 -1.95, 44.76 2.61, 44.5 11.13 M33.38 0 C39.18 1.33, 46.59 3.05, 44.5 11.13 M44.5 11.13 C44.49 19.47, 44.68 24.66, 44.5 35.88 M44.5 11.13 C45.06 19.52, 44.36 27.67, 44.5 35.88 M44.5 35.88 C45.82 45.22, 41.96 47.04, 33.38 47 M44.5 35.88 C46.61 41.19, 40.01 47.03, 33.38 47 M33.38 47 C25.16 48.22, 18.75 48.43, 11.13 47 M33.38 47 C25.64 47.25, 18.63 47.05, 11.13 47 M11.13 47 C3.71 47.36, 0.1 44.04, 0 35.88 M11.13 47 C1.92 48.3, 1.2 41.63, 0 35.88 M0 35.88 C-2.22 27.92, -2.06 20.55, 0 11.13 M0 35.88 C-0.45 27.69, -0.47 20.75, 0 11.13 M0 11.13 C1.99 4.56, 5.22 1.31, 11.13 0 M0 11.13 C1.97 5.83, 1.84 1.29, 11.13 0" stroke="#1e1e1e" stroke-width="1" fill="none"></path></g><g transform="translate(81.28116571420634 134.25) rotate(0 8.652000427246094 17.5)"><text x="8.652000427246094" y="0" font-family="Virgil, HanziPen SC, Cangnanshoujiti, KaiTi, Segoe UI Emoji" font-size="28px" fill="#1e1e1e" text-anchor="middle" style="white-space: pre;" direction="ltr" dominant-baseline="text-before-edge">5</text></g><g stroke-linecap="round" transform="translate(120.68316614145243 128.25) rotate(0 22.25 23.5)"><path d="M2.96 2.57 C2.96 2.57, 2.96 2.57, 2.96 2.57 M2.96 2.57 C2.96 2.57, 2.96 2.57, 2.96 2.57 M3.36 8.22 C5.34 6.73, 5.6 5.42, 9.92 0.67 M3.36 8.22 C5.48 5.54, 6.86 3.7, 9.92 0.67 M3.09 14.62 C4.84 11.67, 8.06 10.1, 13.59 2.54 M3.09 14.62 C6.98 10.11, 10.41 4.77, 13.59 2.54 M2.83 21.01 C8.86 14.19, 12.05 8.4, 19.23 2.15 M2.83 21.01 C6.4 16.08, 10.23 12.54, 19.23 2.15 M2.57 27.41 C8.37 22.89, 10.53 18.03, 24.22 2.51 M2.57 27.41 C8.05 23.25, 10.85 17.67, 24.22 2.51 M0.34 36.07 C12.4 24.71, 22.95 11.59, 29.86 2.11 M0.34 36.07 C7.99 27.5, 13.69 20.56, 29.86 2.11 M2.05 40.21 C11.14 29.11, 16.16 20.89, 35.51 1.72 M2.05 40.21 C11.61 29.33, 19.67 19.22, 35.51 1.72 M3.1 45.09 C13.38 33.8, 26.19 19.14, 39.84 2.83 M3.1 45.09 C16.04 31.85, 27.7 17.19, 39.84 2.83 M7.43 46.21 C21.44 33.1, 33.26 16.94, 43.51 4.7 M7.43 46.21 C15.24 37.47, 23.55 27.01, 43.51 4.7 M11.76 47.32 C23.21 34.44, 36.23 19.23, 45.22 8.83 M11.76 47.32 C22.42 36.21, 31.13 26.61, 45.22 8.83 M16.75 47.68 C27.96 36.09, 41.31 20.39, 46.93 12.97 M16.75 47.68 C22.71 41.71, 28.72 34.54, 46.93 12.97 M22.39 47.29 C25.88 42.92, 34.01 35.53, 46.67 19.37 M22.39 47.29 C29.27 40.68, 35.96 32.32, 46.67 19.37 M27.38 47.65 C34.8 40.88, 39.79 33.74, 47.06 25.01 M27.38 47.65 C34.39 40.16, 40.66 30.61, 47.06 25.01 M33.02 47.26 C38.88 41.66, 42.29 37.89, 46.8 31.41 M33.02 47.26 C37.15 41.4, 43.36 36.2, 46.8 31.41 M36.04 49.88 C39.51 46.56, 41.57 42.97, 46.54 37.8 M36.04 49.88 C40.58 45.77, 42.73 41.26, 46.54 37.8" stroke="#b2f2bb" stroke-width="0.5" fill="none"></path><path d="M11.13 0 M11.13 0 C16.3 -1.54, 19.64 -1.19, 33.38 0 M11.13 0 C17.33 0.53, 23.34 0.63, 33.38 0 M33.38 0 C42.64 -1.63, 45.62 4.55, 44.5 11.13 M33.38 0 C38.88 2.05, 43.93 2.5, 44.5 11.13 M44.5 11.13 C45.35 18.42, 46.57 25.46, 44.5 35.88 M44.5 11.13 C43.79 18.52, 44.47 26.42, 44.5 35.88 M44.5 35.88 C45.07 43.42, 41.3 47.4, 33.38 47 M44.5 35.88 C46.57 41.19, 42.88 45.2, 33.38 47 M33.38 47 C25.63 47.25, 22.57 45.64, 11.13 47 M33.38 47 C23.7 46.26, 15.03 46.53, 11.13 47 M11.13 47 C2.44 46.82, 0.94 42.57, 0 35.88 M11.13 47 C1.45 49.29, -1.18 43.28, 0 35.88 M0 35.88 C-1.49 27.72, 0.55 24.03, 0 11.13 M0 35.88 C0.49 28.73, -0.98 19.35, 0 11.13 M0 11.13 C-0.31 2.64, 2.52 -0.47, 11.13 0 M0 11.13 C-0.9 5.02, 5.69 -1.62, 11.13 0" stroke="#1e1e1e" stroke-width="1" fill="none"></path></g><g transform="translate(134.40717279428446 134.25) rotate(0 8.525993347167969 17.5)"><text x="8.525993347167969" y="0" font-family="Virgil, HanziPen SC, Cangnanshoujiti, KaiTi, Segoe UI Emoji" font-size="28px" fill="#1e1e1e" text-anchor="middle" style="white-space: pre;" direction="ltr" dominant-baseline="text-before-edge">9</text></g><g stroke-linecap="round" transform="translate(175.68316614145243 128.25) rotate(0 22.25 23.5)"><path d="M2.96 2.57 C2.96 2.57, 2.96 2.57, 2.96 2.57 M2.96 2.57 C2.96 2.57, 2.96 2.57, 2.96 2.57 M3.36 8.22 C3.85 5.84, 6.33 4.31, 9.92 0.67 M3.36 8.22 C5.01 6.47, 6.32 5.02, 9.92 0.67 M3.09 14.62 C5.07 10.79, 10.32 8.23, 13.59 2.54 M3.09 14.62 C4.98 11.18, 9.16 8.5, 13.59 2.54 M2.83 21.01 C10.23 12.16, 15.11 7.54, 19.23 2.15 M2.83 21.01 C7.06 15.26, 12.04 10.42, 19.23 2.15 M2.57 27.41 C6.8 20.66, 16.06 13.45, 24.22 2.51 M2.57 27.41 C10.08 19.22, 16.51 11.74, 24.22 2.51 M0.34 36.07 C12.93 21.48, 23.06 12.02, 29.86 2.11 M0.34 36.07 C9.25 25.5, 17.38 16.32, 29.86 2.11 M2.05 40.21 C13.84 23.82, 28.47 11.82, 35.51 1.72 M2.05 40.21 C12.79 28.51, 23.81 16.03, 35.51 1.72 M3.1 45.09 C15.21 34.08, 23.7 22.81, 39.84 2.83 M3.1 45.09 C11.25 36.44, 19.46 27.05, 39.84 2.83 M7.43 46.21 C20.85 30.63, 31.14 16.48, 43.51 4.7 M7.43 46.21 C19.65 32.08, 32.07 18.04, 43.51 4.7 M11.76 47.32 C17.53 38.83, 28.29 30.44, 45.22 8.83 M11.76 47.32 C18.57 39.98, 25.49 31.43, 45.22 8.83 M16.75 47.68 C24.97 40.72, 33.59 31.16, 46.93 12.97 M16.75 47.68 C26.67 35.28, 38.93 21.2, 46.93 12.97 M22.39 47.29 C31.61 37.44, 42.66 26.42, 46.67 19.37 M22.39 47.29 C29.7 38.09, 37.42 29.28, 46.67 19.37 M27.38 47.65 C33.65 41.13, 39.32 34.82, 47.06 25.01 M27.38 47.65 C34.48 38.5, 43.08 29.17, 47.06 25.01 M33.02 47.26 C34.95 45.43, 38.14 39.44, 46.8 31.41 M33.02 47.26 C35.71 43.25, 39.05 40.9, 46.8 31.41 M36.04 49.88 C38.11 46.58, 41.14 42.3, 46.54 37.8 M36.04 49.88 C39.07 47.26, 41.92 43.6, 46.54 37.8" stroke="#b2f2bb" stroke-width="0.5" fill="none"></path><path d="M11.13 0 M11.13 0 C14.76 -0.84, 21.93 -1.28, 33.38 0 M11.13 0 C17.05 0.95, 21.13 -0.69, 33.38 0 M33.38 0 C40.05 -0.94, 45.33 4.77, 44.5 11.13 M33.38 0 C42.05 -0.03, 44.08 3.3, 44.5 11.13 M44.5 11.13 C43.98 18.97, 45.79 23.15, 44.5 35.88 M44.5 11.13 C43.62 16.97, 45.35 25.05, 44.5 35.88 M44.5 35.88 C44.15 43.28, 39.71 46.42, 33.38 47 M44.5 35.88 C46.21 45.34, 39.05 45.59, 33.38 47 M33.38 47 C25.09 46.99, 21.94 47.5, 11.13 47 M33.38 47 C25.48 46.58, 16.03 46.54, 11.13 47 M11.13 47 C2.49 45.76, 0.63 44.71, 0 35.88 M11.13 47 C3.62 47.76, -1.09 43.6, 0 35.88 M0 35.88 C-1.71 31.2, 1.58 23.66, 0 11.13 M0 35.88 C0.85 29.4, 0.46 22.9, 0 11.13 M0 11.13 C0.28 3.16, 4.17 0.7, 11.13 0 M0 11.13 C-1.17 2.02, 5.13 1.25, 11.13 0" stroke="#1e1e1e" stroke-width="1" fill="none"></path></g><g transform="translate(188.97316705697978 134.25) rotate(0 8.959999084472656 17.5)"><text x="8.959999084472656" y="0" font-family="Virgil, HanziPen SC, Cangnanshoujiti, KaiTi, Segoe UI Emoji" font-size="28px" fill="#1e1e1e" text-anchor="middle" style="white-space: pre;" direction="ltr" dominant-baseline="text-before-edge">4</text></g><g stroke-linecap="round" transform="translate(228.05816614145243 129.25) rotate(0 22.25 23.5)"><path d="M2.96 2.57 C2.96 2.57, 2.96 2.57, 2.96 2.57 M2.96 2.57 C2.96 2.57, 2.96 2.57, 2.96 2.57 M3.36 8.22 C6.01 5.62, 8.74 3.2, 9.92 0.67 M3.36 8.22 C5.33 6.44, 6.54 3.88, 9.92 0.67 M3.09 14.62 C6.37 11.17, 9.26 7.84, 13.59 2.54 M3.09 14.62 C7.15 9.9, 10.37 7.15, 13.59 2.54 M2.83 21.01 C6.44 15.1, 13.65 9.5, 19.23 2.15 M2.83 21.01 C6.18 16.94, 11.25 13.08, 19.23 2.15 M2.57 27.41 C12.39 16.24, 19.79 9.35, 24.22 2.51 M2.57 27.41 C6.52 21.92, 12.18 17.32, 24.22 2.51 M0.34 36.07 C10.47 24.38, 19.26 13.25, 29.86 2.11 M0.34 36.07 C7.8 28.15, 14.66 19.94, 29.86 2.11 M2.05 40.21 C14.23 26.62, 22.85 16.14, 35.51 1.72 M2.05 40.21 C11.19 30.42, 19.13 21.32, 35.51 1.72 M3.1 45.09 C12.53 32.6, 22.86 21.38, 39.84 2.83 M3.1 45.09 C17 30.28, 28.75 15.76, 39.84 2.83 M7.43 46.21 C14.32 37.27, 25.53 27.83, 43.51 4.7 M7.43 46.21 C19.61 32.39, 29.35 20.53, 43.51 4.7 M11.76 47.32 C19.46 39.05, 30.22 27, 45.22 8.83 M11.76 47.32 C19.75 39.47, 27.31 30.38, 45.22 8.83 M16.75 47.68 C23.8 39.48, 33.49 29.07, 46.93 12.97 M16.75 47.68 C28.42 35.15, 38.73 20.92, 46.93 12.97 M22.39 47.29 C31.55 35.56, 40.27 27.44, 46.67 19.37 M22.39 47.29 C31.97 37.28, 41.52 24.82, 46.67 19.37 M27.38 47.65 C34.95 41.13, 40.81 35.75, 47.06 25.01 M27.38 47.65 C31.41 41.78, 37 37.74, 47.06 25.01 M33.02 47.26 C37.32 41.09, 41.23 36.38, 46.8 31.41 M33.02 47.26 C35.34 43.47, 38.22 39.59, 46.8 31.41 M36.04 49.88 C40.82 45.63, 43.29 41.33, 46.54 37.8 M36.04 49.88 C40.12 46.34, 43.93 42.39, 46.54 37.8" stroke="#a5d8ff" stroke-width="0.5" fill="none"></path><path d="M11.13 0 M11.13 0 C16.83 -0.96, 23.16 0.66, 33.38 0 M11.13 0 C17.44 -0.27, 24.87 -0.91, 33.38 0 M33.38 0 C39.38 1.32, 45.16 5.71, 44.5 11.13 M33.38 0 C38.66 1.29, 44.28 4.86, 44.5 11.13 M44.5 11.13 C45.96 18.11, 43.21 28.98, 44.5 35.88 M44.5 11.13 C44.96 16.67, 44.67 22.61, 44.5 35.88 M44.5 35.88 C44.62 41.82, 42.47 46.08, 33.38 47 M44.5 35.88 C43.72 43.22, 40.32 48.13, 33.38 47 M33.38 47 C28.58 46.46, 21.33 48.17, 11.13 47 M33.38 47 C26.99 46.55, 19.38 47.47, 11.13 47 M11.13 47 C2.1 46.47, 0.68 43.3, 0 35.88 M11.13 47 C1.41 48.76, -1.83 45.38, 0 35.88 M0 35.88 C-1.55 31.43, 1.83 25.45, 0 11.13 M0 35.88 C0.2 30.06, 0.63 25.37, 0 11.13 M0 11.13 C-1.85 3.73, 5.23 1.89, 11.13 0 M0 11.13 C-1.88 2.66, 1.43 -0.62, 11.13 0" stroke="#1e1e1e" stroke-width="1" fill="none"></path></g><g transform="translate(241.34816705697978 135.25) rotate(0 8.959999084472656 17.5)"><text x="8.959999084472656" y="0" font-family="Virgil, HanziPen SC, Cangnanshoujiti, KaiTi, Segoe UI Emoji" font-size="28px" fill="#1e1e1e" text-anchor="middle" style="white-space: pre;" direction="ltr" dominant-baseline="text-before-edge">4</text></g><g stroke-linecap="round" transform="translate(280.30816614145243 129.25) rotate(0 22.25 23.5)"><path d="M2.96 2.57 C2.96 2.57, 2.96 2.57, 2.96 2.57 M2.96 2.57 C2.96 2.57, 2.96 2.57, 2.96 2.57 M3.36 8.22 C5.13 6.15, 7.83 3.74, 9.92 0.67 M3.36 8.22 C5.52 5.92, 8.02 3.26, 9.92 0.67 M3.09 14.62 C6.82 9.74, 10.28 8.2, 13.59 2.54 M3.09 14.62 C5.63 10.97, 7.76 8.29, 13.59 2.54 M2.83 21.01 C6.3 14.45, 11.65 8.66, 19.23 2.15 M2.83 21.01 C8.42 15.82, 13.54 10.32, 19.23 2.15 M2.57 27.41 C5.5 23.66, 11.4 15.38, 24.22 2.51 M2.57 27.41 C9.01 20.28, 15.79 13.17, 24.22 2.51 M0.34 36.07 C8.25 25.56, 18.54 16.11, 29.86 2.11 M0.34 36.07 C10.22 25.74, 18.8 14.59, 29.86 2.11 M2.05 40.21 C8.25 30.24, 17.33 25, 35.51 1.72 M2.05 40.21 C9.49 30.38, 16.99 21.36, 35.51 1.72 M3.1 45.09 C13.76 33.53, 20.31 25.37, 39.84 2.83 M3.1 45.09 C11.56 34.36, 20.56 23.39, 39.84 2.83 M7.43 46.21 C18.78 31.87, 31.2 21.56, 43.51 4.7 M7.43 46.21 C14.37 37.22, 22.02 28.97, 43.51 4.7 M11.76 47.32 C21.82 33.07, 34.39 20.9, 45.22 8.83 M11.76 47.32 C23.17 33.57, 34.97 19.41, 45.22 8.83 M16.75 47.68 C29.63 32.62, 38.95 21.58, 46.93 12.97 M16.75 47.68 C28.03 36.72, 37.17 24.62, 46.93 12.97 M22.39 47.29 C30.22 38.73, 33.18 33.23, 46.67 19.37 M22.39 47.29 C31.36 37.95, 40.6 27.76, 46.67 19.37 M27.38 47.65 C32.12 40.65, 38.25 32, 47.06 25.01 M27.38 47.65 C31.95 42.46, 36.2 36.87, 47.06 25.01 M33.02 47.26 C34.4 44.67, 40.76 39.12, 46.8 31.41 M33.02 47.26 C37.59 43.33, 40.97 39.26, 46.8 31.41 M36.04 49.88 C39.93 45.25, 41.49 43.27, 46.54 37.8 M36.04 49.88 C39.24 45.23, 42.93 41.31, 46.54 37.8" stroke="#a5d8ff" stroke-width="0.5" fill="none"></path><path d="M11.13 0 M11.13 0 C16.83 -0.71, 22.87 -1.3, 33.38 0 M11.13 0 C16.69 0.85, 24 1.18, 33.38 0 M33.38 0 C38.94 1.12, 44.31 4.71, 44.5 11.13 M33.38 0 C41.61 -0.3, 44.52 5.43, 44.5 11.13 M44.5 11.13 C42.85 18.45, 44.95 23.23, 44.5 35.88 M44.5 11.13 C44.56 17.72, 45.33 25.34, 44.5 35.88 M44.5 35.88 C43.82 43.23, 40.38 47.98, 33.38 47 M44.5 35.88 C42.87 41.78, 40.47 47.35, 33.38 47 M33.38 47 C27.14 47.87, 19.79 47.43, 11.13 47 M33.38 47 C26.56 46.87, 21.69 47.14, 11.13 47 M11.13 47 C1.71 48.53, -1.59 45.11, 0 35.88 M11.13 47 C2.29 46.9, -1.69 41.5, 0 35.88 M0 35.88 C-1.7 26.6, -0.88 17.82, 0 11.13 M0 35.88 C-1.08 28.97, 0.61 22.98, 0 11.13 M0 11.13 C-1.63 2.8, 1.73 -0.54, 11.13 0 M0 11.13 C2.14 4.78, 5 1.97, 11.13 0" stroke="#1e1e1e" stroke-width="1" fill="none"></path></g><g transform="translate(293.90616571420634 135.25) rotate(0 8.652000427246094 17.5)"><text x="8.652000427246094" y="0" font-family="Virgil, HanziPen SC, Cangnanshoujiti, KaiTi, Segoe UI Emoji" font-size="28px" fill="#1e1e1e" text-anchor="middle" style="white-space: pre;" direction="ltr" dominant-baseline="text-before-edge">5</text></g><g stroke-linecap="round" transform="translate(333.30816614145243 129.25) rotate(0 22.25 23.5)"><path d="M2.96 2.57 C2.96 2.57, 2.96 2.57, 2.96 2.57 M2.96 2.57 C2.96 2.57, 2.96 2.57, 2.96 2.57 M3.36 8.22 C6.05 5.14, 7.16 2.7, 9.92 0.67 M3.36 8.22 C5.58 5.7, 7.85 3.22, 9.92 0.67 M3.09 14.62 C4.2 12.06, 9.19 9.51, 13.59 2.54 M3.09 14.62 C5.25 12.34, 7.53 9.26, 13.59 2.54 M2.83 21.01 C7.36 18.14, 12.38 12.72, 19.23 2.15 M2.83 21.01 C7.85 14.53, 15.08 6.24, 19.23 2.15 M2.57 27.41 C10.77 18.72, 20.79 8.88, 24.22 2.51 M2.57 27.41 C9.1 19.15, 16 11.28, 24.22 2.51 M0.34 36.07 C9.47 26.22, 18 16.63, 29.86 2.11 M0.34 36.07 C11.39 22.42, 23.83 8.68, 29.86 2.11 M2.05 40.21 C8.48 32.97, 16.21 21.76, 35.51 1.72 M2.05 40.21 C9.19 31.39, 16.82 24.1, 35.51 1.72 M3.1 45.09 C12.19 33.56, 22.21 21.03, 39.84 2.83 M3.1 45.09 C13.38 34.81, 23.2 23.04, 39.84 2.83 M7.43 46.21 C14.31 34.87, 24.94 24.05, 43.51 4.7 M7.43 46.21 C16.78 37.22, 24.19 25.59, 43.51 4.7 M11.76 47.32 C21.79 38.17, 29.5 26.6, 45.22 8.83 M11.76 47.32 C22.04 36.54, 31.18 26.57, 45.22 8.83 M16.75 47.68 C23.78 38.71, 27.48 35.01, 46.93 12.97 M16.75 47.68 C26.62 35.48, 38.26 24.76, 46.93 12.97 M22.39 47.29 C29.41 41.11, 31.66 34.77, 46.67 19.37 M22.39 47.29 C31.65 37.42, 41.53 25.32, 46.67 19.37 M27.38 47.65 C32.49 41.27, 41.35 33.43, 47.06 25.01 M27.38 47.65 C33.27 40.13, 39.82 31.69, 47.06 25.01 M33.02 47.26 C37.1 40.56, 40.87 37.84, 46.8 31.41 M33.02 47.26 C37.68 41.65, 42.34 37.02, 46.8 31.41 M36.04 49.88 C39.61 48.39, 42.41 43, 46.54 37.8 M36.04 49.88 C38.43 47.08, 41.83 43.63, 46.54 37.8" stroke="#a5d8ff" stroke-width="0.5" fill="none"></path><path d="M11.13 0 M11.13 0 C16.72 -0.12, 21.39 -1.28, 33.38 0 M11.13 0 C18.35 0.34, 27.33 0.28, 33.38 0 M33.38 0 C41.51 -0.26, 44.52 5.2, 44.5 11.13 M33.38 0 C39.27 -1.44, 45.92 1.99, 44.5 11.13 M44.5 11.13 C44.5 20.41, 45.23 29.91, 44.5 35.88 M44.5 11.13 C44.37 16.69, 44.5 22.81, 44.5 35.88 M44.5 35.88 C43.09 41.98, 40.51 47.3, 33.38 47 M44.5 35.88 C43.91 41.18, 42.17 46.86, 33.38 47 M33.38 47 C25.29 45.18, 19.63 45.42, 11.13 47 M33.38 47 C26.29 47.77, 20.4 47.91, 11.13 47 M11.13 47 C2.48 46.91, -1.47 41.74, 0 35.88 M11.13 47 C5.38 49.1, 1.58 41.6, 0 35.88 M0 35.88 C-0.33 29.78, 1.5 19.32, 0 11.13 M0 35.88 C-1 27.97, -1.18 20.7, 0 11.13 M0 11.13 C1.86 4.64, 4.83 1.71, 11.13 0 M0 11.13 C-1.63 2.07, 1.81 1.26, 11.13 0" stroke="#1e1e1e" stroke-width="1" fill="none"></path></g><g transform="translate(347.03217279428446 135.25) rotate(0 8.525993347167969 17.5)"><text x="8.525993347167969" y="0" font-family="Virgil, HanziPen SC, Cangnanshoujiti, KaiTi, Segoe UI Emoji" font-size="28px" fill="#1e1e1e" text-anchor="middle" style="white-space: pre;" direction="ltr" dominant-baseline="text-before-edge">9</text></g><g stroke-linecap="round" transform="translate(388.30816614145243 129.25) rotate(0 22.25 23.5)"><path d="M2.96 2.57 C2.96 2.57, 2.96 2.57, 2.96 2.57 M2.96 2.57 C2.96 2.57, 2.96 2.57, 2.96 2.57 M3.36 8.22 C5.56 6.62, 7.07 4.29, 9.92 0.67 M3.36 8.22 C5.05 6.08, 7.79 3.03, 9.92 0.67 M3.09 14.62 C4.66 10.64, 8.06 7.15, 13.59 2.54 M3.09 14.62 C5.98 10.52, 9.18 7.33, 13.59 2.54 M2.83 21.01 C10.62 15.06, 17.71 4.18, 19.23 2.15 M2.83 21.01 C9.48 14.19, 13.9 7.57, 19.23 2.15 M2.57 27.41 C10.1 20.7, 17.54 10.22, 24.22 2.51 M2.57 27.41 C7.9 21.34, 13.77 15.26, 24.22 2.51 M0.34 36.07 C11.1 23.78, 20.15 13.65, 29.86 2.11 M0.34 36.07 C8.04 26.75, 18.13 16.24, 29.86 2.11 M2.05 40.21 C13.96 23.56, 27.65 8.78, 35.51 1.72 M2.05 40.21 C9.64 29.96, 18.91 21.33, 35.51 1.72 M3.1 45.09 C13.55 31.03, 23.65 20.41, 39.84 2.83 M3.1 45.09 C15.79 30.27, 30.56 13.49, 39.84 2.83 M7.43 46.21 C16.01 34.77, 26.11 25.23, 43.51 4.7 M7.43 46.21 C21.28 30, 35.99 14.98, 43.51 4.7 M11.76 47.32 C23.29 33.35, 33.99 21.59, 45.22 8.83 M11.76 47.32 C20.13 35.89, 30.63 25.61, 45.22 8.83 M16.75 47.68 C24.26 39.79, 29.73 31.76, 46.93 12.97 M16.75 47.68 C23.91 37.4, 32.76 29.31, 46.93 12.97 M22.39 47.29 C31.57 39.31, 39.23 30.65, 46.67 19.37 M22.39 47.29 C31.81 35.84, 40.56 24.94, 46.67 19.37 M27.38 47.65 C34.4 39.2, 40.54 31.11, 47.06 25.01 M27.38 47.65 C33.98 41.71, 38.98 33.74, 47.06 25.01 M33.02 47.26 C36.98 44.06, 40.74 40.06, 46.8 31.41 M33.02 47.26 C36.23 42.15, 41.12 39.11, 46.8 31.41 M36.04 49.88 C39.54 44.24, 44.46 39.44, 46.54 37.8 M36.04 49.88 C39.39 46, 42.79 41.35, 46.54 37.8" stroke="#a5d8ff" stroke-width="0.5" fill="none"></path><path d="M11.13 0 M11.13 0 C18.84 0.82, 25.9 -1.69, 33.38 0 M11.13 0 C19.41 -0.24, 26.98 0.64, 33.38 0 M33.38 0 C39.47 -1.25, 45.73 2.22, 44.5 11.13 M33.38 0 C42.57 0.7, 45.11 3.63, 44.5 11.13 M44.5 11.13 C43.1 20.17, 43.67 25.18, 44.5 35.88 M44.5 11.13 C43.74 17.81, 44.31 25.97, 44.5 35.88 M44.5 35.88 C43.99 41.45, 41.99 46.88, 33.38 47 M44.5 35.88 C45.35 41.72, 41.13 46.32, 33.38 47 M33.38 47 C28.23 47.5, 24.15 44.82, 11.13 47 M33.38 47 C24.38 47.16, 15.88 46.42, 11.13 47 M11.13 47 C5.16 48.82, 1.37 41.82, 0 35.88 M11.13 47 C3.64 46.24, 0.45 42.82, 0 35.88 M0 35.88 C-0.15 28.42, 1.72 16.29, 0 11.13 M0 35.88 C1.18 30.04, 0.81 24.14, 0 11.13 M0 11.13 C-1.42 2.28, 2.06 1.1, 11.13 0 M0 11.13 C-0.45 5.9, 1.81 -1.22, 11.13 0" stroke="#1e1e1e" stroke-width="1" fill="none"></path></g><g transform="translate(401.5981670569798 135.25) rotate(0 8.959999084472656 17.5)"><text x="8.959999084472656" y="0" font-family="Virgil, HanziPen SC, Cangnanshoujiti, KaiTi, Segoe UI Emoji" font-size="28px" fill="#1e1e1e" text-anchor="middle" style="white-space: pre;" direction="ltr" dominant-baseline="text-before-edge">4</text></g><g stroke-linecap="round"><g transform="translate(52.721541629375054 201.79061412981537) rotate(0 85.22108010257816 -1.0359186694836353)"><path d="M0.74 -0.51 C29.07 -0.52, 142.41 -0.14, 170.77 -0.14 M-0.33 -1.82 C27.73 -2.15, 141.18 -1.64, 169.55 -1.76" stroke="#000000" stroke-width="1" fill="none"></path></g></g><mask></mask><g stroke-linecap="round"><g transform="translate(216.26812936143176 193.3463521020629) rotate(0 0.4618903711298401 6.880314496894272)"><path d="M-0.51 0.96 C-0.49 3.27, 0.69 11.54, 0.85 13.34 M1.43 0.42 C1.19 2.42, -0.55 9.51, -0.29 11.52" stroke="#000000" stroke-width="1" fill="none"></path></g></g><mask></mask><g stroke-linecap="round"><g transform="translate(61.771656823766705 194.6131137513725) rotate(0 1.214789103098525 6.291228427965109)"><path d="M-0.37 0.58 C-0.21 2.38, 0.12 9.74, 0.48 11.74 M1.64 -0.16 C2.23 1.67, 2.85 10.41, 2.8 12.74" stroke="#000000" stroke-width="1" fill="none"></path></g></g><mask></mask><g stroke-linecap="round"><g transform="translate(10.278967587649845 115.62308282763286) rotate(0 106.80187394455515 -0.6670318915204518)"><path d="M-0.28 0.36 C34.81 -0.05, 176.21 -1.6, 211.57 -1.69 M1.78 -0.5 C37.15 -0.8, 179.03 -0.08, 213.88 -0.32" stroke="#000000" stroke-width="1" fill="none"></path></g></g><mask></mask><g stroke-linecap="round"><g transform="translate(213.03530429672497 105.15433714054058) rotate(0 0.1482716582115131 7.718856453987769)"><path d="M-0.76 -0.32 C-0.54 2.45, 0.53 14.34, 1.06 16.98 M1.04 -1.54 C1.09 0.9, -0.31 12.44, -0.13 15.46" stroke="#000000" stroke-width="1" fill="none"></path></g></g><mask></mask><g stroke-linecap="round"><g transform="translate(21.498817717548434 106.72480067059206) rotate(0 0.9890245936210533 8.768162900241094)"><path d="M-0.46 1.16 C0.08 3.79, 2.02 12.98, 2.44 15.47 M1.5 0.72 C2.03 3.55, 1.96 14.02, 1.97 16.82" stroke="#000000" stroke-width="1" fill="none"></path></g></g><mask></mask><g stroke-linecap="round"><g transform="translate(61.64161686568576 45.33434240174773) rotate(0 109.44229264845694 -0.5862557017925241)"><path d="M-0.38 -1.03 C36.01 -1.28, 182.88 -0.41, 219.26 -0.54 M1.63 1.04 C37.88 0.38, 183 -1.91, 218.89 -2.21" stroke="#000000" stroke-width="1" fill="none"></path></g></g><mask></mask><g stroke-linecap="round"><g transform="translate(269.95595037547054 34.5786253874914) rotate(0 0.7562499715123181 8.700066519081844)"><path d="M1.1 0.86 C1.39 3.67, 1.23 13.35, 1.31 15.82 M0.23 0.27 C0.36 3.34, 0.13 14.38, 0.23 17.13" stroke="#000000" stroke-width="1" fill="none"></path></g></g><mask></mask><g stroke-linecap="round"><g transform="translate(73.16902774627931 36.19213877441706) rotate(0 0.784808684871507 7.630315543711433)"><path d="M-0.25 -0.43 C-0.17 2.04, 1.11 12.83, 1.59 15.71 M1.82 -1.71 C1.65 0.85, 0.56 14.21, 0.66 16.97" stroke="#000000" stroke-width="1" fill="none"></path></g></g><mask></mask><g transform="translate(97.43316614145243 85) rotate(0 47.30597686767578 17.5)"><text x="0" y="0" font-family="Virgil, HanziPen SC, Cangnanshoujiti, KaiTi, Segoe UI Emoji" font-size="28px" fill="#1e1e1e" text-anchor="start" style="white-space: pre;" direction="ltr" dominant-baseline="text-before-edge">f[1][4]</text></g><g transform="translate(147.43316614145243 10) rotate(0 53.171974182128906 17.5)"><text x="0" y="0" font-family="Virgil, HanziPen SC, Cangnanshoujiti, KaiTi, Segoe UI Emoji" font-size="28px" fill="#1e1e1e" text-anchor="start" style="white-space: pre;" direction="ltr" dominant-baseline="text-before-edge">f[2][5]</text></g><g transform="translate(97.26119195932353 219.5) rotate(0 53.47997283935547 17.5)"><text x="0" y="0" font-family="Virgil, HanziPen SC, Cangnanshoujiti, KaiTi, Segoe UI Emoji" font-size="28px" fill="#1e1e1e" text-anchor="start" style="white-space: pre;" direction="ltr" dominant-baseline="text-before-edge">f[2][4]</text></g></svg>