<svg version="1.1" xmlns="http://www.w3.org/2000/svg" viewBox="0 0 391.75 310" width="783.5" height="620">
  <!-- svg-source:excalidraw -->
  
  <defs>
    <style class="style-fonts">
      @font-face {
        font-family: "Virgil";
        src: url("https://excalidraw.com/Virgil.woff2");
      }
      @font-face {
        font-family: "Cascadia";
        src: url("https://excalidraw.com/Cascadia.woff2");
      }
    </style>
    
  </defs>
  <rect x="0" y="0" width="391.75" height="310" fill="#fffce8"></rect><g stroke-opacity="0.4" fill-opacity="0.4" stroke-linecap="round" transform="translate(68 10) rotate(0 126.75 145)"><path d="M7.86 8.16 C7.86 8.16, 7.86 8.16, 7.86 8.16 M7.86 8.16 C7.86 8.16, 7.86 8.16, 7.86 8.16 M3.66 19.09 C8.04 13.24, 15.38 8.61, 18.1 2.48 M3.66 19.09 C7.91 13.01, 13.01 6.75, 18.1 2.48 M2.75 26.24 C8.67 17.7, 15.45 14.42, 24.4 1.33 M2.75 26.24 C7.06 20.52, 12.04 15.57, 24.4 1.33 M2.48 32.64 C12.09 21.84, 19.31 10.88, 30.7 0.18 M2.48 32.64 C11.08 21.92, 20.12 11.54, 30.7 0.18 M2.88 38.28 C12.99 25.43, 27.56 11.79, 34.37 2.05 M2.88 38.28 C14.77 24.9, 26.62 12.3, 34.37 2.05 M2.62 44.68 C13.84 28.33, 26.61 14.83, 39.36 2.41 M2.62 44.68 C12.86 33.15, 24.11 20.82, 39.36 2.41 M2.36 51.07 C14.01 38.08, 26.41 24.46, 45 2.02 M2.36 51.07 C15.38 34.05, 29.07 18.53, 45 2.02 M2.75 56.72 C15.13 41.84, 30.74 26.93, 49.99 2.38 M2.75 56.72 C14.06 43.22, 27.09 29.36, 49.99 2.38 M2.49 63.11 C21.3 42.95, 38.87 21.54, 55.63 1.98 M2.49 63.11 C23.37 40.38, 43.53 17.54, 55.63 1.98 M2.23 69.51 C21.3 46.28, 42.13 25.31, 60.62 2.34 M2.23 69.51 C22.23 47.74, 42.45 23.74, 60.62 2.34 M2.62 75.16 C22.84 54.86, 39.71 33.25, 66.26 1.95 M2.62 75.16 C19.73 56.48, 36.28 36.44, 66.26 1.95 M2.36 81.55 C20.34 61.33, 39.12 37.7, 71.25 2.31 M2.36 81.55 C17.82 63.69, 33.56 44.34, 71.25 2.31 M2.76 87.2 C28.14 60.84, 52.29 31.16, 76.89 1.91 M2.76 87.2 C32.61 53.5, 60.4 21.37, 76.89 1.91 M2.49 93.59 C22.35 74.25, 37.18 53.27, 81.88 2.27 M2.49 93.59 C18.66 74.15, 35.52 56.31, 81.88 2.27 M2.23 99.99 C20.56 76.08, 41.8 56.21, 87.52 1.88 M2.23 99.99 C22.32 77.24, 43.11 52.37, 87.52 1.88 M2.63 105.64 C34.16 72.57, 66.68 34.59, 92.51 2.24 M2.63 105.64 C31.32 72.44, 61.97 38.63, 92.51 2.24 M2.37 112.03 C36.03 72.59, 68.13 36.15, 98.15 1.85 M2.37 112.03 C39.12 69.87, 74.47 28.94, 98.15 1.85 M2.76 117.68 C33.7 82.65, 66.15 43.61, 103.14 2.21 M2.76 117.68 C42.45 72.97, 82.65 26.49, 103.14 2.21 M2.5 124.07 C40.49 79.29, 79.64 34.07, 108.78 1.81 M2.5 124.07 C27 94.85, 49.59 68.94, 108.78 1.81 M2.24 130.47 C31.33 97.89, 58.35 65.02, 113.77 2.17 M2.24 130.47 C46.27 77.6, 89.51 26.16, 113.77 2.17 M2.63 136.11 C26.47 109.34, 51.79 78.16, 119.41 1.78 M2.63 136.11 C36.63 98.24, 68.16 59.71, 119.41 1.78 M2.37 142.51 C50.3 88.15, 97.72 29.45, 124.4 2.14 M2.37 142.51 C40.56 100.49, 78.31 56.66, 124.4 2.14 M2.11 148.91 C48.07 95.62, 94.5 46.4, 130.04 1.74 M2.11 148.91 C45.47 99.56, 86.18 51.35, 130.04 1.74 M2.5 154.55 C56.46 95.31, 108.64 34.89, 135.03 2.1 M2.5 154.55 C33.8 116.9, 66.46 79.79, 135.03 2.1 M2.24 160.95 C38.5 115.54, 76.93 73.55, 140.67 1.71 M2.24 160.95 C56.63 98.59, 111.53 35.81, 140.67 1.71 M2.64 166.59 C39.56 121.02, 79.76 76.52, 145.66 2.07 M2.64 166.59 C49.91 114.09, 95.3 60.99, 145.66 2.07 M2.38 172.99 C55.68 111.81, 109.23 51.67, 150.65 2.43 M2.38 172.99 C32.16 138.33, 61.81 102.87, 150.65 2.43 M2.11 179.39 C35.51 138.98, 69.31 99.18, 156.29 2.03 M2.11 179.39 C33.65 140.12, 66.32 103.48, 156.29 2.03 M2.51 185.03 C42.97 139.64, 86.41 91.55, 161.28 2.39 M2.51 185.03 C56.03 123.67, 110.05 60.6, 161.28 2.39 M2.25 191.43 C38.66 148, 74.08 106.92, 166.92 2 M2.25 191.43 C63.92 123.45, 123.58 53.4, 166.92 2 M1.99 197.83 C57.14 132.49, 115.68 68.69, 171.91 2.36 M1.99 197.83 C45.8 145.58, 91.51 92.53, 171.91 2.36 M2.38 203.47 C38.85 159.82, 76.62 116.63, 177.55 1.96 M2.38 203.47 C37.86 161.29, 74.57 119.65, 177.55 1.96 M2.12 209.87 C69.29 129.42, 140.36 51.26, 182.54 2.32 M2.12 209.87 C59.4 144.95, 116.47 79.07, 182.54 2.32 M2.51 215.51 C68.67 142.45, 131.83 67.68, 188.18 1.93 M2.51 215.51 C59.72 148.47, 119.64 80.79, 188.18 1.93 M2.25 221.91 C64.18 152.24, 126.64 83.19, 193.17 2.29 M2.25 221.91 C57.24 159.29, 112.31 97.13, 193.17 2.29 M1.99 228.31 C65.54 153.76, 127.15 82.31, 198.81 1.9 M1.99 228.31 C52.68 166.67, 105.62 104.86, 198.81 1.9 M2.39 233.95 C64.27 161.8, 125.37 89.83, 203.8 2.26 M2.39 233.95 C54.9 174.74, 107.1 115.29, 203.8 2.26 M2.12 240.35 C48.69 185.39, 98.17 131, 209.44 1.86 M2.12 240.35 C85.26 145.05, 166.11 50.62, 209.44 1.86 M1.86 246.75 C45.28 196.67, 87.24 148.22, 214.43 2.22 M1.86 246.75 C79.48 157.38, 158.31 65.97, 214.43 2.22 M2.26 252.39 C76.85 167.38, 150.97 79.98, 221.38 0.32 M2.26 252.39 C48.61 201.23, 92.58 150.27, 221.38 0.32 M1.34 259.54 C76.2 174.05, 149.43 88.45, 226.37 0.68 M1.34 259.54 C56.27 194.01, 112.19 129.67, 226.37 0.68 M2.39 264.43 C69.17 186.42, 137.55 108.72, 230.7 1.79 M2.39 264.43 C87.28 163.67, 173.29 65.22, 230.7 1.79 M2.79 270.07 C73.36 188.43, 146.24 103.08, 235.69 2.15 M2.79 270.07 C92.97 167.09, 181.15 64.04, 235.69 2.15 M4.49 274.21 C79.46 187.62, 154.06 102.21, 239.36 4.02 M4.49 274.21 C90.87 176.36, 176.46 77.5, 239.36 4.02 M6.2 278.34 C56.69 219.91, 109.69 160.29, 243.04 5.89 M6.2 278.34 C84.57 187.65, 162.34 97.83, 243.04 5.89 M8.56 281.72 C55.97 224.08, 102.7 169.66, 245.4 9.27 M8.56 281.72 C100.76 175.23, 192.09 69.51, 245.4 9.27 M11.58 284.34 C65.1 221.26, 119.42 158.96, 248.42 11.89 M11.58 284.34 C90.31 194.31, 168.13 104.43, 248.42 11.89 M14.6 286.97 C95.34 194.73, 174.98 104.39, 251.44 14.52 M14.6 286.97 C70.92 220.42, 128.15 154.35, 251.44 14.52 M18.27 288.84 C106.08 189.48, 193.33 89.45, 252.49 19.41 M18.27 288.84 C87.19 211.51, 153.88 134.26, 252.49 19.41 M23.26 289.2 C84.9 216.8, 147.74 145.32, 253.54 24.29 M23.26 289.2 C93.06 209.2, 162.87 131.03, 253.54 24.29 M28.25 289.56 C114.17 191.93, 199.91 93.09, 253.93 29.94 M28.25 289.56 C114.99 191.86, 200.04 93.03, 253.93 29.94 M32.58 290.67 C108.22 201.07, 186.46 112.14, 255.64 34.07 M32.58 290.67 C99.36 215.95, 164.72 141.3, 255.64 34.07 M38.22 290.28 C94.04 226.93, 146.08 165.49, 256.03 39.71 M38.22 290.28 C93.98 225.91, 149.36 161.63, 256.03 39.71 M43.21 290.64 C102.06 223.86, 160.35 156.24, 255.77 46.11 M43.21 290.64 C113.67 209.42, 185.24 127.61, 255.77 46.11 M48.85 290.24 C103.46 227.81, 154.06 169.54, 255.51 52.51 M48.85 290.24 C97.98 233.75, 147.83 175.66, 255.51 52.51 M53.84 290.6 C123.96 210.1, 193.41 129.41, 255.91 58.15 M53.84 290.6 C117.48 217.97, 181.93 145.89, 255.91 58.15 M59.48 290.21 C130.54 211.4, 200.44 130.17, 255.64 64.55 M59.48 290.21 C124.29 216.64, 187.81 143.11, 255.64 64.55 M64.47 290.57 C110.07 239.56, 151.85 189.13, 256.04 70.19 M64.47 290.57 C118.49 230.76, 171.68 169.74, 256.04 70.19 M69.46 290.93 C139.91 206.81, 211.8 125.78, 255.78 76.59 M69.46 290.93 C139.31 208.3, 211.11 127.84, 255.78 76.59 M75.1 290.53 C141.33 212.95, 211.65 134.45, 255.52 82.99 M75.1 290.53 C121.26 237.18, 167.1 183.83, 255.52 82.99 M80.09 290.9 C123.4 239.64, 166.03 189.3, 255.91 88.63 M80.09 290.9 C137.24 223.64, 196.85 155.15, 255.91 88.63 M85.73 290.5 C123.02 250.35, 158.12 209.48, 255.65 95.03 M85.73 290.5 C127.55 242.81, 169.1 196.17, 255.65 95.03 M90.72 290.86 C146.12 225.77, 202.7 161.3, 256.04 100.67 M90.72 290.86 C125.76 251.52, 159.46 213.89, 256.04 100.67 M96.36 290.47 C148.68 229.85, 199.11 171.7, 255.78 107.07 M96.36 290.47 C131.7 249.59, 166.92 211.32, 255.78 107.07 M101.35 290.83 C153.07 231.82, 204.92 173.3, 255.52 113.47 M101.35 290.83 C142.06 242.64, 182.01 195.38, 255.52 113.47 M106.99 290.43 C154.51 236.49, 203.83 181.22, 255.91 119.11 M106.99 290.43 C154.77 236.69, 201.06 183.73, 255.91 119.11 M111.98 290.79 C165.29 228.39, 216.7 169.47, 255.65 125.51 M111.98 290.79 C151.4 245.38, 190.63 201.41, 255.65 125.51 M117.62 290.4 C167.15 233.78, 214.16 179.33, 256.05 131.15 M117.62 290.4 C151.78 251.67, 186.59 212.27, 256.05 131.15 M122.61 290.76 C155.47 248.65, 192.75 208.67, 255.79 137.55 M122.61 290.76 C156.43 253.23, 191.01 213.05, 255.79 137.55 M128.25 290.36 C173.07 239.07, 214.83 190.28, 255.53 143.95 M128.25 290.36 C166.96 245.93, 205 201.08, 255.53 143.95 M133.24 290.72 C176.82 244.85, 218.83 193.83, 255.92 149.59 M133.24 290.72 C169.7 248.11, 207.2 203.6, 255.92 149.59 M138.88 290.33 C165.41 258.17, 194.44 230.5, 255.66 155.99 M138.88 290.33 C177.51 242.94, 217.12 196.63, 255.66 155.99 M143.87 290.69 C187.14 246.45, 226.06 197.23, 256.05 161.63 M143.87 290.69 C188.03 238.4, 231.95 188.42, 256.05 161.63 M149.51 290.29 C182.32 253.9, 214.58 214.62, 255.79 168.03 M149.51 290.29 C192.75 241.59, 233.19 192.22, 255.79 168.03 M154.5 290.65 C196.2 247.26, 233.69 198.89, 255.53 174.43 M154.5 290.65 C191.48 248.47, 228.44 205.14, 255.53 174.43 M160.14 290.26 C180.26 266.2, 201.67 238.69, 255.92 180.07 M160.14 290.26 C185.96 260.1, 211.32 231.84, 255.92 180.07 M165.13 290.62 C196.67 251.83, 228.93 214.18, 255.66 186.47 M165.13 290.62 C193.63 255.87, 224.57 222.55, 255.66 186.47 M170.77 290.22 C192.06 264.47, 211.54 241.74, 256.06 192.11 M170.77 290.22 C197.78 260, 225.13 228.16, 256.06 192.11 M175.76 290.58 C199.3 262.82, 223.22 233.16, 255.8 198.51 M175.76 290.58 C197.64 267.35, 216.99 243.81, 255.8 198.51 M180.74 290.94 C197.36 270.8, 214.74 253.85, 255.53 204.91 M180.74 290.94 C202.69 265.03, 224.4 239.09, 255.53 204.91 M186.39 290.55 C207.19 267, 227.42 242.19, 255.93 210.55 M186.39 290.55 C201.59 272.31, 218.24 254.97, 255.93 210.55 M191.37 290.91 C212.6 267.25, 232.1 242.88, 255.67 216.95 M191.37 290.91 C213.78 266.8, 235.14 243.65, 255.67 216.95 M197.02 290.52 C213.92 269.65, 233.73 248.9, 256.06 222.59 M197.02 290.52 C216.17 266.73, 238.29 243.44, 256.06 222.59 M202 290.88 C221.87 268.91, 238.73 247.8, 255.8 228.99 M202 290.88 C217.79 271.68, 234.8 254.34, 255.8 228.99 M207.65 290.48 C228.31 268.23, 244.38 249.66, 255.54 235.39 M207.65 290.48 C219.12 277, 230.01 263.94, 255.54 235.39 M212.63 290.84 C223.9 277.89, 235.1 261.39, 255.93 241.03 M212.63 290.84 C224.85 277.92, 235.34 262.66, 255.93 241.03 M218.28 290.45 C229.08 276.48, 240.01 266.63, 255.67 247.43 M218.28 290.45 C230.59 275.22, 244.06 259.93, 255.67 247.43 M222.61 291.56 C231.76 284.53, 237.56 273.96, 256.07 253.07 M222.61 291.56 C231.63 281.17, 240.96 270.3, 256.07 253.07 M228.91 290.41 C238.04 278.04, 251.41 268.38, 255.81 259.47 M228.91 290.41 C234.37 282.99, 242.19 275.82, 255.81 259.47 M235.86 288.51 C241.87 282.11, 247.48 274.36, 254.23 267.38 M235.86 288.51 C240.95 281.73, 247.05 275.1, 254.23 267.38" stroke="#a5d8ff" stroke-width="0.5" fill="none"></path><path d="M32 0 M32 0 C102.28 1.95, 170.7 -1.29, 221.5 0 M32 0 C93.73 -1.46, 154.51 -1.04, 221.5 0 M221.5 0 C242.58 -0.27, 252.14 10.74, 253.5 32 M221.5 0 C242.64 -1.87, 255.48 12.03, 253.5 32 M253.5 32 C251.58 116.68, 252.77 200.69, 253.5 258 M253.5 32 C254.21 105.75, 255.52 180.92, 253.5 258 M253.5 258 C253.76 279.64, 241.27 290.04, 221.5 290 M253.5 258 C251.41 279.55, 244.35 290.65, 221.5 290 M221.5 290 C182.1 292.24, 143.8 289.93, 32 290 M221.5 290 C153.63 291.1, 85.8 290.69, 32 290 M32 290 C12.22 291.98, 0.7 277.56, 0 258 M32 290 C10.65 289.57, -1.64 278.54, 0 258 M0 258 C0.78 169.4, 3.13 84.24, 0 32 M0 258 C0.05 208.27, 0.33 160.02, 0 32 M0 32 C1.93 12.11, 10.01 -1.06, 32 0 M0 32 C-0.68 12.87, 11.23 1.16, 32 0" stroke="#1e1e1e" stroke-width="1" fill="none"></path></g><g stroke-linecap="round" transform="translate(10 77) rotate(0 26.5 27)"><path d="M5.18 1.86 C5.18 1.86, 5.18 1.86, 5.18 1.86 M5.18 1.86 C5.18 1.86, 5.18 1.86, 5.18 1.86 M3.61 9.76 C6.32 7.52, 9.47 4.19, 11.48 0.71 M3.61 9.76 C6.95 5.69, 10.06 2.75, 11.48 0.71 M3.35 16.16 C8.6 10.31, 10.68 8.53, 15.81 1.82 M3.35 16.16 C5.79 12.19, 9.08 8.11, 15.81 1.82 M3.09 22.56 C9.05 18.1, 11.96 13.07, 20.8 2.18 M3.09 22.56 C7.21 17.63, 11.68 14.56, 20.8 2.18 M2.82 28.96 C11.19 17.46, 19.81 8.27, 26.44 1.79 M2.82 28.96 C9.17 22.22, 14.1 16.09, 26.44 1.79 M3.22 34.6 C8.79 28.49, 15.18 18.38, 31.43 2.15 M3.22 34.6 C10.88 27.81, 15.94 19.31, 31.43 2.15 M1.65 42.51 C11.12 31.33, 21.05 19.33, 36.42 2.51 M1.65 42.51 C12.65 31.1, 21.78 19.74, 36.42 2.51 M2.7 47.39 C9.94 36.2, 18.31 27.56, 43.37 0.6 M2.7 47.39 C10.18 38.63, 17.73 27.44, 43.37 0.6 M4.4 51.53 C13.44 42.89, 21.56 30.81, 47.7 1.72 M4.4 51.53 C14.06 40.93, 21.51 30.26, 47.7 1.72 M7.42 54.15 C21.19 38.29, 33.26 26.65, 50.72 4.34 M7.42 54.15 C16.43 43.54, 26.75 33.59, 50.72 4.34 M11.75 55.27 C22.37 46.15, 30.65 35.65, 53.74 6.97 M11.75 55.27 C26.87 38.45, 40.59 22.66, 53.74 6.97 M16.74 55.63 C29.1 42.04, 44.52 26.26, 53.48 13.36 M16.74 55.63 C31.31 38.97, 44.06 24.1, 53.48 13.36 M22.38 55.23 C29.84 46.13, 38.55 37.33, 53.22 19.76 M22.38 55.23 C30.55 44.24, 38.88 35.46, 53.22 19.76 M27.37 55.59 C35.88 45.87, 40.27 39.76, 52.96 26.16 M27.37 55.59 C34.82 45.89, 44.22 37.03, 52.96 26.16 M33.01 55.2 C42.19 47.24, 47.34 36.77, 53.35 31.8 M33.01 55.2 C38.82 49.25, 44.94 40.44, 53.35 31.8 M38 55.56 C41.08 51.49, 48.9 43.11, 53.09 38.2 M38 55.56 C41.57 50.44, 45.51 46.87, 53.09 38.2 M42.33 56.67 C43.66 53.19, 48.11 48.12, 53.48 43.84 M42.33 56.67 C45.29 52.19, 49.35 49.17, 53.48 43.84" stroke="#b2f2bb" stroke-width="0.5" fill="none"></path><path d="M13.25 0 M13.25 0 C18.5 -0.83, 26.75 -1.45, 39.75 0 M13.25 0 C20.43 0.17, 26.72 -0.11, 39.75 0 M39.75 0 C49.67 0.13, 54.22 3.24, 53 13.25 M39.75 0 C47.76 2.08, 55.12 5.3, 53 13.25 M53 13.25 C53.43 24.18, 52.44 33.14, 53 40.75 M53 13.25 C52.52 22.92, 51.9 31.76, 53 40.75 M53 40.75 C52.52 48.18, 48.96 52.97, 39.75 54 M53 40.75 C51.84 51.86, 48 54.49, 39.75 54 M39.75 54 C30.66 55.91, 20.88 55.41, 13.25 54 M39.75 54 C30.36 53.4, 23.04 53.72, 13.25 54 M13.25 54 C4.37 54.1, -1.75 48.66, 0 40.75 M13.25 54 C5.34 53.9, -0.91 50.33, 0 40.75 M0 40.75 C1.16 32.12, -0.69 22.02, 0 13.25 M0 40.75 C0.46 31.26, 0.31 22.47, 0 13.25 M0 13.25 C-0.46 3.84, 5.13 -1.6, 13.25 0 M0 13.25 C-0.05 5.23, 2.35 1.99, 13.25 0" stroke="#1e1e1e" stroke-width="1" fill="none"></path></g><g transform="translate(27.540000915527344 86.5) rotate(0 8.959999084472656 17.5)"><text x="8.959999084472656" y="0" font-family="Virgil, HanziPen SC, Cangnanshoujiti, KaiTi, Segoe UI Emoji" font-size="28px" fill="#1e1e1e" text-anchor="middle" style="white-space: pre;" direction="ltr" dominant-baseline="text-before-edge">4</text></g><g stroke-linecap="round" transform="translate(85.5 77) rotate(0 26.5 27)"><path d="M5.18 1.86 C5.18 1.86, 5.18 1.86, 5.18 1.86 M5.18 1.86 C5.18 1.86, 5.18 1.86, 5.18 1.86 M3.61 9.76 C6.05 8.91, 6.46 7.19, 11.48 0.71 M3.61 9.76 C5.81 7.44, 6.9 6.69, 11.48 0.71 M3.35 16.16 C8.02 12.27, 10.86 9.28, 15.81 1.82 M3.35 16.16 C5.38 12.29, 9.15 9.16, 15.81 1.82 M3.09 22.56 C10.76 14.77, 14.89 9.11, 20.8 2.18 M3.09 22.56 C9.67 13.87, 17.52 7.22, 20.8 2.18 M2.82 28.96 C11.67 19.17, 19.52 10.99, 26.44 1.79 M2.82 28.96 C9.38 21.18, 16.58 13.11, 26.44 1.79 M3.22 34.6 C13.34 22.19, 26.74 7.23, 31.43 2.15 M3.22 34.6 C12.22 24.54, 19.61 15.68, 31.43 2.15 M1.65 42.51 C14.4 31.53, 22.98 15.97, 36.42 2.51 M1.65 42.51 C8.66 33.21, 17.47 23.94, 36.42 2.51 M2.7 47.39 C10.81 34.91, 20.21 24.03, 43.37 0.6 M2.7 47.39 C16.71 30.3, 32.82 13.78, 43.37 0.6 M4.4 51.53 C14.55 40.15, 25.15 29.38, 47.7 1.72 M4.4 51.53 C18.64 36.95, 29.72 22.79, 47.7 1.72 M7.42 54.15 C25.74 33.53, 40.75 14.4, 50.72 4.34 M7.42 54.15 C17.91 42.33, 26.45 30.86, 50.72 4.34 M11.75 55.27 C24.49 42.45, 34.71 26.95, 53.74 6.97 M11.75 55.27 C25.3 39.24, 37.62 23.73, 53.74 6.97 M16.74 55.63 C25.04 44.98, 37.01 34.62, 53.48 13.36 M16.74 55.63 C29.1 41.95, 40.7 26.89, 53.48 13.36 M22.38 55.23 C34.78 39.49, 47.83 28.1, 53.22 19.76 M22.38 55.23 C34.89 40.49, 47.25 27.32, 53.22 19.76 M27.37 55.59 C34.71 45.73, 43.13 37.41, 52.96 26.16 M27.37 55.59 C33.68 48.74, 39.02 41.87, 52.96 26.16 M33.01 55.2 C40.11 48.9, 44.52 41.36, 53.35 31.8 M33.01 55.2 C37.85 49.24, 43.18 42.65, 53.35 31.8 M38 55.56 C40.97 51.8, 47.11 45.65, 53.09 38.2 M38 55.56 C42.88 50.2, 48.93 43.31, 53.09 38.2 M42.33 56.67 C46.42 52.04, 48.86 48.2, 53.48 43.84 M42.33 56.67 C46.47 51.61, 50.65 47.41, 53.48 43.84" stroke="#b2f2bb" stroke-width="0.5" fill="none"></path><path d="M13.25 0 M13.25 0 C23.07 1.56, 30.56 -0.36, 39.75 0 M13.25 0 C19.07 -0.34, 23.56 0.9, 39.75 0 M39.75 0 C48.62 -1.07, 52.99 4.28, 53 13.25 M39.75 0 C48.99 0.86, 50.71 6.07, 53 13.25 M53 13.25 C54.17 18.52, 51.59 23.68, 53 40.75 M53 13.25 C53.7 19.61, 52.64 24.76, 53 40.75 M53 40.75 C53.42 50.59, 49.61 53.7, 39.75 54 M53 40.75 C53.14 51.61, 48.83 55.99, 39.75 54 M39.75 54 C32.6 54.68, 23.44 54.92, 13.25 54 M39.75 54 C33.3 54.7, 25.53 53.27, 13.25 54 M13.25 54 C4.88 53.54, -0.76 47.65, 0 40.75 M13.25 54 C5.51 52.21, 2.13 49.31, 0 40.75 M0 40.75 C1.66 34.66, -0.67 26.12, 0 13.25 M0 40.75 C-0.94 30.46, 0.66 20.03, 0 13.25 M0 13.25 C-0.17 3.74, 3.66 0.61, 13.25 0 M0 13.25 C2.06 6.6, 6.25 0.87, 13.25 0" stroke="#1e1e1e" stroke-width="1" fill="none"></path></g><g transform="translate(103.3479995727539 86.5) rotate(0 8.652000427246094 17.5)"><text x="8.652000427246094" y="0" font-family="Virgil, HanziPen SC, Cangnanshoujiti, KaiTi, Segoe UI Emoji" font-size="28px" fill="#1e1e1e" text-anchor="middle" style="white-space: pre;" direction="ltr" dominant-baseline="text-before-edge">5</text></g><g stroke-linecap="round" transform="translate(170 77) rotate(0 26.5 27)"><path d="M5.18 1.86 C5.18 1.86, 5.18 1.86, 5.18 1.86 M5.18 1.86 C5.18 1.86, 5.18 1.86, 5.18 1.86 M3.61 9.76 C5.77 7.06, 10.46 2.99, 11.48 0.71 M3.61 9.76 C6.11 6.97, 9.1 3.18, 11.48 0.71 M3.35 16.16 C9.01 10.19, 13.97 7.22, 15.81 1.82 M3.35 16.16 C7.53 12.28, 10.51 6.79, 15.81 1.82 M3.09 22.56 C6.91 16.25, 13.28 11.08, 20.8 2.18 M3.09 22.56 C9.6 15.57, 13.82 8.59, 20.8 2.18 M2.82 28.96 C10.72 20.25, 18.78 7.46, 26.44 1.79 M2.82 28.96 C9.44 19.87, 16.87 12.76, 26.44 1.79 M3.22 34.6 C10.78 27.37, 19.11 16.09, 31.43 2.15 M3.22 34.6 C10.9 26.03, 18.87 17.76, 31.43 2.15 M1.65 42.51 C8.89 32.71, 16.94 27.82, 36.42 2.51 M1.65 42.51 C8.46 33.41, 15.97 24.78, 36.42 2.51 M2.7 47.39 C17.45 27.83, 32.97 12.11, 43.37 0.6 M2.7 47.39 C11.75 36.76, 19.48 27.48, 43.37 0.6 M4.4 51.53 C18.61 31.98, 33.95 15.55, 47.7 1.72 M4.4 51.53 C14.14 41.49, 23.87 30.25, 47.7 1.72 M7.42 54.15 C20.83 38.61, 31.36 27.26, 50.72 4.34 M7.42 54.15 C23.33 35.31, 41.55 15.78, 50.72 4.34 M11.75 55.27 C21.73 43.25, 34.76 27.48, 53.74 6.97 M11.75 55.27 C20.4 45.32, 29.49 34.38, 53.74 6.97 M16.74 55.63 C32.37 37.01, 47.99 21.84, 53.48 13.36 M16.74 55.63 C31.3 38.95, 45.13 22.47, 53.48 13.36 M22.38 55.23 C29.34 46.97, 34.98 37.51, 53.22 19.76 M22.38 55.23 C33.21 44.04, 42.83 31.79, 53.22 19.76 M27.37 55.59 C38.02 45.89, 45.59 35.34, 52.96 26.16 M27.37 55.59 C36.17 44.87, 45.32 35.06, 52.96 26.16 M33.01 55.2 C35.7 51.71, 40.43 45.67, 53.35 31.8 M33.01 55.2 C38.65 49.21, 42.47 43.19, 53.35 31.8 M38 55.56 C41.29 49.79, 47.71 46.48, 53.09 38.2 M38 55.56 C41.9 51.66, 44.45 47.72, 53.09 38.2 M42.33 56.67 C45.96 53.58, 46.11 50.37, 53.48 43.84 M42.33 56.67 C45.27 54.74, 46.66 51.7, 53.48 43.84" stroke="#b2f2bb" stroke-width="0.5" fill="none"></path><path d="M13.25 0 M13.25 0 C21.45 -0.01, 32.02 0.08, 39.75 0 M13.25 0 C22.53 0.7, 34.2 0.43, 39.75 0 M39.75 0 C49.76 -0.57, 53.14 3.73, 53 13.25 M39.75 0 C50.3 1.83, 53.41 2.96, 53 13.25 M53 13.25 C51.01 23.09, 51.38 32.88, 53 40.75 M53 13.25 C53.27 22.07, 53.48 28.83, 53 40.75 M53 40.75 C52.87 51.32, 50.38 53.7, 39.75 54 M53 40.75 C51.41 50.37, 50.66 55.26, 39.75 54 M39.75 54 C32.63 55.69, 26.19 55.49, 13.25 54 M39.75 54 C31.69 54.85, 20.95 54.84, 13.25 54 M13.25 54 C2.62 54.89, -1.57 50.66, 0 40.75 M13.25 54 C2.86 55.98, -1.33 50.8, 0 40.75 M0 40.75 C-0.52 34.02, 0.67 24.9, 0 13.25 M0 40.75 C0.64 34, -0.44 28.67, 0 13.25 M0 13.25 C-0.53 5.12, 3.41 -0.64, 13.25 0 M0 13.25 C1.88 5.97, 4.4 0.69, 13.25 0" stroke="#1e1e1e" stroke-width="1" fill="none"></path></g><g transform="translate(187.97400665283203 86.5) rotate(0 8.525993347167969 17.5)"><text x="8.525993347167969" y="0" font-family="Virgil, HanziPen SC, Cangnanshoujiti, KaiTi, Segoe UI Emoji" font-size="28px" fill="#1e1e1e" text-anchor="middle" style="white-space: pre;" direction="ltr" dominant-baseline="text-before-edge">9</text></g><g stroke-linecap="round" transform="translate(252.5 77) rotate(0 26.5 27)"><path d="M5.18 1.86 C5.18 1.86, 5.18 1.86, 5.18 1.86 M5.18 1.86 C5.18 1.86, 5.18 1.86, 5.18 1.86 M3.61 9.76 C4.64 6.59, 7.87 5.19, 11.48 0.71 M3.61 9.76 C5.09 8.09, 7.13 6.1, 11.48 0.71 M3.35 16.16 C6.92 11.8, 8.1 9.59, 15.81 1.82 M3.35 16.16 C7.63 12.22, 9.19 8.41, 15.81 1.82 M3.09 22.56 C11.41 16.36, 15.42 5.88, 20.8 2.18 M3.09 22.56 C8.9 14.9, 16.24 8.23, 20.8 2.18 M2.82 28.96 C11.57 18.88, 18.42 9.49, 26.44 1.79 M2.82 28.96 C9.85 20.43, 18.66 11.04, 26.44 1.79 M3.22 34.6 C11.6 23.41, 20.16 12.72, 31.43 2.15 M3.22 34.6 C9.89 27.28, 16.11 20.01, 31.43 2.15 M1.65 42.51 C11.34 32.26, 24.56 18.96, 36.42 2.51 M1.65 42.51 C13.97 29.69, 25.11 16.19, 36.42 2.51 M2.7 47.39 C16.92 30.38, 30.05 12.1, 43.37 0.6 M2.7 47.39 C13.73 33.9, 26.46 21.24, 43.37 0.6 M4.4 51.53 C19.92 35.91, 33.67 19.22, 47.7 1.72 M4.4 51.53 C19.85 33.23, 34.67 16.88, 47.7 1.72 M7.42 54.15 C17.38 39.75, 31.63 27.13, 50.72 4.34 M7.42 54.15 C17.98 41.42, 30.31 28.74, 50.72 4.34 M11.75 55.27 C22.66 42.96, 34.03 29.13, 53.74 6.97 M11.75 55.27 C25.88 39.35, 39.6 22.62, 53.74 6.97 M16.74 55.63 C27.9 41.98, 40.45 25.47, 53.48 13.36 M16.74 55.63 C28.58 40.57, 40.87 27.33, 53.48 13.36 M22.38 55.23 C34.76 43.48, 42.24 31.47, 53.22 19.76 M22.38 55.23 C30.36 45.44, 39.49 33.5, 53.22 19.76 M27.37 55.59 C33.14 46.32, 39.58 38.81, 52.96 26.16 M27.37 55.59 C32.98 48.6, 39.63 41.79, 52.96 26.16 M33.01 55.2 C41.95 47.18, 49.06 39.27, 53.35 31.8 M33.01 55.2 C40.16 48.09, 46.74 39.9, 53.35 31.8 M38 55.56 C44.28 50.48, 46.05 45.25, 53.09 38.2 M38 55.56 C42.73 50.11, 47.36 45.96, 53.09 38.2 M42.33 56.67 C46.74 54.24, 47.69 49.75, 53.48 43.84 M42.33 56.67 C45.94 52.02, 51.61 47.23, 53.48 43.84" stroke="#b2f2bb" stroke-width="0.5" fill="none"></path><path d="M13.25 0 M13.25 0 C21.59 1.89, 30.61 1.69, 39.75 0 M13.25 0 C23.1 0.79, 30.27 0.79, 39.75 0 M39.75 0 C46.79 0.89, 51.43 5.5, 53 13.25 M39.75 0 C47.03 1.98, 51.67 5.63, 53 13.25 M53 13.25 C52.73 23.98, 53.92 32.33, 53 40.75 M53 13.25 C53.56 18.47, 52.48 25.1, 53 40.75 M53 40.75 C52.47 50.28, 47.58 53.36, 39.75 54 M53 40.75 C54.88 51.13, 48.57 54.69, 39.75 54 M39.75 54 C32.97 53.69, 23.83 52, 13.25 54 M39.75 54 C33.73 53.54, 29.55 53.21, 13.25 54 M13.25 54 C5.73 54.5, -1.99 50.44, 0 40.75 M13.25 54 C4.76 55.7, 1.75 51.75, 0 40.75 M0 40.75 C-0.85 29.2, 0.83 20.39, 0 13.25 M0 40.75 C-0.87 31.01, -0.69 19.87, 0 13.25 M0 13.25 C-1.8 3.21, 6.28 1.92, 13.25 0 M0 13.25 C-1.88 5.51, 6.59 -1.32, 13.25 0" stroke="#1e1e1e" stroke-width="1" fill="none"></path></g><g transform="translate(270.04000091552734 86.5) rotate(0 8.959999084472656 17.5)"><text x="8.959999084472656" y="0" font-family="Virgil, HanziPen SC, Cangnanshoujiti, KaiTi, Segoe UI Emoji" font-size="28px" fill="#1e1e1e" text-anchor="middle" style="white-space: pre;" direction="ltr" dominant-baseline="text-before-edge">4</text></g><g stroke-linecap="round" transform="translate(328.75 183) rotate(0 26.5 27)"><path d="M5.18 1.86 C5.18 1.86, 5.18 1.86, 5.18 1.86 M5.18 1.86 C5.18 1.86, 5.18 1.86, 5.18 1.86 M3.61 9.76 C5.31 7.69, 8.09 4.17, 11.48 0.71 M3.61 9.76 C6.49 6.51, 9.97 2.45, 11.48 0.71 M3.35 16.16 C9.1 11.25, 11.06 7.49, 15.81 1.82 M3.35 16.16 C6.02 12.69, 9.02 10.74, 15.81 1.82 M3.09 22.56 C9.01 16.64, 13.58 12.99, 20.8 2.18 M3.09 22.56 C8.3 16.19, 14.25 8.91, 20.8 2.18 M2.82 28.96 C9.09 22.49, 13.74 16.15, 26.44 1.79 M2.82 28.96 C7.22 23.43, 13.92 16.58, 26.44 1.79 M3.22 34.6 C11.39 26.63, 18.25 15.86, 31.43 2.15 M3.22 34.6 C14.29 21.93, 25.56 9.62, 31.43 2.15 M1.65 42.51 C6.68 34.4, 16.7 26.28, 36.42 2.51 M1.65 42.51 C10.06 32.6, 19.36 24.3, 36.42 2.51 M2.7 47.39 C14.55 35.73, 24.2 22.22, 43.37 0.6 M2.7 47.39 C18.69 29.06, 33.26 11.47, 43.37 0.6 M4.4 51.53 C18.6 34.15, 33.49 18.25, 47.7 1.72 M4.4 51.53 C20.98 32.67, 36.8 13.03, 47.7 1.72 M7.42 54.15 C22.63 35.7, 38.91 19.86, 50.72 4.34 M7.42 54.15 C23.95 35.71, 41.8 15.27, 50.72 4.34 M11.75 55.27 C22.37 43.57, 30.29 31.83, 53.74 6.97 M11.75 55.27 C25.99 39.29, 38.17 23.06, 53.74 6.97 M16.74 55.63 C32.34 37.7, 45.91 21.45, 53.48 13.36 M16.74 55.63 C29.46 40.87, 43.22 25.84, 53.48 13.36 M22.38 55.23 C30.86 47.77, 36.04 37.11, 53.22 19.76 M22.38 55.23 C32.89 42.48, 44.29 30.07, 53.22 19.76 M27.37 55.59 C35.2 48.02, 40.85 41.03, 52.96 26.16 M27.37 55.59 C35.27 46.6, 42.46 36, 52.96 26.16 M33.01 55.2 C38.06 51.04, 42.71 44.39, 53.35 31.8 M33.01 55.2 C40.01 48.25, 47.23 40.84, 53.35 31.8 M38 55.56 C42.53 47.48, 49.56 42.27, 53.09 38.2 M38 55.56 C42.86 49.7, 48.81 42.42, 53.09 38.2 M42.33 56.67 C46.38 52.49, 47.9 52.79, 53.48 43.84 M42.33 56.67 C45.07 52.91, 47.8 50.38, 53.48 43.84" stroke="#a5d8ff" stroke-width="0.5" fill="none"></path><path d="M13.25 0 M13.25 0 C22.36 1.71, 27.4 0.71, 39.75 0 M13.25 0 C22.06 0.17, 32.11 -0.55, 39.75 0 M39.75 0 C48.65 0.84, 51.54 4.49, 53 13.25 M39.75 0 C46.74 -2.09, 51.52 4.86, 53 13.25 M53 13.25 C51.42 23.76, 52.7 31.2, 53 40.75 M53 13.25 C52.89 23.98, 53.66 34.4, 53 40.75 M53 40.75 C54.92 49.82, 50.21 55.37, 39.75 54 M53 40.75 C53.03 48.14, 46.79 55.89, 39.75 54 M39.75 54 C32.53 54.33, 22.55 54.63, 13.25 54 M39.75 54 C33.14 54.49, 28.38 54.9, 13.25 54 M13.25 54 C3.01 54.09, -1.04 47.92, 0 40.75 M13.25 54 C5.08 54.45, -1.01 51.28, 0 40.75 M0 40.75 C-1.73 31.17, -0.09 20.46, 0 13.25 M0 40.75 C-0.45 34.72, -0.98 29.44, 0 13.25 M0 13.25 C0.91 6.14, 6.35 -0.46, 13.25 0 M0 13.25 C1.59 3.88, 6.07 0.87, 13.25 0" stroke="#1e1e1e" stroke-width="1" fill="none"></path></g><g transform="translate(346.29000091552734 192.5) rotate(0 8.959999084472656 17.5)"><text x="8.959999084472656" y="0" font-family="Virgil, HanziPen SC, Cangnanshoujiti, KaiTi, Segoe UI Emoji" font-size="28px" fill="#1e1e1e" text-anchor="middle" style="white-space: pre;" direction="ltr" dominant-baseline="text-before-edge">4</text></g><g stroke-linecap="round" transform="translate(90.25 183.5) rotate(0 26.5 27)"><path d="M5.18 1.86 C5.18 1.86, 5.18 1.86, 5.18 1.86 M5.18 1.86 C5.18 1.86, 5.18 1.86, 5.18 1.86 M3.61 9.76 C7.19 6.93, 9.63 3.61, 11.48 0.71 M3.61 9.76 C6.45 6.21, 8.85 3.87, 11.48 0.71 M3.35 16.16 C5.05 11.4, 10.85 8.33, 15.81 1.82 M3.35 16.16 C6.02 12.87, 10.27 9.41, 15.81 1.82 M3.09 22.56 C8 17.52, 13.1 10.9, 20.8 2.18 M3.09 22.56 C8.88 16.05, 14.37 8.77, 20.8 2.18 M2.82 28.96 C9.45 20.49, 17.6 9.03, 26.44 1.79 M2.82 28.96 C10.34 18.94, 18.2 10.8, 26.44 1.79 M3.22 34.6 C14.7 23.85, 21.29 12.85, 31.43 2.15 M3.22 34.6 C10.44 25.7, 18.8 14.65, 31.43 2.15 M1.65 42.51 C9.92 30.29, 18.92 19.83, 36.42 2.51 M1.65 42.51 C9.38 32.91, 18.23 23.57, 36.42 2.51 M2.7 47.39 C18.82 31.15, 33.07 15.02, 43.37 0.6 M2.7 47.39 C16.53 32.71, 29.57 17.08, 43.37 0.6 M4.4 51.53 C19.46 36.27, 29.89 21.08, 47.7 1.72 M4.4 51.53 C17.07 37.36, 29.53 24.21, 47.7 1.72 M7.42 54.15 C20.39 42.02, 29.47 27.6, 50.72 4.34 M7.42 54.15 C23.03 35.3, 41.37 16.24, 50.72 4.34 M11.75 55.27 C24.77 43.13, 38.31 28.84, 53.74 6.97 M11.75 55.27 C27.27 39.72, 39.68 23.39, 53.74 6.97 M16.74 55.63 C25.36 45.67, 33.73 36.98, 53.48 13.36 M16.74 55.63 C29.1 40.35, 43.58 26.04, 53.48 13.36 M22.38 55.23 C35.67 42.97, 44.62 27.32, 53.22 19.76 M22.38 55.23 C30.88 44.56, 41.1 35.31, 53.22 19.76 M27.37 55.59 C35.22 46.63, 44.24 37.63, 52.96 26.16 M27.37 55.59 C36.13 44.77, 44.93 35.21, 52.96 26.16 M33.01 55.2 C41.63 43.89, 49.97 36.99, 53.35 31.8 M33.01 55.2 C40.99 46.47, 48.88 37.11, 53.35 31.8 M38 55.56 C42.73 51.52, 44.2 46.46, 53.09 38.2 M38 55.56 C42.9 48.42, 50.4 43.46, 53.09 38.2 M42.33 56.67 C43.73 54.7, 46.33 51.18, 53.48 43.84 M42.33 56.67 C44.75 54.45, 47.69 51.59, 53.48 43.84" stroke="#a5d8ff" stroke-width="0.5" fill="none"></path><path d="M13.25 0 M13.25 0 C24.63 -0.4, 35 -0.86, 39.75 0 M13.25 0 C21.98 0.53, 29.92 0.15, 39.75 0 M39.75 0 C46.98 -1.82, 51.72 4.8, 53 13.25 M39.75 0 C49.49 0.68, 54.43 2.51, 53 13.25 M53 13.25 C54.72 24.12, 51.32 32.5, 53 40.75 M53 13.25 C54.1 21.74, 53.96 30.67, 53 40.75 M53 40.75 C53.03 48.33, 47.03 55.65, 39.75 54 M53 40.75 C53.89 51.54, 47.02 56.01, 39.75 54 M39.75 54 C29.72 55.16, 23.58 53.08, 13.25 54 M39.75 54 C30.18 54.24, 21.49 53.37, 13.25 54 M13.25 54 C4.99 54.39, -0.87 51.06, 0 40.75 M13.25 54 C5.85 54.9, 1.94 47.72, 0 40.75 M0 40.75 C-1.93 33.17, 0.38 22.6, 0 13.25 M0 40.75 C0.68 34.55, 1.19 26.41, 0 13.25 M0 13.25 C1.38 3.95, 5.86 0.76, 13.25 0 M0 13.25 C-0.46 4.25, 6.54 -0.05, 13.25 0" stroke="#1e1e1e" stroke-width="1" fill="none"></path></g><g transform="translate(108.0979995727539 193) rotate(0 8.652000427246094 17.5)"><text x="8.652000427246094" y="0" font-family="Virgil, HanziPen SC, Cangnanshoujiti, KaiTi, Segoe UI Emoji" font-size="28px" fill="#1e1e1e" text-anchor="middle" style="white-space: pre;" direction="ltr" dominant-baseline="text-before-edge">5</text></g><g stroke-linecap="round" transform="translate(174.75 183.5) rotate(0 26.5 27)"><path d="M5.18 1.86 C5.18 1.86, 5.18 1.86, 5.18 1.86 M5.18 1.86 C5.18 1.86, 5.18 1.86, 5.18 1.86 M3.61 9.76 C6.6 7.47, 7.95 4.44, 11.48 0.71 M3.61 9.76 C5.42 7.45, 7.56 4.72, 11.48 0.71 M3.35 16.16 C5.7 13.14, 11.06 7.84, 15.81 1.82 M3.35 16.16 C7.33 11.86, 12.41 6.08, 15.81 1.82 M3.09 22.56 C9.3 15.47, 13.62 9.31, 20.8 2.18 M3.09 22.56 C9.54 14.83, 16 8.12, 20.8 2.18 M2.82 28.96 C11.84 21.2, 18.34 9.98, 26.44 1.79 M2.82 28.96 C8.16 23.03, 12.05 18.69, 26.44 1.79 M3.22 34.6 C11.76 25.16, 21.16 13.04, 31.43 2.15 M3.22 34.6 C13.8 23.46, 24.25 10.1, 31.43 2.15 M1.65 42.51 C9.34 34.27, 20.52 22.37, 36.42 2.51 M1.65 42.51 C13.37 29.18, 24.22 17.21, 36.42 2.51 M2.7 47.39 C15.29 30.83, 29.06 19.13, 43.37 0.6 M2.7 47.39 C16.64 30.89, 31.46 15.76, 43.37 0.6 M4.4 51.53 C18.03 34.83, 30.32 20.71, 47.7 1.72 M4.4 51.53 C13.19 41.02, 23.54 30.36, 47.7 1.72 M7.42 54.15 C24.79 38.15, 38.26 17.13, 50.72 4.34 M7.42 54.15 C21.36 36.93, 35.53 20.93, 50.72 4.34 M11.75 55.27 C28.41 34.32, 44.23 19.08, 53.74 6.97 M11.75 55.27 C27.32 36.92, 43.47 18.57, 53.74 6.97 M16.74 55.63 C25.96 46.37, 34.36 35.15, 53.48 13.36 M16.74 55.63 C27.42 42.81, 36.77 32.42, 53.48 13.36 M22.38 55.23 C33.53 42.08, 45.55 28.85, 53.22 19.76 M22.38 55.23 C30.35 45.82, 38.8 36.15, 53.22 19.76 M27.37 55.59 C35.59 44.97, 40.4 37.51, 52.96 26.16 M27.37 55.59 C33.9 48.8, 39.09 43.33, 52.96 26.16 M33.01 55.2 C38.47 52, 42.95 46.89, 53.35 31.8 M33.01 55.2 C38.46 48.2, 45.48 41.04, 53.35 31.8 M38 55.56 C43.71 49.38, 46.58 44.27, 53.09 38.2 M38 55.56 C40.64 51.73, 46.01 46.52, 53.09 38.2 M42.33 56.67 C44.93 52.36, 50.05 47.6, 53.48 43.84 M42.33 56.67 C47.1 51.15, 50.72 47.7, 53.48 43.84" stroke="#a5d8ff" stroke-width="0.5" fill="none"></path><path d="M13.25 0 M13.25 0 C21.39 1.08, 27.52 0.16, 39.75 0 M13.25 0 C21.51 -0.92, 30.73 0.18, 39.75 0 M39.75 0 C49.37 0.59, 54.24 2.76, 53 13.25 M39.75 0 C49.94 -0.44, 52.19 6.46, 53 13.25 M53 13.25 C52.86 23.91, 52.32 34.39, 53 40.75 M53 13.25 C53.24 21.2, 52.44 31.22, 53 40.75 M53 40.75 C53.77 51.28, 47.22 55.75, 39.75 54 M53 40.75 C53.59 50.44, 49.52 52.39, 39.75 54 M39.75 54 C31.1 55.51, 22.56 52.46, 13.25 54 M39.75 54 C31.97 53.98, 23.18 54.52, 13.25 54 M13.25 54 C5.67 54.79, 1.69 47.96, 0 40.75 M13.25 54 C4.87 54.02, -0.4 47.36, 0 40.75 M0 40.75 C-0.92 29.2, -0.31 21.82, 0 13.25 M0 40.75 C0.43 29.9, 0.45 19.9, 0 13.25 M0 13.25 C-0.4 4.28, 6.27 -0.04, 13.25 0 M0 13.25 C-0.3 3.86, 3.91 1.43, 13.25 0" stroke="#1e1e1e" stroke-width="1" fill="none"></path></g><g transform="translate(192.72400665283203 193) rotate(0 8.525993347167969 17.5)"><text x="8.525993347167969" y="0" font-family="Virgil, HanziPen SC, Cangnanshoujiti, KaiTi, Segoe UI Emoji" font-size="28px" fill="#1e1e1e" text-anchor="middle" style="white-space: pre;" direction="ltr" dominant-baseline="text-before-edge">9</text></g><g stroke-linecap="round" transform="translate(257.25 183.5) rotate(0 26.5 27)"><path d="M5.18 1.86 C5.18 1.86, 5.18 1.86, 5.18 1.86 M5.18 1.86 C5.18 1.86, 5.18 1.86, 5.18 1.86 M3.61 9.76 C5.6 5.99, 10.04 3.36, 11.48 0.71 M3.61 9.76 C5.67 7.38, 8.27 4.2, 11.48 0.71 M3.35 16.16 C8.46 12.42, 13.14 5.9, 15.81 1.82 M3.35 16.16 C8.38 10.94, 12.68 5.11, 15.81 1.82 M3.09 22.56 C8.45 15.71, 12.31 12.71, 20.8 2.18 M3.09 22.56 C7.06 17.76, 9.61 14.5, 20.8 2.18 M2.82 28.96 C9.74 18.24, 20.51 9.77, 26.44 1.79 M2.82 28.96 C9.35 20.9, 15.67 14.07, 26.44 1.79 M3.22 34.6 C13.49 22.77, 19.36 13.87, 31.43 2.15 M3.22 34.6 C13.18 21.81, 23.97 10.17, 31.43 2.15 M1.65 42.51 C14.88 28.04, 28.42 13.66, 36.42 2.51 M1.65 42.51 C11.64 31.67, 21.69 19.58, 36.42 2.51 M2.7 47.39 C11.6 38.83, 18.38 28.25, 43.37 0.6 M2.7 47.39 C13.33 34, 24.19 21.98, 43.37 0.6 M4.4 51.53 C14.66 40.14, 27.31 24.52, 47.7 1.72 M4.4 51.53 C19.93 33.46, 34.42 17.19, 47.7 1.72 M7.42 54.15 C25.07 36.83, 42.36 15.43, 50.72 4.34 M7.42 54.15 C20.04 41.71, 31.46 27.88, 50.72 4.34 M11.75 55.27 C22.17 42.96, 30.99 32.78, 53.74 6.97 M11.75 55.27 C25.92 39.26, 40.48 22.29, 53.74 6.97 M16.74 55.63 C27.82 44.4, 40.67 30.6, 53.48 13.36 M16.74 55.63 C25.39 45.44, 32.31 36.89, 53.48 13.36 M22.38 55.23 C30.05 47.33, 40.47 35.98, 53.22 19.76 M22.38 55.23 C32.44 44.3, 42.53 32.24, 53.22 19.76 M27.37 55.59 C31.04 48.88, 37.44 45.74, 52.96 26.16 M27.37 55.59 C32.42 48.78, 39.8 41.91, 52.96 26.16 M33.01 55.2 C40.88 47.95, 47.3 35.69, 53.35 31.8 M33.01 55.2 C39.89 46.94, 46.19 39.67, 53.35 31.8 M38 55.56 C40.17 53.65, 46.69 46.25, 53.09 38.2 M38 55.56 C43.63 49.14, 48.45 42.74, 53.09 38.2 M42.33 56.67 C46.93 53.74, 50.29 50.19, 53.48 43.84 M42.33 56.67 C44.43 54.36, 46.52 51.61, 53.48 43.84" stroke="#a5d8ff" stroke-width="0.5" fill="none"></path><path d="M13.25 0 M13.25 0 C23.33 -1.47, 31.81 -1.61, 39.75 0 M13.25 0 C19.19 0.25, 24.96 -0.88, 39.75 0 M39.75 0 C49.76 -0.38, 52.3 6.19, 53 13.25 M39.75 0 C49.72 -1.87, 52.43 4.52, 53 13.25 M53 13.25 C53.17 24.57, 54.3 32.66, 53 40.75 M53 13.25 C53.17 20.62, 52.11 27.17, 53 40.75 M53 40.75 C53.51 50.33, 49.39 52.6, 39.75 54 M53 40.75 C54.21 50.83, 47.41 54.8, 39.75 54 M39.75 54 C29.71 52.78, 17.83 54.39, 13.25 54 M39.75 54 C31.91 54.59, 23.66 53.38, 13.25 54 M13.25 54 C4.81 54.01, -0.35 47.65, 0 40.75 M13.25 54 C5.81 54.43, -0.65 48.59, 0 40.75 M0 40.75 C1.75 36.68, -0.42 30.13, 0 13.25 M0 40.75 C-0.4 33.07, 0.73 25.5, 0 13.25 M0 13.25 C-0.26 3.94, 3.98 1.24, 13.25 0 M0 13.25 C-0.66 5.47, 2.59 0.35, 13.25 0" stroke="#1e1e1e" stroke-width="1" fill="none"></path></g><g transform="translate(274.79000091552734 193) rotate(0 8.959999084472656 17.5)"><text x="8.959999084472656" y="0" font-family="Virgil, HanziPen SC, Cangnanshoujiti, KaiTi, Segoe UI Emoji" font-size="28px" fill="#1e1e1e" text-anchor="middle" style="white-space: pre;" direction="ltr" dominant-baseline="text-before-edge">4</text></g></svg>