<svg version="1.1" xmlns="http://www.w3.org/2000/svg" viewBox="0 0 606.0457072779718 542.8504559923122" width="606.0457072779718" height="542.8504559923122">
  <!-- svg-source:excalidraw -->
  
  <defs>
    <style class="style-fonts">
      @font-face {
        font-family: "Virgil";
        src: url("https://excalidraw.com/Virgil.woff2");
      }
      @font-face {
        font-family: "Cascadia";
        src: url("https://excalidraw.com/Cascadia.woff2");
      }
    </style>
    
  </defs>
  <rect x="0" y="0" width="606.0457072779718" height="542.8504559923122" fill="#ffffff"></rect><g stroke-linecap="round" transform="translate(247.61508272061224 10) rotate(0 58.32190483712077 56.34489111382868)"><path d="M69.16 1.1 C77.97 1.88, 88.87 7.83, 95.99 13.24 C103.1 18.64, 108.35 25.45, 111.84 33.53 C115.32 41.6, 117.68 52.81, 116.9 61.69 C116.13 70.57, 112.12 79.56, 107.19 86.78 C102.25 94, 95.06 100.55, 87.28 105 C79.49 109.46, 69.3 113.04, 60.46 113.51 C51.62 113.98, 42.41 111.62, 34.24 107.81 C26.06 103.99, 16.91 97.58, 11.44 90.6 C5.97 83.62, 2.75 74.58, 1.41 65.94 C0.07 57.29, 0.54 47.07, 3.39 38.75 C6.24 30.42, 11.99 22.17, 18.51 15.99 C25.03 9.81, 33.21 3.78, 42.5 1.68 C51.79 -0.42, 67.98 2.66, 74.24 3.4 C80.51 4.14, 80.05 5.3, 80.09 6.15 M54.88 -1.06 C63.33 -2.25, 72.77 2.26, 80.74 5.96 C88.71 9.65, 96.77 14.38, 102.7 21.1 C108.64 27.82, 114.54 37.42, 116.35 46.27 C118.16 55.11, 116.49 65.8, 113.56 74.18 C110.64 82.55, 105.28 90.68, 98.78 96.51 C92.28 102.34, 83.1 106.7, 74.55 109.17 C65.99 111.64, 56.29 112.69, 47.45 111.33 C38.61 109.97, 28.35 106.39, 21.5 101.01 C14.65 95.63, 9.67 87.16, 6.35 79.05 C3.03 70.93, 1.22 60.9, 1.58 52.31 C1.93 43.71, 4.17 34.95, 8.47 27.47 C12.77 19.99, 19.48 12.04, 27.38 7.44 C35.27 2.85, 51.43 0.89, 55.84 -0.12 C60.25 -1.13, 54.02 0.3, 53.83 1.38" stroke="#000000" stroke-width="4" fill="none"></path></g><g transform="translate(295.68643096818835 45.803036522022694) rotate(0 10.0107421875 20.700000000000045)"><text x="10.0107421875" y="0" font-family="Helvetica, Segoe UI Emoji" font-size="36px" fill="#1e1e1e" text-anchor="middle" style="white-space: pre;" direction="ltr" dominant-baseline="text-before-edge">u</text></g><g stroke-linecap="round" transform="translate(92.02898544954132 195.48885832880387) rotate(0 58.32190483712077 56.34489111382868)"><path d="M10 25.92 C10 25.92, 10 25.92, 10 25.92 M10 25.92 C10 25.92, 10 25.92, 10 25.92 M6.49 57.14 C17.29 40.62, 28.87 30.01, 38.69 17.19 M5.69 54.83 C17.69 42.64, 30.02 27.05, 39.92 16.27 M6.26 80.45 C21.36 60.87, 37.95 41.2, 66.21 11.18 M6.8 79.53 C18.73 62.98, 33.59 47.77, 66.73 10.26 M17.31 94.4 C32.34 72.15, 49.16 56.63, 87.04 9.03 M14.71 92.92 C34.24 71.09, 52.88 47.72, 88.71 9.39 M27.18 103.31 C48.86 76.58, 74.9 50.69, 100.87 17.99 M25.69 105.46 C50.03 76.79, 74.4 48.23, 100.42 18.22 M43.26 111.94 C60.03 91.84, 76.32 69.97, 111.18 27.37 M40.99 112.46 C68.07 82.96, 91.66 53.88, 112.35 29.86 M54.73 120.55 C73.01 100.87, 90.88 80.16, 117.45 50.86 M56.33 120.72 C70.29 102.26, 85.8 84.63, 116.51 49.83 M81.28 118.3 C95.22 101.28, 106.09 85.68, 112.45 75.26 M79.93 117.47 C87.63 108.33, 93.99 98.52, 115.2 76.39" stroke="#ffc9c9" stroke-width="2" fill="none"></path><path d="M84.86 6.33 C93.05 9.13, 100.03 15.32, 105.3 22.42 C110.57 29.51, 115.19 40.11, 116.46 48.92 C117.73 57.73, 116.03 67.19, 112.94 75.27 C109.85 83.35, 104.47 91.35, 97.9 97.39 C91.34 103.44, 82.06 109.12, 73.53 111.54 C65.01 113.97, 55.59 113.88, 46.75 111.94 C37.92 109.99, 27.5 105.49, 20.54 99.88 C13.58 94.26, 8.32 86.34, 5 78.23 C1.69 70.13, -0.19 59.98, 0.65 51.25 C1.5 42.52, 5.13 33.27, 10.07 25.83 C15.01 18.39, 22.67 10.75, 30.29 6.61 C37.92 2.47, 46.3 0.72, 55.82 1.01 C65.34 1.29, 81.63 6.7, 87.42 8.34 C93.2 9.98, 91.07 10.28, 90.53 10.83 M57.53 1.09 C65.84 0.47, 76.19 2.37, 84.49 6.37 C92.79 10.36, 102.1 17.55, 107.31 25.04 C112.52 32.54, 115.04 42.62, 115.77 51.33 C116.51 60.03, 115.14 69.5, 111.72 77.27 C108.31 85.04, 102.02 92.37, 95.27 97.94 C88.51 103.51, 79.93 108.49, 71.2 110.69 C62.46 112.88, 51.31 113.29, 42.84 111.11 C34.37 108.92, 26.67 103.58, 20.38 97.56 C14.09 91.55, 8.38 83.07, 5.1 75 C1.81 66.93, -0.16 57.79, 0.66 49.15 C1.49 40.5, 4.66 30.33, 10.04 23.13 C15.42 15.94, 24.95 9.83, 32.94 5.99 C40.94 2.16, 53.74 0.85, 58.02 0.14 C62.29 -0.56, 58.56 0.62, 58.58 1.76" stroke="#e03131" stroke-width="4" fill="none"></path></g><g stroke-linecap="round" transform="translate(403.2468238916781 195.48885832880387) rotate(0 58.32190483712077 56.34489111382868)"><path d="M57.13 -0.7 C65.64 -1.64, 76.9 2.73, 84.93 6.82 C92.95 10.91, 100.11 16.91, 105.27 23.84 C110.42 30.77, 114.57 39.67, 115.85 48.41 C117.14 57.14, 115.85 67.9, 112.99 76.22 C110.13 84.55, 105.34 92.55, 98.68 98.38 C92.02 104.21, 81.81 108.95, 73.04 111.19 C64.27 113.43, 54.75 113.78, 46.05 111.82 C37.35 109.86, 27.72 105.13, 20.84 99.41 C13.96 93.7, 8.13 85.78, 4.78 77.55 C1.43 69.32, 0.07 58.59, 0.73 50.02 C1.4 41.46, 3.8 33.2, 8.76 26.17 C13.72 19.15, 21.83 12.13, 30.5 7.89 C39.17 3.64, 55.49 1.93, 60.78 0.72 C66.07 -0.49, 62.4 -0.23, 62.22 0.63 M34.6 3.98 C42.53 -0.09, 55.14 -0.52, 64.28 0.53 C73.42 1.58, 82.15 5.53, 89.46 10.3 C96.77 15.07, 103.86 21.89, 108.16 29.13 C112.46 36.36, 114.93 45.15, 115.27 53.72 C115.6 62.28, 114.08 72.48, 110.18 80.51 C106.28 88.54, 98.86 96.74, 91.87 101.89 C84.88 107.04, 76.75 110.27, 68.24 111.42 C59.73 112.56, 49.5 111.48, 40.8 108.76 C32.11 106.03, 22.59 101.4, 16.05 95.06 C9.51 88.72, 3.82 79.16, 1.58 70.7 C-0.67 62.24, 0.71 52.69, 2.57 44.31 C4.42 35.93, 7.16 26.99, 12.69 20.43 C18.22 13.87, 31.89 7.22, 35.74 4.93 C39.58 2.63, 35.4 5.91, 35.75 6.66" stroke="#000000" stroke-width="4" fill="none"></path></g><g stroke-linecap="round" transform="translate(10 420.16067376465435) rotate(0 58.32190483712077 56.34489111382868)"><path d="M16.66 17.13 C16.66 17.13, 16.66 17.13, 16.66 17.13 M16.66 17.13 C16.66 17.13, 16.66 17.13, 16.66 17.13 M11.3 47.28 C24.34 31.98, 40.89 17.09, 44.47 6.21 M11.98 47.41 C26.24 31.02, 39.6 15.38, 45.81 7.21 M11.07 76.08 C32.28 47.13, 53.59 24.26, 70.71 5.02 M10.25 75.31 C30.95 51.35, 49.78 28.31, 71.14 3.58 M16.14 91.8 C35.95 68.22, 58.86 42.86, 85.02 11.12 M13.19 93.67 C36.94 65.48, 60.61 39.32, 86.29 10.1 M26.65 101.97 C46.9 79.64, 64.44 57.76, 99.55 16.57 M25.93 103.77 C45.08 82.88, 62.66 61.75, 100.66 16.69 M37.8 112.36 C54.78 98.85, 67.16 79.15, 110.27 29.03 M39.42 112.98 C64.83 84.25, 90.28 55.51, 111.1 30.82 M59.87 117.14 C83.36 88.12, 104.95 62.68, 121.69 42.26 M57.86 116.51 C78.58 93.72, 98.15 68.99, 122.15 41.5 M73.78 122.54 C87.27 109.83, 97.3 94.67, 121.63 66.93 M73.71 120.57 C87.65 106.83, 100.69 92.68, 124.22 65.7" stroke="#ffc9c9" stroke-width="2" fill="none"></path><path d="M67.95 1.68 C76.74 2.37, 87.49 6.92, 94.66 12.15 C101.83 17.37, 107.2 25.11, 110.96 33.02 C114.72 40.94, 117.56 50.94, 117.22 59.63 C116.89 68.32, 113.56 77.69, 108.97 85.16 C104.37 92.64, 97.34 100.02, 89.67 104.49 C81.99 108.97, 72.21 111.25, 62.93 111.99 C53.66 112.74, 42.34 112.21, 34.03 108.97 C25.71 105.73, 18.38 99.4, 13.04 92.54 C7.71 85.69, 3.8 76.67, 2.01 67.84 C0.22 59, -0.12 48, 2.32 39.56 C4.75 31.12, 10.43 23.45, 16.63 17.17 C22.84 10.89, 30.06 4.6, 39.55 1.88 C49.04 -0.84, 67.35 0.39, 73.55 0.85 C79.76 1.31, 77.12 3.62, 76.79 4.63 M81.18 4.18 C89.4 6.7, 98.24 14.26, 103.82 21.34 C109.41 28.42, 112.84 38.08, 114.71 46.64 C116.57 55.21, 117.34 64.6, 115.03 72.75 C112.72 80.9, 107.41 89.27, 100.84 95.53 C94.26 101.79, 84.55 107.74, 75.56 110.3 C66.58 112.87, 55.64 112.58, 46.94 110.91 C38.25 109.25, 30.52 105.55, 23.39 100.29 C16.27 95.03, 8.12 87.18, 4.2 79.35 C0.29 71.51, -0.73 61.8, -0.12 53.28 C0.5 44.77, 3.2 35.83, 7.89 28.27 C12.59 20.71, 20.26 12.84, 28.06 7.92 C35.86 3, 45.82 -0.6, 54.68 -1.23 C63.53 -1.86, 76.49 2.96, 81.19 4.14 C85.9 5.32, 83.06 4.77, 82.9 5.85" stroke="#2f9e44" stroke-width="4" fill="none"></path></g><g transform="translate(59.08209043507611 455.96371028667727) rotate(0 9 20.700000000000045)"><text x="9" y="0" font-family="Helvetica, Segoe UI Emoji" font-size="36px" fill="#2f9e44" text-anchor="middle" style="white-space: pre;" direction="ltr" dominant-baseline="text-before-edge">s</text></g><g stroke-linecap="round" transform="translate(166.46729920122903 420.16067376465435) rotate(0 58.32190483712077 56.34489111382868)"><path d="M7.56 26.45 C7.56 26.45, 7.56 26.45, 7.56 26.45 M7.56 26.45 C7.56 26.45, 7.56 26.45, 7.56 26.45 M2.32 56.53 C17.43 43.37, 25.8 26.62, 39.99 15.1 M3.78 55.86 C16.73 40.48, 29.67 24.43, 38.63 15.06 M7.11 74.15 C21.6 57.94, 38.3 39.97, 65.83 7.39 M7.54 76.56 C23.56 55.47, 43.23 33.25, 65.13 8.57 M16.97 88.54 C38.64 64.17, 56.62 42.2, 87 9.26 M16.1 88.1 C34.17 68.94, 52.25 48.66, 86 9.14 M26.83 101.54 C44.59 79.87, 62.65 58.33, 97.91 17.68 M25.85 103.38 C48.7 76.5, 70.19 50.9, 98.17 19.13 M42.75 111.4 C56.19 91.4, 70.82 74.18, 112.91 27.97 M41.39 110.25 C66.12 82.21, 90.56 53.18, 112.5 27.83 M56.84 116.63 C69.64 100.17, 83.7 83.68, 117.11 49.09 M55.86 118.93 C68.39 102.07, 81.41 86.99, 116.01 46.34 M80.39 115.66 C87.4 103.91, 93.13 98.51, 114.32 73.85 M79.47 115.22 C90.83 103.64, 102 90.75, 115.31 73.33" stroke="#ffc9c9" stroke-width="2" fill="none"></path><path d="M55.49 0.66 C63.99 -0.78, 73.59 1.72, 81.8 5.27 C90.01 8.82, 99.05 15.14, 104.75 21.97 C110.46 28.79, 114.39 37.68, 116.04 46.21 C117.7 54.75, 117.32 64.97, 114.67 73.18 C112.02 81.39, 106.76 89.18, 100.13 95.49 C93.51 101.81, 83.56 108.19, 74.91 111.06 C66.26 113.94, 56.81 114.34, 48.23 112.75 C39.66 111.16, 30.64 107.15, 23.45 101.53 C16.26 95.9, 8.99 87.05, 5.1 79.02 C1.21 70.99, -0.29 62.11, 0.11 53.35 C0.52 44.6, 2.75 34.18, 7.52 26.5 C12.28 18.83, 20.01 11.64, 28.69 7.31 C37.38 2.97, 53.54 1.51, 59.61 0.49 C65.67 -0.54, 64.95 0.4, 65.1 1.16 M67.09 0.25 C75.76 0.94, 84.82 6.26, 92.33 11.48 C99.83 16.7, 107.84 23.85, 112.13 31.57 C116.42 39.28, 118.6 48.92, 118.08 57.76 C117.56 66.6, 113.86 77.03, 109 84.6 C104.14 92.17, 96.37 98.56, 88.92 103.17 C81.46 107.78, 73.33 111.42, 64.28 112.27 C55.24 113.13, 43.21 111.6, 34.64 108.32 C26.08 105.04, 18.59 99.17, 12.9 92.6 C7.21 86.04, 2.33 77.6, 0.5 68.93 C-1.32 60.26, -0.6 49.43, 1.96 40.6 C4.52 31.78, 9.75 22.43, 15.85 15.99 C21.94 9.55, 29.74 4.54, 38.53 1.96 C47.31 -0.63, 63.69 0.43, 68.54 0.48 C73.4 0.53, 68.08 1.36, 67.65 2.26" stroke="#e03131" stroke-width="4" fill="none"></path></g><g transform="translate(219.54841307380514 455.96371028667727) rotate(0 5.0009765625 20.700000000000045)"><text x="5.0009765625" y="0" font-family="Helvetica, Segoe UI Emoji" font-size="36px" fill="#e03131" text-anchor="middle" style="white-space: pre;" direction="ltr" dominant-baseline="text-before-edge">t</text></g><g stroke-linecap="round" transform="translate(322.93459840245987 420.16067376465435) rotate(0 58.32190483712077 56.34489111382868)"><path d="M82.48 5.57 C90.59 8.28, 99.6 15.64, 105.21 22.54 C110.83 29.43, 114.64 38.37, 116.18 46.92 C117.71 55.48, 117.21 65.69, 114.45 73.87 C111.68 82.05, 106.31 89.77, 99.61 96 C92.9 102.24, 82.88 108.51, 74.19 111.28 C65.51 114.05, 56.05 114.32, 47.5 112.62 C38.94 110.92, 29.98 106.79, 22.86 101.08 C15.75 95.37, 8.58 86.43, 4.79 78.36 C1.01 70.28, -0.36 61.38, 0.16 52.63 C0.68 43.89, 3.04 33.5, 7.91 25.88 C12.77 18.27, 21.46 11.16, 29.33 6.94 C37.2 2.71, 45.53 0.57, 55.13 0.54 C64.72 0.52, 80.98 5.27, 86.91 6.79 C92.85 8.31, 91.18 8.94, 90.72 9.67 M40.02 2.7 C48.25 -0.57, 60.73 -1.1, 70.03 0.31 C79.34 1.72, 88.9 5.67, 95.84 11.18 C102.79 16.69, 108.36 25.4, 111.72 33.38 C115.07 41.35, 116.34 50.37, 115.96 59.03 C115.58 67.69, 114.19 77.71, 109.46 85.33 C104.73 92.95, 95.6 100.1, 87.61 104.75 C79.62 109.39, 70.51 112.51, 61.51 113.22 C52.52 113.93, 41.88 112.72, 33.63 109.01 C25.38 105.3, 17.53 98.29, 12.02 90.97 C6.5 83.65, 2.3 73.84, 0.52 65.1 C-1.26 56.37, -1.58 46.72, 1.33 38.56 C4.25 30.41, 11.36 22.13, 18 16.19 C24.65 10.25, 37.44 5.11, 41.21 2.94 C44.98 0.78, 40.18 2.63, 40.64 3.21" stroke="#000000" stroke-width="4" fill="none"></path></g><g stroke-linecap="round" transform="translate(479.4018976037303 420.16067376465435) rotate(0 58.32190483712077 56.34489111382868)"><path d="M74.74 2.63 C83.34 4.04, 92.21 9.66, 98.77 15.61 C105.33 21.56, 111.16 30.2, 114.09 38.33 C117.03 46.45, 118.03 55.63, 116.39 64.37 C114.75 73.12, 109.67 83.54, 104.27 90.81 C98.87 98.08, 91.79 104.24, 83.98 108 C76.16 111.75, 66.47 113.91, 57.39 113.36 C48.3 112.82, 37.46 109.12, 29.45 104.74 C21.44 100.35, 14.31 94.44, 9.31 87.06 C4.3 79.68, 0.13 69.36, -0.56 60.48 C-1.24 51.59, 1.63 41.6, 5.2 33.77 C8.77 25.93, 13.99 18.94, 20.85 13.46 C27.72 7.99, 35.38 2.12, 46.38 0.9 C57.38 -0.33, 78.56 3.97, 86.85 6.12 C95.14 8.26, 96.83 12.89, 96.12 13.76 M50.13 0.09 C58.89 -2.22, 69.91 -0.83, 78.32 2.05 C86.73 4.94, 94.68 11.12, 100.59 17.43 C106.5 23.74, 111.09 31.58, 113.78 39.91 C116.47 48.25, 118.58 58.72, 116.73 67.43 C114.87 76.13, 108.63 85.26, 102.65 92.16 C96.68 99.06, 89.19 105.22, 80.89 108.83 C72.6 112.44, 61.93 114.65, 52.91 113.82 C43.89 113, 34.36 108.99, 26.77 103.88 C19.18 98.77, 12.05 90.87, 7.37 83.16 C2.7 75.45, -1.14 66.17, -1.29 57.63 C-1.43 49.08, 2.38 39.55, 6.51 31.89 C10.64 24.24, 16.52 16.95, 23.48 11.69 C30.44 6.43, 43.78 2.21, 48.26 0.33 C52.74 -1.56, 49.92 -0.46, 50.36 0.36" stroke="#000000" stroke-width="4" fill="none"></path></g><g stroke-linecap="round"><g transform="translate(488.56073545872187 304.46422068621223) rotate(0 15.38221697624806 57.11075110035267)"><path d="M0 0 C5.13 19.04, 25.64 95.18, 30.76 114.22 M0 0 C5.13 19.04, 25.64 95.18, 30.76 114.22" stroke="#000000" stroke-width="4" fill="none"></path></g></g><mask></mask><g stroke-linecap="round"><g transform="translate(429.2688697167 303.5219938337359) rotate(0 -19.428288904902956 56.75371511548451)"><path d="M0 0 C-6.48 18.92, -32.38 94.59, -38.86 113.51 M0 0 C-6.48 18.92, -32.38 94.59, -38.86 113.51" stroke="#000000" stroke-width="4" fill="none"></path></g></g><mask></mask><g stroke-linecap="round"><g transform="translate(172.61670161150266 308.6506536466609) rotate(0 18.034330259007163 52.522505824004156)"><path d="M0 0 C6.01 17.51, 30.06 87.54, 36.07 105.05 M0 0 C6.01 17.51, 30.06 87.54, 36.07 105.05" stroke="#000000" stroke-width="4" fill="none"></path></g></g><mask></mask><g stroke-linecap="round"><g transform="translate(121.26383311268705 303.74374314963825) rotate(0 -18.9080168163523 57.93037417632195)"><path d="M0 0 C-6.3 19.31, -31.51 96.55, -37.82 115.86 M0 0 C-6.3 19.31, -31.51 96.55, -37.82 115.86" stroke="#000000" stroke-width="4" fill="none"></path></g></g><mask></mask><g stroke-linecap="round"><g transform="translate(258.8723083405921 106.57441939131331) rotate(0 -38.65475844153116 47.45729676919291)"><path d="M0 0 C-12.88 15.82, -64.42 79.1, -77.31 94.91 M0 0 C-12.88 15.82, -64.42 79.1, -77.31 94.91" stroke="#000000" stroke-width="4" fill="none"></path></g></g><mask></mask><g stroke-linecap="round"><g transform="translate(347.55940103891544 108.27088781042403) rotate(0 39.12822835244515 45.81856379351643)"><path d="M0 0 C13.04 15.27, 65.21 76.36, 78.26 91.64 M0 0 C13.04 15.27, 65.21 76.36, 78.26 91.64" stroke="#000000" stroke-width="4" fill="none"></path></g></g><mask></mask><g stroke-linecap="round"><g transform="translate(54.99211224772853 442.7866553971435) rotate(0 81.95227398946884 -53.676373506030814)"><path d="M-1.28 -0.43 C14.23 -18.08, 64.28 -106.05, 92.02 -105.93 C119.77 -105.81, 152.72 -17.57, 165.19 0.29 M3.21 -3.13 C18.4 -21.49, 62.69 -110.32, 89.44 -109.45 C116.18 -108.58, 150.47 -16.64, 163.66 2.1" stroke="#e03131" stroke-width="1" fill="none"></path></g><g transform="translate(54.99211224772853 442.7866553971435) rotate(0 81.95227398946884 -53.676373506030814)"><path d="M140.91 -19.06 C151.23 -11.9, 149.71 -4.22, 161.57 2.96 M143.46 -17.73 C150.3 -8.72, 159.86 -4.5, 165.38 0.54" stroke="#e03131" stroke-width="1" fill="none"></path></g><g transform="translate(54.99211224772853 442.7866553971435) rotate(0 81.95227398946884 -53.676373506030814)"><path d="M159.1 -28.56 C164.66 -19.07, 158.38 -8.91, 161.57 2.96 M161.65 -27.22 C161.51 -14.34, 164 -6.44, 165.38 0.54" stroke="#e03131" stroke-width="1" fill="none"></path></g></g><mask></mask></svg>