<svg version="1.1" xmlns="http://www.w3.org/2000/svg" viewBox="0 0 510.25424390904755 326.24628131075406" width="510.25424390904755" height="326.24628131075406">
  <!-- svg-source:excalidraw -->
  
  <defs>
    <style class="style-fonts">
      @font-face {
        font-family: "Virgil";
        src: url("https://excalidraw.com/Virgil.woff2");
      }
      @font-face {
        font-family: "Cascadia";
        src: url("https://excalidraw.com/Cascadia.woff2");
      }
    </style>
    
  </defs>
  <rect x="0" y="0" width="510.25424390904755" height="326.24628131075406" fill="#ffffff"></rect><g stroke-linecap="round" transform="translate(214.08466914961525 9.999991368204746) rotate(359.8657848032177 37.39387317126153 39.000000000000114)"><path d="M10.53 11.8 C10.53 11.8, 10.53 11.8, 10.53 11.8 M10.53 11.8 C10.53 11.8, 10.53 11.8, 10.53 11.8 M6 41.21 C17.2 26.55, 30.91 12.94, 35.64 7.59 M8.29 39.95 C19.01 28.33, 28 14.46, 36.04 4.84 M10.56 62.14 C22.66 48.13, 33.57 36.89, 58.62 8.45 M10.52 60.62 C20.15 49.33, 29.84 37.87, 56.57 7.97 M20.11 74.94 C38.89 53.21, 57.12 35.22, 68.84 17.38 M20.93 73.87 C29.83 61.34, 39.81 49.32, 68.25 18.36 M36.1 77.23 C51.51 60.94, 67.59 42.63, 78.36 29.23 M38.56 77.97 C54.83 59.39, 71.96 40.22, 79.96 30.63" stroke="#ffc9c9" stroke-width="2" fill="none"></path><path d="M53.52 3.82 C59.84 6.87, 66.94 14.86, 70.41 21.81 C73.88 28.76, 75.39 38.06, 74.34 45.52 C73.28 52.98, 69.37 61.11, 64.06 66.56 C58.76 72.01, 49.89 77.14, 42.48 78.2 C35.08 79.25, 26 76.54, 19.62 72.91 C13.24 69.28, 7.32 62.98, 4.18 56.41 C1.05 49.85, -0.2 40.91, 0.8 33.53 C1.81 26.15, 5.14 17.71, 10.23 12.14 C15.33 6.57, 22.9 0.73, 31.37 0.11 C39.85 -0.51, 55.48 6.27, 61.11 8.44 C66.74 10.61, 65.76 12.52, 65.16 13.13 M51.85 3.79 C58.84 5.92, 66.06 10.39, 69.9 16.61 C73.74 22.82, 75.59 33.42, 74.91 41.08 C74.23 48.74, 70.25 56.5, 65.82 62.57 C61.38 68.63, 55.07 75.17, 48.32 77.46 C41.57 79.75, 32.24 78.95, 25.3 76.32 C18.36 73.68, 10.78 68.28, 6.67 61.65 C2.57 55.02, 0.3 44.26, 0.67 36.54 C1.04 28.82, 4.16 21.42, 8.89 15.34 C13.61 9.27, 22.04 2.3, 29.03 0.09 C36.01 -2.12, 47.27 1.69, 50.77 2.06 C54.27 2.43, 50.18 1.84, 50.02 2.32" stroke="#e03131" stroke-width="4" fill="none"></path></g><g transform="translate(241.313074373816 26.422826901929284) rotate(359.8657848032177 10.224006652832031 22.500000000000114)"><text x="10.224006652832031" y="0" font-family="Virgil, HanziPen SC, Cangnanshoujiti, KaiTi, Segoe UI Emoji" font-size="36px" fill="#e03131" text-anchor="middle" style="white-space: pre;" direction="ltr" dominant-baseline="text-before-edge">u</text></g><g stroke-linecap="round" transform="translate(81.28150298020319 116.10587255977998) rotate(359.8657848032177 37.39387317126153 36.126284250201934)"><path d="M22.52 3.2 C28.91 0.27, 38.71 -0.32, 45.96 1.21 C53.21 2.74, 61.35 6.96, 66.04 12.38 C70.72 17.8, 73.6 26.8, 74.05 33.75 C74.5 40.69, 72.39 48.15, 68.73 54.07 C65.06 59.99, 58.66 66.28, 52.07 69.28 C45.48 72.29, 36.48 73.55, 29.18 72.1 C21.88 70.64, 13.16 66.12, 8.26 60.57 C3.37 55.02, 0.14 45.95, -0.19 38.81 C-0.52 31.68, 1.14 24.15, 6.29 17.75 C11.45 11.34, 25.55 3.07, 30.73 0.38 C35.9 -2.31, 37.2 1.02, 37.35 1.59 M22.99 2.23 C28.94 -1.2, 38.04 -0.57, 44.91 0.85 C51.78 2.27, 59.06 5.43, 64.19 10.75 C69.32 16.06, 74.52 25.42, 75.68 32.75 C76.85 40.07, 74.89 48.44, 71.2 54.7 C67.52 60.95, 60.34 67.55, 53.58 70.27 C46.83 73, 37.85 72.5, 30.67 71.02 C23.49 69.55, 15.35 66.74, 10.51 61.41 C5.68 56.09, 2.6 46.3, 1.66 39.05 C0.72 31.8, 1.58 24.05, 4.87 17.93 C8.15 11.81, 18.43 4.87, 21.37 2.33 C24.32 -0.21, 21.99 1.92, 22.54 2.68" stroke="#000000" stroke-width="4" fill="none"></path></g><g stroke-linecap="round" transform="translate(10.00000900254281 238.24628994254954) rotate(359.8657848032177 37.39387317126153 39)"><path d="M8.77 14.25 C8.77 14.25, 8.77 14.25, 8.77 14.25 M8.77 14.25 C8.77 14.25, 8.77 14.25, 8.77 14.25 M7.83 40.33 C16.12 30.73, 29.57 16.15, 34.73 9.68 M5.74 40.38 C14.63 29.32, 24.49 18.91, 35.88 8.54 M10.8 63.58 C26.45 45.44, 39 24.12, 56.57 8.86 M8.97 61.64 C19.2 51.78, 30.56 39.53, 56.64 7.12 M22.72 75.23 C38.7 52.21, 54.28 31.52, 69.74 19.41 M19.79 72.68 C37.33 55.14, 54.52 37.22, 68.39 17.7 M31.16 85.27 C42.53 71.13, 56.68 57.52, 73.97 38.81 M33.25 84.83 C45.29 70.68, 57.34 55.37, 73.19 36.61" stroke="#ffc9c9" stroke-width="2" fill="none"></path><path d="M28.04 1.51 C34.76 -0.91, 44.7 -0.29, 51.41 2.57 C58.12 5.43, 64.54 12.34, 68.31 18.67 C72.09 25.01, 74.37 33.09, 74.06 40.58 C73.75 48.08, 70.94 57.48, 66.44 63.64 C61.95 69.8, 54.36 75.46, 47.1 77.55 C39.85 79.63, 29.81 79.11, 22.89 76.13 C15.96 73.14, 9.2 66.16, 5.55 59.64 C1.89 53.11, 0.37 44.6, 0.96 36.98 C1.54 29.36, 4.42 19.78, 9.05 13.92 C13.68 8.06, 25.04 3.97, 28.73 1.82 C32.43 -0.32, 31.15 0.45, 31.22 1.06 M52.52 3.4 C58.78 5.85, 65.07 11.66, 68.94 18.36 C72.81 25.06, 76.15 35.71, 75.76 43.61 C75.37 51.51, 71.53 59.96, 66.58 65.76 C61.62 71.56, 53.27 76.99, 46.02 78.41 C38.77 79.82, 29.77 77.36, 23.06 74.22 C16.35 71.08, 9.34 66.26, 5.76 59.55 C2.18 52.84, 0.96 41.76, 1.58 33.94 C2.21 26.12, 4.94 18.29, 9.5 12.62 C14.06 6.96, 21.72 1.72, 28.94 -0.05 C36.15 -1.82, 48.72 1.26, 52.8 1.99 C56.88 2.72, 53.75 3.38, 53.41 4.33" stroke="#e03131" stroke-width="4" fill="none"></path></g><g transform="translate(37.67841880438027 254.66912547627408) rotate(359.8657848032177 9.774002075195312 22.5)"><text x="9.774002075195312" y="0" font-family="Virgil, HanziPen SC, Cangnanshoujiti, KaiTi, Segoe UI Emoji" font-size="36px" fill="#e03131" text-anchor="middle" style="white-space: pre;" direction="ltr" dominant-baseline="text-before-edge">s</text></g><g stroke-linecap="round" transform="translate(148.68497555942395 238.24628994254954) rotate(359.8657848032177 37.39387317126153 36.126284250201934)"><path d="M44.64 0.49 C51.47 1.32, 59.12 6.94, 63.98 11.98 C68.84 17.02, 72.75 23.85, 73.82 30.74 C74.89 37.63, 73.74 46.83, 70.39 53.3 C67.04 59.77, 60.51 66.38, 53.72 69.57 C46.93 72.76, 36.96 73.96, 29.65 72.46 C22.35 70.96, 14.62 65.81, 9.88 60.58 C5.13 55.35, 1.99 48.09, 1.2 41.08 C0.4 34.06, 1.82 24.63, 5.11 18.51 C8.4 12.39, 13.83 7.3, 20.94 4.35 C28.06 1.4, 43.17 0.97, 47.79 0.83 C52.41 0.68, 48.8 2.7, 48.66 3.48 M23.7 1.35 C30.22 -1.33, 41.27 -0.05, 48.65 2.16 C56.02 4.36, 63.49 8.96, 67.94 14.59 C72.39 20.23, 75.14 29.14, 75.34 35.98 C75.54 42.82, 73.2 49.83, 69.14 55.63 C65.08 61.44, 57.74 68.47, 51 70.81 C44.26 73.14, 35.84 71.77, 28.7 69.64 C21.55 67.51, 12.98 63.54, 8.13 58.04 C3.28 52.53, -0.15 43.83, -0.39 36.63 C-0.62 29.43, 2.36 20.5, 6.72 14.83 C11.07 9.16, 22.79 4.44, 25.76 2.6 C28.73 0.76, 24.71 3.41, 24.55 3.79" stroke="#000000" stroke-width="4" fill="none"></path></g><g stroke-linecap="round"><g transform="translate(96.25048981282953 184.1245382915381) rotate(0 -15.809909683957812 27.64503403299659)"><path d="M0 0 C-5.27 9.22, -26.35 46.08, -31.62 55.29 M0 0 C-5.27 9.22, -26.35 46.08, -31.62 55.29" stroke="#000000" stroke-width="4" fill="none"></path></g></g><mask></mask><g stroke-linecap="round"><g transform="translate(141.29102377041772 183.0195251506898) rotate(0 16.262189335686116 27.563871669796526)"><path d="M0 0 C5.42 9.19, 27.1 45.94, 32.52 55.13 M0 0 C5.42 9.19, 27.1 45.94, 32.52 55.13" stroke="#000000" stroke-width="4" fill="none"></path></g></g><mask></mask><g stroke-linecap="round" transform="translate(355.39236187253914 116.10587255977998) rotate(359.8657848032177 37.393873171261475 36.126284250201934)"><path d="M49.54 1.75 C56.45 3.7, 64.15 10.09, 68.22 16.03 C72.29 21.96, 74.15 30.49, 73.96 37.37 C73.76 44.26, 71.15 51.76, 67.07 57.35 C62.98 62.95, 56.28 68.82, 49.43 70.94 C42.58 73.06, 33.12 72.23, 25.96 70.05 C18.8 67.88, 10.66 63.68, 6.45 57.89 C2.25 52.1, 0.72 42.4, 0.73 35.31 C0.74 28.21, 2.15 20.8, 6.54 15.32 C10.93 9.85, 19.67 4.52, 27.07 2.44 C34.48 0.36, 46.53 2.61, 50.97 2.85 C55.41 3.09, 53.92 3.24, 53.7 3.91 M48 2.64 C54.74 3.74, 62.74 7.68, 67.3 13.13 C71.86 18.59, 74.93 28.43, 75.37 35.38 C75.82 42.33, 74.11 49.14, 69.97 54.82 C65.83 60.5, 57.71 66.96, 50.54 69.48 C43.37 72.01, 33.95 71.99, 26.96 69.97 C19.96 67.94, 12.81 62.65, 8.55 57.33 C4.29 52, 1.8 44.75, 1.39 38.03 C0.99 31.31, 2.44 23.11, 6.12 17.03 C9.79 10.94, 16.68 4.08, 23.43 1.52 C30.19 -1.04, 42.47 1.46, 46.67 1.68 C50.86 1.9, 48.8 2.52, 48.6 2.84" stroke="#000000" stroke-width="4" fill="none"></path></g><g stroke-linecap="round" transform="translate(286.1931018979029 238.24628994254954) rotate(359.8657848032177 37.39387317126153 36.126284250201934)"><path d="M23.75 3.41 C29.85 0.61, 38.66 0.38, 45.66 1.91 C52.65 3.45, 60.76 7.25, 65.74 12.59 C70.73 17.94, 74.94 26.91, 75.59 33.98 C76.23 41.05, 73.72 48.92, 69.61 55.01 C65.5 61.1, 57.68 67.88, 50.92 70.51 C44.16 73.14, 36.21 72.51, 29.03 70.77 C21.85 69.03, 12.54 65.31, 7.86 60.08 C3.17 54.85, 1.39 46.57, 0.91 39.4 C0.43 32.23, 0.79 23.41, 5 17.05 C9.2 10.69, 22.25 3.67, 26.13 1.24 C30.01 -1.19, 28.02 1.67, 28.28 2.46 M48.73 0.99 C55.55 2.36, 63.16 9.51, 67.74 15.01 C72.31 20.52, 76.1 27.15, 76.18 34.01 C76.27 40.87, 72.7 50.3, 68.23 56.17 C63.76 62.05, 56.22 67.03, 49.37 69.25 C42.52 71.46, 33.85 71.28, 27.12 69.47 C20.4 67.66, 13.56 63.67, 9.03 58.4 C4.49 53.13, 0.45 45.1, -0.1 37.84 C-0.65 30.58, 1.68 20.74, 5.74 14.83 C9.8 8.92, 16.97 4.49, 24.26 2.4 C31.55 0.32, 45.71 2.57, 49.49 2.33 C53.27 2.1, 47.36 0.41, 46.94 0.98" stroke="#000000" stroke-width="4" fill="none"></path></g><g stroke-linecap="round" transform="translate(425.4664885639818 238.24628994254954) rotate(359.8657848032177 37.393873171261475 39)"><path d="M13.25 8.87 C13.25 8.87, 13.25 8.87, 13.25 8.87 M13.25 8.87 C13.25 8.87, 13.25 8.87, 13.25 8.87 M7.65 35.49 C18.64 23.67, 30.74 13.5, 38.6 5.69 M10.17 38.3 C21.09 23.95, 30.42 12.1, 38.56 4.18 M8.96 59.97 C26.63 46.12, 39.84 27.61, 57.34 7.93 M11.29 61.03 C27.12 39.87, 44.03 21.81, 58.16 6.86 M17.33 74.77 C29.57 65.48, 41.2 51.86, 66.77 17.77 M19.85 74.34 C29 64.66, 38.63 52.16, 69.22 18.5 M38.62 79.06 C51.38 63.98, 61.59 49.38, 77.76 29.65 M37.35 78.33 C46.44 68.35, 56.83 55.95, 79.96 31.07" stroke="#ffc9c9" stroke-width="2" fill="none"></path><path d="M33.84 0.93 C40.64 -0.31, 50.27 1.57, 56.78 5.52 C63.3 9.46, 70 17.52, 72.91 24.6 C75.82 31.69, 76.21 40.51, 74.24 48.02 C72.27 55.53, 66.65 64.75, 61.08 69.67 C55.52 74.58, 48.23 76.96, 40.85 77.5 C33.47 78.04, 23.03 76.74, 16.82 72.91 C10.61 69.08, 6.33 61.71, 3.59 54.52 C0.85 47.34, -1.26 37.43, 0.37 29.79 C2 22.16, 7.12 13.57, 13.36 8.74 C19.6 3.9, 32.93 1.92, 37.8 0.78 C42.67 -0.36, 42.39 1.31, 42.57 1.89 M53.91 4.5 C60.55 6.99, 68.11 12.44, 71.55 18.92 C75 25.4, 75.79 35.73, 74.57 43.37 C73.35 51, 69.2 59.27, 64.25 64.71 C59.3 70.16, 51.77 74.38, 44.87 76.03 C37.97 77.69, 29.58 77.55, 22.86 74.66 C16.13 71.76, 8.44 65.56, 4.53 58.68 C0.62 51.8, -1.41 41.05, -0.6 33.38 C0.21 25.72, 3.98 18, 9.37 12.69 C14.76 7.38, 24.59 3.22, 31.75 1.52 C38.91 -0.19, 48.81 1.86, 52.34 2.47 C55.86 3.09, 53.08 4.63, 52.88 5.2" stroke="#e03131" stroke-width="4" fill="none"></path></g><g transform="translate(452.7488946426747 254.66912547627408) rotate(359.8657848032177 10.170005798339844 22.5)"><text x="10.170005798339844" y="0" font-family="Virgil, HanziPen SC, Cangnanshoujiti, KaiTi, Segoe UI Emoji" font-size="36px" fill="#e03131" text-anchor="middle" style="white-space: pre;" direction="ltr" dominant-baseline="text-before-edge">t</text></g><g stroke-linecap="round"><g transform="translate(370.3598486603639 184.12354965527766) rotate(0 -15.808324999742354 27.63895821670735)"><path d="M0 0 C-5.27 9.21, -26.35 46.06, -31.62 55.28 M0 0 C-5.27 9.21, -26.35 46.06, -31.62 55.28" stroke="#000000" stroke-width="4" fill="none"></path></g></g><mask></mask><g stroke-linecap="round"><g transform="translate(415.3666048516575 183.04375811107684) rotate(0 17.339749786603647 27.708188287227813)"><path d="M0 0 C5.78 9.24, 28.9 46.18, 34.68 55.42 M0 0 C5.78 9.24, 28.9 46.18, 34.68 55.42" stroke="#000000" stroke-width="4" fill="none"></path></g></g><mask></mask><g stroke-linecap="round"><g transform="translate(218.96561211824417 67.39363383396676) rotate(0 -35.942316769659044 28.29670193851598)"><path d="M0 0 C-11.98 9.43, -59.9 47.16, -71.88 56.59 M0 0 C-11.98 9.43, -59.9 47.16, -71.88 56.59" stroke="#000000" stroke-width="4" fill="none"></path></g></g><mask></mask><g stroke-linecap="round"><g transform="translate(284.76254959231176 68.2966493151921) rotate(0 37.42681701946452 29.63326512264257)"><path d="M0 0 C12.48 9.88, 62.38 49.39, 74.85 59.27 M0 0 C12.48 9.88, 62.38 49.39, 74.85 59.27" stroke="#000000" stroke-width="4" fill="none"></path></g></g><mask></mask><g stroke-linecap="round"><g transform="translate(90.65253922888837 266.48280743503574) rotate(0 163.7107565854992 -81.03603295191078)"><path d="M2.66 -2.17 C30.41 -29.33, 111.46 -164.23, 165.47 -164.89 C219.49 -165.56, 299.55 -31.87, 326.76 -6.13 M0.66 2.83 C29.44 -23.67, 117.11 -159.01, 171.08 -161.23 C225.05 -163.45, 298.02 -35.87, 324.49 -10.51" stroke="#e03131" stroke-width="1" fill="none"></path></g><g transform="translate(90.65253922888837 266.48280743503574) rotate(0 163.7107565854992 -81.03603295191078)"><path d="M295.92 -28.46 C305.62 -23.89, 315.27 -16.94, 321.33 -14.27 M300.47 -27.32 C308.69 -22.54, 317.1 -15.41, 324.21 -10.57" stroke="#e03131" stroke-width="1" fill="none"></path></g><g transform="translate(90.65253922888837 266.48280743503574) rotate(0 163.7107565854992 -81.03603295191078)"><path d="M312.08 -41.12 C317.33 -32.9, 322.72 -22.61, 321.33 -14.27 M316.63 -39.98 C319.36 -30.99, 322.17 -19.48, 324.21 -10.57" stroke="#e03131" stroke-width="1" fill="none"></path></g></g><mask></mask></svg>