<svg version="1.1" xmlns="http://www.w3.org/2000/svg" viewBox="0 0 742.2849884629496 399.95595446076527" width="742.2849884629496" height="399.95595446076527">
  <!-- svg-source:excalidraw -->
  
  <defs>
    <style class="style-fonts">
      @font-face {
        font-family: "Virgil";
        src: url("https://excalidraw.com/Virgil.woff2");
      }
      @font-face {
        font-family: "Cascadia";
        src: url("https://excalidraw.com/Cascadia.woff2");
      }
    </style>
    
  </defs>
  <rect x="0" y="0" width="742.2849884629496" height="399.95595446076527" fill="#ffffff"></rect><g stroke-opacity="0.2" fill-opacity="0.2" stroke-linecap="round" transform="translate(250.33247924961415 152.08556692506295) rotate(0 124.37884441563784 118.93519376785116)"><path d="M7.86 8.16 C7.86 8.16, 7.86 8.16, 7.86 8.16 M7.86 8.16 C7.86 8.16, 7.86 8.16, 7.86 8.16 M2.35 20.59 C5.1 17.38, 16.17 9.06, 18.1 2.48 M2.35 20.59 C4.38 15.01, 9.56 13.07, 18.1 2.48 M2.75 26.24 C5.87 14.75, 19.25 12.36, 24.4 1.33 M2.75 26.24 C9.83 20.13, 13.38 12.6, 24.4 1.33 M2.48 32.64 C12.17 23.3, 22.74 9.09, 30.7 0.18 M2.48 32.64 C10.71 21.9, 16.39 15.61, 30.7 0.18 M2.88 38.28 C12.51 31.82, 19.25 20.27, 34.37 2.05 M2.88 38.28 C14.77 23.98, 28.54 10.18, 34.37 2.05 M2.62 44.68 C10.05 30.78, 27.28 17.56, 39.36 2.41 M2.62 44.68 C8.55 36.79, 19.11 27.76, 39.36 2.41 M2.36 51.07 C15.33 34.38, 21.88 23.38, 45 2.02 M2.36 51.07 C13.56 36.54, 28.6 22.05, 45 2.02 M2.75 56.72 C13.77 48.28, 20.48 33.56, 49.99 2.38 M2.75 56.72 C19.37 38.55, 33.91 20.41, 49.99 2.38 M2.49 63.11 C18.35 45.34, 38.99 19.94, 55.63 1.98 M2.49 63.11 C18.74 44, 36.5 22.93, 55.63 1.98 M2.23 69.51 C24.13 42.63, 46.32 17.92, 60.62 2.34 M2.23 69.51 C21.01 48.37, 40.85 27.3, 60.62 2.34 M2.62 75.16 C24.5 51.5, 40.25 29.92, 66.26 1.95 M2.62 75.16 C23.21 51.79, 43.31 29.82, 66.26 1.95 M2.36 81.55 C18.43 65.88, 32.73 43.31, 71.25 2.31 M2.36 81.55 C24.81 54.82, 47.87 27.42, 71.25 2.31 M2.76 87.2 C24.36 58.99, 50.54 39.93, 76.89 1.91 M2.76 87.2 C26.06 59.79, 48.54 33.97, 76.89 1.91 M2.49 93.59 C32.84 63.03, 58.59 29.62, 81.88 2.27 M2.49 93.59 C18.98 72.62, 38.43 50.83, 81.88 2.27 M2.23 99.99 C23.46 76.11, 49.65 50.87, 87.52 1.88 M2.23 99.99 C27.66 74.44, 48.53 46.66, 87.52 1.88 M2.63 105.64 C21.07 84.29, 46.41 63.63, 92.51 2.24 M2.63 105.64 C34.47 70.41, 68.1 29.58, 92.51 2.24 M2.37 112.03 C19.59 87.32, 43.37 62.28, 98.15 1.85 M2.37 112.03 C28.94 83.85, 55.59 48.65, 98.15 1.85 M2.1 118.43 C34.63 80.76, 64.49 48.32, 103.14 2.21 M2.1 118.43 C27.57 86.03, 57.39 51.34, 103.14 2.21 M2.5 124.07 C36.06 83.11, 77.65 46.37, 108.78 1.81 M2.5 124.07 C29.41 93.98, 56.04 64.63, 108.78 1.81 M2.24 130.47 C40 85.41, 80.15 41.57, 113.77 2.17 M2.24 130.47 C38.59 87.35, 75.98 42.54, 113.77 2.17 M2.63 136.11 C49.01 92.76, 88.12 43.77, 119.41 1.78 M2.63 136.11 C48.24 91.23, 90.85 40.48, 119.41 1.78 M2.37 142.51 C33.67 108.4, 62.48 66.7, 124.4 2.14 M2.37 142.51 C34.1 109.2, 60.82 76.77, 124.4 2.14 M2.11 148.91 C49.08 93.32, 97.5 36.76, 130.04 1.74 M2.11 148.91 C42.07 103.03, 78.58 59.59, 130.04 1.74 M2.5 154.55 C49.55 104.27, 86.71 54.89, 135.03 2.1 M2.5 154.55 C33.78 112.62, 68.24 73.74, 135.03 2.1 M2.24 160.95 C42.54 116.73, 80.94 66.62, 140.67 1.71 M2.24 160.95 C34.04 125.71, 65.95 88.93, 140.67 1.71 M1.98 167.35 C49.53 112.79, 103.27 50.2, 145.66 2.07 M1.98 167.35 C44.41 117.88, 87.62 69.8, 145.66 2.07 M2.38 172.99 C56.98 108.19, 112.1 47.61, 150.65 2.43 M2.38 172.99 C57.76 110.2, 111.27 46.33, 150.65 2.43 M2.11 179.39 C31.92 145, 69.29 107.72, 156.29 2.03 M2.11 179.39 C60.01 112.54, 119.43 49.06, 156.29 2.03 M2.51 185.03 C70.54 116.6, 133.43 39.28, 161.28 2.39 M2.51 185.03 C42.14 140.36, 80.28 93.51, 161.28 2.39 M2.25 191.43 C38.25 150.71, 76.31 105.69, 166.92 2 M2.25 191.43 C53.84 132.98, 107.67 68.28, 166.92 2 M1.99 197.83 C36.34 157.31, 73.97 119.1, 171.91 2.36 M1.99 197.83 C44.34 153.9, 82.61 107.4, 171.91 2.36 M0.41 205.74 C38.88 156.26, 82.39 112.48, 177.55 1.96 M0.41 205.74 C63.75 129.12, 128.65 54.37, 177.55 1.96 M0.81 211.38 C62.1 138.56, 131.06 64, 182.54 2.32 M0.81 211.38 C41 162.76, 81.28 119.85, 182.54 2.32 M1.86 216.27 C49.72 160.55, 96.7 105.46, 188.18 1.93 M1.86 216.27 C50.74 159.51, 100.94 98.47, 188.18 1.93 M2.91 221.16 C75.62 135.79, 146.37 53.61, 193.17 2.29 M2.91 221.16 C64.1 147.43, 127.02 76.58, 193.17 2.29 M5.27 224.53 C62.99 154.52, 124.71 81.58, 198.81 1.9 M5.27 224.53 C82.86 138.16, 158.84 48.05, 198.81 1.9 M7.63 227.91 C49.96 179.16, 91.88 133.37, 203.8 2.26 M7.63 227.91 C48.78 185.02, 87.19 137.01, 203.8 2.26 M10 231.29 C52.94 186.26, 92.78 140.94, 209.44 1.86 M10 231.29 C68.25 162.49, 126.66 97.6, 209.44 1.86 M13.02 233.92 C79.61 158.48, 143.08 85.07, 214.43 2.22 M13.02 233.92 C77.62 158.95, 146.32 80.02, 214.43 2.22 M16.69 235.79 C59.78 181.47, 101.16 133.9, 219.41 2.58 M16.69 235.79 C70.81 175.65, 122.21 115.99, 219.41 2.58 M20.37 237.66 C99.27 149.18, 179.9 54.21, 224.4 2.94 M20.37 237.66 C82.74 167.34, 144.65 96.67, 224.4 2.94 M24.7 238.77 C89.28 159.68, 155.6 85.85, 228.73 4.06 M24.7 238.77 C101.78 148.41, 183.8 55.84, 228.73 4.06 M29.68 239.13 C75.04 189.54, 119.09 138.71, 233.72 4.42 M29.68 239.13 C102.97 150.51, 179.99 60.95, 233.72 4.42 M34.01 240.25 C113.94 157.08, 186.53 67.79, 237.39 6.29 M34.01 240.25 C110.82 148.37, 185.09 59.65, 237.39 6.29 M39.66 239.85 C86.72 192.33, 129.1 143.93, 241.07 8.15 M39.66 239.85 C95.51 173.31, 150.23 105.4, 241.07 8.15 M44.64 240.21 C95.47 178.82, 148.1 117.36, 243.43 11.53 M44.64 240.21 C93.84 178.48, 144.26 121.28, 243.43 11.53 M50.29 239.82 C123.48 156.98, 189.74 73, 245.14 15.67 M50.29 239.82 C96.27 182.84, 142.33 128.51, 245.14 15.67 M55.27 240.18 C96.85 197.89, 132.59 148.53, 247.5 19.05 M55.27 240.18 C107.96 180.82, 158.97 121.15, 247.5 19.05 M60.92 239.78 C140.13 153.64, 212.2 70.11, 248.55 23.93 M60.92 239.78 C125.01 164.64, 188.09 89.92, 248.55 23.93 M65.9 240.14 C106.82 192.43, 149.77 145.91, 248.95 29.58 M65.9 240.14 C100.44 199.68, 139.18 155.74, 248.95 29.58 M71.55 239.75 C113.32 188.29, 158.33 139.7, 250.65 33.71 M71.55 239.75 C139.38 165.38, 204.99 89.44, 250.65 33.71 M76.53 240.11 C124.02 183.99, 167.93 132.7, 250.39 40.11 M76.53 240.11 C122.2 190.16, 166.66 138.44, 250.39 40.11 M82.18 239.71 C142.83 165.86, 210.53 89.7, 250.79 45.75 M82.18 239.71 C140.69 170.8, 198.42 104.61, 250.79 45.75 M87.16 240.07 C139.11 174.53, 194.68 118.13, 250.52 52.15 M87.16 240.07 C153.62 165.07, 215.74 93.02, 250.52 52.15 M92.81 239.68 C137.44 184.78, 180.91 134.66, 250.92 57.79 M92.81 239.68 C128.53 201.39, 162.96 162.73, 250.92 57.79 M97.79 240.04 C145.44 192.16, 186.53 143.28, 250.66 64.19 M97.79 240.04 C150.02 177.34, 205.93 115.08, 250.66 64.19 M103.44 239.64 C160.93 175.3, 211.63 114.95, 250.4 70.59 M103.44 239.64 C158.48 175.47, 217.36 109.9, 250.4 70.59 M108.43 240 C145.45 198.1, 182.06 155.08, 250.79 76.23 M108.43 240 C144.3 196.56, 183.76 154.26, 250.79 76.23 M114.07 239.61 C149.71 199.55, 183.96 155.87, 250.53 82.63 M114.07 239.61 C160.68 185.3, 207 132.02, 250.53 82.63 M119.06 239.97 C159.81 196.42, 198.77 146.28, 250.92 88.27 M119.06 239.97 C172.69 180.06, 225.41 118.53, 250.92 88.27 M124.7 239.57 C162.54 192.14, 204.6 142.22, 250.66 94.67 M124.7 239.57 C153.06 205.56, 183.99 169.32, 250.66 94.67 M129.69 239.93 C164.59 199.17, 196.18 161.06, 250.4 101.07 M129.69 239.93 C162.42 203.72, 194.87 169.03, 250.4 101.07 M135.33 239.54 C169.16 201.77, 205.6 157.82, 250.79 106.71 M135.33 239.54 C171.2 200.86, 207.91 158.73, 250.79 106.71 M140.32 239.9 C180.93 196.33, 218.44 156.07, 250.53 113.11 M140.32 239.9 C172.42 203.15, 202.11 166.62, 250.53 113.11 M145.3 240.26 C181.05 197.25, 214.54 159.61, 250.93 118.75 M145.3 240.26 C177.94 206.89, 210.37 168.95, 250.93 118.75 M150.95 239.87 C184.74 199.78, 220.22 157.86, 250.67 125.15 M150.95 239.87 C179.29 202.9, 210.4 168.92, 250.67 125.15 M155.93 240.23 C177.74 209.6, 203.76 178.6, 250.4 131.55 M155.93 240.23 C190.51 199.99, 223.73 158.57, 250.4 131.55 M161.58 239.83 C196.03 204.51, 227.94 160.29, 250.8 137.19 M161.58 239.83 C192.15 206.16, 224.78 167.57, 250.8 137.19 M166.56 240.19 C186.44 215.67, 201.53 196.37, 250.54 143.59 M166.56 240.19 C184.87 222.41, 202.15 200.58, 250.54 143.59 M172.21 239.8 C186.28 223.6, 209.31 205.99, 250.93 149.23 M172.21 239.8 C203.04 201.64, 233.02 168.22, 250.93 149.23 M177.19 240.16 C195.66 220.84, 211.82 201.44, 250.67 155.63 M177.19 240.16 C206.61 205.47, 236.86 174.02, 250.67 155.63 M182.84 239.76 C204.61 215.06, 220.81 191.18, 250.41 162.03 M182.84 239.76 C209.17 211.07, 236.82 181.03, 250.41 162.03 M187.82 240.12 C207.19 222.58, 220.83 206, 250.8 167.67 M187.82 240.12 C208.01 216.59, 226.11 195.77, 250.8 167.67 M193.47 239.73 C215.33 214.4, 233.82 194.85, 250.54 174.07 M193.47 239.73 C211.54 220.68, 228.63 197.5, 250.54 174.07 M198.45 240.09 C209.98 223.28, 228.07 209.18, 250.94 179.71 M198.45 240.09 C213.8 222.19, 228.62 203.16, 250.94 179.71 M204.1 239.69 C221.24 221.79, 238.41 196.86, 250.68 186.11 M204.1 239.69 C215.97 225.34, 229.57 212.46, 250.68 186.11 M209.08 240.05 C218.91 226.99, 230.5 208.4, 250.41 192.51 M209.08 240.05 C221.13 222.27, 234.81 207.82, 250.41 192.51 M214.73 239.66 C220.53 228.81, 227.96 225.21, 250.81 198.15 M214.73 239.66 C227.36 226.05, 240.15 211.41, 250.81 198.15 M219.71 240.02 C225.8 236.93, 231.53 226.5, 249.24 206.06 M219.71 240.02 C227.98 229.34, 234.98 219.3, 249.24 206.06 M225.36 239.62 C230.28 237.21, 235.94 230.17, 248.32 213.21 M225.36 239.62 C229.15 233.04, 237.74 225.11, 248.32 213.21 M232.31 237.72 C237.91 228.37, 239.67 227.25, 247.4 220.36 M232.31 237.72 C235.4 233.87, 239.2 226.8, 247.4 220.36" stroke="#ffc9c9" stroke-width="0.5" fill="none"></path><path d="M32 0 M32 0 C106.48 2.82, 180.91 2.08, 216.76 0 M32 0 C72.01 -2.23, 109.81 -1.22, 216.76 0 M216.76 0 C236.9 0.07, 247.9 7.04, 248.76 32 M216.76 0 C236.94 1.29, 252.71 14.36, 248.76 32 M248.76 32 C249.9 88.94, 248 143.04, 248.76 205.87 M248.76 32 C246.24 68.79, 247.6 102.92, 248.76 205.87 M248.76 205.87 C249.42 230.27, 241.67 234.56, 216.76 237.87 M248.76 205.87 C247.93 224.9, 239.3 233.57, 216.76 237.87 M216.76 237.87 C169.5 241.75, 116.53 234.98, 32 237.87 M216.76 237.87 C141.93 234.15, 68.65 235.53, 32 237.87 M32 237.87 C11.73 238, -3.38 223.9, 0 205.87 M32 237.87 C8.32 237.05, 3.28 228.74, 0 205.87 M0 205.87 C1.4 143.63, 2.12 79.82, 0 32 M0 205.87 C-3.64 162.35, -0.85 122.19, 0 32 M0 32 C1.67 10.64, 13.5 1.79, 32 0 M0 32 C-3.13 11.1, 10.08 -3.39, 32 0" stroke="#f08c00" stroke-width="1" fill="none"></path></g><g stroke-linecap="round" transform="translate(199.74451342056886 59.90159884421928) rotate(359.8657848032177 34.766368537455264 39.000000000000114)"><path d="M46.24 2.11 C52.47 4.11, 59.07 11.17, 62.86 17.61 C66.66 24.05, 69.23 33.33, 69 40.77 C68.78 48.21, 65.53 56.25, 61.49 62.26 C57.45 68.26, 51.28 74.69, 44.76 76.8 C38.25 78.91, 28.67 77.49, 22.4 74.93 C16.12 72.37, 10.81 67.64, 7.11 61.44 C3.4 55.23, 0.1 45.27, 0.16 37.7 C0.21 30.13, 3.28 22.18, 7.44 16.02 C11.6 9.85, 18.17 2.53, 25.13 0.68 C32.1 -1.16, 44.56 3.98, 49.23 4.94 C53.9 5.9, 53.18 5.84, 53.18 6.43 M29.59 0.17 C36.11 -1.15, 46.34 1.04, 52.53 4.51 C58.71 7.97, 63.82 13.95, 66.7 20.94 C69.57 27.93, 71.21 38.6, 69.79 46.43 C68.36 54.27, 63.14 62.56, 58.14 67.95 C53.15 73.35, 46.39 77.88, 39.83 78.83 C33.26 79.78, 24.64 77.35, 18.78 73.65 C12.92 69.96, 7.55 63.45, 4.66 56.68 C1.76 49.9, 0.23 40.8, 1.41 33 C2.59 25.2, 6.75 15.36, 11.76 9.87 C16.77 4.37, 28.35 1.53, 31.45 0.05 C34.55 -1.44, 30.33 0.48, 30.37 0.98" stroke="#000000" stroke-width="4" fill="none"></path></g><g transform="translate(224.65334493276362 76.32443437794382) rotate(359.8657848032177 9.774002075195312 22.500000000000114)"><text x="9.774002075195312" y="0" font-family="Virgil, HanziPen SC, Cangnanshoujiti, KaiTi, Segoe UI Emoji" font-size="36px" fill="#1e1e1e" text-anchor="middle" style="white-space: pre;" direction="ltr" dominant-baseline="text-before-edge">s</text></g><g stroke-linecap="round" transform="translate(76.27284743826351 158.55188180909659) rotate(359.8657848032177 34.766368537455264 37)"><path d="M37.55 0.98 C43.95 1.29, 52.2 5.54, 57.23 10.13 C62.27 14.73, 66.19 21.55, 67.76 28.55 C69.33 35.55, 69.37 45.57, 66.68 52.14 C63.98 58.7, 57.3 64.31, 51.59 67.97 C45.88 71.62, 39.03 74.67, 32.42 74.06 C25.81 73.46, 17.14 69.06, 11.93 64.33 C6.72 59.61, 2.62 52.89, 1.17 45.72 C-0.28 38.56, 0.73 27.96, 3.22 21.35 C5.71 14.74, 9.67 9.58, 16.11 6.05 C22.55 2.53, 36.77 0.59, 41.85 0.2 C46.93 -0.18, 46.68 2.99, 46.57 3.73 M22.7 2.63 C28.69 -0.64, 36.91 -1.97, 43.47 -0.18 C50.02 1.61, 57.81 7.54, 62.03 13.37 C66.26 19.21, 68.35 27.47, 68.82 34.82 C69.3 42.18, 68.23 51.39, 64.86 57.51 C61.49 63.63, 54.77 68.82, 48.61 71.53 C42.44 74.25, 34.46 75.38, 27.88 73.8 C21.31 72.22, 13.63 67.86, 9.16 62.06 C4.7 56.26, 1.54 46.45, 1.08 39 C0.62 31.55, 3 23.42, 6.42 17.36 C9.83 11.31, 18.85 5.18, 21.58 2.68 C24.31 0.18, 22.8 1.93, 22.8 2.35" stroke="#000000" stroke-width="4" fill="none"></path></g><g transform="translate(100.94493883815358 174.68893090519464) rotate(359.8657848032177 10.0107421875 20.700000000000045)"><text x="10.0107421875" y="0" font-family="Helvetica, Segoe UI Emoji" font-size="36px" fill="#1e1e1e" text-anchor="middle" style="white-space: pre;" direction="ltr" dominant-baseline="text-before-edge">u</text></g><g stroke-linecap="round" transform="translate(9.999993642729919 272.11002393039576) rotate(359.8657848032177 34.766368537455264 33.58784757008402)"><path d="M32.81 0.92 C39.18 0.01, 47.33 1.68, 53.09 5.25 C58.85 8.82, 64.98 16.26, 67.36 22.35 C69.74 28.43, 69.05 35.46, 67.36 41.76 C65.68 48.06, 62.43 55.99, 57.27 60.15 C52.1 64.31, 43.26 66.38, 36.35 66.72 C29.45 67.06, 21.48 65.93, 15.84 62.2 C10.21 58.46, 5.12 50.44, 2.54 44.31 C-0.05 38.19, -1.39 31.72, 0.34 25.43 C2.06 19.15, 6.49 10.66, 12.87 6.61 C19.24 2.56, 33.69 1.94, 38.57 1.11 C43.45 0.29, 42.43 1.33, 42.14 1.66 M33.3 -1.14 C39.66 -1.87, 48.8 1.83, 54.34 5.7 C59.88 9.57, 64.12 15.81, 66.54 22.06 C68.96 28.32, 70.39 36.94, 68.86 43.24 C67.33 49.55, 62.5 55.78, 57.36 59.9 C52.23 64.01, 44.8 67.44, 38.05 67.94 C31.3 68.44, 22.64 66.74, 16.86 62.91 C11.08 59.07, 5.77 51.28, 3.36 44.93 C0.96 38.58, 0.84 31.05, 2.42 24.81 C3.99 18.57, 7.59 11.8, 12.82 7.49 C18.05 3.17, 30.67 0.21, 33.79 -1.08 C36.91 -2.38, 31.61 -1.1, 31.55 -0.26" stroke="#000000" stroke-width="4" fill="none"></path></g><g stroke-linecap="round" transform="translate(138.94017151194123 272.11002393039576) rotate(359.8657848032177 34.766368537455264 33.58784757008402)"><path d="M47.64 2.39 C53.85 4.39, 61.22 11.36, 64.69 16.94 C68.17 22.52, 68.98 29.36, 68.49 35.87 C68.01 42.39, 66.1 51.02, 61.76 56.03 C57.43 61.04, 49.24 64.43, 42.5 65.94 C35.75 67.44, 27.51 67.76, 21.29 65.06 C15.08 62.35, 8.89 55.34, 5.21 49.72 C1.52 44.1, -1.32 37.82, -0.8 31.32 C-0.27 24.83, 3.61 15.66, 8.37 10.73 C13.13 5.81, 20.71 2.89, 27.78 1.78 C34.84 0.66, 46.69 3.44, 50.76 4.05 C54.83 4.65, 52.46 4.79, 52.22 5.4 M33.46 0.46 C39.69 -0.05, 47.15 2.31, 52.84 5.97 C58.52 9.64, 64.88 16.38, 67.57 22.44 C70.26 28.5, 70.54 36.02, 68.97 42.34 C67.4 48.65, 63.33 56.02, 58.13 60.32 C52.92 64.62, 44.58 68.03, 37.74 68.15 C30.89 68.26, 22.74 64.78, 17.07 61.03 C11.39 57.27, 6.35 51.6, 3.71 45.61 C1.07 39.61, -0.45 31.56, 1.22 25.05 C2.88 18.54, 8.68 10.86, 13.72 6.53 C18.75 2.2, 28.18 -0.05, 31.42 -0.92 C34.67 -1.79, 32.99 0.66, 33.2 1.31" stroke="#000000" stroke-width="4" fill="none"></path></g><g stroke-linecap="round"><g transform="translate(90.19002874954208 221.79117209137962) rotate(0 -14.699016175697636 25.70253787351203)"><path d="M0 0 C-4.9 8.57, -24.5 42.84, -29.4 51.41 M0 0 C-4.9 8.57, -24.5 42.84, -29.4 51.41" stroke="#000000" stroke-width="4" fill="none"></path></g></g><mask></mask><g stroke-linecap="round"><g transform="translate(132.0657605177272 220.76380341209074) rotate(0 15.119516105778814 25.627078436147485)"><path d="M0 0 C5.04 8.54, 25.2 42.71, 30.24 51.25 M0 0 C5.04 8.54, 25.2 42.71, 30.24 51.25" stroke="#000000" stroke-width="4" fill="none"></path></g></g><mask></mask><g stroke-linecap="round" transform="translate(331.1231299089586 158.55188180909659) rotate(359.8657848032177 34.76636853745521 37)"><path d="M3.87 17.94 C3.87 17.94, 3.87 17.94, 3.87 17.94 M3.87 17.94 C3.87 17.94, 3.87 17.94, 3.87 17.94 M4 43.33 C12.24 32.56, 23.86 18.1, 30.45 11.63 M3.52 42.61 C8.1 37.34, 15.62 29.54, 30.63 12.1 M9.35 60.61 C24.26 42.78, 36.18 28.8, 55.51 10.7 M11.05 58.47 C19.52 48.33, 29.86 36.82, 52.62 9.41 M18.62 70.73 C37.93 52, 54.52 30.76, 67.28 17.88 M20.11 72.6 C35.08 56.63, 48.27 40.05, 68.62 17.64 M35.13 79.74 C45.3 64.38, 57.07 51.28, 70.6 37.45 M34.34 79.1 C43.15 70.77, 51.61 60.61, 72.96 37.3" stroke="#ffc9c9" stroke-width="2" fill="none"></path><path d="M43.42 1.15 C50.01 2.28, 56.71 6.7, 61.1 12.23 C65.48 17.76, 69.08 27.2, 69.73 34.33 C70.37 41.46, 68.68 48.75, 64.98 55.01 C61.27 61.28, 53.86 69.02, 47.48 71.92 C41.1 74.82, 33.09 74.03, 26.71 72.43 C20.33 70.83, 13.65 67.64, 9.18 62.31 C4.71 56.98, 0.71 47.91, -0.13 40.47 C-0.97 33.02, 0.62 23.75, 4.14 17.64 C7.65 11.53, 14.01 6.34, 20.98 3.8 C27.96 1.26, 41.41 2.25, 45.99 2.41 C50.58 2.57, 48.63 4.3, 48.5 4.76 M43.53 1.39 C50.06 2.48, 58.06 8.24, 62.51 13.88 C66.97 19.52, 69.8 28.3, 70.27 35.24 C70.74 42.19, 68.83 49.59, 65.33 55.54 C61.82 61.48, 55.71 68.05, 49.26 70.93 C42.82 73.81, 33.31 74.67, 26.66 72.82 C20 70.96, 13.96 65.47, 9.33 59.8 C4.7 54.13, -0.51 45.74, -1.11 38.8 C-1.72 31.86, 1.95 24.23, 5.7 18.15 C9.45 12.07, 14.97 5.08, 21.38 2.32 C27.78 -0.44, 40.63 1.74, 44.15 1.57 C47.67 1.4, 42.87 0.81, 42.49 1.31" stroke="#f08c00" stroke-width="4" fill="none"></path></g><g transform="translate(356.8059634963487 174.68893090519464) rotate(359.8657848032177 9 20.700000000000045)"><text x="9" y="0" font-family="Helvetica, Segoe UI Emoji" font-size="36px" fill="#f08c00" text-anchor="middle" style="white-space: pre;" direction="ltr" dominant-baseline="text-before-edge">x</text></g><g stroke-linecap="round" transform="translate(266.7862006002739 272.11002393039576) rotate(359.8657848032177 34.766368537455264 33.58784757008402)"><path d="M3.97 18.02 C3.97 18.02, 3.97 18.02, 3.97 18.02 M3.97 18.02 C3.97 18.02, 3.97 18.02, 3.97 18.02 M2.95 43.72 C11.21 32.95, 19.65 24.06, 28.93 11.36 M3.28 42.72 C10.01 35.84, 15.37 29.84, 30.62 12.88 M11.86 57.99 C24.72 42.92, 41.88 26.56, 50.83 11.39 M10.72 58.77 C24.01 43.82, 35.53 29.19, 53.03 11.93 M26.54 65.77 C38.74 50.38, 50.55 38.1, 68.33 15.79 M26.09 66.91 C39.53 49.99, 55.07 33.37, 68.59 17.62 M36.98 74.06 C44.05 66.34, 51.05 60.1, 72.26 35.35 M38.45 76.18 C47.47 65.9, 56.01 57.51, 73.23 35.14" stroke="#ffc9c9" stroke-width="2" fill="none"></path><path d="M20.15 2.75 C25.72 -0.24, 34.94 0.09, 41.66 1.25 C48.39 2.4, 56.06 4.82, 60.51 9.67 C64.95 14.51, 67.58 23.74, 68.31 30.32 C69.04 36.9, 67.92 43.39, 64.89 49.16 C61.86 54.94, 56.28 62.04, 50.12 64.97 C43.96 67.89, 34.86 68.19, 27.94 66.72 C21.02 65.26, 13.24 60.86, 8.61 56.16 C3.97 51.47, 0.89 44.97, 0.15 38.57 C-0.58 32.17, 0.79 23.66, 4.2 17.75 C7.61 11.84, 17.43 5.7, 20.63 3.12 C23.83 0.54, 22.95 1.78, 23.39 2.25 M49.25 3.35 C55.46 5.43, 61.69 11.7, 65.21 17.01 C68.74 22.33, 70.85 28.92, 70.4 35.26 C69.96 41.6, 67.1 49.91, 62.54 55.05 C57.98 60.19, 49.72 64.69, 43.06 66.1 C36.4 67.5, 29.11 66.15, 22.6 63.5 C16.08 60.85, 7.61 55.53, 3.95 50.21 C0.29 44.89, -0.07 38.07, 0.62 31.6 C1.31 25.13, 3.58 16.4, 8.1 11.37 C12.62 6.35, 21.15 3.02, 27.74 1.47 C34.34 -0.08, 44.39 1.8, 47.67 2.07 C50.95 2.34, 47.51 2.3, 47.42 3.08" stroke="#f08c00" stroke-width="4" fill="none"></path></g><g stroke-linecap="round" transform="translate(396.2734528599209 272.11002393039666) rotate(359.8657848032177 34.766368537455264 39)"><path d="M16.96 5.47 C16.96 5.47, 16.96 5.47, 16.96 5.47 M16.96 5.47 C16.96 5.47, 16.96 5.47, 16.96 5.47 M0.22 48.17 C12.79 34.55, 22.78 20.85, 39.08 3.76 M1.26 48.3 C9.84 38.86, 18.08 29.97, 41.32 1.91 M8.06 64.5 C27.9 44.95, 41.68 24.22, 56.45 10.58 M9.36 63.13 C18.36 51.55, 30.2 40.75, 56.1 8.21 M19.91 73.65 C30.59 62.5, 42.35 47.91, 69.55 18.23 M19.26 75.76 C37.86 55.01, 54.44 35.71, 67.98 18.85 M33.41 81.01 C45.49 69.66, 57.73 55.21, 72.52 36.1 M35.38 81.7 C45.42 71.47, 54.16 59.39, 74.7 37.89" stroke="#ffc9c9" stroke-width="2" fill="none"></path><path d="M39.04 0.9 C45.56 1.11, 53.82 4.08, 58.62 9.29 C63.43 14.5, 66.64 24.59, 67.89 32.13 C69.13 39.67, 68.65 47.57, 66.08 54.54 C63.51 61.5, 58.39 70.02, 52.47 73.92 C46.55 77.81, 37.55 78.99, 30.56 77.9 C23.56 76.81, 15.48 72.42, 10.49 67.36 C5.49 62.31, 1.82 54.95, 0.58 47.59 C-0.67 40.23, 0.3 30.2, 3.01 23.2 C5.72 16.21, 10.1 9.34, 16.85 5.6 C23.6 1.86, 38.35 1.08, 43.52 0.78 C48.69 0.48, 47.93 3.05, 47.87 3.81 M39.6 1.29 C46.04 1.32, 54.18 4.45, 59.27 9.4 C64.36 14.35, 68.93 23.38, 70.14 30.99 C71.34 38.61, 69.36 48.29, 66.49 55.1 C63.62 61.91, 59.06 68.22, 52.9 71.83 C46.75 75.44, 36.42 77.35, 29.56 76.76 C22.7 76.16, 16.6 73.37, 11.76 68.29 C6.91 63.2, 1.74 53.76, 0.5 46.26 C-0.74 38.76, 1.51 30.24, 4.32 23.29 C7.13 16.34, 11.68 8.42, 17.36 4.57 C23.05 0.72, 34.81 0.59, 38.44 0.19 C42.08 -0.21, 39.19 1.59, 39.17 2.18" stroke="#f08c00" stroke-width="4" fill="none"></path></g><g transform="translate(420.786280648971 288.5328594641212) rotate(359.8657848032177 10.170005798339844 22.5)"><text x="10.170005798339844" y="0" font-family="Virgil, HanziPen SC, Cangnanshoujiti, KaiTi, Segoe UI Emoji" font-size="36px" fill="#1e1e1e" text-anchor="middle" style="white-space: pre;" direction="ltr" dominant-baseline="text-before-edge">t</text></g><g stroke-linecap="round"><g transform="translate(345.0389165770521 221.79025292228357) rotate(0 -14.697542840341384 25.69688897837591)"><path d="M0 0 C-4.9 8.57, -24.5 42.83, -29.4 51.39 M0 0 C-4.9 8.57, -24.5 42.83, -29.4 51.39" stroke="#f08c00" stroke-width="4" fill="none"></path></g></g><mask></mask><g stroke-linecap="round"><g transform="translate(386.8832439954923 220.7863336278749) rotate(0 16.121361076114113 25.76125455330748)"><path d="M0 0 C5.37 8.59, 26.87 42.94, 32.24 51.52 M0 0 C5.37 8.59, 26.87 42.94, 32.24 51.52" stroke="#f08c00" stroke-width="4" fill="none"></path></g></g><mask></mask><g stroke-linecap="round"><g transform="translate(204.28249378116095 113.26243997808638) rotate(0 -33.416806683301104 26.308415913038743)"><path d="M0 0 C-11.14 8.77, -55.69 43.85, -66.83 52.62 M0 0 C-11.14 8.77, -55.69 43.85, -66.83 52.62" stroke="#000000" stroke-width="4" fill="none"></path></g></g><mask></mask><g stroke-linecap="round"><g transform="translate(265.4561669757678 114.10200449368244) rotate(0 34.79699756490106 27.551064622364038)"><path d="M0 0 C11.6 9.18, 57.99 45.92, 69.59 55.1 M0 0 C11.6 9.18, 57.99 45.92, 69.59 55.1" stroke="#000000" stroke-width="4" fill="none"></path></g></g><mask></mask><g stroke-linecap="round"><g transform="translate(356.8957891531286 164.95231164565416) rotate(0 -130.26706431778376 -77.44931727620826)"><path d="M-0.78 0.05 C-26.26 -24.72, -108.84 -149.13, -152.53 -150.46 C-196.21 -151.78, -244.37 -31.1, -262.91 -7.89 M3.98 -2.39 C-20.61 -27.86, -102.32 -153.31, -147.07 -154.94 C-191.83 -156.56, -245.13 -36.45, -264.52 -12.15" stroke="#1e1e1e" stroke-width="1" fill="none"></path></g><g transform="translate(356.8957891531286 164.95231164565416) rotate(0 -130.26706431778376 -77.44931727620826)"><path d="M-258.56 -44.07 C-259.46 -31.9, -259.35 -23.92, -265.91 -13.41 M-257.04 -41.38 C-258.75 -33.97, -261.38 -27.34, -266.29 -11.61" stroke="#1e1e1e" stroke-width="1" fill="none"></path></g><g transform="translate(356.8957891531286 164.95231164565416) rotate(0 -130.26706431778376 -77.44931727620826)"><path d="M-241.03 -33.41 C-247.26 -24.66, -252.61 -20.01, -265.91 -13.41 M-239.51 -30.71 C-245.04 -25.54, -251.32 -21.13, -266.29 -11.61" stroke="#1e1e1e" stroke-width="1" fill="none"></path></g></g><mask></mask><g transform="translate(480.2848816514262 211.47068196547366) rotate(0 126.00005340576172 22.5)"><text x="0" y="0" font-family="Virgil, HanziPen SC, Cangnanshoujiti, KaiTi, Segoe UI Emoji" font-size="36px" fill="#f08c00" text-anchor="start" style="white-space: pre;" direction="ltr" dominant-baseline="text-before-edge">已经访问过的点</text></g></svg>